<svg xmlns="http://www.w3.org/2000/svg" viewBox="0 -320 572 1362"><path d="M493,229Q493,301,453.0,343.5Q413,386,345,400V404Q431,414,473.0,458.0Q515,502,515,573Q515,635,486.0,683.5Q457,732,396.5,759.0Q336,786,241,786Q185,786,137.0,777.5Q89,769,45,747V665Q90,687,142.0,699.5Q194,712,242,712Q338,712,380.5,674.5Q423,637,423,571Q423,504,370.5,474.5Q318,445,223,445H154V370H224Q312,370,357.5,333.0Q403,296,403,235Q403,183,368.0,154.5Q333,126,273,126Q215,126,174.0,143.0Q133,160,93,186L49,126Q87,96,143.5,74.0Q200,52,272,52Q384,52,438.5,102.0Q493,152,493,229Z"/></svg>
