<?xml version="1.0" encoding="UTF-8"?><svg xmlns="http://www.w3.org/2000/svg" viewBox="0 0 572 1000"><path d="M493,453Q493,525,453.0,567.5Q413,610,345,624V628Q431,638,473.0,682.0Q515,726,515,797Q515,859,486.0,907.5Q457,956,396.5,983.0Q336,1010,241,1010Q185,1010,137.0,1001.5Q89,993,45,971V889Q90,911,142.0,923.5Q194,936,242,936Q338,936,380.5,898.5Q423,861,423,795Q423,728,370.5,698.5Q318,669,223,669H154V594H224Q312,594,357.5,557.0Q403,520,403,459Q403,407,368.0,378.5Q333,350,273,350Q215,350,174.0,367.0Q133,384,93,410L49,350Q87,320,143.5,298.0Q200,276,272,276Q384,276,438.5,326.0Q493,376,493,453Z"/></svg>