<svg xmlns="http://www.w3.org/2000/svg" viewBox="0 -320 572 1362"><path d="M55,471Q55,394,68.5,319.5Q82,245,117.5,184.5Q153,124,217.0,88.0Q281,52,382,52Q403,52,428.5,54.0Q454,56,470,61V136Q452,130,429.5,127.0Q407,124,384,124Q315,124,269.0,147.0Q223,170,196.5,210.0Q170,250,158.0,302.0Q146,354,143,413H149Q172,378,213.0,353.5Q254,329,318,329Q411,329,468.0,385.5Q525,442,525,546Q525,658,463.5,722.0Q402,786,298,786Q230,786,175.0,752.0Q120,718,87.5,648.0Q55,578,55,471ZM297,712Q360,712,399.0,671.5Q438,631,438,546Q438,478,403.5,438.0Q369,398,300,398Q253,398,218.0,417.5Q183,437,163.5,467.0Q144,497,144,529Q144,572,161.0,614.5Q178,657,212.0,684.5Q246,712,297,712Z"/></svg>
