<?xml version="1.0" encoding="UTF-8"?><svg xmlns="http://www.w3.org/2000/svg" viewBox="0 0 572 1000"><path d="M55,695Q55,618,68.5,543.5Q82,469,117.5,408.5Q153,348,217.0,312.0Q281,276,382,276Q403,276,428.5,278.0Q454,280,470,285V360Q452,354,429.5,351.0Q407,348,384,348Q315,348,269.0,371.0Q223,394,196.5,434.0Q170,474,158.0,526.0Q146,578,143,637H149Q172,602,213.0,577.5Q254,553,318,553Q411,553,468.0,609.5Q525,666,525,770Q525,882,463.5,946.0Q402,1010,298,1010Q230,1010,175.0,976.0Q120,942,87.5,872.0Q55,802,55,695ZM297,936Q360,936,399.0,895.5Q438,855,438,770Q438,702,403.5,662.0Q369,622,300,622Q253,622,218.0,641.5Q183,661,163.5,691.0Q144,721,144,753Q144,796,161.0,838.5Q178,881,212.0,908.5Q246,936,297,936Z"/></svg>