<svg xmlns="http://www.w3.org/2000/svg" viewBox="0 -320 572 1362"><path d="M285,52Q379,52,439.0,96.0Q499,140,499,223Q499,266,480.5,298.0Q462,330,431.0,354.5Q400,379,363,398Q407,419,443.0,445.5Q479,472,500.5,507.0Q522,542,522,591Q522,681,458.5,733.5Q395,786,288,786Q173,786,111.0,735.5Q49,685,49,594Q49,545,69.5,509.0Q90,473,124.0,447.0Q158,421,197,403Q145,373,108.5,330.5Q72,288,72,222Q72,167,100.0,129.5Q128,92,176.0,72.0Q224,52,285,52ZM284,123Q229,123,193.5,149.5Q158,176,158,226Q158,263,175.5,288.0Q193,313,223.0,330.5Q253,348,289,364Q341,342,376.5,311.0Q412,280,412,226Q412,176,377.0,149.5Q342,123,284,123ZM135,595Q135,647,172.0,681.5Q209,716,286,716Q359,716,397.5,681.5Q436,647,436,592Q436,540,395.0,505.5Q354,471,286,445L270,439Q204,467,169.5,503.5Q135,540,135,595Z"/></svg>
