<?xml version="1.0" encoding="UTF-8"?><svg xmlns="http://www.w3.org/2000/svg" viewBox="0 0 572 1000"><path d="M285,276Q379,276,439.0,320.0Q499,364,499,447Q499,490,480.5,522.0Q462,554,431.0,578.5Q400,603,363,622Q407,643,443.0,669.5Q479,696,500.5,731.0Q522,766,522,815Q522,905,458.5,957.5Q395,1010,288,1010Q173,1010,111.0,959.5Q49,909,49,818Q49,769,69.5,733.0Q90,697,124.0,671.0Q158,645,197,627Q145,597,108.5,554.5Q72,512,72,446Q72,391,100.0,353.5Q128,316,176.0,296.0Q224,276,285,276ZM284,347Q229,347,193.5,373.5Q158,400,158,450Q158,487,175.5,512.0Q193,537,223.0,554.5Q253,572,289,588Q341,566,376.5,535.0Q412,504,412,450Q412,400,377.0,373.5Q342,347,284,347ZM135,819Q135,871,172.0,905.5Q209,940,286,940Q359,940,397.5,905.5Q436,871,436,816Q436,764,395.0,729.5Q354,695,286,669L270,663Q204,691,169.5,727.5Q135,764,135,819Z"/></svg>