<?xml version="1.0" encoding="UTF-8"?><svg xmlns="http://www.w3.org/2000/svg" viewBox="0 0 572 1000"><path d="M520,591Q520,668,506.5,742.5Q493,817,457.5,877.5Q422,938,357.5,974.0Q293,1010,192,1010Q172,1010,145.5,1007.5Q119,1005,102,1000V925Q141,938,190,938Q260,938,305.5,915.0Q351,892,378.0,852.5Q405,813,417.0,760.5Q429,708,431,650H425Q403,684,361.5,708.5Q320,733,255,733Q163,733,106.5,676.5Q50,620,50,517Q50,442,78.5,388.0Q107,334,158.0,305.0Q209,276,278,276Q346,276,401.0,310.5Q456,345,488.0,414.5Q520,484,520,591ZM278,350Q216,350,176.5,391.0Q137,432,137,516Q137,585,170.5,624.5Q204,664,274,664Q322,664,357.0,644.5Q392,625,411.5,595.0Q431,565,431,533Q431,490,414.0,448.0Q397,406,363.0,378.0Q329,350,278,350Z"/></svg>