<svg xmlns="http://www.w3.org/2000/svg" viewBox="0 -320 572 1362"><path d="M520,367Q520,444,506.5,518.5Q493,593,457.5,653.5Q422,714,357.5,750.0Q293,786,192,786Q172,786,145.5,783.5Q119,781,102,776V701Q141,714,190,714Q260,714,305.5,691.0Q351,668,378.0,628.5Q405,589,417.0,536.5Q429,484,431,426H425Q403,460,361.5,484.5Q320,509,255,509Q163,509,106.5,452.5Q50,396,50,293Q50,218,78.5,164.0Q107,110,158.0,81.0Q209,52,278,52Q346,52,401.0,86.5Q456,121,488.0,190.5Q520,260,520,367ZM278,126Q216,126,176.5,167.0Q137,208,137,292Q137,361,170.5,400.5Q204,440,274,440Q322,440,357.0,420.5Q392,401,411.5,371.0Q431,341,431,309Q431,266,414.0,224.0Q397,182,363.0,154.0Q329,126,278,126Z"/></svg>
