<?xml version="1.0" encoding="UTF-8"?><svg id="d" xmlns="http://www.w3.org/2000/svg" viewBox="0 0 46 220"><path d="M6.04,143.36s-.18,3.32-.3,5.26,.06,5.74-.18,11.6,.91,11.3,.91,11.3c0,0,16.55,.18,19.21,.24s14.01,.12,14.01,.12c0,0,1.27-14.13,1.45-16.91s1.39-11.3-.12-12.68-14.98-1.81-19.75-1.63-13.23,1.51-15.22,2.72Z"/><path d="M6.1,65.74s-.24,8.34-.36,11.3,0,14.32,.85,16.91c0,0,16.67,.12,20.9,.18s12.38,.12,12.38,.12c0,0,1.03-13.65,1.21-16.37s1.21-11.72,.06-13.29c0,0-5.07-2.17-18-1.57s-17.03,2.72-17.03,2.72Z"/></svg>