<?xml version="1.0" encoding="UTF-8"?><svg id="d" xmlns="http://www.w3.org/2000/svg" viewBox="0 0 55 220"><path d="M8.71,142.89s0,6.7-.27,8.76-1.41,14.49-.27,17.3,1.89,2.65,4.65,2.7,20.54-.43,22.86-.27,5.46,.38,7.51,.22c0,0,.49-23.41,.65-25.41s.05-4.65,.05-4.65c0,0-11.73-.22-16.59-.76s-14.16,0-18.59,2.11Z"/><path d="M6.66,132.51s8.65,.05,13.62-.32,15.03-.32,17.51-.65,5.3-.27,5.95-.38c0,0-1.3-36.76-1.19-45.24s.27-44.54,.27-46.92,.54-30.65,.7-31.46c0,0-6.16-1.95-12.7-1.95s-13.78,.92-14.16,.97-10.43,0-10.43,0c0,0-1.08,24.97-1.08,31.78s-.11,40.49,.27,49.95,0,24.54,.16,28.65,1.08,15.57,1.08,15.57Z"/></svg>