<?xml version="1.0" encoding="UTF-8"?><svg id="d" xmlns="http://www.w3.org/2000/svg" viewBox="0 0 151 220"><path d="M123.02,86.32c-22.91-5.59-33.36,9.8-34.78,13.36,1.5-4.63,13.08-40.22,16.95-49.69,4.14-10.14,11.11-36.32,11.76-37.62,.65-1.3-.57-1.62-.97-2.03,0,0,.81-1.22,1.78-1.62,0,0-5.59-3.32-17.19-2.76-11.59,.57-18.65-.73-19.46-1.05,0,0-6,22.46-9.81,32.03-3.81,9.57-5.03,15.32-4.95,15.73,0,0-4.22,13.14-5.19,14.92,0,0,3.97-13.54,.89-31.54S44.29,10.27,31.39,11.65,9.83,21.14,6.91,31.68s-2.59,26.03-2.59,26.03c1.14,13.78,2.51,23.03,11.59,29.59s22.86,7.46,30.57,2.11c7.7-5.35,10.7-11.03,11.51-13.22,0,0-16.22,43.78-19.46,53.51-3.24,9.73-8.59,22.62-7.22,21,0,0-6.32,15.16-5.19,18.49,1.14,3.32,.97,2.92,6.24,2.76s20.27,0,22.78-.16c2.51-.16,5.27-.89,5.92-1.14,.65-.24,1.38-2.84,1.78-3.65,.41-.81,13.86-34.78,14.68-36.81,.81-2.03,8.03-23.27,8.03-23.27,0,0-2.84,17.59-1.95,24.08,.89,6.49,1.7,12.89,1.86,14.11,.16,1.22,3.08,18.49,24.41,20.84,21.32,2.35,29.84-18.32,31.54-29.68,1.7-11.35,4.22-42-18.41-49.95ZM37.35,58.61c-.08,.81-.64,10.95-2.98,12.97-2.34,2.01-3.7-2.09-3.62-4.03,.08-1.93-.4-13.37-1.13-20.13-.72-6.77,.16-12.97,.16-12.97,1.05-.32,2.82-2.74,2.82-2.74,1.05-.08,1.61,.72,1.61,.72-2.42,2.82,1.77,2.17,1.77,2.17,1.61,6.04,1.45,23.19,1.37,24Zm79.33,69.5c-.16,5.72-.97,15.79-3.46,16.99s-3.22-2.66-3.14-4.67c.08-2.01-.81-15.79-.97-17.88-.16-2.09-.56-10.31-.08-14.74,.97-.4,2.9-2.9,2.9-2.9,1.37,0,1.53,.89,1.53,.89-2.26,2.34,1.61,2.17,1.61,2.17,1.21,3.14,1.77,14.42,1.61,20.13Z"/></svg>