<?xml version="1.0" encoding="UTF-8"?><svg id="d" xmlns="http://www.w3.org/2000/svg" viewBox="0 0 46 220"><path d="M5.13,65.74s-.24,8.34-.36,11.3,0,14.32,.85,16.91c0,0,16.67,.12,20.9,.18s12.38,.12,12.38,.12c0,0,1.03-13.65,1.21-16.37s1.21-11.72,.06-13.29c0,0-5.07-2.17-18-1.57s-17.03,2.72-17.03,2.72Z"/><path d="M5.98,142.39s-1.27,26.94-1.09,28.21c0,0,5.98,1.09,10.99,1.39,0,0-.77,6.62-2.09,10.73s-2.09,10.63-.81,11.76c0,0,10.67,.04,12.48,.08s5.44,.56,8.94,2.46c0,0,1.61-10.27,2.78-15.06s1.53-8.98,1.73-9.74,.64-2.5,.64-2.5l1.37-27.46-11.4-.93s-13.97-2.09-23.56,1.07Z"/></svg>