<?xml version="1.0" encoding="utf-8"?>
<!-- Generator: Adobe Illustrator 27.4.0, SVG Export Plug-In . SVG Version: 6.00 Build 0)  -->
<svg version="1.0" id="レイヤー_1" xmlns="http://www.w3.org/2000/svg" xmlns:xlink="http://www.w3.org/1999/xlink" x="0px"
	 y="0px" width="841.89px" height="595.28px" viewBox="0 0 841.89 595.28" style="enable-background:new 0 0 841.89 595.28;"
	 xml:space="preserve">
<g>
	<path d="M133.03,300.7c6.47,0,12.94,0,19.41,0c1.79,0,3.61,0.16,4.44-2.02c0.16-0.43,0.63-0.81,1.05-1.06
		c5.5-3.33,5.53-3.31,8.52-9.7c1.06-2.27,2.14-2.11,3.55-0.34c1.9,2.39,3.46,2.71,4.21-0.84c0.05-0.25,0-0.65,0.14-0.73
		c2.62-1.46,4.79-3.1,5.23-6.5c0.12-0.9,1.75,0.15,1.79,0.9c0.12,2.12,1.71,3.38,2.48,5.06c1.23,2.71,2.03,3.1,3.57,0.41
		c0.19-0.33,0.48-0.95,0.6-0.92c2.76,0.64,4.14-1.06,5.51-3c0.42-0.59,1.55-0.07,1.57,0.39c0.08,2.92,3.34,3.77,3.97,5.86
		c0.86,2.87,2.26,2.25,3.83,1.45c3.05-1.54,6.44-1.54,9.62-1.88c2.51-0.27,3.16-1.3,3.72-3.2c0.32-1.08,0.61-2.25,1.25-3.15
		c1.04-1.47,2.32-2.13,3.35,0.13c0.16,0.34,0.35,0.68,0.52,1.01c0.93,1.83,1.22,5.39,3.34,4.81c2.54-0.69,6.5-1.04,6.81-5.28
		c0.06-0.84,0.68-1.32,1.57-1.36c1.24-0.06,1.48,0.8,1.52,1.73c0.12,2.67,1.48,2.03,3,1.2c3.26-1.79,5.46-4.16,6.99-7.84
		c12.73-30.57,29.82-58.75,48.17-86.2c38.92-58.2,86.8-107.71,143.95-148.2c9.95-7.05,20.28-13.51,30.96-19.4
		c2.81-1.55,4.24-3.39,4.24-6.8c0-4.17,0.87-8.33,1.11-12.51c0.18-3.08,1.44-3.26,3.76-1.96c0.99,0.56,2.08,0.94,3.13,1.37
		c7.5,3.1,7.31,3.07,6.24,10.98c-2.85,21.01-5.55,42.03-8.25,63.06c-2.97,23.16-5.94,46.33-8.78,69.51
		c-2.5,20.41-4.84,40.85-7.24,61.27c-1.2,10.21-2.36,20.43-3.52,30.65c-0.11,0.97-0.1,1.94-0.17,3.35
		c13.61-8.39,24.63-19.58,37.88-28.7c-0.82,2.65-2.31,4.2-3.53,5.87c-4.5,6.14-9.12,12.2-13.59,18.37
		c-4.66,6.44-11.04,10.37-18.43,12.79c-2.34,0.76-3.54,1.86-3.59,4.46c-0.08,3.8-0.52,7.6-0.87,12.23
		c8.36-8.63,18.61-13.96,26.64-22.06c2.63-2.65,4.18-5.99,5.58-9.42c3.82-9.37,8.53-18.13,16.65-24.62c2.08-1.66,3.9-3.67,4.96-6.19
		c0.42-0.99,1.07-1.77,1.95-2.27c7.14-4.05,12.97-9.75,19.01-15.2c1.01,0.96-0.01,1.44-0.37,1.86
		c-5.83,6.87-10.94,14.32-17.59,20.52c-7.56,7.04-11.72,16.18-14.16,26.06c-2.01,8.14-6.27,14.82-11.98,20.8
		c-9.4,9.85-19.57,18.91-29.31,28.41c-1.17,1.14-2.55,2.16-3.09,3.79c-2.24,6.75-1.21,8.28,5.77,8.25c3.41-0.02,6.57,0.71,9.45,2.41
		c1.71,1.01,3.03,1.08,4.78-0.06c4.29-2.79,9.14-3.05,13.94-1.96c2.34,0.53,4.04,0.35,5.91-1.16c4.83-3.9,10.39-5.69,16.63-5.32
		c1.13,0.07,2.31,0.05,3.4-0.21c1.73-0.42,2.22-1.46,1.07-3.03c-2.59-3.53-6.2-5.06-11.6-5.34c5.79-2.43,10.78-2.89,15.83-2.69
		c2.91,0.12,6.57-0.41,8.57,1.1c5.03,3.79,13.07,3.93,14.88,11.75c0.34,1.48,1.29,2.17,2.85,2.56c3.17,0.81,6.3,1.84,9.36,3.01
		c2.37,0.9,3.89,2.7,4.23,5.24c-34.22,0-68.3,0.07-102.37-0.1c-3.95-0.02-4.93,1.05-5.21,4.95c-1.69,23.19-3.7,46.35-5.66,69.51
		c-0.45,5.29-0.55,5.24,4.72,5.19c30.77-0.29,61.55-0.69,92.27-2.63c6.34-0.4,12.67-1.04,19.01-1.47c1.66-0.11,2.27-0.87,2.92-2.36
		c1.96-4.53,6.77-5.6,10.68-2.56c2.24,1.74,3.8,4.07,5.34,6.42c3.69,5.61,7.55,11.12,11.08,16.83c5.86,9.46,15.17,14.3,24.66,18.97
		c1.59,0.78,3.2,1.52,4.79,2.31c0.32,0.16,0.57,0.46,1.28,1.07c-6.26,0.68-12.19,0.85-17.9,2.07c-8.54,1.82-15.64-0.47-22.84-5.02
		c-8.72-5.52-18.06-10.08-27.96-15.52c8.13-0.99,15.28-1.86,22.64-2.75c-0.89-2.95-2.24-4.51-5.84-4.11
		c-24.02,2.62-48.13,3.87-72.28,4.42c-16.65,0.38-33.31,0.61-49.97,0.95c-1.61,0.03-3.72-0.65-3.72,2.36c0,1.99,0.23,3,2.61,2.91
		c4.81-0.18,9.64-0.05,14.82-0.05c-0.74,2.03-2.19,3.24-3.5,4.48c-2.58,2.45-5,5.18-7.92,7.15c-6.49,4.39-8.2,10.43-7.51,17.81
		c0.21,2.25,0.9,2.64,2.92,2.65c23.91,0.07,47.82-0.23,71.71-1.22c16.38-0.67,32.77-1.38,49.09-2.81c25.52-2.23,51.05-4.6,76.26-9.4
		c2.86-0.54,5.75-0.97,8.86-1.49c-0.34-2.37-1.96-4.2-2.86-6.33c-0.48-1.14-1.37-0.97-2.24-0.66c-10.05,3.66-19.08,1.42-27.83-4.2
		c-5.42-3.47-11.34-6.16-16.97-9.3c-1.6-0.89-3.31-1.84-3.94-4.15c12.51-1.72,24.92-3.16,37.37-5.78c-0.97-2.81-1.87-4.42-5.57-3.78
		c-10.74,1.85-21.61,2.97-32.39,4.65c-3.68,0.57-5.76-0.58-6.89-4.18c13.32-1.83,26.66-3.07,39.75-5.69
		c-0.88-4.57-3.58-4.79-7.53-4.18c-10.91,1.68-21.91,2.75-32.85,4.28c-3.56,0.5-4.71-1.9-5.99-4.15c-1.11-1.95,1.06-1.7,1.83-1.81
		c6.15-0.91,12.33-1.62,18.49-2.46c6.25-0.85,12.49-1.77,18.89-2.68c-0.29-0.98-0.57-1.79-0.78-2.62c-0.95-3.76,0.21-6.73,3.16-8.07
		c2.93-1.34,6.41-0.5,8.36,2.54c2.45,3.84,4.58,7.88,6.7,11.91c12.15,23.1,24.39,46.15,37.56,68.7c2.48,4.24,3.96,8.63-0.07,12.9
		c-0.65,0.69-0.6,1.33-0.04,2.01c0.72,0.87,1.37,0.19,2.01-0.12c4.3-2.11,5.89-8.19,3.44-13.68c-2.54-5.68-6.41-10.61-9.32-16.08
		c-0.41-0.76-2.64-2.17,0.37-2.85c0.5-0.11,0.53-2.04-0.63-2.02c-4.25,0.07-4.7-3.48-6.35-6.15c7.7-1.97,15.27-3.83,22.81-5.85
		c12.61-3.37,24.8-8.02,37.09-12.32c2.97-1.04,4.45-1.19,5.67,2.4c5.04,14.94,15.35,26.53,25.14,38.42c0.21,0.26,0.6,0.38,1.3,0.8
		c7.47-31.11,7.39-62.26,3.96-94.32c-1.86,1.69-3.35,2.97-4.75,4.34c-8.34,8.22-16.44,16.62-22.23,26.95
		c-1.43,2.55-3.05,5.08-3.57,7.95c-0.71,3.91-3.27,4.94-6.65,5.98c-7.21,2.23-14.28,1.15-21.43,0.17
		c-13.96-1.92-27.9-3.82-41.54-7.55c-4.26-1.16-8.24-3.94-13.16-1.99c-1.46,0.58-2.63-1.69-2.69-3.08
		c-0.07-1.63,1.71-0.96,2.71-1.14c34.61-6.22,68.66-14.18,99.52-32.07c0.54-0.31,1.06-0.66,1.38-1.51
		c-4.55,1.61-9.12,3.17-13.64,4.84c-29.34,10.77-59.41,18.76-90.21,24.05c-4.66,0.8-4.81-2.95-6.69-5.65
		c12.15-2.79,23.99-5.29,35.71-8.31c25.83-6.66,50.78-15.77,75.32-26.11c2.79-1.17,5.72-2.07,8.66-2.81
		c6.1-1.54,9.72,0.43,11.82,6.43c2.61,7.47,3.53,15.29,4.47,23.09c2.26,18.62,2.34,37.31,0.74,55.96
		c-1.86,21.73-7.28,42.22-22.19,59.13c-3.3,3.74-7.04,6.94-10.87,10.1c-1.58,1.3-2.73,1.21-4.38,0.35
		c-15.56-8.11-32.09-11.9-49.62-10.5c-15.35,1.23-29.85,5.71-43.58,12.59c-2.56,1.28-4.49,1.21-7.04-0.11
		c-14.25-7.33-29.07-12.65-45.48-11.79c-11.14,0.58-21.73,3.58-32.11,7.37c-1.94,0.71-3.38,0.73-5.28-0.12
		c-12.75-5.72-25.87-9.74-40.14-8.04c-5.69,0.68-11.29,1.74-16.59,3.93c-1.31,0.54-2.32,0.54-3.59,0.13
		c-22.3-7.18-44.54-5.68-66.73,0.54c-1.56,0.44-2.94,0.94-4.62-0.23c-6.65-4.62-13.45-3.64-20.07,0.1
		c-3.75,2.12-7.31,4.55-10.95,6.86c-1.63,1.04-3.13,1.13-4.97,0.22c-24.73-12.14-50.26-14.04-76.55-5.83
		c-4.71,1.47-9.49,2.75-14.17,4.31c-2.06,0.69-3.73,0.64-5.77-0.3c-13.4-6.2-27.31-10.35-42.31-8.94
		c-10.1,0.95-20.14,2.37-29.18,7.48c-1.51,0.85-2.65,0.01-3.92-0.48c-7.69-2.98-15.43-5.73-23.61-7.1
		c-12.44-2.09-24.52,0.13-36.58,2.8c-0.74,0.16-1.53,0.23-2.22,0.52c-9.92,4.03-19.86,5.45-29.64-0.22
		c12.79-11.65,28.58-13.43,46.2-10.87c-2.58-3.29-5.48-4.52-8.15-5.93c-9.43-4.96-19.04-9.59-27.74-15.83
		c-30.47-21.87-50.73-51.13-62.3-86.58c-5.19-15.9-9.13-32.14-12.38-48.77c1.09,1.51,2.42,2.89,3.24,4.54
		c5.41,10.88,14.83,16.91,25.45,21.75c28.06,12.78,57.54,20.89,87.57,27.3c22.46,4.79,45.06,8.79,67.91,11.17
		c16.04,1.67,32.15,2.72,48.22,4.12c15.46,1.35,30.96,1.72,46.46,2.13c1.25,0.03,3.24,0.99,3.53-1.59c0.28-2.43-1.29-3.02-3.15-3.41
		c-0.12-0.03-0.25-0.06-0.37-0.09c-11.17-2.32-22.35-4.61-33.51-6.98c-28.43-6.02-56.07-14.72-83.36-24.63
		c-1.98-0.72-2.33-1.51-1.68-3.48c3.7-11.17,7.22-22.4,10.91-33.57c1.71-5.18,2.74-5.09-3.84-5.12
		c-29.89-0.15-59.77-0.23-89.66-0.33c-2.02-0.01-4.03,0-6.05,0C132.92,301.65,132.98,301.17,133.03,300.7z M352.32,294.6
		c0.52,0.65,1.04,1.29,1.9,2.37c0-3.03,0-5.53,0-8.03c0.7-0.07,0.65-0.63,0.72-1.11c1.6-11.89,2.81-23.85,4.88-35.66
		c4.34-24.73,10.56-49.02,18.52-72.85c12.22-36.59,27.18-72.02,44.54-106.45c0.99-1.97,2.24-3.91,2.22-6.29
		c-0.71,0.69-1.22,1.49-1.67,2.31c-4.78,8.78-9.33,17.67-13.6,26.72c-26.91,57.08-47.81,116.03-55.32,179.09
		c-0.49,4.09-1.85,8.23-0.45,12.42c-1.87,0.4-0.95,1.94-1.17,2.98c-0.32,1.49,0.61,3.14-0.57,4.55c-0.25,3.64-0.2,7.26,0.91,11.26
		C353.3,301.79,353.42,298.15,352.32,294.6z M368.28,292.23c2.1,2.37,0.76,5.46,1.63,8.38c1.02-5.24-0.37-10.19-0.05-15.45
		c0.67,1.59-0.17,3.11,1.12,4.65c-0.04-7.59,0.97-14.74,1.52-21.92c1.32-17.2,4.43-34.15,7.27-51.12
		c4.38-26.08,12.48-51.16,21.45-75.97c9.37-25.92,21.25-50.73,33.52-75.36c1.4-2.8,2.95-5.56,3.45-8.73
		c-0.65,0.65-1.06,1.41-1.49,2.15c-12.66,22.23-23.41,45.39-32.83,69.14c-13.18,33.23-23.76,67.22-28.82,102.74
		c-2.31,16.18-4.83,32.33-5.55,48.7c-0.19,4.28-0.79,8.53-1.21,12.81c-0.54,8.08-0.03,16.12,0.95,24.14
		C369.47,308.32,369.31,300.26,368.28,292.23z M353.71,131.83c-3.81,7.69-7.73,15.32-11.42,23.07
		c-15.49,32.48-26.32,66.51-33.5,101.72c-0.55,2.7-2.12,5.71,0.43,9.19c-0.22-2.32,0.43-3.81,0.76-5.37
		c6.54-31.31,15.17-61.98,28.19-91.28c5.64-12.69,11.37-25.33,17.06-37.99c2.32-4.39,5.58-8.07,8.85-11.76
		c10.35-11.66,22.27-21.66,33.72-32.17c15.26-14,31.57-26.67,48.76-38.2c4.51-3.03,9.13-5.9,13.7-8.84
		c-4.12,9.63-8.72,18.63-13.13,27.72c-22.28,45.91-39.95,93.39-48.96,143.84c-5.07,28.36-7.23,56.9-6.6,85.68
		c0.38,17.42,2,34.75,3.37,52.1c0.73,9.22,2.4,18.36,3.31,27.58c0.37,3.77,2.83,2.83,4.87,2.81c3.09-0.03,1.58-2.5,1.4-3.65
		c-3.69-22.98-5.55-46.12-6.94-69.33c-2.16-36.13,1.21-71.84,8.21-107.22c6.5-32.84,17.25-64.41,30.08-95.3
		c9.83-23.66,21.6-46.36,33.86-68.82c1.39-2.55,3.11-5.02,2.99-8.71c-2.71,1.45-5.06,2.63-7.33,3.94
		c-25.78,14.97-49.34,33.01-71.47,52.85c-38.88,34.84-73.05,73.75-100.81,118.17c-23.05,36.88-41.45,75.7-51.31,118.26
		c-1.32,5.67-2.34,11.42-3.5,17.13c-0.75,3.65,2.3,3.85,4.39,4.37c2.72,0.67,1.6-1.9,1.88-3.06c0.51-2.09,0.66-4.26,1.02-6.39
		c3.23-19.44,8.9-38.2,16.16-56.46c15.35-38.63,36.17-74.22,60.69-107.68c4.39-5.99,8.5-12.27,14.33-17.09
		c0.13,1.51-0.83,2.62-1.46,3.82c-14.41,27.25-24.02,56.28-31.64,86.02c-1.03,4.02-2.14,8.07-2.5,12.9c0.69-0.76,0.94-0.9,0.98-1.09
		c7.55-33.63,18.85-65.96,33.74-97.05c0.79-1.65,2.13-3.24,1.61-5.33c1.71-2.28,3.27-4.68,5.15-6.81
		C346.18,139.39,349.1,134.8,353.71,131.83z M409.1,297.47c8.88-2.5,16.56-2.3,22.69,4.54c-8.07,0.46-16.05,0.53-24.03,0.41
		c-2.15-0.03-2.74,0.43-2.62,2.72c1.28,23.99,3.85,47.82,7.98,71.49c0.61,3.48,1.69,5.43,5.71,4.85c2.74-0.4,5.6-0.26,8.38-0.05
		c2.65,0.2,3.37-0.74,3.56-3.37c1.67-22.94,3.44-45.87,5.34-68.79c0.41-4.96,1.81-9.98-4.61-12.81c6.31-1.55,6.26-1.55,6.81-7.74
		c0.31-3.54,0.84-7.06,1.22-10.6c0.69-6.44,1.35-12.89,2.03-19.34c-3.63,4.58-8.88,4.18-13.55,5.46c0.93-1.51,2.26-2.49,3.45-3.62
		c7.41-7.06,10.98-15.92,12.09-25.94c1.57-14.13,3.1-28.27,4.83-42.38c2.66-21.67,5.44-43.32,8.24-64.97
		c1.9-14.72,3.92-29.43,5.87-44.15c1.07-8.06,2.09-16.12,3.14-24.18c-34.57,66.41-57.94,135.95-60.82,212.2
		c7.13-5.61,14.37-6.2,21.98-4.13c6.22,1.69,8.17,6.11,5.41,11.95c-2.65,5.6-7.42,8.89-12.7,11.58
		C415.97,292.38,412.58,294.29,409.1,297.47z M303.16,423.19c6.97-4.72,13.84-8.27,18.54-14.04c4.88-6,10.36-8.13,17.7-6.55
		c2.41,0.52,3.76-0.43,3.73-3.19c-0.03-3.09-2.3-1.82-3.56-1.84c-17.29-0.35-34.59-0.91-51.79-2.63
		c-26.52-2.64-53.06-5.23-79.36-9.73c-23.61-4.04-47.05-8.89-70.15-15.27c-9.69-2.68-19.32-5.63-28.91-8.55
		c51.12,21.33,105.41,28.98,159.85,36.51c-0.83,1.16-1.98,1.4-3.01,1.8c-12.61,4.93-25.94,7.69-38.51,12.77
		c-0.66,0.27-1.52,0.22-2.25,0.09c-20.59-3.7-41.11-7.65-61.22-13.59c-31.24-9.22-59.37-23.5-81.37-48.21
		c-0.67-0.76-1.43-1.44-2.17-2.14c-0.74-0.7-1.51-1.37-2.27-2.05c4.87,10.06,11.77,18.36,20.09,25.57
		c15.59,13.5,33.75,22.25,52.94,29.2c22.91,8.29,46.53,13.74,70.41,18.29c19.94,3.8,39.99,6.82,60.16,8.92
		c17.43,1.81,34.89,3.4,52.37,4.55c13.94,0.92,27.9,1.92,41.9,1.74c1.66-0.02,3.41,0.55,4.04-2.14c0.38-1.62,7.93-0.97,8.16,0.74
		c0.27,1.94,1.29,1.82,2.55,1.83c11.31,0.11,22.63,0.19,33.94,0.33c1.75,0.02,2.6-0.56,2.51-2.4c-0.06-1.39-0.11-2.82,0.11-4.19
		c0.46-2.9-0.58-4.5-3.31-5.86c-9.09-4.54-17.59-10.11-25.87-15.98c-1.27-0.9-2.59-1.79-3.54-3.59c10.62,0,20.78,0,30.94,0
		c1.64,0,3.25,0.32,3.29-2.35c0.04-2.77-1.72-2.27-3.27-2.3c-11.06-0.22-22.12-0.4-33.18-0.61c-4.82-0.09-5.42,0.68-4.41,5.47
		c0.28,1.31,0.98,2.24,1.87,3.19c3.5,3.72,7.46,6.85,11.62,9.79c5.53,3.91,11.62,6.93,18.01,11.07c-9.92,0-18.91-0.02-27.9,0.03
		c-1.23,0.01-2.31-0.33-3.55,1.18c-1.75,2.15-4.82,0.68-7.24,0.6c-1.72-0.05-1.01-2.25-1.14-3.44c-0.21-1.9-0.87-2.94-2.83-3.26
		c-0.97-0.16-1.91-0.69-2.77-1.21c-7.47-4.56-15.11-8.89-21.11-15.47c-0.76-0.83-1.65-2.04-2.76-1.69c-1.37,0.43-0.61,1.96-0.69,3
		c-0.12,1.53,0.47,3.37-1.37,3.2c7.46,5.32,14.6,11.95,23.58,15.85c-0.11,0.35-0.22,0.71-0.33,1.06c-15.52-0.67-31.04-1.33-46.72-2
		c0.46-1.74,1.68-1.95,2.61-2.49c4.41-2.54,8.33-5.77,12.46-8.71c3.73-2.66,4.16-6.06,2.96-10.44c-2.07,1.67-3.55,3.91-5.52,5.58
		c-6.2,5.27-13.42,9.09-20.09,13.7c-0.9,0.62-1.84,0.88-2.88,0.63C311.1,423.17,307.65,423.59,303.16,423.19z M73.33,334.13
		c1.68,4.51,4.45,7.02,11.1,10.58c11.29,6.04,23.21,10.59,35.33,14.58c28.23,9.3,57.17,15.64,86.42,20.75
		c15.49,2.7,31.03,5.01,46.65,6.67c15.01,1.59,30.04,3.16,45.09,4.28c14.32,1.06,28.66,1.84,43.03,1.93
		c2.2,0.01,2.43-0.88,2.43-2.71c0.01-1.8-0.15-2.7-2.35-2.73c-21.74-0.36-43.41-1.96-65.08-3.7c-17.85-1.44-35.64-3.46-53.38-5.82
		c-19.98-2.65-39.76-6.55-59.41-11.07c-25.07-5.77-49.76-12.71-73.18-23.62C84.51,340.71,79.44,337.41,73.33,334.13z M570.56,388.27
		c-1.3-4.52-4.31-4.95-8.07-4.49c-5.16,0.64-10.36,1.03-15.56,1.35c-24.11,1.48-48.23,2.42-72.38,2.66
		c-8.52,0.08-17.03,0.18-25.55,0.35c-1.33,0.03-3.03-0.58-3.25,1.98c-0.24,2.75,0.33,3.61,3.31,3.63
		c30.26,0.25,60.47-1.26,90.68-2.66C549.99,390.62,560.29,390.05,570.56,388.27z M451.28,47.38c-1.07,1.84-2.22,3.64-3.21,5.52
		c-21.76,41.33-39.56,84.28-52.59,129.17c-10.29,35.45-16.78,71.56-18.92,108.43c-0.16,2.79-0.15,5.6-0.03,8.39
		c0.12,2.78,0.49,5.54,0.76,8.31C380.98,214.58,410.35,129.42,451.28,47.38z M412.5,76.43c-0.65,1.07-1.32,2.13-1.94,3.22
		c-23.37,41.47-39.29,85.88-51.67,131.66c-5.58,20.63-9.45,41.6-12.04,62.79c-0.59,4.78-1.99,9.7,0.24,14.45
		C354.89,213.58,379.51,143.8,412.5,76.43z M393.61,93.57c-0.4-0.17-0.8-0.34-1.2-0.51c-4.55,8.73-9.36,17.35-13.62,26.22
		c-21.51,44.76-38.26,91.13-46.25,140.34c-0.87,5.34-3.09,10.78-0.8,16.67C341.19,211.41,363.32,151.12,393.61,93.57z
		 M377.91,110.44c-0.35-0.11-0.69-0.23-1.04-0.34c-0.27,0.39-0.58,0.76-0.8,1.17c-15.36,28.09-27.63,57.49-37.02,88.09
		c-7.38,24.04-12.81,48.54-16.5,73.4c-0.55,3.71-2.07,7.63,0.05,11.89C330.66,223.04,349.96,165.39,377.91,110.44z M408.45,388.26
		c0-0.2,0-0.39,0-0.59c-5.96,0-11.92,0.1-17.87-0.05c-2.18-0.06-2.97,0.59-2.78,2.75c0.15,1.73-0.38,3.41,2.56,3.4
		c12.04-0.03,24.09,0.13,36.13,0.37c2.58,0.05,3.1-0.88,3.2-3.28c0.12-2.9-1.56-2.61-3.36-2.61
		C420.37,388.27,414.41,388.26,408.45,388.26z M365.34,393.22c0,0.09,0,0.19,0.01,0.28c4.05,0.21,8.11,0.33,12.15,0.67
		c1.48,0.12,1.99-0.15,2.06-1.71c0.13-2.68,0-4.71-3.64-4.27c-1.98,0.24-4.05-0.17-6.07-0.23c-5.45-0.18-10.91-0.17-16.35-0.55
		c-3.12-0.22-2.51,1.75-2.86,3.55c-0.49,2.5,0.99,2.28,2.54,2.27C357.23,393.21,361.29,393.22,365.34,393.22z M364.6,398.15
		c0-0.03,0-0.07-0.01-0.1c-3.93,0-7.86,0.14-11.77-0.05c-2.35-0.12-2.21,1.16-2.39,2.78c-0.2,1.84,0.62,1.92,2.09,2.06
		c8.08,0.81,16.19,0.73,24.29,0.76c1.44,0,3.39,0.81,3.35-2.12c-0.03-2.67-1.55-2.65-3.42-2.72
		C372.7,398.62,368.65,398.36,364.6,398.15z M304.51,210.3c-7.06,17.29-12.07,35.16-15.31,53.54
		C293.51,245.76,298.49,227.88,304.51,210.3z M371.35,382.97c0.02-0.21,0.05-0.41,0.07-0.62c-6.07-0.87-12.13-1.74-18.2-2.61
		c-0.63-0.09-1.37-0.2-1.55,0.59c-0.2,0.88,0.54,0.97,1.18,1.02C359.02,381.89,365.18,382.43,371.35,382.97z M475.21,443.14
		c0-0.07,0-0.14-0.01-0.21c-8.1,0-16.19,0-24.29,0c0,0.07,0,0.14,0,0.21C459.01,443.14,467.11,443.14,475.21,443.14z M446.96,444.9
		c0.05,0.05,0.09,0.11,0.14,0.16c6.28,0,12.56,0,18.84,0c0-0.05,0-0.11,0-0.16C459.61,444.9,453.28,444.9,446.96,444.9z"/>
	<path d="M659.93,302.29c-7.63,0-15.26-0.05-22.88,0.03c-2.39,0.03-4.31-0.32-5.9-2.45c-1.18-1.58-3.06-2.64-4.6-3.96
		c-1.06-0.9-2.34-1.74-2.06-3.39c0.28-1.65,0.07-2.77-1.97-2.7c-1.09,0.04-1.02-0.85-1.15-1.6c-1.17-6.72-6.1-9.29-12.01-10.45
		c-5.25-1.03-10.6-1.32-15.91-0.31c-2.14,0.4-3.71-0.07-4.91-1.89c-2.65-4.02-6.39-6.85-10.43-9.3c-3.32-2-5.98-4.67-8.46-7.6
		c-3.93-4.66-7.79-9.4-11.96-13.85c-6.29-6.72-8.75-15.25-11.95-23.52c-4.24-10.95-5.46-22.4-6.6-33.91
		c-0.07-0.74-0.34-1.59,0.47-2.07c0.83-0.49,1.41,0.19,2.01,0.63c5.51,4.14,11.62,7.18,17.81,10.13c4.27,2.04,6.86,5.98,9.74,9.5
		c2.13,2.6,4.41,4.86,7.56,6.18c2.13,0.89,4.36,2.09,5.22,4.24c2,4.94,5.95,5.15,9.97,4.11c4.23-1.09,7.11,0.09,9.41,3.5
		c5.23,7.74,12.81,12.24,21.05,16.22c8.98,4.34,15.87,11.12,20.63,20.12c4.63,8.77,10.63,16.01,20.57,19.77
		c9.3,3.52,16.49,10.35,22.27,18.48c0.77,1.07,2.32,2.22,1.62,3.57c-0.59,1.14-2.32,0.51-3.53,0.52
		c-8.01,0.05-16.02,0.02-24.03,0.02C659.93,302.31,659.93,302.3,659.93,302.29z M541.25,189.06c-0.15,2.6,0.56,4.51,1.6,6.23
		c3.19,5.24,4.52,10.93,4.59,17c0.04,3.54,1.22,6.75,3.32,9.55c9.24,12.33,19.94,22.59,35.68,26.18c6.07,1.39,11.88,3.68,15.67,9.21
		c0.54,0.79,1.49,1.44,2.4,1.8c10.81,4.3,20.52,9.91,25.8,22.2c-0.94-8.94-5.31-14.38-11.59-18.61c-3.58-2.41-7.33-4.52-11.33-6.13
		c-1.21-0.49-2.41-0.94-3.11-2.05c-5.26-8.25-13.45-12.94-21.6-17.61c-6.3-3.61-11.5-8.33-15.36-14.47
		c-3.92-6.22-7.95-12.38-11.5-18.81C552.4,197.35,547.46,192.89,541.25,189.06z"/>
	<path d="M531.5,533.31c-7.92,0.42-15.48-1.19-23.11-1.97c-15.92-1.63-31.79-3.86-47.87-3.47c-7.95,0.19-15.63,1.43-23.04,4.39
		c-30.39,12.12-62.21,15.32-94.55,14.55c-17.17-0.41-33.47-5.33-49.4-11.53c-7.31-2.85-14.52-6.08-22.24-7.7
		c-6.13-1.29-12.22-1.03-17.65,2.47c-17.99,11.6-38.1,16.02-59.04,18.02c-19.66,1.88-38.42-0.87-56.34-9.35
		c-8.6-4.07-17.65-6.95-26.86-9.42c-19.71-5.28-35.35,1.38-48.43,15.96c-1.5,1.67-2.86,3.48-4.5,5.49
		c-2.03-8.27-0.22-14.99,5.94-20.51c13.98-12.51,29.91-16.21,48.04-11.2c9.79,2.71,19.19,6.42,28.51,10.34
		c28,11.76,56.31,12.31,85.06,2.87c7.92-2.6,15.09-6.48,22.16-10.71c7.21-4.32,14.9-6.43,23.3-4.77c6.84,1.36,13.46,3.48,19.86,6.3
		c23.18,10.2,47.34,15.61,72.77,14.73c22.45-0.78,44.49-3.85,65.26-12.86c15.56-6.75,31.53-7.87,48.04-5.27
		c18.17,2.86,35.64,8.56,53.43,12.94C531.05,532.64,531.17,532.93,531.5,533.31z"/>
	<path d="M286.39,592.08c9.3-2.42,18.61-4.76,27.89-7.26c34.18-9.2,68.74-16.64,103.67-22.28c18.66-3.01,37.46-5.15,56.17-7.86
		c15.31-2.22,30.31-5.97,45.33-9.56c6.65-1.59,13.36-2.92,20-4.54c13.07-3.2,25.02-8.88,36.02-16.64c4.05-2.86,8.37-5.26,12.95-7.18
		c6.29-2.63,12.64-3.14,19.33-1.37c15.68,4.13,30.82,9.87,46.14,15.08c21.97,7.46,44.57,9.24,67.6,7.62
		c13.84-0.98,27.43-3.08,40.77-6.9c13.97-4.01,25.99-10.67,33.22-24.12c2.34,8.75-1.03,18.8-8.06,24.16
		c-8.93,6.81-19.48,9.76-30.19,11.84c-24.29,4.72-48.82,6.87-73.55,4.66c-16.3-1.46-31.68-6.74-46.93-12.38
		c-9.62-3.56-19.19-7.25-29.33-9.18c-8.07-1.54-15.89-0.94-22.65,3.82c-20.81,14.68-44.64,20.59-69.2,24.62
		c-33.45,5.5-67.18,9.07-100.61,14.64c-32.15,5.35-64.23,11.13-96.14,17.81C308.16,589.28,297.52,591.78,286.39,592.08z"/>
	<path d="M522.01,267.54c12.82-7.91,24.46-6.91,34.94,3.26c4.86,4.72,10.28,6.31,16.84,5.59c3.98-0.43,7.79,0.73,11.3,2.71
		c2.72,1.54,5.47,2.12,8.71,1.81c5.41-0.52,10.89-0.82,16.29,0.54c4.45,1.12,7.65,3.37,8.07,8.31c0.19,2.25,0.85,3.68,3.13,5
		c2.96,1.71,5.22,4.61,7.67,6.89c-0.38,0.98-0.94,0.86-1.41,0.86c-20.09-0.07-40.19-0.19-60.28-0.2c-2.49,0-4.08-0.58-5.38-2.99
		c-2.34-4.35-6.35-6.86-11.13-7.9c-2.43-0.53-3.98-1.63-5.1-3.93c-1.67-3.43-4.44-5.81-8.24-6.81c-0.96-0.25-1.98-0.34-2.09-1.72
		c-0.53-6.77-2.72-9.26-9.17-10.58C524.9,268.16,523.67,267.89,522.01,267.54z"/>
	<path d="M776.31,514.22c-7.1,7.97-13.59,6.26-21.67,0.37c-11.44-8.34-24.21-14.83-38.31-17.91c-20.17-4.39-39.55-1.08-58.48,6.27
		c-7.33,2.85-14.4,6.27-21.2,10.22c-2.59,1.5-4.91,1.99-7.84,0.88c-2.92-1.11-6.1-1.55-9.27-2.31
		c20.31-12.16,41.07-23.06,64.62-27.09c16.67-2.85,32.79-0.62,48.31,6.24c10.94,4.83,20.97,11.24,31.19,17.33
		C767.81,510.7,771.99,513.03,776.31,514.22z"/>
	<path d="M564.46,521.45c-6.04,4.48-12.09,6.63-19.38,4.16c-7.22-2.45-13.38-6.64-19.53-10.9c-10.66-7.38-21.45-14.58-34.13-18.05
		c-23.76-6.49-47.14-3.94-69.88,4.43c-5.63,2.07-9.76,1.83-14.18-1.58c-0.8-0.62-1.68-1.12-2.75-1.82
		c11.64-5.55,23.58-9.58,36.02-12.11c19.74-4.02,39.31-4.19,58.54,2.67c9.99,3.56,19.08,8.87,27.71,14.94
		c10.77,7.56,22.17,13.73,34.94,17.18C562.62,520.58,563.38,521,564.46,521.45z"/>
	<path d="M426.54,517.77c-4.46,1.18-8.47,2.22-12.47,3.32c-1.56,0.43-2.67-0.4-3.87-1.12c-9.14-5.46-18.27-10.94-27.86-15.59
		c-22.16-10.75-44.92-11.11-68.19-4.28c-9.63,2.83-19,6.31-28.07,10.57c-2.3,1.08-4.34,1.35-6.88,0.66
		c-3.49-0.95-7.17-1.17-11.05-1.75c17.45-9.21,34.75-17.6,53.79-22.3c23.55-5.81,45.45-2.38,66.54,8.88
		c8.84,4.72,17.35,9.99,25.91,15.18C418.18,513.63,421.96,515.92,426.54,517.77z"/>
	<path d="M216.71,590.78c36.83-12.94,74.39-22.22,112.53-29.25c30.66-5.65,61.29-11.46,91.94-17.14c26.47-4.9,53.13-6.94,80.02-4.83
		c1.47,0.12,3.03-0.01,4.77,1c-13.1,1.02-25.74,2.68-38.42,3.96c-22.87,2.31-45.55,5.81-68.12,10.12
		c-27.15,5.19-54.36,10.08-81.54,15.09c-28.68,5.29-57.21,11.25-85.58,18.03C227.17,589.01,221.91,589.79,216.71,590.78z"/>
	<path d="M252.42,510.3c-4.93,0.16-7.87,2.08-10.47,4.59c-1.9,1.84-3.25,1.97-5.69,0.22c-17.5-12.53-36.53-20.9-58.63-19.88
		c-15.21,0.7-29.65,4.85-42.52,12.77c-8.47,5.21-16.61,6.93-25.91,3.95c-0.47-0.15-1-0.12-1.52-0.18c0.08-0.28,0.07-0.63,0.21-0.71
		c16.79-8.78,32.82-19.14,51.36-24.3c23.54-6.56,45.33-2.12,66.23,9.55C233.96,501.06,241.95,506.77,252.42,510.3z"/>
	<path d="M381.96,592.62c37.15-9.86,74.14-17.42,110.94-25.8c30.88-7.03,61.73-14.23,91.27-25.97c12.94-5.14,25.92-5.15,39.07-0.75
		c9.95,3.33,20.01,6.38,30.01,9.57c1.19,0.38,2.33,0.9,3.39,1.86c-10.76-1.88-21.55-3.57-32.27-5.68
		c-15.06-2.96-29.67-2.33-44.14,3.35c-31.19,12.25-63.98,18.58-96.65,25.18c-30.08,6.07-60.27,11.63-90.43,17.32
		C389.69,592.35,386.16,592.95,381.96,592.62z"/>
	<path d="M489.67,402.89c18.17-0.34,35.15-1,52.09-2.37c2.77-0.22,4.86,0.48,7.18,2.27c9.16,7.03,19.49,12.2,29.65,17.61
		c1.08,0.57,2.37,0.88,3.2,2.18c-3.87,1.31-7.87,0.99-11.72,1.27c-10.88,0.8-21.8,1.15-32.7,1.67c-1.66,0.08-3.27-0.09-4.81-0.86
		c-12.25-6.06-24.53-12.06-36.77-18.13C494.01,405.64,492.36,404.5,489.67,402.89z"/>
	<path d="M634.18,240.32c8.63,4.91,17.26,9.84,25.9,14.73c4.18,2.36,8.28,4.89,13.04,6.05c2.31,0.56,4.14,1.99,5.18,4.17
		c4.04,8.4,11.04,13.01,19.73,15.38c4.27,1.16,7.55,3.59,9.89,7.23c6.01,9.33,13.72,14.96,25.57,13.13c3.96-0.61,8.1-0.1,12.15-0.1
		c0,0.44,0.01,0.87,0.01,1.31c-6.04,0-12.08,0.01-18.12,0c-10.8-0.01-21.6-0.07-32.4-0.01c-1.85,0.01-2.98-0.58-3.99-2.17
		c-6.32-9.99-14.06-18.58-24.36-24.69c-1.92-1.14-3.64-2.82-5.07-4.56C653.04,260.21,644.58,249.46,634.18,240.32z"/>
	<path d="M313.4,552.54c-9.86-1.69-19.74-3.21-29.56-5.1c-13.98-2.69-27.54-2.14-41.25,2.42c-23.74,7.89-48.46,11.91-72.91,16.89
		c-21.23,4.33-42.34,9.15-63.43,14.09c-3.32,0.78-6.68,1.42-10.26,0.74c11.54-3.36,22.96-7.26,34.65-10
		c36.73-8.6,73.23-18.09,109.71-27.64c5.87-1.54,11.54-3.71,17.61-4.61c10.34-1.53,20.18,0.34,29.89,3.64
		c8.6,2.93,17.2,5.84,25.8,8.76C313.57,552,313.48,552.27,313.4,552.54z"/>
	<path d="M520.83,426.85c-13.96,0.31-27.91,0.68-41.87,0.9c-9.4,0.15-18.8,0.12-28.2,0.12c-1.06,0-2.62,0.6-3.08-0.56
		c-0.54-1.35,0.95-2.21,1.86-3.01c5.03-4.47,10.01-9,14.49-14.04c0.42-0.47,1.04-0.85,1.28-1.4c2.31-5.07,6.32-6.38,11.58-5.9
		c1.95,0.18,3.44,0.24,5.03,1.68c5.31,4.8,11.68,7.99,18.04,11.13c6.98,3.46,14.05,6.74,21.09,10.09
		C520.97,426.2,520.9,426.52,520.83,426.85z"/>
	<path d="M131.13,490.1c-19.21,6.41-36.98,16.31-56.43,21.95c4.8-3.24,9.69-6.15,14.04-10.71c-5.29,1.26-9.87,3.06-14.69,4.04
		c-4.15,0.85-7.29-0.3-9.85-3.3c-3.43-4.04-5.44-8.75-6.15-14.55c8.22,5.4,16.43,3.15,24.42,1.01
		C98.84,484.14,114.9,486.7,131.13,490.1z"/>
	<path d="M634.06,494.71c-7.8,4.39-15.22,9.16-23.18,13.02c-1.56,0.76-2.62,0.11-3.92-0.36c-12.67-4.58-24.33-11.29-36.43-17.19
		C585.87,481.91,617.6,484.13,634.06,494.71z"/>
	<path d="M120.48,592.66c10.49-2.51,19.95-4.64,29.34-7.05c20.97-5.37,41.56-12.19,62.73-16.76c15.6-3.36,30.91-7.94,46.66-10.65
		c10.14-1.75,20.26-1.13,30.39-0.18c4.29,0.4,8.57,0.97,13.37,1.52c-4.4,1.58-8.58,1.29-12.61,1.5
		c-24.22,1.24-47.56,7.41-71.21,12.03c-27.38,5.35-54.31,12.62-81.73,17.71C132.18,591.76,126.91,592.53,120.48,592.66z"/>
	<path d="M735.99,555.87c-2.05,0.52-4.08,1.19-6.16,1.54c-59.26,9.88-118.44,20.13-176.67,35.19c-0.95,0.24-2.01,0.03-2.83,0.03
		c37.88-11.88,76-23.51,115.38-30.24C688.93,558.42,712.36,556.17,735.99,555.87z"/>
	<path d="M589.07,508.36c-3,1.33-5.9,2.46-8.64,3.89c-1.45,0.75-2.41,0.14-3.5-0.47c-12.48-6.85-25.58-11.59-40-11.96
		c-0.75-0.02-1.66-0.01-2.21-0.42c-7-5.2-14.41-9.74-22.75-13.92c14.49-3.23,27.61-0.56,40.39,4.5
		C565.09,495.05,576.81,502.13,589.07,508.36z"/>
	<path d="M475.37,592.75c38.48-11.73,76.74-23.29,115.32-33.71c16.29-4.4,32.87-3.7,49.46-0.31c-4.61,0.61-9.2,1.58-13.83,1.78
		c-22.74,1-44.41,7.35-66.38,12.53c-24.88,5.87-49.47,12.89-74.41,18.52C482.33,592.3,479.08,592.93,475.37,592.75z"/>
	<path d="M791.99,544.93c-4.46,6.47-10.67,10.77-17.84,13.58c-20.35,7.97-41.29,13.91-62.75,18.11
		c-20.77,4.07-41.47,8.54-62.22,12.7c-4.81,0.96-9.63,2.22-14.72,1.49c9.84-2.64,19.65-5.38,29.52-7.89
		c26.27-6.67,52.84-12.21,78.85-19.86c12.14-3.57,24.22-7.44,36.05-12.01C783.37,549.32,787.55,547,791.99,544.93z"/>
	<path d="M287.21,491.27c-9.13,4.33-17.78,8.42-26.41,12.55c-1.11,0.53-2.21,0.76-3.28,0.23c-9.5-4.68-18.98-9.4-28.6-14.18
		C244.3,483.21,265.75,483.69,287.21,491.27z"/>
	<path d="M651.55,518.17c27.98-19.36,72.67-17,102.43,5.13C720.73,509.4,686.68,510.97,651.55,518.17z"/>
	<path d="M651.71,385.99c18.19,5.83,35.93,9.44,54.57,11.46c-2.77,2.05-5.54,2.47-8.12,3.28c-10.11,3.18-20.4,5.7-30.7,8.21
		c-1.36,0.33-2.63,0.95-3.57-0.78C660.06,401.1,655.53,394.42,651.71,385.99z"/>
	<path d="M749.65,490.99c1.95-2.99,4.36-3.63,7.8-2.79c7.77,1.9,15.72,2.6,23.74,2.24c5.03-0.23,9.73-1.42,14.38-5.56
		c-1.56,9.4-4.64,16.82-11.14,22.62c-1.59,1.42-3.16,1.22-4.9,0.55c-4.61-1.77-9.01-3.96-13.19-6.61
		C760.8,497.91,755.22,494.46,749.65,490.99z"/>
	<path d="M398.92,522.33c-32.39-12.69-65.44-10.68-98.75-5.19c16.16-6.59,32.32-13.21,50.16-11.93
		C367.96,506.48,383.74,513.67,398.92,522.33z"/>
	<path d="M231.66,522.38c-30.36-12.7-61.54-10.62-93.83-4.66C163.41,499.67,205.86,501.9,231.66,522.38z"/>
	<path d="M426.35,510.32c34.09-13.07,66.03-9.86,95.49,12.4C491.08,510.1,459.3,505.58,426.35,510.32z"/>
	<path d="M549.44,247.29c-21.98,2.92-38.36,15.31-55.56,26.65c1.2-1.3,2.35-2.65,3.6-3.9c9.76-9.73,20.98-17.65,32.01-25.81
		c5.66-4.19,5.87-5.03,3.22-11.36c-1.1-2.61-0.9-5.16,0-7.77c1.27-3.7,2.49-5.95,5.25-9.15c0.53,4.42,0.54,8.55-0.11,12.6
		c-0.51,3.17,0.18,5.77,2.22,8.1C542.98,239.97,545.91,243.29,549.44,247.29z"/>
	<path d="M153.89,558.21c-31.77,1.68-62.97,3.21-90.79,20.22C79.84,558.54,126.71,548.22,153.89,558.21z"/>
	<path d="M137.87,547.04c-27.66-3.52-53.54-3.71-75.7,14.91c2.81-6.33,6.87-11.61,13.02-14.98c14.43-7.92,29.72-9.55,45.6-5.62
		C126.24,542.69,131.78,543.88,137.87,547.04z"/>
	<path d="M533.47,190.97c1.29,5.56-2.51,12,4,16.57c-6.67,4.51-13.27,9.05-19.44,14.67C519.02,209.45,524.04,199.18,533.47,190.97z"
		/>
	<path d="M740.82,527.72c-24.18,1.35-47.74,1.89-71.99-1.49C682,524.23,732.69,523.41,740.82,527.72z"/>
	<path d="M321.31,525.76c22.77-1.12,45.55-2.45,68.76,1.61C376.31,529.75,333.31,528.79,321.31,525.76z"/>
	<path d="M218.23,526.75c-21.22,2.76-42.39,2.73-63.51-0.99C175.9,524.84,197.09,523.57,218.23,526.75z"/>
	<path d="M734.16,590.46c20-6.87,40.91-11.26,59.44-22.13C777.03,584.54,755.26,586.6,734.16,590.46z"/>
	<path d="M57.37,506c3.66,5.77,7.91,9.19,13.36,11.92c-2.77,2.11-5.24,4.13-7.85,5.95c-2.53,1.77-3.15-0.89-3.62-2.16
		C57.53,517.05,57.25,512.14,57.37,506z"/>
	<path d="M415.92,483.21c-5.96,2.36-11.45,5.81-17.62,7.64C403.5,486.7,408.65,482.47,415.92,483.21z"/>
	<path d="M570.51,516.89c-6.6-2.23-13.2-4.45-19.8-6.68c7.24,0.07,13.81,2.22,19.97,5.72C570.63,516.25,570.57,516.57,570.51,516.89
		z"/>
	<path d="M321.75,401.96c-3.42,3.79-7.17,6.33-10.82,8.96c-2.67,1.92-5.62,3.47-8.21,5.48c-5.33,4.12-10.88,5.8-17.88,4.83
		c-15.57-2.15-31.28-3.27-47.42-5.65c8.39-2.6,16.27-4.9,24.05-7.51c5.51-1.85,10.94-4.05,15.23-8.21c0.98-0.95,2.03-0.94,3.13-0.83
		C293.57,400.49,307.37,401.05,321.75,401.96z"/>
</g>
</svg>
