<?xml version="1.0" encoding="utf-8"?>
<!-- Generator: Adobe Illustrator 27.4.0, SVG Export Plug-In . SVG Version: 6.00 Build 0)  -->
<svg version="1.0" id="レイヤー_1" xmlns="http://www.w3.org/2000/svg" xmlns:xlink="http://www.w3.org/1999/xlink" x="0px"
	 y="0px" width="841.89px" height="595.28px" viewBox="0 0 841.89 595.28" style="enable-background:new 0 0 841.89 595.28;"
	 xml:space="preserve">
<style type="text/css">
	.st0{fill:#3F7363;}
	.st1{fill:#E3D7C4;}
	.st2{fill:#FBF9F7;}
</style>
<path class="st0" d="M566.99,400.02c-12.36,4.15-24.68,8.45-37.1,12.42c-20.19,6.45-40.59,12.15-61.28,16.8
	c-11.66,2.62-23.28,5.47-35,7.84c-3.2,0.65-6.39,1.32-9.59,1.93c-9.59,1.81-19.23,3.41-28.78,5.44c-8.91,1.89-17.92,3.07-26.89,4.51
	c-6.69,1.08-13.35,2.34-20.04,3.43c-8.87,1.44-17.76,2.81-26.65,4.18c-8.77,1.36-17.51,2.91-26.32,3.96
	c-8.64,1.03-17.21,2.51-25.9,3.2c-8.28,0.65-16.51,1.85-24.78,2.67c-2.95,0.29-5.94,0.47-8.89,0.57c-8.3,0.27-16.6,1.21-24.91,0.66
	c-10.27-0.68-20.39-2.14-30.07-6.08c-3.57-1.45-7.14-3.1-10.54-4.74c-3.27-1.58-6.92-3.45-9.51-6.15
	c-4.77-4.97-10.1-9.48-13.99-15.25c-3.89-5.76-7-11.99-9.17-18.54c-2.06-6.2-2.97-12.74-3.79-19.25c-0.68-5.4-0.86-10.86-1.94-16.21
	c-0.21-1.04-0.23-2.49,1.38-2.03c6.74,1.93,13.67,2.29,20.57,2.45c12.5,0.28,25.04,0.57,37.52,0.01c8.29-0.37,16.6-1.22,24.9-2
	c8.23-0.77,16.46-1.58,24.68-2.49c9.17-1.01,18.34-2.03,27.48-3.27c11.19-1.52,22.36-3.22,33.53-4.94c2.79-0.43,5.51-1.7,8.28-1.76
	c3.93-0.09,7.59-1.9,11.47-1.54c1.92,0.18,3.41-1.01,5.26-0.88c0.88,0.06,1.22-1.07,1.38-1.93c0.59-3.21,1.68-6.32,1.79-9.62
	c0.03-0.92,0.18-2.05,1.25-2.27c1.29-0.27,1.35,0.99,1.74,1.82c1.16,2.51,2.55,4.94,3.49,7.53c0.62,1.72,1.64,1.89,3.04,1.59
	c16.96-3.61,33.92-7.24,50.87-10.85c1.3-0.28,2.62-0.55,3.94-0.68c1.6-0.16,1.86-0.67,0.85-1.97c-8.55-11.04-14.6-23.49-20.17-36.19
	c-4.33-9.87-7.53-20.11-10.19-30.56c-2.08-8.15-3.78-16.4-4.95-24.69c-1.02-7.19-1.88-14.51-1.5-21.85
	c-0.01-0.19-0.01-0.38-0.02-0.57c0.05-5.88-0.03-11.77,0.19-17.65c0.34-8.92,2.96-17.4,5.19-25.97c2.19-8.4,5.52-16.47,9.55-23.93
	c5.05-9.33,11.13-18.21,18.95-25.79c5.13-4.97,10.09-10.16,15.2-15.16c3.82-3.74,7.98-7.16,12.76-9.82
	c2.47-1.37,4.85-3.12,7.05-5.07c1.85-1.63,4.37-2.48,6.52-3.8c4.25-2.59,8.26-5.66,12.72-7.78c4.43-2.11,8.79-4.4,13.23-6.48
	c7.07-3.31,14.17-6.54,21.33-9.65c2.49-1.08,5-1.26,7.48-2.32c-0.06,3.12-1.44,5.58-2.4,8.1c-2.09,5.49-2.73,11.35-4.43,16.87
	c-2.03,6.59-3.8,13.24-5.53,19.9c-1.92,7.38-3.58,14.84-5.1,22.29c-1.6,7.86-3.09,15.83-3.14,23.94c-0.71,0.91-0.36,1.93-0.28,2.92
	c-0.38,9.51,1.43,18.55,5.62,27.11c3.22,6.59,6.83,12.99,11.35,18.73c8.83,11.22,20,19.34,33.57,24.11
	c3.85,1.35,7.8,3.25,11.63,3.63c4.51,0.45,8.9,1.78,13.54,1.7c4.3-0.07,8.63-0.26,12.95-0.07c1.1,0.05,1.3,0.57,1.26,1.46
	c-0.06,1.3,0.3,2.67-1.67,3.12c-5.32,1.21-10.58,2.63-15.89,3.9c-7.62,1.83-15.27,3.5-22.86,5.42c-7.89,2-15.92,3.42-23.75,5.73
	c-1.76,0.52-2.08,1.13-1.93,2.75c0.6,6.62,1.01,13.26,1.63,19.87c0.63,6.78,1.62,13.53,2.08,20.32c0.32,4.79,0.8,9.54,1.35,14.3
	c0.25,2.18,0.45,4.36,0.71,6.85c3.31-1.34,6.68-1.93,9.75-3.67c1.9-1.08,4.3-1,6.43-1.84c5.18-2.05,10.5-3.75,15.76-5.6
	c1.75-0.61,2.71-1.71,3.16-3.65c1.42-6.16,2.79-12.34,3.69-18.6c0.14-0.97,0.34-1.62,1.28-1.89c1.24-0.35,1.1,0.85,1.32,1.37
	c1.7,4.04,3.49,8.06,4.86,12.21c0.76,2.3,1.71,2.79,3.83,1.84c8.73-3.93,17.55-7.67,26.21-11.74c6.49-3.06,12.82-6.46,19.15-9.84
	c5.84-3.11,11.74-6.16,17.34-9.67c3.94-2.48,8.04-4.69,11.9-7.36c5.23-3.62,10.87-6.79,16.15-10.37c6.9-4.68,13.13-10.33,19.77-15.4
	c9.05-6.92,17.71-14.36,25.6-22.5c4.45-4.58,9-9.31,12.56-14.83c1.22-1.9,2.75-3.98,5.16-5.36c-1.28,9.46-0.22,18.7,1.51,27.9
	c0.01,0.85-0.33,1.76,0.44,2.48c0.04,0.53,0.09,1.06,0.13,1.59c-0.02,1.04-0.35,2.13,0.46,3.04c0.63,9.08,1.27,18.15,1.9,27.23
	c0.01,0.23,0.01,0.47,0.02,0.7c0.02,2.49,0.04,4.98,0.05,7.48c-0.02,1.77-0.03,3.55-0.05,5.32c-0.01,7.5-0.52,14.98-1.94,22.35
	c-2.17,11.25-5.59,22-11.73,31.89c-6.26,10.1-13.62,19.17-21.79,27.76c-3.41,3.59-7.88,5.53-11.16,9.17
	c-3.46,3.84-8.48,5.74-12.61,8.72c-4.24,3.06-9.1,4.78-13.43,7.62c-3.02,1.98-6.78,3.07-10.22,4.51
	c-8.21,3.43-16.58,6.41-25.04,9.21c-10.63,3.52-21.58,5.52-32.43,8.02c-13.04,3-26.22,5.23-39.4,7.49
	c-0.96,0.17-2.05,0.35-3.07-0.23c16.3-5,32.42-10.35,48.2-16.65c0.38-0.05,0.79-0.03,1.14-0.17c17.32-6.81,34.5-13.89,50.85-22.89
	c11.63-6.4,22.58-13.82,32.78-22.21c5.23-4.31,9.88-9.45,14.47-14.57c11.07-12.35,18.55-26.63,23.58-42.29
	c0.29-0.89,1.23-2.78,0.1-3.06c-1.41-0.35-1.8,1.75-2.15,2.81c-2.09,6.29-5.42,11.98-8.71,17.63
	c-9.71,16.66-22.77,30.21-38.37,41.59c-15.67,11.43-32.56,20.55-50.12,28.54C585.53,392.48,576.21,396.14,566.99,400.02z
	 M175.18,431.62c-3.49,0.18-7.02-0.71-10.47,0.43c-1.09-0.2-1.87,0.43-1.76,1.35c0.1,0.83,0.74,1.67,1.95,1.64
	c2.42-0.07,4.85-0.18,7.26,0c4.46,0.34,9.28,0.03,12.93,2.96c3.66,2.94,7.38,4.19,11.97,3.39c1.39-0.24,2.68-0.37,3.96-1.45
	c-1.1-0.49-1.91-0.88-2.88-1.1c-3.05-0.71-6.27-0.9-8.93-2.94C185.1,432.73,180.29,431.64,175.18,431.62z M226.39,445.31
	c3.2,0.31,6.35-0.12,9.51-0.58c0.22-2.02-0.88-2.71-2.67-2.72c-2.32-0.02-4.66-0.18-6.97-0.03c-7.13,0.47-13.5-1.06-18.64-6.42
	c-3.64-3.8-8.36-3.82-13.17-3.48c-1.19,0.08-1.57,0.79-1.59,1.62c-0.03,1.06,0.98,0.61,1.56,0.69c4.61,0.64,8.91,1.81,12.42,5.23
	c2.6,2.54,5.54,4.76,9.23,5.64C219.51,445.27,222.95,445.29,226.39,445.31z M330.69,429.13c-0.21,0.42,0,0.44,0.33,0.35
	c-0.12-0.11-0.25-0.21-0.37-0.32c-1.72-2.78-4.6-3.7-7.49-3.8c-3.47-0.12-6.89,1.08-10.33,1.46c-3.7,0.41-7.43,0.64-11.15,1
	c-1.66,0.16-4.38,1.17-4.65-1.53c-0.28-2.82,2.65-1.92,4.28-2.37c2.4-0.65,5.09-0.34,7.79-2.55c-4.57-0.54-8.49-0.98-12.35,0.04
	c-3.08,0.82-5,3.81-4.58,6.42c0.39,2.43,2.3,3.81,6,3.64c3.45-0.16,6.78,0.47,10.42-0.29C315.8,429.67,323.23,428.64,330.69,429.13z
	 M239.8,447.86c-3.65,0.02-7.29,0.04-10.94,0.06c-3.18-0.05-6.33,0.32-9.46,0.85c-0.64,0.11-1.75-0.11-1.68,1.1
	c0.07,1.05,1.12,0.96,1.77,1.17c0.71,0.23,1.52,0.17,2.29,0.17c6.27,0.01,12.55,0.04,18.82-0.01c2.08-0.02,4.2,0.5,6.24-0.32
	c2.69-0.11,5.38-0.22,8.07-0.33c0.58,0.03,1.17,0.14,1.74,0.07c11.89-1.4,23.85-1.88,35.74-3.31c10.89-1.31,21.87-1.91,32.68-3.77
	c13.36-2.31,26.77-4.29,40.11-6.72c18.45-3.35,36.93-6.58,55.24-10.67c17.89-4,35.76-8.07,53.57-12.47
	c14.51-3.58,28.82-7.83,43.14-12.06c7.97-2.36,15.93-4.74,23.56-8.07c1.17-0.51,3.65-0.28,2.75-2.74c-0.97-2.65-2.74-0.61-3.98-0.26
	c-9.84,2.77-19.27,6.76-29.18,9.36c-10.44,2.74-20.72,6.11-31.18,8.79c-13.69,3.51-27.48,6.68-41.25,9.88
	c-9.9,2.3-19.8,4.59-29.76,6.58c-13.09,2.6-26.23,4.98-39.38,7.3c-12.99,2.29-25.98,4.59-39.02,6.52
	c-12.01,1.78-24.09,3.18-36.16,4.56c-8.5,0.98-17.08,1.38-25.55,2.57c-4.69,0.66-9.39,0.12-14.08,0.93
	c-2.28,0.39-4.79,1.19-7.07,0.7C244.4,447.25,242.14,447.32,239.8,447.86z M469.1,205.07c-0.19-1.1-0.48-2.14-1.5-3.11
	c0,1.74,0,3.29,0,4.84c-0.19,5.89,0.32,11.72,0.93,17.58c1.26,12.09,3.18,24.06,5.94,35.87c2.81,11.99,5.41,24.03,9,35.82
	c1.6,5.26,2.83,10.63,4.23,15.95c0.74-1.64,1.41-3.33,1.17-4.89c-1.02-6.67-0.72-13.43-1.55-20.11c-0.78-6.27-1.18-12.58-1.8-18.87
	c-0.11-1.16,0.28-1.36,1.36-1.54c3.94-0.66,7.86-1.5,11.78-2.29c5.17-1.04,10.35-2.07,15.51-3.17c5.02-1.07,10.03-2.21,15.62-3.44
	C498.54,252.23,478.48,234.76,469.1,205.07z M166.56,424.93c11.41,0.29,22.81,0.25,34.22,0.01c0.68,0.03,1.35,0.12,2.03,0.09
	c9.27-0.45,18.54-0.83,27.79-1.61c8.83-0.75,17.68-1.2,26.52-1.85c15.62-1.16,31.18-3.06,46.77-4.51
	c14.81-1.38,29.49-3.7,44.22-5.62c12.49-1.63,24.92-3.86,37.35-6.08c19.9-3.57,39.87-6.71,59.57-11.27
	c31.52-7.3,62.76-15.58,93.33-26.29c27.29-9.56,53.45-21.47,78.53-35.86c20.01-11.48,37.89-25.66,54.19-41.93
	c6.21-6.2,11.44-13.06,15.22-20.98c0.46-0.97,1.62-2.52,0.14-3.31c-1.56-0.83-1.93,0.92-2.52,1.96
	c-7.01,12.4-16.94,22.28-27.49,31.61c-2.97,2.63-6.54,4.53-9.58,6.98c-2.08,1.68-4.1,3.7-6.18,5.49c-4.51,3.89-9.98,6.4-14.69,10.07
	c-3.69,2.88-7.97,5.06-12.02,7.48c-6.37,3.81-12.95,7.31-19.57,10.68c-10.36,5.26-20.72,10.48-31.74,14.41
	c-4.69,1.68-9.36,3.86-14.06,5.67c-14.88,5.71-29.98,10.81-45.27,15.28c-19.05,5.58-38.29,10.47-57.65,14.83
	c-14.27,3.21-28.61,6.04-43.01,8.57c-11.56,2.03-23.11,4.12-34.7,5.99c-11.34,1.83-22.7,3.5-34.08,5.07
	c-10.98,1.51-21.97,2.89-32.98,4.16c-7.87,0.91-15.78,1.56-23.67,2.29c-7.02,0.65-14.04,1.19-21.05,1.89
	c-5.76,0.58-11.56,0.73-17.3,1.31c-9.9,1-19.84,1.24-29.74,1.97c-8.68,0.63-17.45,0.18-26.18,0.17c-3.97-0.01-7.97,0.13-11.91-0.21
	c-5.33-0.46-10.64-0.34-15.97-0.36c-1.14,0-2.15,0.41-3.06,1.04c1.31,1.95,2.96,2.39,5.08,2.32
	C160.22,424.3,163.42,424.29,166.56,424.93z M251.95,396.98c9.98-0.47,19.94-1.01,29.87-2.18c10.61-1.25,21.33-1.33,31.92-2.88
	c2.01-0.29,3.27-1.04,3.49-3.1c0.07-0.7,0.47-1.08,0.81-1.62c3.16-5.07,5.63-10.51,8.16-15.89c-0.98-0.59-1.78-0.42-2.51-0.29
	c-12.51,2.23-25,4.58-37.53,6.71c-14.65,2.49-29.38,4.46-44.16,6.03c-9.68,1.03-19.36,2.08-29.06,2.98
	c-9.19,0.85-18.39,1.7-27.61,2.21c-5.9,0.33-11.82,0.07-17.74,0.07c-8.58,0-17.17,0-25.75,0c32.86,7.93,66.27,9.1,99.82,8.53
	C245.09,397.36,248.52,397.17,251.95,396.98z M370.24,255.76c0.81,1.71,0.44,3.88,0.97,5.94c1.33,5.16,2.78,10.33,3.84,15.52
	c2.2,10.81,6.39,20.88,10.75,30.83c6.61,15.06,15.62,28.72,26.33,41.24c0.99,1.15,2.02,2.02,3.37,2.34
	c3.65,0.85,7.36,1.35,11.07,1.88c2.56,0.36,3.4-0.79,4.05-2.81c1.15-3.54,2.45-7.04,3.56-10.59c0.37-1.18,0.78-1.77,2.14-1.77
	c1.51,0.01,1.33,1.12,1.63,1.95c1.29,3.58,2.07,7.33,3.63,10.84c0.51,1.14,0.84,1.59,2.13,1.2c13.84-4.18,27.69-8.33,41.55-12.42
	c1.77-0.52,2.01-1.21,1.58-2.99c-4.01-16.56-7.91-33.14-11.79-49.73c-0.5-2.14-1.31-3.07-3.82-3.01
	c-9.06,0.21-18.13,0.26-27.14-1.14c-16.62-2.58-32.63-7.09-47.77-14.49c-8.28-4.05-16.15-8.81-23.95-13.69
	C371.51,254.31,370.27,252.97,370.24,255.76z M363.82,229.78c0,2.42,0.07,4.85-0.03,7.27c-0.04,1.14,0.44,1.73,1.36,2.2
	c11.18,5.66,22.17,11.73,33.69,16.7c20.91,9.02,42.58,14.74,65.51,14.84c5.18,0.02,5.1,0.04,4.11-5.05
	c-3.46-17.84-7.02-35.67-6.86-53.96c0.01-1.65-0.48-2.18-2.11-2.11c-4.27,0.18-8.48-0.59-12.64-1.3
	c-23.02-3.91-44.05-12.55-62.65-26.85c-2.35-1.81-4.39-4.03-7.05-5.45c-1.18-0.63-1.9-1.17-2.59,0.78c-0.72,2.04-1.5,4.07-2.24,6.11
	C366.79,198.09,364.1,213.72,363.82,229.78z M457.67,195.65c2.31,0.35,3.49-0.03,3.45-2.91c-0.04-2.66,0.21-5.42,0.6-8.06
	c1.87-12.57,3.66-25.16,6.33-37.61c1.97-9.19,4.27-18.3,6.63-27.39c2.5-9.61,5.39-19.11,8.11-28.67c0.15-0.53,1.27-0.92,0.33-1.62
	c-0.62-0.46-1.23-0.11-1.87,0.16c-10.61,4.35-20.97,9.21-30.99,14.82c-19.2,10.74-36.96,23.35-52.18,39.36
	c-2.97,3.13-5.67,6.44-8.31,9.86c-2.36,3.06-5.07,5.86-7.1,9.2c-0.45,0.75-1.24,1.69-0.18,2.23c1.35,0.68,1.92,2,3.07,2.87
	c10.83,8.15,22.54,14.65,35.26,19.35C432.75,191.66,445.02,194.56,457.67,195.65z M222.6,456.51c0.01,0.28,0.01,0.57,0.02,0.85
	c4.22,0.28,8.43-0.01,12.68,0.72c4.21,0.72,8.64,0.36,12.97,0.26c11.18-0.26,22.33-0.8,33.48-1.89c13.91-1.37,27.85-2.2,41.66-4.58
	c15.33-2.64,30.82-4.25,46.07-7.5c12.51-2.67,25.17-4.65,37.71-7.19c20.22-4.1,40.4-8.39,60.39-13.5
	c9.18-2.35,18.29-4.97,27.52-7.11c9.13-2.12,17.91-5.42,27.09-7.44c4.08-0.9,8.26-2.74,12.38-4.11c13.61-4.51,27.2-9.03,40.51-14.36
	c24.44-9.78,47.74-21.76,68.92-37.45c14.56-10.79,27.06-23.68,36.55-39.31c3.08-5.07,5.41-10.53,8.34-15.68
	c1.67-2.94,2.22-6.78,3.64-10.06c5.34-12.4,6.85-25.34,5.79-39.39c-2.47,13.69-3.73,26.94-9.04,39.24
	c-1.99,4.62-3.96,9.25-6.16,13.76c-3.04,6.21-8.89,9.03-14.82,11.6c-3.79,1.64-6.97,3.83-9.48,7.22c-1.64,2.21-3.5,4.32-5.68,6.13
	c-6.92,5.74-13.63,11.75-20.69,17.32c-3.1,2.45-6.49,4.93-10.86,4.76c-3.22-0.12-4.43-1.94-3.43-4.98c0.96-2.93,2.76-5.23,5.16-7.13
	c6.64-5.25,13.73-9.84,20.83-14.42c7.76-5.01,15.29-10.42,24.37-13.03c7.08-2.03,12.49-9.64,12.5-17.11c0-0.08-0.08-0.16-0.21-0.4
	c-6.05,3.75-13.01,6.02-18.48,11.36c1.6,0.39,2.59,0.01,3.55-0.42c2.08-0.92,4.26-1.65,6.14-2.99c0.89-0.63,2.02-0.78,2.68-0.11
	c0.71,0.71-0.22,1.72-0.66,2.28c-1.17,1.51-2.72,2.6-4.55,3.36c-4.93,2.05-10.32,3.01-14.85,5.97
	c-10.86,7.1-21.71,14.23-32.42,21.56c-3.42,2.34-6.12,5.57-7.62,9.58c-2.06,5.52,1.15,10.11,7.01,9.99
	c3.74-0.08,7.18-1.16,10.22-3.4c10.17-7.53,19.53-16.02,28.4-24.99c3.32-3.35,6.49-6.54,11.07-7.92c0.88-0.26,1.77-1.79,2.67-0.54
	c0.68,0.94,0.12,2.05-0.58,3.14c-2.09,3.26-5.5,5.23-7.42,8.81c-2.99,5.59-8.06,9.69-12.71,13.9c-5.86,5.3-12.26,9.95-18.88,14.36
	c-15.4,10.25-31.74,18.72-48.54,26.33c-22.34,10.12-45.68,17.55-69.16,24.48c-20.45,6.04-41.06,11.47-61.8,16.42
	c-13.81,3.3-27.65,6.41-41.57,9.16c-13.48,2.66-26.94,5.43-40.49,7.79c-11.93,2.07-23.81,4.38-35.78,6.23
	c-2.75,0.43-5.71,0.36-8.22,1.38c-3.61,1.46-7.47,1.42-11.08,1.88c-3.59,0.45-7.39,0.68-11.07,1.03
	c-10.22,0.97-20.35,2.9-30.65,3.23c-1.93,0.06-3.88,0.54-5.78,0.39c-4.03-0.3-7.79,1.77-11.7,1.35c-3.87-0.43-7.6,0.46-11.41,0.43
	c-3.04-0.03-6.08,0.83-9.19,0.77C232.81,456.44,227.71,456.51,222.6,456.51z M341.29,367.69c1.04,1.32,2,2.51,2.93,3.71
	c3.36,4.31,6.77,8.58,10.06,12.95c1.08,1.43,2.43,1.8,3.99,1.55c4.13-0.67,8.21-1.6,12.35-2.15c14.29-1.88,28.39-4.86,42.62-7.1
	c0.92-0.14,1.97-0.43,2.7-1.4c4.24-5.63,8.11-11.49,11.73-17.52c-4.05-0.97-8-1-11.89-1.7c-3.71-0.68-7.22-2.53-11.31-1.65
	C383.51,358.91,362.5,363.25,341.29,367.69z M549.69,320.14c0.58,2.21,2.75,3.54,4.22,4.39c2.34,1.36,4.5,2.96,6.41,4.71
	c1.75,1.61,3.03,1.49,4.81,0.56c5.67-2.96,11.43-5.78,17.06-8.82c7.17-3.88,14.15-8.1,21.19-12.19
	c9.04-5.26,17.54-11.26,26.05-17.23c4.16-2.92,7.93-6.69,11.76-10.21c10.18-9.34,19.87-19.15,28.85-29.66
	c0.52-0.61,1.69-1.28,0.89-2.13c-0.88-0.92-1.55,0.4-2.05,0.87c-4.94,4.54-10.16,8.73-15.46,12.85
	c-14.48,11.26-30.03,20.91-45.64,30.46c-4.7,2.88-9.89,4.95-14.84,7.43c-3.77,1.89-7.49,3.88-11.28,5.74
	C571.32,312.01,560.77,316.62,549.69,320.14z M275.54,441.19c-2.03-2.14-3.88-3.39-6.91-2.76c-3.34,0.7-6.89-0.75-10.24,0.27
	c-3.72,1.12-7.51,0.75-11.27,0.92c-0.53,0.02-1.26,0.2-1.51-0.51c-0.28-0.78,0.27-1.32,0.86-1.64c0.66-0.36,1.41-0.61,2.14-0.78
	c8.99-2.08,18.11-2.65,27.31-2.4c1.68,0.05,4.63,1.02,4.82-0.86c0.19-1.83-2.9-1.39-4.57-1.85c-1.01-0.28-2.48-0.12-2.53-1.39
	c-0.05-1.28,1.45-1.59,2.46-2.05c0.41-0.19,0.95-0.1,1.43-0.15c3.02-0.3,5.39,1.09,7.62,2.9c0.8,0.64,1.87,1.09,2.63,0.3
	c0.82-0.84-0.28-1.54-0.73-2.17c-4.08-5.72-11.35-6.31-16.89-1.46c-1.25,1.1-2.12,2.64-4.21,2.76c-3.76,0.22-7.51,0.67-11.23,1.27
	c-4.24,0.68-8.61,1.31-11.98,4.3c-1.5,1.33-2.52,1.13-3.92,0.1c-2.78-2.05-5.65-3.98-8.45-6.02c-3.4-2.47-7.25-2.4-11.09-1.85
	c-1.81,0.26-2.94,1.72-3.28,3.6c-0.68,3.81,3.55,7.6,7.35,6.56c1.25-0.34,1.44-1.22,0.47-1.97c-1.04-0.8-2.31-1.31-3.45-1.98
	c-0.68-0.4-1.36-0.97-1.21-1.81c0.19-1.09,1.24-1.23,2.07-1.1c1.94,0.3,4.08,0.38,5.72,1.3c3.76,2.1,7.66,4.11,10.89,7
	c4.09,3.65,8.73,4.12,13.95,3.7c5.8-0.47,11.46-2.22,17.41-1.58C271.05,442.04,273.3,442.6,275.54,441.19z M448.62,356.73
	c3.13,2.98,5.95,5.81,9.27,8.09c0.92,0.63,1.79,1.11,2.91,0.81c8.31-2.25,16.61-4.53,24.93-6.71c1.74-0.46,2.3-1.35,2.18-3.07
	c-0.18-2.59-0.14-5.19-0.37-7.79c-0.2-2.28-0.99-2.07-2.62-1.51C473.14,350.58,460.95,353.23,448.62,356.73z M430.91,410.03
	c3.38-1.52,6.58-2.82,8.28-6.11c0.65-1.26,1.54-2.87,0.71-4.05c-0.77-1.08-2.32-0.1-3.52,0.11c-0.38,0.07-0.77,0.04-1.16,0.07
	c-6.59,0.6-11.87,2.85-14.45,9.71c-3.07,8.18-14.62,8.62-19.49,5.11c-1.27-0.91-3.63-1.72-2.38-3.9c1.11-1.93,3.11-0.79,4.72-0.39
	c0.63,0.15,1.16,0.65,1.77,0.94c1.8,0.87,3.71,0.88,5.65,0.73c0.98-0.07,1.77-0.6,2.09-1.35c0.45-1.06-0.7-1.49-1.35-1.9
	c-3.55-2.23-7.48-2.85-11.6-2.58c-2.58,0.16-4.88,1.11-5.81,3.53c-0.91,2.37,0.47,4.41,2.12,6.2c6.26,6.74,17.29,5.45,23.07,1.28
	c3.02-2.17,4.46-5.42,5.92-8.62c1.23-2.67,3.22-4.22,6.05-4.66c0.67-0.11,1.65-1.02,2.04-0.06c0.32,0.77,0.23,1.92-0.74,2.58
	C431.81,407.37,430.7,408.02,430.91,410.03z M528.76,330.3c-0.95,0.27-1.59,0.35-2.13,0.64c-4.37,2.32-8.97,4.07-13.62,5.73
	c-3.59,1.28-7.13,2.71-10.67,4.14c-0.78,0.32-1.84,0.45-1.58,1.93c0.54,2.97,0.82,5.99,1.24,8.98c0.21,1.49,0.83,2.06,2.49,1.45
	c2.75-1.02,5.67-1.59,8.39-2.69c2.56-1.04,5.73-1.22,7.26-4.02C523.02,341.21,525.78,335.9,528.76,330.3z M479.38,392.47
	c-3.75-0.26-6.86,0.38-9.07,3.34c-2.44,3.27-1.66,6.62,1.99,8.41c2.46,1.2,4.59,1.62,7.68,0.73c7.15-2.04,13.13-5.3,17.53-11.3
	c2.97-4.05,7.02-6.36,11.8-7.64c3.13-0.84,6.18-1.95,9.29-2.85c1.19-0.34,2.54-0.74,2.17-2.12c-0.35-1.29-1.87-0.8-2.82-0.59
	c-1.82,0.39-3.75,0.49-5.44,0.83c-6.93,1.38-13.87,3.14-17.82,10.14c-1.32,2.33-3.57,4.03-5.68,5.75c-3.86,3.15-8.62,3.35-13.2,4.04
	c-1.12,0.17-2.77-0.11-2.99-1.44c-0.27-1.62,1.46-2.32,2.51-3.25c0.3-0.27,0.91-0.21,1.38-0.29c1.61-0.28,3.21-0.64,4.83-0.81
	c1.34-0.14,2.01-1.07,1.97-2.07c-0.04-1.13-1.28-0.84-2.1-0.88C480.63,392.45,479.85,392.47,479.38,392.47z M384.16,425.16
	c0.01-0.31,0.02-0.63,0.02-0.94c-0.98-0.3-1.95-0.69-2.95-0.86c-1.77-0.3-3.47-0.65-5.37,0c-2.69,0.92-5.12-1.43-7.87-1.17
	c-2.01,0.19-3.74-0.62-5.43-1.62c-1.73-1.02-3.42-2.13-5.26-2.92c-6.39-2.73-12.9-3.69-19.45-0.54c-2.95,1.42-4.74,3.79-4.86,7.15
	c-0.12,3.35,1.93,5.4,4.71,6.61c2.98,1.3,6.12,1.89,9.47-0.29c-2.81-0.94-5.31-1.55-7.49-3.06c-2.73-1.9-2.95-4.58-0.28-6.52
	c2.7-1.97,5.81-2.48,9.06-2.08c4.38,0.54,8.12,2.71,11.94,4.71C368.15,427.67,376.1,427.81,384.16,425.16z M602.56,360.07
	c-1.67,0.28-2.8,0.93-3.95,1.62c-5.25,3.18-10.64,6.05-16.87,6.79c-1.04,0.12-2.41,0.53-2.85-0.67c-0.47-1.28,0.84-1.92,1.8-2.5
	c0.24-0.14,0.54-0.17,0.82-0.26c8.13-2.58,15.88-6.07,23.53-9.8c1.71-0.83,3.62-1.52,4.93-2.8c0.77-0.74,2.77-1.97,1.4-3.49
	c-0.99-1.1-2.14,0.41-3.14,0.87c-7.96,3.66-15.59,8.11-24.09,10.53c-2.12,0.61-4.29,1.08-6.08,2.43c-2.18,1.65-2.96,3.96-2.38,6.58
	c0.53,2.38,2.83,2.68,4.54,2.64C589.49,371.82,597.22,368.43,602.56,360.07z M319.83,391.06c1.41,0.65,2.51-0.3,3.75-0.38
	c4.02-0.26,8.02-0.84,12.03-1.26c1.91-0.2,2.65-0.64,2.17-3.02c-1.05-5.17-2.49-10.2-3.99-15.23c-0.24-0.8-0.06-2.09-1.38-2.14
	c-1.24-0.05-2.09,0.56-2.64,1.79c-1.28,2.92-2.65,5.8-4.07,8.64C323.76,383.35,321.38,387.01,319.83,391.06z M582.7,376.27
	c-2.51,0.19-4.8-0.55-7.3,0.79c-1.7,0.91-3.98,1.17-6.19,0.55c-7.22-2-13.99-0.9-20.27,3.24c-1.51,0.99-2.54,2.33-3.2,3.97
	c-1.18,2.93,0.44,5.84,3.57,5.85c5.91,0.03,10.51-3.13,15.6-6.71c-2.26-0.49-4.16-0.8-5.17,0.01c-2.27,1.82-4.96,2.05-7.49,2.93
	c-0.96,0.33-1.91,0.84-2.39-0.47c-0.41-1.14,0.23-2,1.26-2.46c1.55-0.69,3.24-1.11,4.7-1.94c3.06-1.73,6.16-2.14,9.56-1.23
	c5.14,1.38,10.07,0.37,14.83-1.73C581.35,378.58,582.48,378,582.7,376.27z M537.79,318.03c-3.8,9.87-9.54,18.69-14.28,28.81
	c4.48-1.66,8.45-3.11,12.39-4.62c0.7-0.27,0.68-1.03,0.85-1.69c0.95-3.74,1.33-7.59,1.6-11.4
	C538.6,325.49,539.22,321.77,537.79,318.03z M433.5,412.64c0.39,0.38,0.5,0.58,0.66,0.63c5.14,1.35,9.16-0.7,12.48-4.37
	c1.18-1.3,1.94-1.84,3.7-0.86c2.72,1.51,5.63,0.66,8.41-0.19c0.41-0.13,1.27-0.05,1.02-1.01c-0.15-0.57-0.52-0.88-1.02-0.78
	c-2.06,0.39-3.48-1.48-5.44-1.47c-1.87,0.01-1.19-1.09-0.55-1.76c1.69-1.77,3.95-1.82,6.17-1.58c1.61,0.18,3.18,0.65,4.77,0.96
	c0.64,0.13,1.43,0.42,1.83-0.32c0.38-0.69-0.42-0.96-0.78-1.35c-4.77-5.07-12.59-4.55-16.43,1.19c-1.79,2.67-3.73,5.1-6.47,6.84
	C439.26,410.2,436.06,410.57,433.5,412.64z M419.76,374.7c5.49-0.74,10.75-1.34,15.77-3.14c1.1-0.39,0.23-0.72,0.3-1.06
	c0.45-2.44,0.63-4.97,1.44-7.28c0.51-1.47,0.68-3.48-0.12-3.75c-1.97-0.66-4.6-2.52-6.3-0.36
	C426.91,364.11,423.43,369.48,419.76,374.7z M548.87,370.57c-4.64,1.47-9.37,2.08-14.03,3.01c-2.13,0.43-4.08,1.15-5.71,2.5
	c-3.15,2.61-3.06,7.53,0.07,8.66c2.65,0.95,9.45-2.14,10.76-4.91c-3.14-0.44-6.08,1.65-9.33,0.83c1.95-3.14,6.52-4.93,10.03-4.02
	C544.29,377.6,548.19,374.82,548.87,370.57z M337.24,368.73c0.94,5.94,2.32,11.09,3.56,16.28c0.62,2.58,1.39,4.23,4.53,2.87
	c1.35-0.58,3-0.65,4.51-0.64c1.2,0.01,1.57-1.03,2.19-1.53c0.67-0.55-0.69-1.07-1.1-1.65c-0.5-0.71-1.06-1.38-1.66-2
	C345.26,377.96,342.29,372.9,337.24,368.73z M570,362.15c-3.74,0.88-7.53,1.41-11.14,2.71c-4.07,1.46-5.68,4.98-6.91,8.67
	c-0.41,1.24-0.13,2.75,1.9,1.81c2.02-0.94,4.16-1.36,6.35-1.67c1.71-0.25,3.41-0.59,5.08-1.03c0.62-0.16,1.18-0.79,0.97-1.51
	c-0.16-0.55-0.81-1.03-1.39-0.69c-1.88,1.12-3.67-0.51-5.53-0.07c-0.51,0.12-1.47,0.28-1.56-0.77c-0.07-0.8,0.53-1.2,1.15-1.51
	c2.04-1.02,4.37-1.11,6.47-1.07C568.76,367.07,570.24,365.83,570,362.15z M647.37,325.52c-1.83-0.3-2.86,0.85-3.98,1.64
	c-6.4,4.51-12.81,9.01-19.12,13.65c-1.09,0.8-3.21,1.92-2.19,3.45c0.84,1.26,2.57-0.38,3.9-0.73c0.18-0.05,0.31-0.23,0.48-0.31
	c5.78-3,10.69-7.21,15.73-11.25C644.43,330.19,646.06,328.11,647.37,325.52z M524.02,386.07c-0.73-0.11-1.54,0.04-2.39,0.34
	c-5.29,1.9-10.63,3.68-15.91,5.6c-1.33,0.48-2.53,1.31-3.77,2.01c-0.68,0.39-1.45,0.96-1.18,1.78c0.28,0.86,1.29,0.74,2.04,0.71
	c0.56-0.02,1.11-0.28,1.67-0.41c7.09-1.68,13.51-5.26,20.51-7.21c0.86-0.24,2.16-0.42,1.79-1.77
	C526.42,385.89,525.32,385.74,524.02,386.07z M301,437.06c1.15,1.47,2.7,1.5,4.26,1.37c6.82-0.57,13.64-1.17,20.47-1.76
	c0.58-0.05,1.24-0.05,1.41-0.74c0.15-0.62-0.26-1.07-0.76-1.44c-0.65-0.48-1.37-0.67-2.16-0.68c-5.69-0.06-11.39-0.12-17.01,0.72
	C305.03,434.86,302.64,435.17,301,437.06z M391.24,420.13c0.12-0.99-0.68-1.19-1.14-1.62c-5.48-5.07-11.96-5.35-18.81-3.92
	c-0.87,0.18-2,0.4-2.03,1.18c-0.04,1.05,1.23,1.27,2.1,1.59c0.44,0.16,0.96,0.16,1.43,0.13c5.48-0.36,10.67,0.25,15.24,3.76
	C389.39,422.29,390.54,421.41,391.24,420.13z M588.13,354.38c0.87,0.47,1.59,0.24,2.42-0.21c5.28-2.82,10.6-5.55,15.89-8.35
	c0.66-0.35,1.3-0.83,1.8-1.38c0.52-0.57,0.91-1.43,0.48-2.13c-0.55-0.89-1.31-0.25-2.01,0.03c-5.4,2.19-10.61,4.77-15.34,8.19
	C590.03,351.5,588.33,352.35,588.13,354.38z M624.35,356.78c-2.81-0.81-5.14-1.35-7.7-0.71c-4.95,1.24-8.45,4.29-11.35,8.29
	c-0.64,0.88-1.99,1.68-1,2.76c1.01,1.1,1.87-0.24,2.62-0.88c3.95-3.38,7.93-6.79,13.36-7.4
	C621.84,358.65,622.88,357.92,624.35,356.78z M541.61,340.09c2.08-0.89,4.08-1.71,6.03-2.61c0.47-0.22,1.13-0.38,0.74-1.37
	c-1.32-3.35-2.2-6.87-3.85-10.09c-0.26-0.5-0.48-1.1-1.24-0.97c-0.85,0.15-0.6,0.84-0.64,1.37
	C542.3,330.91,541.96,335.4,541.61,340.09z M559.32,332.29c-2.29-2.53-6.65-5.26-9.5-5.9c-0.48-0.11-0.19-0.35-0.17-0.55
	c0.19-2.12-1.42-2.91-3.24-4.6c1.19,3.29,1.96,5.83,3.02,8.25c2.74,6.3,2.79,6.28,8.91,3.42
	C558.69,332.75,558.99,332.5,559.32,332.29z M447.8,368.91c-3.04-2.56-3.15-7-6.58-8.78c-1.7,3.45-1.78,7.08-2.03,10.89
	C442.11,370.3,444.76,369.65,447.8,368.91z M445.41,358.94c-0.18,0.19-0.36,0.38-0.54,0.57c0.87,1.68,1.8,3.44,2.82,4.92
	c1.14,1.64,1.87,4.59,5.29,3.49c1.02-0.33,1.55-1.38,3.12-1.15C452.28,363.97,448.84,361.46,445.41,358.94z M349.53,426.76
	c0.57,0,1.64,0.07,2.68-0.03c0.54-0.05,1.14-0.36,1.21-1.03c0.08-0.69-0.05-1.41-0.82-1.66c-2.75-0.93-5.54-1.5-8.43-0.7
	c-0.73,0.2-1.06,0.71-1.16,1.45c-0.11,0.81,0.6,0.95,1.03,1.18C345.6,426.8,347.31,426.95,349.53,426.76z M184.8,442.92
	c-1.78-3.15-5.06-2.8-7.57-3.89c-1.06-0.46-1.75,0.73-1.85,1.72c-0.11,1.01,0.26,1.87,1.56,1.95
	C179.44,442.85,181.91,443.3,184.8,442.92z M492.85,343.44c-0.82,3.94,0.33,7.81,0.34,11.73c0,0.52,0.15,1.43,1.12,1.24
	c0.45-0.09,1-0.28,0.82-0.95C494.05,351.52,494.82,347.26,492.85,343.44z M435.98,349.45c-1.33,1.04-1.57,2.27-2.05,3.33
	c-0.24,0.54-0.62,1.52,0.21,1.68c0.63,0.13,1.77-0.09,1.83-1.23C436.03,352.11,435.98,350.97,435.98,349.45z M694.74,296.03
	l-0.04-0.26l0.17,0.03L694.74,296.03z"/>
<path class="st0" d="M704.83,395.69c0.72,3.05-0.88,3.42-3.57,3.88c-8.67,1.48-17.26,3.49-25.89,5.25
	c-13.29,2.71-26.59,5.4-39.89,8.08c-11.63,2.34-23.25,4.7-34.89,6.99c-14.04,2.76-28.1,5.38-42.12,8.22
	c-11.67,2.37-23.4,4.51-35.1,6.72c-11.08,2.09-22.22,4.03-33.3,6.17c-8.66,1.68-17.36,3.17-26,4.97
	c-14.01,2.93-28.17,5.14-42.24,7.75c-12.51,2.32-24.99,4.79-37.48,7.16c-10.97,2.08-21.95,4.09-32.91,6.2
	c-10.52,2.02-21.03,4.12-31.53,6.22c-13.67,2.74-27.34,5.52-41.01,8.27c-12.11,2.44-24.23,4.87-36.35,7.28
	c-11.24,2.24-22.49,4.46-33.73,6.69c-4.18,0.83-8.37,1.61-12.52,2.53c-1.57,0.35-1.79-0.25-1.79-1.62
	c0.02-3.97-0.12-7.95-0.14-11.92c-0.01-1.26-0.68-2.41,2.03-2.2c3.19,0.24,6.48-1.51,9.78-2.04c10.4-1.66,20.79-3.42,31.25-4.73
	c14.08-1.76,28.14-3.66,42.11-6.21c12.06-2.21,24.2-4.01,36.32-5.87c9.97-1.52,19.85-3.57,29.79-5.19
	c14.35-2.35,28.63-5.12,42.95-7.57c15.42-2.64,30.76-5.72,46.15-8.55c14.44-2.65,28.89-5.21,43.33-7.88
	c3.1-0.57,6.14-1.42,9.28-1.79c8.18-0.96,16.14-3.07,24.24-4.47c19.52-3.38,39.04-6.73,58.49-10.45c3.65-0.7,7.29-1.84,10.93-2
	c3.3-0.15,6.64-0.81,9.61-1.5c7.39-1.72,14.87-2.89,22.3-4.33c4.08-0.79,8.2-1.54,12.26-2.35c5-1,10.09-1.48,15.06-2.77
	c5.51-1.44,11.29-1.83,16.92-2.86c11.99-2.21,23.94-4.61,35.94-6.76c2.91-0.52,5.79-1.08,8.63-1.88
	C703.88,392.52,705.67,392.59,704.83,395.69z"/>
<path class="st0" d="M261.9,503c0-0.87,0-1.75,0-2.62c-0.03-4.65,0-4.44,4.53-4.98c6.19-0.74,12.34-1.79,18.5-2.75
	c10.46-1.63,20.92-3.41,31.31-5.35c5.63-1.05,11.38-2.05,17.02-3.07c6.07-1.09,12.26-1.98,18.42-2.72
	c8.63-1.04,17.06-3.12,25.64-4.42c5.97-0.9,11.92-1.92,17.88-2.92c7.88-1.32,15.75-2.67,23.63-4.02
	c11.98-2.05,23.97-4.11,35.95-6.18c5.93-1.03,11.85-2.1,17.77-3.14c9.63-1.68,19.26-3.36,28.89-5.03
	c7.97-1.38,15.95-2.71,23.89-4.31c3.82-0.77,7.8-1,11.6-1.96c11.46-2.88,23.24-4.01,34.83-6.19c10.59-1.99,21.22-4.01,31.9-5.64
	c10.92-1.67,21.79-3.74,32.65-5.77c13.37-2.5,26.71-5.15,40.06-7.73c6.6-1.27,13.2-2.52,19.79-3.79c2.56-0.49,4.96-1.66,7.64-1.74
	c1.4-0.04,1.73,0.32,1.77,1.73c0.19,6.64,0.21,6.45-6.24,7.65c-11.47,2.14-22.87,4.63-34.32,6.82c-11.03,2.1-22.09,4-33.14,5.99
	c-9.6,1.73-19.2,3.44-28.78,5.23c-10.98,2.06-21.98,4-32.93,6.19c-14.52,2.9-29.14,5.34-43.67,8.19
	c-12.44,2.44-24.98,4.37-37.47,6.61c-11.95,2.15-23.88,4.42-35.82,6.63c-14.36,2.66-28.73,5.29-43.08,7.95
	c-11.07,2.05-22.11,4.27-33.2,6.19c-18.8,3.24-37.38,7.55-56.09,11.22c-13.71,2.68-27.41,5.39-41.11,8.14
	c-5.02,1-10.12,1.51-15.07,2.89c-1.57,0.44-3.07,0.3-2.73-2.17c0.22-1.62,0.04-3.29,0.04-4.94C261.95,503,261.93,503,261.9,503z"/>
<path class="st0" d="M348.28,506.03c0-2.31-0.85-5.24,0.24-6.76c1.06-1.48,4.18-1.2,6.43-1.6c13.64-2.44,27.26-4.94,40.88-7.49
	c6.76-1.26,13.47-2.9,20.26-3.93c13.93-2.11,27.66-5.28,41.53-7.74c16.15-2.87,32.23-6.13,48.37-9.03c3.92-0.7,8.07-0.91,11.85-1.79
	c4.28-1,8.59-1.85,12.91-2.68c11.16-2.14,22.34-4.19,33.51-6.26c5.44-1.01,10.91-1.88,16.34-2.95c9.45-1.86,18.86-3.9,28.31-5.71
	c5.23-1,5.26-0.86,5.27,4.42c0,1.26,0.02,2.52,0.02,3.78c0,5.54-0.03,5.38-5.57,6.38c-13.07,2.36-26.11,4.88-39.16,7.34
	c-12.94,2.43-25.87,4.84-38.81,7.29c-11.81,2.24-23.61,4.57-35.43,6.78c-13.12,2.46-26.29,4.65-39.37,7.28
	c-10.82,2.18-21.72,3.82-32.53,6.12c-7.62,1.62-15.38,2.81-23.06,4.3c-11.66,2.27-23.36,4.32-34.99,6.76
	c-5.1,1.07-10.3,1.76-15.37,3.06c-1.06,0.27-1.89-0.03-1.83-1.46c0.08-2.03,0.02-4.07,0.02-6.11
	C348.16,506.03,348.22,506.03,348.28,506.03z"/>
<path class="st1" d="M566.99,400.02c9.22-3.88,18.53-7.54,27.63-11.68c17.56-7.99,34.46-17.11,50.12-28.54
	c15.59-11.38,28.65-24.93,38.37-41.59c3.3-5.65,6.62-11.34,8.71-17.63c0.35-1.06,0.74-3.15,2.15-2.81c1.13,0.28,0.18,2.17-0.1,3.06
	c-5.03,15.66-12.52,29.93-23.58,42.29c-4.59,5.12-9.24,10.27-14.47,14.57c-10.2,8.39-21.15,15.81-32.78,22.21
	c-16.35,9-33.53,16.08-50.85,22.89c-0.35,0.14-0.76,0.12-1.14,0.17c0-0.39,0.01-0.77,0.01-1.16c0.04-0.08,0.09-0.16,0.13-0.24
	c-0.04,0.08-0.08,0.17-0.12,0.25C569.72,401.21,568.36,400.61,566.99,400.02z"/>
<path class="st1" d="M705.68,283.09c0.02-1.77,0.03-3.54,0.05-5.32C706.35,279.55,706.38,281.32,705.68,283.09z"/>
<path class="st1" d="M703.76,242.36c-0.81-0.92-0.48-2-0.46-3.04C703.81,240.28,704.93,241.15,703.76,242.36z"/>
<path class="st1" d="M703.18,237.73c-0.77-0.72-0.43-1.63-0.44-2.48C703.53,235.96,704.27,236.69,703.18,237.73z"/>
<path class="st1" d="M467.72,175.33c-0.08-0.99-0.43-2.01,0.28-2.92C468.06,173.39,468.32,174.4,467.72,175.33z"/>
<path class="st1" d="M705.67,270.29c-0.01-0.23-0.01-0.47-0.02-0.7c0.06,0.16,0.14,0.31,0.17,0.48
	C705.84,270.14,705.73,270.22,705.67,270.29z"/>
<path class="st1" d="M358.41,234.73c0.01,0.19,0.01,0.38,0.02,0.57c-0.06-0.13-0.14-0.26-0.18-0.4
	C358.24,234.86,358.36,234.79,358.41,234.73z"/>
<path class="st1" d="M370.24,255.76c0.02-2.79,1.26-1.45,2.12-0.91c7.8,4.88,15.67,9.64,23.95,13.69
	c15.15,7.41,31.16,11.92,47.77,14.49c9.01,1.4,18.08,1.35,27.14,1.14c2.51-0.06,3.32,0.88,3.82,3.01
	c3.88,16.59,7.78,33.17,11.79,49.73c0.43,1.78,0.2,2.47-1.58,2.99c-13.87,4.09-27.71,8.24-41.55,12.42
	c-1.29,0.39-1.62-0.05-2.13-1.2c-1.56-3.51-2.34-7.25-3.63-10.84c-0.3-0.83-0.12-1.94-1.63-1.95c-1.37-0.01-1.78,0.59-2.14,1.77
	c-1.11,3.55-2.41,7.05-3.56,10.59c-0.65,2.02-1.49,3.18-4.05,2.81c-3.71-0.53-7.42-1.03-11.07-1.88c-1.35-0.32-2.39-1.18-3.37-2.34
	c-10.71-12.52-19.73-26.17-26.33-41.24c-4.36-9.95-8.56-20.02-10.75-30.83c-1.05-5.19-2.51-10.36-3.84-15.52
	C370.68,259.64,371.06,257.47,370.24,255.76z"/>
<path class="st1" d="M363.82,229.78c0.28-16.06,2.97-31.69,8.5-46.8c0.75-2.04,1.52-4.08,2.24-6.11c0.69-1.95,1.41-1.41,2.59-0.78
	c2.66,1.42,4.7,3.64,7.05,5.45c18.6,14.3,39.63,22.94,62.65,26.85c4.16,0.71,8.37,1.48,12.64,1.3c1.64-0.07,2.13,0.46,2.11,2.11
	c-0.16,18.29,3.4,36.12,6.86,53.96c0.99,5.08,1.07,5.07-4.11,5.05c-22.93-0.11-44.6-5.83-65.51-14.84
	c-11.52-4.97-22.51-11.04-33.69-16.7c-0.93-0.47-1.41-1.06-1.36-2.2C363.88,234.63,363.82,232.2,363.82,229.78z"/>
<path class="st1" d="M457.67,195.65c-12.65-1.09-24.92-3.99-36.86-8.41c-12.72-4.71-24.43-11.2-35.26-19.35
	c-1.15-0.86-1.72-2.19-3.07-2.87c-1.06-0.53-0.27-1.48,0.18-2.23c2.03-3.34,4.74-6.14,7.1-9.2c2.64-3.42,5.33-6.73,8.31-9.86
	c15.22-16.01,32.98-28.62,52.18-39.36c10.02-5.61,20.38-10.47,30.99-14.82c0.65-0.26,1.25-0.62,1.87-0.16
	c0.95,0.7-0.17,1.09-0.33,1.62c-2.71,9.55-5.61,19.06-8.11,28.67c-2.36,9.09-4.66,18.2-6.63,27.39
	c-2.67,12.45-4.46,25.04-6.33,37.61c-0.39,2.64-0.64,5.4-0.6,8.06C461.16,195.62,459.98,196,457.67,195.65z"/>
<path class="st1" d="M222.6,456.51c5.1,0,10.21-0.07,15.31,0.03c3.11,0.06,6.14-0.8,9.19-0.77c3.81,0.04,7.54-0.85,11.41-0.43
	c3.9,0.43,7.67-1.64,11.7-1.35c1.91,0.14,3.85-0.33,5.78-0.39c10.3-0.33,20.42-2.26,30.65-3.23c3.68-0.35,7.48-0.58,11.07-1.03
	c3.61-0.45,7.47-0.42,11.08-1.88c2.51-1.02,5.46-0.95,8.22-1.38c11.97-1.85,23.85-4.16,35.78-6.23c13.55-2.36,27.01-5.13,40.49-7.79
	c13.92-2.75,27.77-5.86,41.57-9.16c20.74-4.95,41.35-10.38,61.8-16.42c23.48-6.94,46.82-14.36,69.16-24.48
	c16.79-7.61,33.14-16.07,48.54-26.33c6.61-4.4,13.02-9.05,18.88-14.36c4.65-4.21,9.72-8.31,12.71-13.9
	c1.92-3.58,5.33-5.55,7.42-8.81c0.7-1.1,1.26-2.2,0.58-3.14c-0.9-1.25-1.79,0.27-2.67,0.54c-4.58,1.38-7.76,4.57-11.07,7.92
	c-8.88,8.97-18.23,17.46-28.4,24.99c-3.03,2.24-6.48,3.32-10.22,3.4c-5.85,0.13-9.07-4.47-7.01-9.99c1.5-4.01,4.2-7.24,7.62-9.58
	c10.71-7.33,21.56-14.46,32.42-21.56c4.53-2.96,9.92-3.92,14.85-5.97c1.83-0.76,3.38-1.85,4.55-3.36c0.44-0.56,1.37-1.56,0.66-2.28
	c-0.66-0.66-1.79-0.52-2.68,0.11c-1.88,1.34-4.06,2.07-6.14,2.99c-0.96,0.43-1.95,0.81-3.55,0.42c5.48-5.35,12.44-7.62,18.48-11.36
	c0.13,0.23,0.21,0.31,0.21,0.4c-0.01,7.47-5.42,15.07-12.5,17.11c-9.08,2.61-16.6,8.01-24.37,13.03
	c-7.1,4.58-14.19,9.18-20.83,14.42c-2.4,1.89-4.19,4.2-5.16,7.13c-1,3.05,0.21,4.86,3.43,4.98c4.37,0.17,7.76-2.31,10.86-4.76
	c7.06-5.57,13.77-11.58,20.69-17.32c2.18-1.81,4.04-3.92,5.68-6.13c2.51-3.39,5.69-5.58,9.48-7.22c5.93-2.57,11.78-5.39,14.82-11.6
	c2.21-4.51,4.17-9.15,6.16-13.76c5.31-12.3,6.57-25.56,9.04-39.24c1.06,14.05-0.45,26.99-5.79,39.39
	c-1.41,3.29-1.97,7.12-3.64,10.06c-2.93,5.15-5.26,10.61-8.34,15.68c-9.49,15.63-21.99,28.52-36.55,39.31
	c-21.18,15.69-44.48,27.67-68.92,37.45c-13.31,5.33-26.91,9.85-40.51,14.36c-4.11,1.36-8.3,3.21-12.38,4.11
	c-9.18,2.02-17.96,5.33-27.09,7.44c-9.23,2.14-18.34,4.76-27.52,7.11c-19.99,5.11-40.17,9.39-60.39,13.5
	c-12.54,2.55-25.2,4.53-37.71,7.19c-15.25,3.25-30.74,4.86-46.07,7.5c-13.81,2.38-27.76,3.21-41.66,4.58
	c-11.14,1.1-22.3,1.64-33.48,1.89c-4.33,0.1-8.75,0.46-12.97-0.26c-4.25-0.73-8.46-0.44-12.68-0.72
	C222.61,457.08,222.61,456.79,222.6,456.51z"/>
<path class="st1" d="M241.66,397.55c-33.55,0.58-66.96-0.6-99.82-8.53c8.58,0,17.17,0,25.75,0c5.91,0,11.84,0.26,17.74-0.07
	c9.22-0.52,18.42-1.36,27.61-2.21c9.7-0.9,19.38-1.95,29.06-2.98c14.78-1.57,29.51-3.54,44.16-6.03
	c12.53-2.13,25.02-4.48,37.53-6.71c0.73-0.13,1.53-0.3,2.51,0.29c-2.53,5.38-4.99,10.82-8.16,15.89c-0.34,0.54-0.74,0.92-0.81,1.62
	c-0.21,2.06-1.47,2.81-3.49,3.1c-10.59,1.54-21.31,1.62-31.92,2.88c-9.92,1.17-19.89,1.71-29.87,2.18c-3.1-0.87-6.26-0.21-9.38-0.35
	C242.02,396.6,241.75,397.03,241.66,397.55z"/>
<path class="st1" d="M166.56,424.93c-3.14-0.64-6.33-0.63-9.5-0.53c-2.12,0.07-3.77-0.37-5.08-2.32c0.91-0.63,1.91-1.05,3.06-1.04
	c5.32,0.01,10.64-0.1,15.97,0.36c3.95,0.34,7.94,0.2,11.91,0.21c8.73,0.01,17.5,0.47,26.18-0.17c9.91-0.72,19.84-0.96,29.74-1.97
	c5.74-0.58,11.54-0.73,17.3-1.31c7.01-0.7,14.04-1.24,21.05-1.89c7.89-0.73,15.8-1.38,23.67-2.29c11.01-1.27,22-2.65,32.98-4.16
	c11.38-1.57,22.74-3.24,34.08-5.07c11.59-1.87,23.14-3.96,34.7-5.99c14.4-2.53,28.74-5.36,43.01-8.57
	c19.37-4.36,38.61-9.25,57.65-14.83c15.29-4.48,30.4-9.58,45.27-15.28c4.7-1.81,9.37-3.99,14.06-5.67
	c11.02-3.94,21.38-9.15,31.74-14.41c6.63-3.36,13.2-6.86,19.57-10.68c4.05-2.42,8.32-4.6,12.02-7.48
	c4.71-3.67,10.18-6.18,14.69-10.07c2.08-1.8,4.1-3.81,6.18-5.49c3.04-2.45,6.61-4.35,9.58-6.98c10.55-9.33,20.48-19.2,27.49-31.61
	c0.59-1.05,0.96-2.8,2.52-1.96c1.48,0.79,0.32,2.34-0.14,3.31c-3.78,7.92-9.01,14.78-15.22,20.98
	c-16.29,16.28-34.18,30.45-54.19,41.93c-25.07,14.39-51.23,26.3-78.53,35.86c-30.58,10.71-61.81,19-93.33,26.29
	c-19.7,4.56-39.68,7.7-59.57,11.27c-12.42,2.23-24.85,4.45-37.35,6.08c-14.73,1.92-29.4,4.24-44.22,5.62
	c-15.59,1.45-31.15,3.35-46.77,4.51c-8.84,0.65-17.69,1.1-26.52,1.85c-9.25,0.78-18.52,1.16-27.79,1.61
	c-0.67,0.03-1.35-0.06-2.03-0.09c-0.17-0.09-0.33-0.27-0.5-0.27c-11.07-0.02-22.15-0.02-33.22-0.01
	C166.89,424.66,166.72,424.84,166.56,424.93z"/>
<path class="st1" d="M341.29,367.69c21.21-4.45,42.22-8.78,63.18-13.31c4.09-0.88,7.59,0.97,11.31,1.65
	c3.89,0.71,7.84,0.74,11.89,1.7c-3.61,6.03-7.48,11.89-11.73,17.52c-0.73,0.97-1.78,1.25-2.7,1.4c-14.23,2.24-28.33,5.23-42.62,7.1
	c-4.14,0.54-8.23,1.48-12.35,2.15c-1.56,0.25-2.91-0.11-3.99-1.55c-3.29-4.37-6.69-8.64-10.06-12.95
	C343.29,370.2,342.33,369.01,341.29,367.69z"/>
<path class="st2" d="M469.1,205.07c9.37,29.7,29.44,47.16,60.71,52.65c-5.59,1.23-10.59,2.37-15.62,3.44
	c-5.16,1.09-10.34,2.12-15.51,3.17c-3.92,0.79-7.84,1.63-11.78,2.29c-1.09,0.18-1.48,0.38-1.36,1.54c0.62,6.29,1.02,12.6,1.8,18.87
	c0.83,6.68,0.54,13.44,1.55,20.11c0.24,1.56-0.44,3.26-1.17,4.89c-1.4-5.32-2.63-10.69-4.23-15.95c-3.59-11.8-6.19-23.84-9-35.82
	c-2.77-11.81-4.68-23.79-5.94-35.87c-0.61-5.86-1.13-11.69-0.93-17.58C468.79,206.82,468.42,205.49,469.1,205.07z"/>
<path class="st1" d="M549.69,320.14c11.08-3.53,21.63-8.13,31.97-13.23c3.78-1.86,7.51-3.85,11.28-5.74
	c4.95-2.48,10.14-4.55,14.84-7.43c15.61-9.55,31.16-19.2,45.64-30.46c5.3-4.12,10.52-8.31,15.46-12.85
	c0.51-0.47,1.18-1.79,2.05-0.87c0.8,0.84-0.37,1.52-0.89,2.13c-8.98,10.51-18.66,20.32-28.85,29.66c-3.83,3.51-7.6,7.29-11.76,10.21
	c-8.51,5.96-17.01,11.97-26.05,17.23c-7.04,4.1-14.02,8.32-21.19,12.19c-5.63,3.05-11.39,5.86-17.06,8.82
	c-1.78,0.93-3.06,1.06-4.81-0.56c-1.9-1.75-4.06-3.35-6.41-4.71C552.44,323.68,550.27,322.35,549.69,320.14z"/>
<path class="st1" d="M246.85,450.88c-2.04,0.82-4.16,0.3-6.24,0.32c-6.27,0.05-12.55,0.02-18.82,0.01c-0.77,0-1.58,0.06-2.29-0.17
	c-0.65-0.21-1.7-0.12-1.77-1.17c-0.08-1.21,1.03-0.99,1.68-1.1c3.13-0.53,6.28-0.9,9.46-0.85c3.65,0.59,7.3,0.76,10.94-0.06
	c2.34-0.55,4.6-0.62,7.04-0.1c2.28,0.49,4.79-0.31,7.07-0.7c4.69-0.81,9.39-0.28,14.08-0.93c8.47-1.18,17.05-1.59,25.55-2.57
	c12.07-1.39,24.14-2.78,36.16-4.56c13.04-1.93,26.03-4.23,39.02-6.52c13.15-2.32,26.29-4.7,39.38-7.3
	c9.96-1.98,19.87-4.27,29.76-6.58c13.77-3.2,27.55-6.37,41.25-9.88c10.46-2.68,20.74-6.05,31.18-8.79c9.91-2.6,19.35-6.6,29.18-9.36
	c1.25-0.35,3.02-2.39,3.98,0.26c0.9,2.45-1.59,2.23-2.75,2.74c-7.63,3.33-15.59,5.71-23.56,8.07c-14.32,4.23-28.63,8.47-43.14,12.06
	c-17.8,4.4-35.67,8.47-53.57,12.47c-18.31,4.09-36.78,7.32-55.24,10.67c-13.34,2.42-26.75,4.41-40.11,6.72
	c-10.81,1.87-21.79,2.46-32.68,3.77c-11.89,1.43-23.86,1.91-35.74,3.31c-0.57,0.07-1.16-0.05-1.74-0.07
	C252.21,450.07,249.49,449.52,246.85,450.88z"/>
<path class="st1" d="M275.54,441.19c-2.24,1.41-4.49,0.85-6.32,0.65c-5.96-0.64-11.62,1.11-17.41,1.58
	c-5.21,0.42-9.86-0.05-13.95-3.7c-3.23-2.89-7.13-4.9-10.89-7c-1.64-0.92-3.78-0.99-5.72-1.3c-0.82-0.13-1.88,0.02-2.07,1.1
	c-0.15,0.84,0.53,1.41,1.21,1.81c1.15,0.67,2.42,1.17,3.45,1.98c0.97,0.75,0.77,1.63-0.47,1.97c-3.79,1.04-8.03-2.75-7.35-6.56
	c0.34-1.87,1.47-3.34,3.28-3.6c3.84-0.55,7.69-0.63,11.09,1.85c2.8,2.03,5.67,3.96,8.45,6.02c1.4,1.03,2.42,1.24,3.92-0.1
	c3.36-2.99,7.73-3.62,11.98-4.3c3.72-0.6,7.47-1.04,11.23-1.27c2.09-0.12,2.96-1.67,4.21-2.76c5.54-4.85,12.81-4.26,16.89,1.46
	c0.45,0.63,1.55,1.33,0.73,2.17c-0.77,0.79-1.84,0.34-2.63-0.3c-2.23-1.8-4.6-3.2-7.62-2.9c-0.48,0.05-1.02-0.04-1.43,0.15
	c-1.01,0.46-2.52,0.77-2.46,2.05c0.05,1.27,1.52,1.11,2.53,1.39c1.67,0.46,4.76,0.03,4.57,1.85c-0.2,1.88-3.14,0.9-4.82,0.86
	c-9.2-0.25-18.32,0.32-27.31,2.4c-0.74,0.17-1.48,0.42-2.14,0.78c-0.59,0.32-1.13,0.87-0.86,1.64c0.25,0.71,0.98,0.53,1.51,0.51
	c3.76-0.18,7.55,0.2,11.27-0.92c3.35-1.01,6.9,0.43,10.24-0.27C271.66,437.8,273.51,439.06,275.54,441.19z"/>
<path class="st1" d="M448.62,356.73c12.33-3.5,24.52-6.14,36.31-10.18c1.63-0.56,2.42-0.77,2.62,1.51c0.23,2.6,0.19,5.2,0.37,7.79
	c0.12,1.72-0.44,2.61-2.18,3.07c-8.33,2.18-16.62,4.47-24.93,6.71c-1.13,0.3-2-0.18-2.91-0.81
	C454.57,362.54,451.75,359.7,448.62,356.73z"/>
<path class="st1" d="M430.91,410.03c-0.22-2.01,0.9-2.66,1.93-3.35c0.98-0.65,1.06-1.81,0.74-2.58c-0.4-0.96-1.37-0.05-2.04,0.06
	c-2.83,0.44-4.82,1.99-6.05,4.66c-1.47,3.2-2.91,6.45-5.92,8.62c-5.78,4.16-16.81,5.46-23.07-1.28c-1.66-1.79-3.03-3.83-2.12-6.2
	c0.93-2.41,3.23-3.36,5.81-3.53c4.12-0.26,8.05,0.36,11.6,2.58c0.65,0.41,1.81,0.84,1.35,1.9c-0.32,0.75-1.11,1.27-2.09,1.35
	c-1.94,0.14-3.85,0.14-5.65-0.73c-0.6-0.29-1.14-0.79-1.77-0.94c-1.62-0.4-3.62-1.54-4.72,0.39c-1.25,2.19,1.11,2.99,2.38,3.9
	c4.88,3.5,16.42,3.07,19.49-5.11c2.58-6.86,7.86-9.12,14.45-9.71c0.39-0.03,0.78-0.01,1.16-0.07c1.2-0.21,2.75-1.19,3.52-0.11
	c0.84,1.18-0.05,2.79-0.71,4.05C437.49,407.21,434.3,408.51,430.91,410.03z"/>
<path class="st1" d="M528.76,330.3c-2.98,5.6-5.74,10.91-8.61,16.15c-1.54,2.8-4.7,2.99-7.26,4.02c-2.71,1.1-5.64,1.67-8.39,2.69
	c-1.66,0.61-2.28,0.04-2.49-1.45c-0.42-2.99-0.71-6.01-1.24-8.98c-0.27-1.48,0.79-1.61,1.58-1.93c3.53-1.44,7.08-2.86,10.67-4.14
	c4.65-1.66,9.25-3.41,13.62-5.73C527.16,330.65,527.81,330.58,528.76,330.3z"/>
<path class="st1" d="M479.38,392.47c0.47,0,1.24-0.03,2.02,0.01c0.82,0.04,2.06-0.25,2.1,0.88c0.04,1.01-0.63,1.93-1.97,2.07
	c-1.62,0.17-3.22,0.53-4.83,0.81c-0.47,0.08-1.07,0.02-1.38,0.29c-1.04,0.93-2.77,1.63-2.51,3.25c0.22,1.33,1.87,1.61,2.99,1.44
	c4.58-0.7,9.34-0.9,13.2-4.04c2.11-1.72,4.37-3.42,5.68-5.75c3.95-7,10.89-8.76,17.82-10.14c1.7-0.34,3.62-0.43,5.44-0.83
	c0.95-0.21,2.47-0.7,2.82,0.59c0.38,1.38-0.98,1.78-2.17,2.12c-3.11,0.89-6.16,2.01-9.29,2.85c-4.78,1.28-8.83,3.59-11.8,7.64
	c-4.41,6-10.38,9.26-17.53,11.3c-3.09,0.88-5.22,0.47-7.68-0.73c-3.66-1.79-4.44-5.14-1.99-8.41
	C472.53,392.86,475.64,392.21,479.38,392.47z"/>
<path class="st1" d="M384.16,425.16c-8.05,2.65-16.01,2.51-23.74-1.52c-3.83-2-7.57-4.17-11.94-4.71c-3.25-0.4-6.36,0.11-9.06,2.08
	c-2.67,1.95-2.46,4.63,0.28,6.52c2.17,1.51,4.68,2.12,7.49,3.06c-3.36,2.18-6.49,1.59-9.47,0.29c-2.78-1.21-4.83-3.26-4.71-6.61
	c0.12-3.36,1.91-5.74,4.86-7.15c6.55-3.15,13.06-2.19,19.45,0.54c1.83,0.78,3.53,1.9,5.26,2.92c1.68,0.99,3.41,1.81,5.43,1.62
	c2.74-0.26,5.18,2.09,7.87,1.17c1.9-0.65,3.6-0.3,5.37,0c1,0.17,1.97,0.57,2.95,0.86C384.17,424.54,384.16,424.85,384.16,425.16z"/>
<path class="st1" d="M602.56,360.07c-5.34,8.35-13.07,11.75-22.34,11.95c-1.71,0.04-4.01-0.27-4.54-2.64
	c-0.58-2.62,0.19-4.93,2.38-6.58c1.79-1.35,3.96-1.83,6.08-2.43c8.5-2.42,16.12-6.87,24.09-10.53c1-0.46,2.15-1.97,3.14-0.87
	c1.37,1.52-0.63,2.75-1.4,3.49c-1.32,1.27-3.23,1.96-4.93,2.8c-7.65,3.73-15.4,7.22-23.53,9.8c-0.27,0.09-0.58,0.11-0.82,0.26
	c-0.96,0.58-2.27,1.22-1.8,2.5c0.44,1.2,1.82,0.79,2.85,0.67c6.23-0.74,11.62-3.61,16.87-6.79
	C599.76,361,600.89,360.35,602.56,360.07z"/>
<path class="st1" d="M319.83,391.06c1.55-4.05,3.94-7.71,5.88-11.59c1.42-2.85,2.79-5.73,4.07-8.64c0.54-1.23,1.39-1.84,2.64-1.79
	c1.32,0.05,1.14,1.33,1.38,2.14c1.5,5.03,2.94,10.07,3.99,15.23c0.48,2.38-0.26,2.82-2.17,3.02c-4.01,0.42-8.01,1-12.03,1.26
	C322.34,390.76,321.24,391.71,319.83,391.06z"/>
<path class="st1" d="M582.7,376.27c-0.22,1.73-1.35,2.3-2.48,2.8c-4.76,2.09-9.69,3.11-14.83,1.73c-3.4-0.91-6.5-0.5-9.56,1.23
	c-1.46,0.83-3.15,1.25-4.7,1.94c-1.03,0.46-1.67,1.32-1.26,2.46c0.47,1.31,1.43,0.81,2.39,0.47c2.52-0.88,5.22-1.11,7.49-2.93
	c1.02-0.81,2.92-0.5,5.17-0.01c-5.09,3.59-9.69,6.74-15.6,6.71c-3.13-0.02-4.75-2.92-3.57-5.85c0.66-1.64,1.7-2.98,3.2-3.97
	c6.27-4.14,13.05-5.24,20.27-3.24c2.21,0.61,4.49,0.35,6.19-0.55C577.9,375.73,580.19,376.47,582.7,376.27z"/>
<path class="st1" d="M330.7,429.13c-7.47-0.49-14.89,0.54-22.09,2.05c-3.64,0.76-6.97,0.13-10.42,0.29c-3.69,0.17-5.6-1.21-6-3.64
	c-0.42-2.61,1.49-5.6,4.58-6.42c3.85-1.02,7.78-0.58,12.35-0.04c-2.7,2.22-5.39,1.91-7.79,2.55c-1.63,0.44-4.56-0.46-4.28,2.37
	c0.27,2.7,2.99,1.69,4.65,1.53c3.72-0.36,7.45-0.58,11.15-1c3.44-0.39,6.86-1.58,10.33-1.46c2.89,0.1,5.77,1.01,7.49,3.8
	L330.7,429.13z"/>
<path class="st1" d="M537.79,318.03c1.43,3.74,0.81,7.46,0.56,11.1c-0.27,3.81-0.65,7.65-1.6,11.4c-0.17,0.67-0.15,1.43-0.85,1.69
	c-3.94,1.51-7.91,2.95-12.39,4.62C528.25,336.71,533.99,327.89,537.79,318.03z"/>
<path class="st1" d="M433.5,412.64c2.56-2.07,5.76-2.44,8.33-4.08c2.74-1.74,4.69-4.17,6.47-6.84c3.84-5.74,11.67-6.26,16.43-1.19
	c0.36,0.39,1.16,0.66,0.78,1.35c-0.4,0.73-1.19,0.44-1.83,0.32c-1.59-0.31-3.16-0.79-4.77-0.96c-2.22-0.24-4.48-0.19-6.17,1.58
	c-0.64,0.67-1.31,1.76,0.55,1.76c1.96-0.01,3.38,1.86,5.44,1.47c0.5-0.09,0.88,0.21,1.02,0.78c0.24,0.96-0.61,0.88-1.02,1.01
	c-2.78,0.85-5.69,1.71-8.41,0.19c-1.76-0.98-2.52-0.44-3.7,0.86c-3.32,3.68-7.34,5.72-12.48,4.37
	C434,413.22,433.89,413.02,433.5,412.64z"/>
<path class="st1" d="M419.76,374.7c3.66-5.22,7.14-10.58,11.08-15.58c1.7-2.16,4.33-0.3,6.3,0.36c0.8,0.27,0.64,2.28,0.12,3.75
	c-0.81,2.31-0.99,4.84-1.44,7.28c-0.06,0.34,0.8,0.66-0.3,1.06C430.51,373.36,425.25,373.96,419.76,374.7z"/>
<path class="st1" d="M216.07,445.26c-3.69-0.88-6.63-3.09-9.23-5.64c-3.51-3.42-7.81-4.6-12.42-5.23c-0.58-0.08-1.59,0.38-1.56-0.69
	c0.02-0.83,0.41-1.53,1.59-1.62c4.81-0.34,9.53-0.32,13.17,3.48c5.14,5.36,11.51,6.89,18.64,6.42c2.31-0.15,4.65,0.01,6.97,0.03
	c1.78,0.01,2.89,0.7,2.67,2.72c-3.16,0.46-6.31,0.89-9.51,0.58C222.95,444.66,219.51,444.77,216.07,445.26z"/>
<path class="st1" d="M175.18,431.62c5.11,0.03,9.92,1.11,14.04,4.28c2.65,2.05,5.87,2.23,8.93,2.94c0.97,0.23,1.78,0.61,2.88,1.1
	c-1.28,1.08-2.57,1.2-3.96,1.45c-4.6,0.8-8.31-0.45-11.97-3.39c-3.65-2.93-8.47-2.62-12.93-2.96c-2.41-0.18-4.84-0.07-7.26,0
	c-1.21,0.03-1.85-0.8-1.95-1.64c-0.11-0.92,0.66-1.55,1.76-1.35C168.19,431.73,171.72,432.52,175.18,431.62z"/>
<path class="st1" d="M548.87,370.57c-0.68,4.25-4.58,7.03-8.22,6.09c-3.51-0.91-8.07,0.87-10.03,4.02c3.25,0.82,6.19-1.27,9.33-0.83
	c-1.31,2.76-8.11,5.86-10.76,4.91c-3.14-1.13-3.23-6.05-0.07-8.66c1.64-1.36,3.58-2.08,5.71-2.5
	C539.5,372.65,544.22,372.04,548.87,370.57z"/>
<path class="st1" d="M337.24,368.73c5.05,4.17,8.02,9.22,12.03,13.34c0.6,0.62,1.16,1.29,1.66,2c0.41,0.58,1.77,1.1,1.1,1.65
	c-0.62,0.5-0.99,1.54-2.19,1.53c-1.51-0.01-3.16,0.05-4.51,0.64c-3.14,1.36-3.91-0.28-4.53-2.87
	C339.56,379.83,338.18,374.68,337.24,368.73z"/>
<path class="st1" d="M570,362.15c0.24,3.68-1.23,4.92-4.61,4.86c-2.1-0.04-4.43,0.05-6.47,1.07c-0.62,0.31-1.21,0.71-1.15,1.51
	c0.09,1.05,1.05,0.89,1.56,0.77c1.86-0.44,3.66,1.19,5.53,0.07c0.58-0.34,1.23,0.14,1.39,0.69c0.21,0.72-0.34,1.35-0.97,1.51
	c-1.67,0.44-3.37,0.78-5.08,1.03c-2.19,0.31-4.32,0.73-6.35,1.67c-2.03,0.94-2.31-0.57-1.9-1.81c1.23-3.69,2.84-7.21,6.91-8.67
	C562.47,363.56,566.26,363.03,570,362.15z"/>
<path class="st1" d="M647.37,325.52c-1.32,2.59-2.94,4.67-5.16,6.45c-5.04,4.05-9.95,8.25-15.73,11.25
	c-0.17,0.09-0.31,0.27-0.48,0.31c-1.33,0.34-3.06,1.99-3.9,0.73c-1.03-1.54,1.1-2.65,2.19-3.45c6.3-4.64,12.71-9.15,19.12-13.65
	C644.52,326.37,645.54,325.22,647.37,325.52z"/>
<path class="st1" d="M524.02,386.07c1.3-0.33,2.4-0.18,2.75,1.06c0.37,1.35-0.93,1.53-1.79,1.77c-7,1.95-13.42,5.53-20.51,7.21
	c-0.56,0.13-1.11,0.39-1.67,0.41c-0.75,0.03-1.76,0.15-2.04-0.71c-0.27-0.82,0.5-1.39,1.18-1.78c1.24-0.7,2.45-1.53,3.77-2.01
	c5.29-1.92,10.62-3.7,15.91-5.6C522.48,386.11,523.29,385.96,524.02,386.07z"/>
<path class="st1" d="M301,437.06c1.64-1.9,4.03-2.21,6.2-2.53c5.63-0.84,11.33-0.78,17.01-0.72c0.8,0.01,1.52,0.2,2.16,0.68
	c0.49,0.37,0.91,0.81,0.76,1.44c-0.17,0.69-0.83,0.69-1.41,0.74c-6.82,0.59-13.64,1.19-20.47,1.76
	C303.7,438.56,302.15,438.53,301,437.06z"/>
<path class="st1" d="M391.24,420.13c-0.7,1.28-1.85,2.16-3.2,1.12c-4.56-3.51-9.76-4.11-15.24-3.76c-0.48,0.03-1,0.03-1.43-0.13
	c-0.87-0.32-2.14-0.54-2.1-1.59c0.03-0.78,1.16-1,2.03-1.18c6.85-1.42,13.33-1.14,18.81,3.92
	C390.56,418.94,391.36,419.14,391.24,420.13z"/>
<path class="st1" d="M588.13,354.38c0.2-2.03,1.9-2.88,3.24-3.85c4.73-3.42,9.94-5.99,15.34-8.19c0.7-0.29,1.46-0.92,2.01-0.03
	c0.43,0.7,0.04,1.56-0.48,2.13c-0.5,0.55-1.14,1.03-1.8,1.38c-5.29,2.8-10.61,5.53-15.89,8.35
	C589.71,354.62,589,354.85,588.13,354.38z"/>
<path class="st1" d="M624.35,356.78c-1.48,1.14-2.51,1.87-4.07,2.05c-5.43,0.62-9.4,4.02-13.36,7.4c-0.75,0.64-1.61,1.98-2.62,0.88
	c-0.99-1.08,0.36-1.87,1-2.76c2.9-4,6.4-7.06,11.35-8.29C619.21,355.43,621.54,355.96,624.35,356.78z"/>
<path class="st1" d="M541.61,340.09c0.36-4.69,0.69-9.18,1.04-13.67c0.04-0.53-0.21-1.22,0.64-1.37c0.76-0.14,0.98,0.47,1.24,0.97
	c1.66,3.22,2.54,6.74,3.85,10.09c0.39,0.99-0.27,1.15-0.74,1.37C545.68,338.38,543.69,339.2,541.61,340.09z"/>
<path class="st1" d="M559.32,332.29c-0.32,0.21-0.63,0.46-0.98,0.62c-6.12,2.86-6.17,2.88-8.91-3.42c-1.05-2.42-1.83-4.97-3.02-8.25
	c1.82,1.69,3.42,2.48,3.24,4.6c-0.02,0.2-0.31,0.44,0.17,0.55C552.67,327.04,557.03,329.76,559.32,332.29z"/>
<path class="st1" d="M447.8,368.91c-3.04,0.75-5.69,1.4-8.61,2.11c0.25-3.81,0.33-7.44,2.03-10.89
	C444.64,361.91,444.76,366.35,447.8,368.91z"/>
<path class="st1" d="M445.41,358.94c3.44,2.52,6.87,5.03,10.69,7.83c-1.56-0.22-2.1,0.82-3.12,1.15c-3.42,1.1-4.15-1.85-5.29-3.49
	c-1.03-1.48-1.95-3.24-2.82-4.92C445.05,359.32,445.23,359.13,445.41,358.94z"/>
<path class="st1" d="M349.53,426.76c-2.22,0.19-3.93,0.04-5.49-0.79c-0.43-0.23-1.14-0.37-1.03-1.18c0.1-0.74,0.43-1.25,1.16-1.45
	c2.9-0.79,5.69-0.22,8.43,0.7c0.77,0.26,0.9,0.97,0.82,1.66c-0.07,0.67-0.68,0.97-1.21,1.03
	C351.17,426.83,350.11,426.76,349.53,426.76z"/>
<path class="st1" d="M184.8,442.92c-2.88,0.38-5.36-0.07-7.86-0.22c-1.31-0.08-1.67-0.94-1.56-1.95c0.11-0.99,0.79-2.18,1.85-1.72
	C179.74,440.12,183.02,439.78,184.8,442.92z"/>
<path class="st1" d="M492.85,343.44c1.96,3.82,1.2,8.08,2.28,12.02c0.18,0.66-0.37,0.86-0.82,0.95c-0.97,0.19-1.12-0.72-1.12-1.24
	C493.18,351.25,492.03,347.38,492.85,343.44z"/>
<path class="st2" d="M166.56,424.93c0.17-0.09,0.33-0.27,0.5-0.27c11.07-0.01,22.15,0,33.22,0.01c0.17,0,0.33,0.17,0.5,0.27
	C189.37,425.19,177.96,425.22,166.56,424.93z"/>
<path class="st1" d="M435.98,349.45c0,1.52,0.05,2.66-0.01,3.79c-0.06,1.14-1.2,1.35-1.83,1.23c-0.83-0.16-0.45-1.15-0.21-1.68
	C434.42,351.72,434.65,350.49,435.98,349.45z"/>
<path class="st2" d="M241.66,397.55c0.08-0.52,0.36-0.95,0.91-0.92c3.13,0.14,6.29-0.52,9.38,0.35
	C248.52,397.17,245.09,397.36,241.66,397.55z"/>
<path class="st2" d="M239.8,447.86c-3.64,0.82-7.29,0.65-10.94,0.06C232.51,447.91,236.15,447.88,239.8,447.86z"/>
<path class="st2" d="M175.18,431.62c-3.46,0.9-6.99,0.11-10.47,0.44C168.16,430.91,171.69,431.8,175.18,431.62z"/>
<path class="st2" d="M216.07,445.26c3.44-0.48,6.88-0.59,10.32,0.05C222.95,445.29,219.51,445.27,216.07,445.26z"/>
<path class="st1" d="M469.1,205.07c-0.68,0.42-0.31,1.75-1.5,1.73c0-1.55,0-3.1,0-4.84C468.62,202.92,468.91,203.97,469.1,205.07z"
	/>
<path class="st2" d="M246.85,450.88c2.64-1.36,5.36-0.81,8.07-0.33C252.23,450.66,249.54,450.77,246.85,450.88z"/>
<polygon class="st1" points="694.74,296.03 694.86,295.79 694.69,295.77 "/>
<path class="st1" d="M330.65,429.16c0.12,0.11,0.25,0.21,0.37,0.32c-0.33,0.09-0.54,0.06-0.33-0.35
	C330.7,429.13,330.65,429.16,330.65,429.16z"/>
<path class="st2" d="M571.08,401.8c0.04-0.08,0.08-0.17,0.12-0.25c-0.04,0.08-0.09,0.16-0.13,0.24
	C571.07,401.79,571.08,401.8,571.08,401.8z"/>
</svg>
