<?xml version="1.0" encoding="utf-8"?>
<!-- Generator: Adobe Illustrator 27.4.0, SVG Export Plug-In . SVG Version: 6.00 Build 0)  -->
<svg version="1.0" id="レイヤー_1" xmlns="http://www.w3.org/2000/svg" xmlns:xlink="http://www.w3.org/1999/xlink" x="0px"
	 y="0px" width="841.89px" height="595.28px" viewBox="0 0 841.89 595.28" style="enable-background:new 0 0 841.89 595.28;"
	 xml:space="preserve">
<style type="text/css">
	.st0{fill:#0E1034;}
	.st1{fill:#252246;}
	.st2{fill:#EAA37C;}
</style>
<path class="st0" d="M841.8,234.82c0,1.46,0,2.92,0,4.39c-5.18-0.12-10.15,1.04-15.06,2.51c-1.12,0.34-1.91,0.81-3.04-0.43
	c-5.3-5.82-11.29-9.2-19.26-4.84c-2.22,1.21-2.96-0.08-2.55-2.22c0.19-1,0.61-1.96,0.85-2.95c2.74-11.2-7.86-25.14-19.34-25.44
	c-5.63-0.15-5.86-0.38-4.97-6.24c1.07-7.02-0.95-12.9-6.95-16.77c-5.89-3.81-12.3-4.81-18.57-0.73c-2.92,1.9-4.89,1.75-6.93-1.23
	c-1.94-2.84-5.39-4.52-7.82-1.77c-3.51,3.99-6.67,3.42-10.65,1.54c-1.53-0.72-3.42-1.01-5.13-0.97c-5.09,0.13-10.01,0.89-12.38,6.36
	c-0.96,2.2-2.85,2.3-4.78,2.26c-3.85-0.07-7.48,0.58-11.09,2.09c-12.17,5.08-21.01,14.22-29.02,24.12
	c-3.11,3.84-5.43,4.34-9.83,2.47c-9.96-4.24-20.2-6.43-31.11-2.88c-8.1,2.64-15.82,6.05-23.37,9.86c-6.01,3.04-6.14,4.47-3.42,10.82
	c6.5,15.15,12.91,30.34,19.35,45.52c0.75,1.76,1.75,3.63-0.56,5c-4.5,2.66-7.93,6.36-10.87,10.63c-1.66,2.41-3.61,1.66-4.98-0.28
	c-0.89-1.26-1.27-2.92-1.76-4.43c-3-9.14-11.77-12.44-20.01-7.49c-2.66,1.6-4.99,3.58-6.8,6.12c-3.55,4.99-7,10.06-10.63,15
	c-3.99,5.43-6.46,5.36-10.28-0.21c-2.8-4.1-5.36-8.36-8.21-12.42c-3.73-5.31-7.87-10.21-14.55-11.98c-4.51-1.2-8.53-0.17-11.57,3.3
	c-4.99,5.7-6.39,5.88-11.53,0.58c-6.2-6.38-11.99-7.33-19.81-3c-5.45,3.02-9.71,7.31-13.01,12.64c-1.76,2.84-3.92,5.45-6.03,8.06
	c-1.02,1.26-2.42,2.28-4.2,1.76c-1.76-0.51-1.72-2.18-1.87-3.61c-0.47-4.42-1.75-8.5-4.06-12.37c-3.35-5.63-8.97-7.66-14.92-5.05
	c-8.6,3.77-10.17,11.49-10.74,19.56c-0.57,8.13,0.43,16.26,0.09,24.45c-0.64,15.43-0.15,30.92-0.18,46.38
	c-0.01,3.84,0.47,7.63,1.76,11.21c1.51,4.2,3.69,7.96,8.43,9.4c9.56,2.9,17.02-2.2,18.69-12.74c0.81-5.07,0.92-10.17,1.03-15.29
	c0.05-2.24,0.61-4.67,3.06-5.33c2.51-0.68,3.96,1.42,5.25,3.19c0.77,1.05,1.23,2.32,1.92,3.44c5.36,8.71,10.59,17.53,17.97,24.75
	c4.48,4.38,11.48,5.05,17.06,1.96c4.5-2.49,6.83-8.49,5.87-14.44c-0.86-5.33-3.17-9.99-5.98-14.48
	c-3.88-6.19-7.61-12.48-11.67-18.55c-3.77-5.64-3.29-10.81,0.43-16.24c5.36-7.82,10.46-15.81,15.66-23.74
	c0.77-1.17,0.88-3.05,2.71-3.07c1.77-0.02,2.24,1.67,2.91,2.92c5.64,10.41,11.52,20.64,18.75,30.08c2.76,3.6,4.3,7.82,4.15,12.66
	c-0.25,8.32-0.03,16.66-0.1,25c-0.03,3.1,0.39,6.13,1.11,9.11c1.63,6.78,7.31,11.88,13.73,12.45c5.67,0.5,11.67-3.86,14.24-10.42
	c0.85-2.18,1.31-4.45,1.67-6.78c1.11-7.13,0.69-14.29,0.85-21.44c0.08-3.79,0.08-7.72,2.16-11.04c6.51-10.4,13.18-20.69,19.81-31.02
	c0.91-1.42,1.57-3.53,3.86-2.68c2.17,0.81,2.36,2.88,2.04,4.82c-2.12,12.78-1.9,25.58-0.71,38.43c1.06,11.46,5.11,21.51,12.97,29.98
	c12.34,13.3,28.1,13.3,44.32,11.3c2.28-0.28,4.78-0.61,6.56-2.25c3.52-3.24,5.33-1.61,6.6,2.05c1.6,4.58,4.6,6.35,9.65,6.29
	c49.7-0.64,99.39,0.73,149.09,0.87c1.89,0.01,3.81,0.07,5.68,0.38c3.38,0.55,6.69,0.52,9.99-0.41c0,26.17-0.05,52.35,0.07,78.52
	c0.01,2.62-0.53,3.14-3.15,3.14c-278.75-0.08-557.5-0.08-836.25,0c-2.62,0-3.14-0.53-3.14-3.14c0.08-123.12,0.09-246.23-0.02-369.35
	c0-3.22,1.24-3.11,3.6-3.11c179.89,0.05,359.77,0.04,539.66,0.04c6.14,16.09,13.07,31.83,20.45,47.41
	c7.93,16.73,14.99,33.87,22.44,50.83c2,4.54,4.05,9.06,6.04,13.6c1.1,2.52,2.59,3.31,5.11,1.63c2.55-1.7,5.2-3.27,7.9-4.71
	c16.72-8.93,33.8-14.16,52.14-4.58c2.04,1.07,3.65,0.69,5.07-0.94c2.39-2.76,4.89-5.44,7.05-8.36
	c8.87-12.01,20.44-19.23,35.53-20.34c1.03-0.08,2.1-0.18,2.79-1.04c6.22-7.7,14.09-7.87,22.61-4.95c1.71,0.58,3.03,0.23,4.45-0.85
	c5.27-3.98,7.68-3.9,13.06,0.53c1.54,1.27,2.82,1.6,4.73,0.76c15.98-6.99,29.57,1.08,31.07,18.41c0.16,1.9,0.58,3.28,2.69,3.93
	c12.9,4,19.38,13.22,21,26.25c0.25,2.01,0.93,3.35,3.12,3.47c5.37,0.29,9.71,2.93,13.81,6.08c1.23,0.94,2.38,1.5,4,1.15
	C832.35,236.62,837.08,235.74,841.8,234.82z M150.88,396.26c20.46,0,40.93-0.01,61.39,0c5.5,0,10.4-1.65,12.73-6.85
	c2.33-5.2,0.11-9.99-3.22-14.21c-0.81-1.03-1.81-1.9-2.74-2.83c-5.37-5.38-10.77-10.73-16.1-16.14c-1.29-1.31-3.04-2.61-1.53-4.85
	c3.57-5.3,7.17-10.57,10.72-15.89c3-4.5,6.01-8.98,8.88-13.56c6.48-10.38,3.41-19.98-2.17-29.63
	c-14.82-25.64-29.42-51.41-44.13-77.11c-3.11-5.44-6.05-11.01-9.54-16.19c-5.45-8.09-15.68-12.03-24.84-4.02
	c-2.24,1.96-4,4.25-5.46,6.78c-12.77,22.14-25.52,44.29-38.26,66.45c-4.66,8.1-9.2,16.27-13.98,24.3
	c-6.68,11.23-8.3,22.13,0.22,33.41c4.74,6.28,9.36,12.69,13.82,19.16c5.11,7.41,5.82,8.12-0.55,14.51
	c-4.02,4.03-7.96,8.12-12.29,11.87c-3.28,2.84-6.02,6.35-7.33,10.72c-1.59,5.31,0.73,10.37,5.76,12.65c2.61,1.19,5.3,1.47,8.11,1.46
	C110.54,396.25,130.71,396.27,150.88,396.26z M286.33,345.63c0,9.94,0.04,19.88-0.02,29.82c-0.02,3.3,0.78,6.33,2.14,9.3
	c2.05,4.47,5.21,7.67,10.29,7.54c5.5-0.14,9.22-3.34,11.19-8.44c1.91-4.96,2.75-10.14,2.76-15.45c0.02-15.05-0.03-30.11,0.04-45.16
	c0.03-5.78,2.39-8.53,7.96-9.89c3.4-0.83,6.86-1.52,10.17-2.64c6.32-2.14,7.14-1.6,7.3,4.91c0.37,15.02-1.22,30.1,1.67,45.04
	c2.68,13.82,9.27,24.69,22.39,30.86c10.6,4.99,21.89,3.57,32.78,2.36c13.9-1.55,27.54-17.07,29.98-32.46
	c2.44-15.37,2.65-30.75,0.2-46.18c-1.53-9.64-5.92-18.1-12.81-24.41c-19.44-17.8-43.53-15.14-60.6,0.33
	c-1.93,1.75-3.18,4.18-5.41,5.7c-3.51,2.41-4.72,1.94-5.55-2.23c-1.64-8.25-6.74-13.5-14.96-15.15
	c-15.21-3.04-30.58-1.64-45.89-1.27c-4.47,0.11-9.05,0.69-13.36,2.25c-8.11,2.94-10.11,13.44-3.66,19.16
	c3.6,3.2,7.62,5.16,12.57,5.5c8.62,0.6,10.79,3.17,10.81,12C286.33,326.63,286.32,336.13,286.33,345.63z M289.27,215.54
	c-4.24,0-8.49-0.16-12.72,0.03c-13.75,0.61-19.69,5.91-21.5,19.37c-0.86,6.41-0.52,12.87,1.1,19.15c1.66,6.45,5.65,10.6,12.32,12.32
	c5.36,1.38,10.45,0.67,15.53-0.85c3.26-0.98,6.45-1.24,9.9-1.1c8,0.31,16.11,0.73,24.01-0.24c10.62-1.3,21.16,1.21,31.71-0.23
	c0.96-0.13,2.01,0.31,3,0.59c5.23,1.5,10.44,1.31,15.54-0.47c6.67-2.32,13.4-2.55,20.32-1.45c6.47,1.03,12.94,3.01,19.54,1.87
	c4.88-0.85,9.65-0.49,14.36,0.36c5.63,1.01,11.08,0.66,16.48-0.88c4.37-1.25,8.61-1.2,12.94,0.1c7.93,2.38,15.92,1.81,23.85,0.09
	c4.35-0.94,8.9-2.48,10.74-6.82c4.23-9.95,4.27-20.26-0.02-30.18c-2.17-5.03-7.09-6.81-11.7-4.19c-6.34,3.59-13.44,3.75-20.04,5.83
	c-8.83,2.78-15.94,0.47-23.04-4.46c-5.83-4.05-11.01-3.91-16.62,0.23c-6.21,4.58-13.32,4.53-19.61,2.01
	c-6.27-2.51-12.14-5.46-19.09-5.41c-1.54,0.01-3.17-0.63-4.62-1.29c-7.13-3.27-14.28-2.9-21.85-1.34
	c-8.64,1.78-17.63-0.87-26.37,1.05c-0.26,0.06-0.58-0.07-0.85-0.18C311.79,215.44,300.55,215.33,289.27,215.54z"/>
<path class="st1" d="M841.8,403.26c-3.3,0.93-6.61,0.96-9.99,0.41c-1.86-0.31-3.78-0.37-5.68-0.38c-49.7-0.14-99.39-1.5-149.09-0.87
	c-5.05,0.06-8.05-1.7-9.65-6.29c-1.28-3.66-3.08-5.29-6.6-2.05c-1.78,1.64-4.28,1.97-6.56,2.25c-16.22,2-31.98,2-44.32-11.3
	c-7.86-8.47-11.91-18.52-12.97-29.98c-1.19-12.85-1.41-25.65,0.71-38.43c0.32-1.95,0.13-4.01-2.04-4.82
	c-2.3-0.85-2.95,1.25-3.86,2.68c-6.62,10.33-13.3,20.62-19.81,31.02c-2.08,3.32-2.08,7.25-2.16,11.04
	c-0.16,7.15,0.25,14.31-0.85,21.44c-0.36,2.33-0.82,4.6-1.67,6.78c-2.57,6.56-8.56,10.92-14.24,10.42
	c-6.42-0.57-12.1-5.67-13.73-12.45c-0.72-2.99-1.13-6.01-1.11-9.11c0.07-8.33-0.15-16.67,0.1-25c0.15-4.84-1.39-9.06-4.15-12.66
	c-7.23-9.44-13.11-19.67-18.75-30.08c-0.68-1.25-1.14-2.94-2.91-2.92c-1.84,0.02-1.95,1.9-2.71,3.07
	c-5.19,7.93-10.3,15.92-15.66,23.74c-3.72,5.43-4.2,10.61-0.43,16.24c4.06,6.07,7.79,12.36,11.67,18.55
	c2.81,4.49,5.12,9.15,5.98,14.48c0.96,5.95-1.36,11.95-5.87,14.44c-5.59,3.09-12.58,2.42-17.06-1.96
	c-7.38-7.22-12.61-16.04-17.97-24.75c-0.69-1.12-1.15-2.39-1.92-3.44c-1.29-1.77-2.74-3.87-5.25-3.19
	c-2.45,0.66-3.01,3.09-3.06,5.33c-0.11,5.11-0.23,10.21-1.03,15.29c-1.68,10.54-9.13,15.64-18.69,12.74
	c-4.75-1.44-6.93-5.2-8.43-9.4c-1.29-3.58-1.77-7.36-1.76-11.21c0.03-15.46-0.46-30.94,0.18-46.38c0.34-8.19-0.66-16.32-0.09-24.45
	c0.56-8.08,2.14-15.79,10.74-19.56c5.96-2.61,11.57-0.58,14.92,5.05c2.3,3.87,3.59,7.95,4.06,12.37c0.15,1.44,0.11,3.1,1.87,3.61
	c1.78,0.52,3.18-0.5,4.2-1.76c2.11-2.61,4.27-5.21,6.03-8.06c3.3-5.33,7.56-9.62,13.01-12.64c7.82-4.34,13.62-3.38,19.81,3
	c5.14,5.29,6.54,5.11,11.53-0.58c3.03-3.46,7.05-4.49,11.57-3.3c6.68,1.77,10.82,6.67,14.55,11.98c2.85,4.06,5.4,8.33,8.21,12.42
	c3.81,5.57,6.29,5.64,10.28,0.21c3.63-4.94,7.07-10.01,10.63-15c1.81-2.54,4.13-4.52,6.8-6.12c8.24-4.95,17.01-1.65,20.01,7.49
	c0.5,1.52,0.87,3.17,1.76,4.43c1.37,1.94,3.32,2.69,4.98,0.28c2.94-4.27,6.37-7.97,10.87-10.63c2.31-1.36,1.31-3.23,0.56-5
	c-6.44-15.18-12.85-30.37-19.35-45.52c-2.73-6.35-2.6-7.78,3.42-10.82c7.55-3.81,15.27-7.22,23.37-9.86
	c10.91-3.56,21.15-1.37,31.11,2.88c4.4,1.87,6.72,1.38,9.83-2.47c8.02-9.9,16.85-19.04,29.02-24.12c3.61-1.51,7.24-2.16,11.09-2.09
	c1.93,0.04,3.82-0.06,4.78-2.26c2.38-5.47,7.29-6.24,12.38-6.36c1.71-0.04,3.6,0.25,5.13,0.97c3.98,1.88,7.14,2.45,10.65-1.54
	c2.42-2.75,5.87-1.07,7.82,1.77c2.04,2.98,4.01,3.13,6.93,1.23c6.27-4.07,12.68-3.08,18.57,0.73c6,3.88,8.02,9.75,6.95,16.77
	c-0.9,5.86-0.67,6.09,4.97,6.24c11.48,0.3,22.09,14.24,19.34,25.44c-0.24,0.99-0.66,1.95-0.85,2.95c-0.41,2.13,0.33,3.43,2.55,2.22
	c7.97-4.36,13.96-0.98,19.26,4.84c1.13,1.24,1.92,0.76,3.04,0.43c4.91-1.47,9.88-2.63,15.06-2.51c0,10.82,0,21.64,0,32.46
	c-9.93,4.01-20.07,4.62-30.45,1.96c-1.62-0.42-3.16,0.37-4.6,1.12c-4.43,2.32-9.25,3.58-13.94,5.22
	c-10.23,3.57-20.11,2.6-29.66-2.32c-3.35-1.73-6.07-1.63-9.01,1.29c-15.39,15.29-34.15,18.16-53.86,11.84
	c-8.82-2.83-16.31,0.38-24.41,0.6c-0.81,0.02-1.84,0.59-1.53,1.7c0.31,1.09,1.4,0.85,2.24,0.75c3.91-0.44,7.84-0.8,11.72-1.43
	c2.1-0.34,4.1-0.42,5.99,0.51c5.48,2.69,11.4,3.77,17.34,4.36c13.44,1.33,26.24-0.34,37.04-9.51c2.11-1.79,4.45-3.37,6.35-5.37
	c2.41-2.53,4.52-2.75,7.68-1.06c6.97,3.74,14.54,5.69,22.41,3.88c6.53-1.5,13.04-3.46,18.94-6.73c3.36-1.86,6.41-1.93,10.03-1.13
	c9.4,2.1,18.8,2.75,27.7-2.18c0,15.5,0,31,0,46.5c-2.94,0.92-5.73,2.03-8.17,4.06c-6.22,5.18-12.85,7.37-21.31,5.29
	c-8.74-2.14-17.7-0.25-25.37,4.42c-16.81,10.22-34.44,18.41-53.14,24.6c-7.97,2.64-15.73,6.26-22.88,10.87
	c-0.81,0.53-2.07,1.19-1.55,2.33c0.61,1.33,1.77,0.41,2.62,0.02c11.82-5.36,24.55-7.53,37.06-10.35c16.8-3.78,33.92-3.67,51.03-3.51
	c7.89,0.07,15.76,0.14,23.58-1.36c6.01-1.16,11.92-3.02,18.12-3.04C841.8,371.09,841.8,387.18,841.8,403.26z M608.22,336.34
	c0,6.86-0.11,12.27,0.02,17.67c0.29,12.06,5.89,21.41,15.59,28.12c3.57,2.47,7.7,4.58,12.39,4.66c2.13,0.04,3.35-1.25,3.73-2.97
	c0.4-1.84-1.09-3.13-2.69-3.39c-6.67-1.12-11.54-5.16-15.77-9.9c-3.99-4.48-6.63-10.15-6.32-16.05c0.57-10.93,0.05-21.84,0.34-32.75
	c0.24-8.81,3.16-15.95,10.72-21.4c6.34-4.57,13.12-5.02,20.26-4.65c10.64,0.56,21.18,11.82,22.31,22.3
	c1.13,10.5,0.33,20.96,0.77,31.43c0.15,3.68-0.43,7.31-1.32,10.75c-2.66,10.28-9.53,16.63-19.7,19.62c-2.11,0.62-5.06,1.52-3.99,4.6
	c0.9,2.59,3.57,2.72,6.01,2.09c12.61-3.25,21.26-11.18,24.52-23.6c3.66-13.96,1.57-28.41,1.44-42.66c-0.02-2.15-0.37-4.35-0.96-6.42
	c-4.14-14.62-13.95-22.29-28.85-24.99c-16.76-3.04-32.32,8.39-36.81,22.62C607.14,320.14,608.86,329.01,608.22,336.34z
	 M493.45,289.04c-4.05-1.05-6.04,2.18-8.02,4.98c-9.8,13.81-19.48,27.7-29.21,41.55c-1.84,2.62-3.82,5.14-5.58,7.8
	c-1.29,1.95-0.39,3.65,1.14,5.01c1.62,1.43,2.97,0.55,4.12-0.75c1.43-1.63,2.84-3.28,4.16-5c2.54-3.3,6.74-3.39,8.93,0.03
	c5.49,8.58,10.84,17.24,16.29,25.84c3.51,5.54,7.06,11.05,10.67,16.52c1.12,1.7,2.64,2.72,4.78,1.49c2.18-1.25,1.73-3.13,1.16-4.98
	c-0.21-0.68-0.71-1.27-1.1-1.88c-6.48-10.37-12.94-20.76-19.46-31.11c-8.39-13.31-7.55-9.21,0.76-21.7
	c5.79-8.71,12.09-17.07,17.75-25.86C503.98,294.53,501.07,289.21,493.45,289.04z M626.89,337.91c-0.39,5.05,0.15,10.12,0.93,15.18
	c1.54,10.05,10.29,16.88,18.57,14.49c5.33-1.54,6.8-4.31,4.94-9.53c-1.51-4.26-3.81-8.16-5.5-12.37
	c-3.85-9.6-8.34-18.94-12.64-28.35c-0.51-1.13-1.12-2.8-2.61-2.59c-1.78,0.25-1.7,2.17-1.95,3.54
	C627.42,324.74,626.39,331.23,626.89,337.91z M586.4,290.14c-1.66,0.37-2.6,1.56-3.48,2.91c-7.05,10.9-14.37,21.63-21.16,32.69
	c-12.71,20.71-11.47,13.64-11.45,39.36c0,1.17-0.01,2.34,0,3.51c0.03,4.82,0.07,9.64,0.11,14.46c0.02,2.15,0.98,3.94,3.16,4.02
	c2.1,0.08,3.41-1.53,3.73-3.63c0.2-1.29,0.17-2.62,0.18-3.93c0.05-9.93,0.14-19.87,0.07-29.8c-0.02-2.59,0.57-4.89,1.9-7.03
	c4.54-7.33,9.09-14.67,13.67-21.98c5.35-8.53,10.79-16.99,16.06-25.57C590.67,292.75,589.02,290.09,586.4,290.14z M448.77,338.43
	c0-14.76-0.05-29.52,0.05-44.28c0.02-2.85-1.17-4.79-3.79-4.73c-2.38,0.05-3.41,1.97-3.4,4.63c0.08,29.23,0.06,58.45,0.05,87.68
	c0,2.65,0.48,5.51,3.54,5.51c2.93,0,3.62-2.58,3.6-5.41C448.72,367.36,448.77,352.89,448.77,338.43z M553.36,331.44
	c0.26-1.25-0.72-2.28-1.4-3.35c-4.28-6.74-8.58-13.48-12.96-20.16c-3.58-5.46-7.13-10.95-11-16.19c-1.28-1.73-3.02-4.49-5.9-2.61
	c-2.97,1.94-1.17,4.2,0.2,6.31c3.78,5.86,7.49,11.77,11.28,17.62c4.27,6.6,8.6,13.16,12.9,19.74c1.12,1.71,2.53,2.83,4.73,2.2
	C552.9,334.52,553.47,333.3,553.36,331.44z"/>
<path class="st1" d="M841.8,234.82c-4.72,0.93-9.46,1.81-14.17,2.81c-1.62,0.35-2.77-0.21-4-1.15c-4.1-3.14-8.44-5.78-13.81-6.08
	c-2.19-0.12-2.87-1.46-3.12-3.47c-1.62-13.03-8.1-22.25-21-26.25c-2.11-0.65-2.53-2.03-2.69-3.93c-1.5-17.33-15.09-25.4-31.07-18.41
	c-1.92,0.84-3.19,0.5-4.73-0.76c-5.38-4.43-7.79-4.51-13.06-0.53c-1.42,1.07-2.74,1.43-4.45,0.85c-8.52-2.91-16.39-2.75-22.61,4.95
	c-0.7,0.86-1.76,0.97-2.79,1.04c-15.09,1.11-26.66,8.33-35.53,20.34c-2.16,2.93-4.66,5.61-7.05,8.36c-1.41,1.63-3.02,2-5.07,0.94
	c-18.34-9.58-35.42-4.34-52.14,4.58c-2.7,1.44-5.35,3.02-7.9,4.71c-2.52,1.67-4,0.88-5.11-1.63c-1.99-4.54-4.04-9.06-6.04-13.6
	c-7.45-16.96-14.51-34.1-22.44-50.83c-7.38-15.58-14.31-31.31-20.45-47.41c98.57,0,197.14,0.02,295.71-0.08c3,0,3.61,0.59,3.6,3.59
	C841.76,153.52,841.8,194.17,841.8,234.82z"/>
<path class="st1" d="M841.8,326.06c0,8.48,0,16.96,0,25.44c-2.6,0.37-5.23,0.57-7.78,1.14c-12.87,2.84-25.83,4.49-39.07,4.17
	c-11.08-0.27-22.19-0.48-33.25,0.87c-3.76,0.46-7.51,0.96-11.27,1.44c0.58-1.14,1.3-1.6,2.07-1.93
	c11.26-4.82,22.54-9.55,32.89-16.26c9.82-6.37,21.13-7.75,32.07-5.67c6.05,1.15,9.35-1.21,13.51-3.73
	C834.44,329.44,837.54,326.59,841.8,326.06z"/>
<path class="st0" d="M841.8,326.06c-4.26,0.53-7.37,3.38-10.83,5.47c-4.16,2.51-7.46,4.88-13.51,3.73
	c-10.94-2.08-22.24-0.7-32.07,5.67c-10.35,6.71-21.63,11.45-32.89,16.26c-0.77,0.33-1.49,0.78-2.07,1.93
	c3.76-0.48,7.51-0.98,11.27-1.44c11.05-1.35,22.17-1.14,33.25-0.87c13.24,0.32,26.2-1.32,39.07-4.17c2.55-0.56,5.19-0.77,7.78-1.14
	c0,1.17,0,2.34,0,3.51c-6.21,0.02-12.11,1.88-18.12,3.04c-7.82,1.5-15.69,1.44-23.58,1.36c-17.1-0.16-34.23-0.27-51.03,3.51
	c-12.52,2.82-25.24,4.99-37.06,10.35c-0.86,0.39-2.01,1.31-2.62-0.02c-0.52-1.14,0.74-1.81,1.55-2.33
	c7.15-4.62,14.91-8.24,22.88-10.87c18.7-6.19,36.33-14.37,53.14-24.6c7.67-4.66,16.63-6.56,25.37-4.42
	c8.46,2.08,15.1-0.11,21.31-5.29c2.44-2.03,5.23-3.14,8.17-4.06C841.8,323.13,841.8,324.6,841.8,326.06z M746.68,359.95l-0.05-0.24
	l-0.21,0.15L746.68,359.95z"/>
<path class="st0" d="M841.8,275.17c-8.9,4.93-18.3,4.28-27.7,2.18c-3.62-0.81-6.67-0.74-10.03,1.13c-5.9,3.27-12.41,5.23-18.94,6.73
	c-7.87,1.81-15.45-0.14-22.41-3.88c-3.16-1.7-5.27-1.47-7.68,1.06c-1.9,2-4.23,3.57-6.35,5.37c-10.8,9.18-23.6,10.85-37.04,9.51
	c-5.94-0.59-11.86-1.67-17.34-4.36c-1.89-0.93-3.89-0.85-5.99-0.51c-3.88,0.63-7.81,0.99-11.72,1.43c-0.84,0.1-1.93,0.34-2.24-0.75
	c-0.31-1.1,0.71-1.68,1.53-1.7c8.09-0.21,15.59-3.42,24.41-0.6c19.71,6.32,38.47,3.45,53.86-11.84c2.94-2.92,5.67-3.02,9.01-1.29
	c9.55,4.92,19.42,5.89,29.66,2.32c4.69-1.64,9.51-2.89,13.94-5.22c1.44-0.75,2.98-1.54,4.6-1.12c10.38,2.66,20.52,2.05,30.45-1.96
	C841.8,272.83,841.8,274,841.8,275.17z"/>
<path class="st1" d="M150.88,396.27c-20.17,0-40.34-0.01-60.52,0.01c-2.81,0-5.5-0.28-8.11-1.46c-5.03-2.28-7.36-7.34-5.76-12.65
	c1.31-4.36,4.05-7.87,7.33-10.72c4.32-3.75,8.27-7.84,12.29-11.87c6.37-6.39,5.66-7.1,0.55-14.51c-4.46-6.47-9.08-12.88-13.82-19.16
	c-8.52-11.28-6.91-22.19-0.22-33.41c4.78-8.03,9.32-16.2,13.98-24.3c12.75-22.15,25.5-44.3,38.26-66.45
	c1.46-2.54,3.22-4.82,5.46-6.78c9.15-8.01,19.39-4.07,24.84,4.02c3.5,5.19,6.43,10.75,9.54,16.19c14.71,25.7,29.3,51.47,44.13,77.11
	c5.58,9.65,8.65,19.25,2.17,29.63c-2.86,4.58-5.88,9.07-8.88,13.56c-3.54,5.32-7.15,10.59-10.72,15.89
	c-1.51,2.24,0.24,3.54,1.53,4.85c5.34,5.41,10.73,10.76,16.1,16.14c0.93,0.93,1.93,1.81,2.74,2.83c3.33,4.22,5.55,9.01,3.22,14.21
	c-2.33,5.2-7.23,6.86-12.73,6.85C191.81,396.25,171.35,396.26,150.88,396.27z M190.64,343.8c1.77,0,2.28-0.96,2.96-1.97
	c6.71-9.83,13.46-19.64,20.3-29.38c1.24-1.77,1.39-3.22,0.23-5c-4.56-7.01-7.79-14.75-12.14-21.91
	c-8.39-13.81-16.19-27.98-24.23-41.99c-8.19-14.27-16.37-28.54-24.59-42.8c-1.44-2.5-2.73-3.11-4.5,0.02
	c-7.63,13.49-15.41,26.9-23.19,40.31c-12.8,22.08-25.64,44.14-38.45,66.21c-1.02,1.75-1.05,3.14,0.34,5.06
	c5.13,7.08,9.9,14.41,14.82,21.64c2.02,2.96,3.56,6.28,6.25,8.73c0.69,0.63,1.12,2.43,2.67,1.27c1.74-1.3,0.22-2.18-0.47-3.21
	c-6.58-9.74-13.06-19.54-19.77-29.18c-1.05-1.51-0.9-2.2-0.07-3.6c3.64-6.16,7.08-12.45,10.65-18.66
	c7.36-12.81,14.73-25.61,22.14-38.38c8.41-14.5,16.91-28.94,25.22-43.5c0.56-0.98,1.34-1.8,2.02-2.01c1.27-0.4,1.34,1.2,1.78,1.98
	c6.82,11.84,13.57,23.72,20.39,35.57c12.23,21.26,24.43,42.53,36.81,63.7c1.37,2.34,1.31,3.75-0.21,5.91
	c-6.53,9.26-12.82,18.68-19.28,28c-0.56,0.81-0.82,1.51-0.62,2.39C189.84,343.67,190.42,343.81,190.64,343.8z M153.13,322.4
	c0,0.01,0,0.02,0,0.03c-3.8,0-7.61-0.21-11.39,0.05c-4.71,0.33-9.53,0.07-12.19,5.7c-3.57,7.57-9.51,13.66-14.23,20.53
	c-0.97,1.41-2.13,2.86-0.25,4.03c1.72,1.07,2.32-0.89,3.08-1.95c1.02-1.42,2.35-3.03,3.5-0.68c1.09,2.23,2.01,1.48,3.69,1.1
	c4.54-1.04,9.33-2.93,13.25,1.64c0.98,1.14,1.95-0.07,2.67-0.44c1.52-0.79,2.84-1.95,4.22-3c5.43-4.13,5.42-4.14,10.48-0.12
	c5.97,4.74,6.43,4.76,10.42-1.33c1.24-1.9,2.17-2.14,4.19-1.19c4.32,2.04,8.79,3.78,13.23,5.55c1.2,0.48,2.61,0.77,3.63-0.44
	c1.13-1.34-0.34-2.06-0.9-2.95c-4.85-7.71-11.18-14.4-15.52-22.46c-1.71-3.19-4.14-4.48-7.8-4.15
	C159.87,322.64,156.49,322.4,153.13,322.4z M151.13,239.83c3.21,6.12,6.24,11.7,9.5,17.05c9.56,15.69,18.27,31.86,27.76,47.57
	c1.31,2.16,1.09,3.9-0.33,5.88c-2.51,3.49-4.82,7.11-7.26,10.65c-0.74,1.08-1.14,2.04,0.12,2.98c1.63,1.21,1.8-0.32,2.44-1.22
	c2.97-4.22,6.05-8.37,9.01-12.61c1.22-1.75,1.66-3.69,0.19-5.57c-3.57-4.57-5.51-10.03-8.4-14.98
	c-10.38-17.81-20.6-35.72-30.84-53.61c-1.68-2.94-3.04-3.03-4.78,0c-5.93,10.35-11.99,20.62-17.95,30.95
	c-7.17,12.41-14.31,24.84-21.4,37.29c-0.9,1.58-1.98,3.33-0.69,5.25c3.04,4.52,6.05,9.05,9.18,13.51c0.59,0.84,1.41,2.06,2.86,1.05
	c1.5-1.04,0.39-2.19-0.11-2.97c-2.43-3.85-4.98-7.63-7.61-11.34c-1.1-1.55-1.43-2.84-0.38-4.61c4.19-7.01,8.28-14.08,12.34-21.17
	C133.18,269.29,141.63,254.66,151.13,239.83z M85.85,385.38c9.8-8.1,16.93-17.72,25.5-25.93c0.7-0.67,1.01-1.72,1.59-2.53
	c0.36-0.49,0.76-0.97,0.32-1.51c-0.53-0.64-1.33-0.72-1.96-0.22c-0.91,0.72-1.79,1.51-2.53,2.4c-7.92,9.56-17.11,17.87-25.8,26.68
	c-0.93,0.94-2.82,1.58-2,3.36c0.7,1.52,2.34,0.81,3.58,0.81c43.41,0.02,86.82,0.02,130.23,0.03c1.32,0,2.63,0.03,3.94-0.06
	c0.83-0.05,1.87,0.15,2.3-0.85c0.52-1.19-0.37-1.9-1.14-2.56c-10.09-8.68-19.01-18.51-27.89-28.38c-0.92-1.02-1.83-2.46-3.1-1.42
	c-1.74,1.43,0.14,2.57,1.01,3.54c6.77,7.44,13.28,15.13,20.84,21.83c1.44,1.28,3.13,2.5,4.07,4.82
	C171.79,385.38,129.19,385.38,85.85,385.38z M150.83,272.88c1.22-0.06,1.24,1.12,1.62,1.77c4.5,7.64,8.78,15.41,13.42,22.97
	c3.34,5.43,7.13,10.55,0.47,16.21c-0.76,0.64-0.81,2.08,0.29,2.63c0.85,0.43,1.64,0.03,2.49-0.95c5.67-6.52,5.89-7.67,1.98-15.26
	c-0.26-0.51-0.46-1.06-0.74-1.56c-5.65-10.06-11.3-20.12-16.96-30.17c-1.46-2.59-2.79-3.69-4.78-0.19
	c-6.32,11.12-12.55,22.32-19.41,33.11c-2.84,4.47-2.59,7.7,0.82,11.22c1.37,1.42,2.03,5,4.37,3.62c2.96-1.76-0.36-4.21-1.29-5.63
	c-1.66-2.55-2.62-4.4-0.93-7.38c5.48-9.62,12.1-18.57,16.84-28.63C149.34,273.94,150.2,273.47,150.83,272.88z M150.23,297.98
	c1.6,0.21,1.65,1.48,2.08,2.29c1.42,2.65,4.79,4.66,2.35,8.62c-0.81,1.32,1.21,1.99,2.2,1.32c2.12-1.43,4.59-2.96,2.49-6.24
	c-2.15-3.37-4.14-6.84-6.33-10.17c-1.02-1.55-2.66-2.11-4-0.49c-3.13,3.78-5.27,8.2-7.25,12.64c-0.52,1.17,0.59,2.45,1.59,3.26
	c0.83,0.67,2.13,0.71,2.9,0.17c1.26-0.89,0.6-2-0.34-2.81c-0.89-0.77-0.09-1.3,0.21-1.83C147.49,302.42,148.9,300.14,150.23,297.98z
	 M119.79,380.36c0.38-0.21,0.87-0.33,1.1-0.64c3.53-4.58,7.04-9.18,10.52-13.81c0.45-0.6,0.58-1.46-0.24-1.86
	c-0.8-0.4-1.82-0.39-2.41,0.38c-3.44,4.49-6.84,9-10.19,13.55C117.58,379.33,118.29,380.07,119.79,380.36z M185.53,379.19
	c-0.04-0.25-0.03-0.42-0.1-0.53c-3.24-5.14-6.94-9.95-10.95-14.5c-0.27-0.31-1.21-0.37-1.62-0.15c-0.71,0.38-0.82,1.22-0.32,1.88
	c3.47,4.63,6.97,9.24,10.48,13.84c0.48,0.63,1.26,0.79,1.95,0.46C185.27,380.06,185.37,379.5,185.53,379.19z M152.4,372.88
	c0.01,0,0.01,0,0.02,0c0-2.17,0.04-4.33-0.02-6.5c-0.02-0.69-0.22-1.48-1.14-1.58c-1.11-0.12-1.6,0.63-1.62,1.55
	c-0.08,4.19-0.09,8.37-0.08,12.56c0,0.7,0.13,1.46,1.13,1.49c1.02,0.03,1.69-0.39,1.71-1.46C152.42,376.92,152.4,374.9,152.4,372.88
	z"/>
<path class="st1" d="M286.32,345.63c0-9.5,0.02-19,0-28.5c-0.02-8.83-2.19-11.4-10.81-12c-4.95-0.35-8.97-2.3-12.57-5.5
	c-6.44-5.73-4.45-16.22,3.66-19.16c4.31-1.56,8.88-2.14,13.36-2.25c15.31-0.37,30.67-1.77,45.89,1.27
	c8.22,1.64,13.32,6.89,14.96,15.15c0.83,4.18,2.04,4.64,5.55,2.23c2.22-1.52,3.47-3.95,5.41-5.7c17.08-15.47,41.16-18.13,60.6-0.33
	c6.88,6.3,11.27,14.76,12.81,24.41c2.45,15.43,2.24,30.81-0.2,46.18c-2.44,15.4-16.08,30.91-29.98,32.46
	c-10.89,1.21-22.18,2.63-32.78-2.36c-13.12-6.17-19.71-17.05-22.39-30.86c-2.89-14.94-1.3-30.02-1.67-45.04
	c-0.16-6.51-0.98-7.05-7.3-4.91c-3.31,1.12-6.77,1.8-10.17,2.64c-5.57,1.36-7.93,4.11-7.96,9.89c-0.07,15.05-0.02,30.11-0.04,45.16
	c-0.01,5.31-0.84,10.49-2.76,15.45c-1.97,5.1-5.69,8.31-11.19,8.44c-5.09,0.13-8.24-3.06-10.29-7.54c-1.36-2.98-2.16-6.01-2.14-9.3
	C286.36,365.51,286.33,355.57,286.32,345.63z M355.59,338.05c0.06,0,0.12,0,0.18,0c0-6.28,0.15-12.57-0.04-18.84
	c-0.26-8.78,4.34-15.37,10.97-19.57c17.17-10.86,41.3-1.42,42.34,21.17c0.48,10.35,0.19,20.74,0.24,31.12
	c0.04,8.24-2.65,15.32-8.68,21.1c-3.8,3.64-8.37,5.74-13.33,7.1c-2.29,0.63-3.05,1.99-2.7,4.2c0.38,2.42,2.21,2.41,4,2.33
	c0.84-0.04,1.67-0.37,2.51-0.57c14.4-3.38,25.23-15.97,25.31-33.1c0.05-10.08,0.11-20.17-0.01-30.25
	c-0.13-10.75-3.6-19.6-12.53-26.73c-10.66-8.52-28.2-10.31-39.64-2.9c-9.95,6.45-15.7,15.48-15.74,27.64
	c-0.04,10.82,0.14,21.63-0.05,32.44c-0.24,13.19,6.12,22.68,16.5,29.84c3.04,2.1,6.75,3.2,10.5,3.64c1.76,0.21,3.53-0.08,4-2.25
	c0.48-2.2-0.35-3.62-2.67-4.07c-0.84-0.16-1.61-0.61-2.44-0.84c-10.36-2.87-18.79-12.87-18.73-24.79
	C355.62,349.16,355.59,343.6,355.59,338.05z M367.11,336.85c-0.37,6.76,0.02,13.48,1.78,20.01c2.48,9.2,12.59,14.26,19.28,9.6
	c4.49-3.13,7.89-7.14,8.72-13.07c1.51-10.81,1.36-21.58-0.22-32.31c-1.22-8.31-6.85-12.74-15.23-12.61
	c-6.95,0.1-12.31,5.38-13.49,13.09C367.18,326.65,366.83,331.73,367.11,336.85z M295.22,345.06c0.08,0,0.15,0,0.23,0
	c0,12.57,0.05,25.13-0.04,37.7c-0.02,2.57,0.8,4.64,3.39,4.5c2.3-0.12,3.64-1.92,3.49-4.63c-0.18-3.2,0.02-6.43,0.02-9.64
	c0.04-21.19,0.05-42.38,0.13-63.56c0.02-5.19,0.66-5.73,5.89-5.8c4.97-0.07,9.94-0.07,14.91-0.15c5.76-0.09,8.72-2.34,8.88-6.69
	c0.2-5.64-2.16-8.55-8.21-8.61c-17.97-0.17-35.95-0.03-53.93,0.1c-1.99,0.01-4.18,0.55-4.67,3.03c-0.56,2.82,1.74,3.29,3.63,3.98
	c1.48,0.54,2.96,0.36,4.54,0.31c6.86-0.21,13.73-0.04,20.6,0.13c2.98,0.07,3.78,1.68,2.61,4.43c-1.21,2.85-1.48,5.88-1.48,8.96
	C295.23,321.09,295.22,333.08,295.22,345.06z"/>
<path class="st1" d="M289.27,215.54c11.28-0.21,22.53-0.1,33.31,3.92c0.27,0.1,0.59,0.23,0.85,0.18c8.75-1.93,17.73,0.73,26.37-1.05
	c7.56-1.56,14.71-1.93,21.85,1.34c1.44,0.66,3.08,1.3,4.62,1.29c6.94-0.06,12.82,2.89,19.09,5.41c6.29,2.52,13.4,2.57,19.61-2.01
	c5.61-4.14,10.79-4.28,16.62-0.23c7.1,4.93,14.21,7.24,23.04,4.46c6.6-2.08,13.7-2.24,20.04-5.83c4.62-2.61,9.53-0.83,11.7,4.19
	c4.29,9.92,4.25,20.23,0.02,30.18c-1.85,4.35-6.4,5.88-10.74,6.82c-7.93,1.72-15.93,2.3-23.85-0.09c-4.33-1.3-8.57-1.35-12.94-0.1
	c-5.4,1.54-10.85,1.9-16.48,0.88c-4.71-0.85-9.48-1.21-14.36-0.36c-6.6,1.14-13.07-0.84-19.54-1.87c-6.92-1.1-13.66-0.87-20.32,1.45
	c-5.1,1.78-10.3,1.96-15.54,0.47c-0.98-0.28-2.04-0.72-3-0.59c-10.55,1.44-21.09-1.07-31.71,0.23c-7.9,0.97-16.01,0.55-24.01,0.24
	c-3.44-0.13-6.64,0.13-9.9,1.1c-5.09,1.52-10.17,2.24-15.53,0.85c-6.68-1.72-10.66-5.87-12.32-12.32
	c-1.62-6.29-1.96-12.74-1.1-19.15c1.81-13.46,7.75-18.75,21.5-19.37C280.78,215.38,285.03,215.54,289.27,215.54z M311.68,241.5
	c0.02,0,0.05,0,0.07,0c0,4.23,0.12,8.46-0.05,12.69c-0.11,2.61,0.69,3.39,3.42,3.53c5.33,0.27,3.5-3.52,3.64-5.94
	c0.43-7.16-0.74-5.95,6.42-6.37c4.35-0.25,6.62,0.8,5.84,5.58c-0.18,1.13,0.15,2.35,0,3.49c-0.38,3.04,1.39,3.16,3.71,3.19
	c2.43,0.04,3.78-0.39,3.74-3.27c-0.13-8.46-0.13-16.92,0.01-25.37c0.05-2.91-1.08-3.65-3.86-3.69c-4.2-0.07-3.28,2.82-3.36,5.1
	c-0.28,7.9-0.25,7.76-8.12,7.85c-3.11,0.03-4.71-0.66-4.29-4.08c0.19-1.58-0.17-3.22-0.02-4.8c0.25-2.74-0.95-3.47-3.54-3.45
	c-2.46,0.02-3.8,0.41-3.66,3.3C311.83,233.33,311.68,237.42,311.68,241.5z M264.99,241.38c-0.01,0-0.01,0-0.02,0
	c0,4.09,0.13,8.19-0.04,12.27c-0.12,2.89,0.66,4.28,3.87,4.07c3.78-0.25,7.6-0.18,11.39-0.03c2.48,0.09,3.67-0.41,3.65-3.31
	c-0.02-2.81-1.36-3.09-3.51-3c-1.6,0.07-3.22-0.14-4.82-0.03c-2.21,0.14-3.1-0.61-3.1-2.97c-0.01-2.46,1.12-3.01,3.21-2.86
	c1.61,0.11,3.14-0.59,4.66-0.75c2.96-0.32,2.5-2.17,2.56-4.04c0.08-2.4-1.53-2.44-3.22-2.46c-0.88-0.01-1.76,0.04-2.63-0.06
	c-1.93-0.24-4.51,0.94-4.59-2.84c-0.07-3.71,2.33-2.91,4.38-3c1.02-0.05,2.05-0.02,3.07-0.04c1.99-0.04,4.04,0.49,4.07-2.88
	c0.03-3.25-1.52-4.06-4.19-4.07c-3.8-0.02-7.6,0.1-11.4-0.02c-2.46-0.08-3.42,0.9-3.36,3.33
	C265.06,232.9,264.99,237.14,264.99,241.38z M368.21,240.13c0,0.02,0,0.04,0,0.05c-2.04,0-4.09-0.01-6.13,0
	c-1.14,0-1.98,0.28-1.95,1.71c0.03,1.45,0.97,1.6,2.06,1.61c2.04,0.03,4.11,0.22,6.13,0.02c4.24-0.41,3.69,1.73,2.41,4.27
	c-3.18,6.32-13.03,8.08-18.62,3.35c-4.63-3.92-5.86-11.59-2.57-16.61c3.07-4.68,8.36-8.08,15.87-4.51c1.73,0.82,3.35,1.67,4.51,3.28
	c0.6,0.83,1.35,1.65,2.53,0.73c1.02-0.8,0.9-1.82,0.37-2.74c-0.5-0.87-1.13-1.75-1.91-2.36c-5.43-4.28-14.36-5.45-20.21-1.11
	c-5.75,4.27-8.45,12.14-6.01,18.74c2.36,6.37,8.05,10.95,13.74,11.05c7.84,0.14,13.92-3.56,16.67-10.13
	c2.3-5.49,1.11-7.35-4.68-7.35C369.67,240.13,368.94,240.13,368.21,240.13z M298.07,257.49c2.98,0.93,3.2-0.99,3.19-3.37
	c-0.03-5.84,0.23-11.69,0.05-17.53c-0.11-3.58,0.68-5.71,4.79-5.14c2.1,0.29,3.19-0.43,3.17-2.87c-0.02-2.48-0.9-3.33-3.35-3.27
	c-5.26,0.13-10.52,0.12-15.78,0c-2.59-0.06-3.96,0.41-3.99,3.55c-0.03,3.18,1.41,3.8,3.95,3.43c3.4-0.49,4.2,1.03,4.09,4.2
	c-0.2,5.84,0.12,11.69-0.01,17.53C294.11,256.81,294.88,258.2,298.07,257.49z M424.01,237.89c0-3.55,0.04-6.72-0.02-9.9
	c-0.02-1.22,0.38-2.83-1.78-2.71c-1.83,0.1-1.47,1.51-1.47,2.58c-0.05,8.88-0.07,17.77-0.06,26.65c0,0.95-0.37,2.19,0.8,2.73
	c1.23,0.56,2.02,0.19,2.69-1.21c0.8-1.68,1.55,0.1,2.23,0.44c6.07,2.98,12.97,0.42,15.53-5.81c2.4-5.86-0.58-11.69-6.72-14.26
	C431.22,234.72,427.93,236.24,424.01,237.89z M458.76,236.57c-2.37,0.09-4.34-0.31-6.27,0.95c-3.87,2.54-6.31,8.14-4.83,11.8
	c2.63,6.47,7.86,9.84,13.47,7.98c3.06-1.02,5.68-2.49,8.6,0.08c0.54,0.48,1.76,0.53,2.36-0.32c0.44-0.62,0.4-1.56-0.3-1.92
	c-2.71-1.39-2.09-3.91-2.17-6.14c-0.12-3.49-0.07-6.99-0.09-10.49c-0.01-1.47-0.93-3.32-2.09-2.37
	C464.33,238.7,461.32,235.53,458.76,236.57z M403.15,257.6c6.66,0.06,11.38-4.48,11.36-10.92c-0.02-6.17-4.82-10.87-11.12-10.89
	c-5.84-0.02-10.75,5.04-10.87,11.19C392.42,252.53,397.44,257.54,403.15,257.6z M480.49,241.4c-0.01,0-0.02,0-0.03,0
	c0-4.37,0.02-8.75-0.02-13.12c-0.01-1.12,0.15-2.53-1.55-2.59c-1.85-0.07-2,1.3-2,2.69c-0.01,8.9-0.04,17.79-0.03,26.69
	c0,1.14-0.12,2.39,1.64,2.49c2.04,0.13,1.98-1.27,1.98-2.59C480.5,250.44,480.49,245.92,480.49,241.4z M386.37,241.97
	c-0.01,0-0.01,0-0.02,0c0-4.37,0.03-8.73-0.02-13.1c-0.02-1.17,0.49-2.81-1.72-2.73c-1.79,0.07-1.6,1.36-1.6,2.48
	c-0.02,8.88-0.02,17.75-0.01,26.63c0,1.22,0.06,2.35,1.81,2.3c1.86-0.06,1.54-1.41,1.55-2.48
	C386.39,250.7,386.37,246.33,386.37,241.97z"/>
<path class="st2" d="M608.22,336.34c0.64-7.33-1.08-16.2,1.68-24.94c4.49-14.23,20.05-25.65,36.81-22.62
	c14.91,2.7,24.71,10.37,28.85,24.99c0.59,2.07,0.94,4.28,0.96,6.42c0.13,14.25,2.22,28.7-1.44,42.66
	c-3.26,12.42-11.91,20.35-24.52,23.6c-2.44,0.63-5.11,0.5-6.01-2.09c-1.07-3.08,1.89-3.98,3.99-4.6
	c10.17-2.99,17.04-9.34,19.7-19.62c0.89-3.43,1.48-7.07,1.32-10.75c-0.44-10.47,0.36-20.93-0.77-31.43
	c-1.13-10.48-11.67-21.74-22.31-22.3c-7.14-0.38-13.92,0.07-20.26,4.65c-7.56,5.45-10.48,12.59-10.72,21.4
	c-0.29,10.91,0.23,21.82-0.34,32.75c-0.31,5.9,2.33,11.57,6.32,16.05c4.22,4.74,9.1,8.79,15.77,9.9c1.6,0.27,3.1,1.56,2.69,3.39
	c-0.38,1.72-1.6,3.01-3.73,2.97c-4.7-0.08-8.82-2.19-12.39-4.66c-9.7-6.72-15.3-16.06-15.59-28.12
	C608.11,348.61,608.22,343.2,608.22,336.34z"/>
<path class="st2" d="M493.45,289.04c7.62,0.17,10.53,5.49,6.38,11.94c-5.66,8.79-11.96,17.15-17.75,25.86
	c-8.3,12.49-9.15,8.39-0.76,21.7c6.53,10.34,12.98,20.73,19.46,31.11c0.39,0.62,0.89,1.21,1.1,1.88c0.57,1.85,1.02,3.73-1.16,4.98
	c-2.14,1.22-3.66,0.2-4.78-1.49c-3.61-5.47-7.16-10.98-10.67-16.52c-5.45-8.6-10.8-17.26-16.29-25.84
	c-2.19-3.42-6.39-3.33-8.93-0.03c-1.32,1.72-2.73,3.37-4.16,5c-1.15,1.31-2.5,2.19-4.12,0.75c-1.53-1.36-2.43-3.07-1.14-5.01
	c1.77-2.66,3.74-5.18,5.58-7.8c9.73-13.85,19.41-27.74,29.21-41.55C487.42,291.22,489.4,287.99,493.45,289.04z"/>
<path class="st0" d="M626.89,337.91c-0.5-6.69,0.53-13.17,1.73-19.63c0.25-1.37,0.18-3.29,1.95-3.54c1.49-0.21,2.1,1.46,2.61,2.59
	c4.3,9.41,8.78,18.76,12.64,28.35c1.69,4.21,3.99,8.11,5.5,12.37c1.86,5.22,0.39,7.99-4.94,9.53c-8.28,2.39-17.04-4.45-18.57-14.49
	C627.04,348.04,626.49,342.97,626.89,337.91z"/>
<path class="st2" d="M586.4,290.14c2.62-0.05,4.27,2.61,2.8,5.01c-5.27,8.58-10.71,17.04-16.06,25.57
	c-4.58,7.31-9.13,14.64-13.67,21.98c-1.33,2.14-1.92,4.44-1.9,7.03c0.07,9.93-0.02,19.87-0.07,29.8c-0.01,1.31,0.02,2.64-0.18,3.93
	c-0.32,2.1-1.63,3.71-3.73,3.63c-2.18-0.08-3.14-1.87-3.16-4.02c-0.05-4.82-0.08-9.64-0.11-14.46c-0.01-1.17,0-2.34,0-3.51
	c-0.02-25.72-1.27-18.65,11.45-39.36c6.79-11.06,14.11-21.79,21.16-32.69C583.8,291.69,584.74,290.51,586.4,290.14z"/>
<path class="st2" d="M448.77,338.43c0,14.47-0.05,28.93,0.04,43.4c0.02,2.82-0.67,5.41-3.6,5.41c-3.06,0-3.54-2.86-3.54-5.51
	c0.01-29.23,0.04-58.45-0.05-87.68c-0.01-2.66,1.03-4.57,3.4-4.63c2.62-0.06,3.81,1.88,3.79,4.73
	C448.71,308.91,448.77,323.67,448.77,338.43z"/>
<path class="st2" d="M553.36,331.44c0.11,1.86-0.46,3.08-2.14,3.56c-2.21,0.63-3.61-0.49-4.73-2.2c-4.3-6.58-8.63-13.14-12.9-19.74
	c-3.79-5.85-7.5-11.76-11.28-17.62c-1.36-2.11-3.17-4.37-0.2-6.31c2.88-1.88,4.62,0.88,5.9,2.61c3.87,5.25,7.42,10.74,11,16.19
	c4.38,6.68,8.68,13.41,12.96,20.16C552.64,329.16,553.61,330.19,553.36,331.44z"/>
<polygon class="st1" points="746.68,359.95 746.42,359.86 746.63,359.71 "/>
<path class="st2" d="M190.64,343.8c-0.22,0.01-0.8-0.13-0.95-0.81c-0.19-0.88,0.06-1.58,0.62-2.39c6.45-9.32,12.75-18.74,19.28-28
	c1.52-2.16,1.58-3.57,0.21-5.91c-12.38-21.17-24.58-42.44-36.81-63.7c-6.81-11.85-13.56-23.73-20.39-35.57
	c-0.45-0.78-0.52-2.38-1.78-1.98c-0.68,0.21-1.46,1.03-2.02,2.01c-8.31,14.55-16.81,29-25.22,43.5
	c-7.41,12.78-14.78,25.58-22.14,38.38c-3.57,6.21-7.01,12.49-10.65,18.66c-0.82,1.4-0.97,2.09,0.07,3.6
	c6.71,9.64,13.2,19.44,19.77,29.18c0.69,1.02,2.2,1.91,0.47,3.21c-1.55,1.16-1.98-0.63-2.67-1.27c-2.69-2.45-4.23-5.77-6.25-8.73
	c-4.92-7.23-9.7-14.56-14.82-21.64c-1.39-1.92-1.35-3.31-0.34-5.06c12.82-22.07,25.65-44.13,38.45-66.21
	c7.77-13.41,15.55-26.82,23.19-40.31c1.77-3.13,3.06-2.52,4.5-0.02c8.21,14.26,16.4,28.53,24.59,42.8
	c8.05,14.02,15.85,28.18,24.23,41.99c4.35,7.16,7.58,14.9,12.14,21.91c1.16,1.78,1.01,3.24-0.23,5
	c-6.84,9.74-13.59,19.55-20.3,29.38C192.91,342.83,192.41,343.8,190.64,343.8z"/>
<path class="st2" d="M153.13,322.4c3.36,0,6.74,0.24,10.07-0.06c3.66-0.34,6.09,0.96,7.8,4.15c4.34,8.06,10.67,14.75,15.52,22.46
	c0.56,0.89,2.03,1.61,0.9,2.95c-1.02,1.21-2.43,0.92-3.63,0.44c-4.44-1.77-8.91-3.51-13.23-5.55c-2.02-0.95-2.94-0.71-4.19,1.19
	c-4,6.1-4.46,6.08-10.42,1.33c-5.05-4.02-5.05-4.01-10.48,0.12c-1.37,1.05-2.7,2.21-4.22,3c-0.71,0.37-1.68,1.58-2.67,0.44
	c-3.93-4.57-8.71-2.68-13.25-1.64c-1.68,0.39-2.6,1.14-3.69-1.1c-1.15-2.36-2.49-0.74-3.5,0.68c-0.76,1.06-1.36,3.02-3.08,1.95
	c-1.88-1.18-0.72-2.62,0.25-4.03c4.72-6.87,10.66-12.95,14.23-20.53c2.66-5.64,7.48-5.37,12.19-5.7c3.78-0.26,7.59-0.05,11.39-0.05
	C153.13,322.42,153.13,322.41,153.13,322.4z M150.72,327.13c-3.21,0-6.45,0.26-9.63-0.06c-5.07-0.51-7.97,1.66-10.13,6.13
	c-1.07,2.22-0.94,3.18,0.75,4.75c1.88,1.75,4.55,2.38,5.9,4.91c2.76,5.15,2.88,5.08,7.14,1.21c4.85-4.41,6.06-4.42,11.36-0.2
	c0.79,0.63,1.81,0.99,2.5,1.69c1.9,1.93,3.15,1.59,4.16-0.83c0.97-2.33,2.18-4.18,5.14-4.7c1.89-0.33,3.85-1.86,3.43-4.39
	c-0.79-4.78-5.26-8.47-10.09-8.52C157.73,327.09,154.23,327.12,150.72,327.13z"/>
<path class="st2" d="M151.13,239.83c-9.51,14.83-17.95,29.46-26.34,44.13c-4.05,7.09-8.15,14.16-12.34,21.17
	c-1.06,1.77-0.72,3.06,0.38,4.61c2.63,3.71,5.18,7.49,7.61,11.34c0.49,0.78,1.61,1.93,0.11,2.97c-1.45,1.01-2.27-0.21-2.86-1.05
	c-3.13-4.46-6.15-8.99-9.18-13.51c-1.29-1.93-0.21-3.68,0.69-5.25c7.09-12.46,14.23-24.88,21.4-37.29
	c5.96-10.33,12.02-20.6,17.95-30.95c1.74-3.04,3.1-2.94,4.78,0c10.24,17.89,20.46,35.8,30.84,53.61c2.89,4.95,4.83,10.42,8.4,14.98
	c1.46,1.87,1.03,3.81-0.19,5.57c-2.96,4.23-6.03,8.39-9.01,12.61c-0.63,0.9-0.81,2.43-2.44,1.22c-1.27-0.94-0.87-1.9-0.12-2.98
	c2.44-3.54,4.76-7.16,7.26-10.65c1.42-1.97,1.64-3.72,0.33-5.88c-9.49-15.72-18.2-31.89-27.76-47.57
	C157.37,251.53,154.35,245.95,151.13,239.83z"/>
<path class="st2" d="M85.85,385.38c43.35,0,85.94,0,128.97,0c-0.94-2.32-2.63-3.54-4.07-4.82c-7.55-6.7-14.07-14.39-20.84-21.83
	c-0.88-0.96-2.75-2.11-1.01-3.54c1.27-1.04,2.17,0.39,3.1,1.42c8.88,9.87,17.8,19.7,27.89,28.38c0.77,0.66,1.66,1.37,1.14,2.56
	c-0.43,0.99-1.47,0.79-2.3,0.85c-1.31,0.09-2.63,0.06-3.94,0.06c-43.41,0-86.82,0-130.23-0.03c-1.24,0-2.88,0.72-3.58-0.81
	c-0.82-1.79,1.07-2.42,2-3.36c8.69-8.81,17.88-17.12,25.8-26.68c0.74-0.89,1.62-1.68,2.53-2.4c0.63-0.5,1.43-0.42,1.96,0.22
	c0.44,0.54,0.04,1.01-0.32,1.51c-0.58,0.81-0.89,1.86-1.59,2.53C102.78,367.66,95.65,377.28,85.85,385.38z"/>
<path class="st2" d="M150.83,272.88c-0.63,0.59-1.49,1.05-1.83,1.76c-4.74,10.06-11.36,19.01-16.84,28.63
	c-1.7,2.98-0.74,4.83,0.93,7.38c0.93,1.42,4.25,3.87,1.29,5.63c-2.34,1.39-2.99-2.2-4.37-3.62c-3.41-3.52-3.66-6.75-0.82-11.22
	c6.86-10.79,13.09-21.99,19.41-33.11c1.99-3.5,3.32-2.4,4.78,0.19c5.67,10.05,11.32,20.11,16.96,30.17c0.28,0.5,0.48,1.05,0.74,1.56
	c3.91,7.59,3.69,8.73-1.98,15.26c-0.85,0.98-1.64,1.38-2.49,0.95c-1.09-0.55-1.04-1.99-0.29-2.63c6.66-5.66,2.87-10.78-0.47-16.21
	c-4.64-7.55-8.92-15.33-13.42-22.97C152.07,274.01,152.05,272.82,150.83,272.88z"/>
<path class="st2" d="M150.23,297.98c-1.32,2.17-2.74,4.44-4.1,6.75c-0.31,0.53-1.11,1.06-0.21,1.83c0.94,0.81,1.6,1.92,0.34,2.81
	c-0.77,0.54-2.06,0.5-2.9-0.17c-1-0.8-2.12-2.09-1.59-3.26c1.99-4.44,4.12-8.86,7.25-12.64c1.34-1.62,2.98-1.06,4,0.49
	c2.2,3.33,4.18,6.81,6.33,10.17c2.1,3.28-0.37,4.81-2.49,6.24c-0.99,0.67-3.01-0.01-2.2-1.32c2.44-3.96-0.93-5.97-2.35-8.62
	C151.88,299.45,151.83,298.19,150.23,297.98z"/>
<path class="st2" d="M119.79,380.36c-1.49-0.29-2.21-1.03-1.21-2.39c3.35-4.55,6.75-9.06,10.19-13.55c0.59-0.77,1.6-0.78,2.41-0.38
	c0.82,0.41,0.69,1.26,0.24,1.86c-3.48,4.62-6.99,9.22-10.52,13.81C120.65,380.03,120.16,380.15,119.79,380.36z"/>
<path class="st2" d="M185.53,379.19c-0.16,0.3-0.26,0.87-0.57,1.01c-0.69,0.32-1.46,0.17-1.95-0.46c-3.51-4.6-7.01-9.21-10.48-13.84
	c-0.5-0.66-0.38-1.5,0.32-1.88c0.41-0.22,1.35-0.16,1.62,0.15c4.02,4.55,7.71,9.36,10.95,14.5
	C185.5,378.78,185.49,378.95,185.53,379.19z"/>
<path class="st2" d="M152.4,372.88c0,2.02,0.03,4.04-0.01,6.06c-0.02,1.06-0.69,1.49-1.71,1.46c-1-0.03-1.13-0.79-1.13-1.49
	c-0.01-4.19,0.01-8.37,0.08-12.56c0.02-0.92,0.51-1.67,1.62-1.55c0.92,0.1,1.12,0.89,1.14,1.58c0.06,2.16,0.02,4.33,0.02,6.5
	C152.41,372.88,152.4,372.88,152.4,372.88z"/>
<path class="st2" d="M355.59,338.05c0,5.55,0.02,11.11-0.01,16.66c-0.06,11.92,8.37,21.92,18.73,24.79c0.83,0.23,1.6,0.68,2.44,0.84
	c2.32,0.46,3.15,1.88,2.67,4.07c-0.47,2.17-2.25,2.45-4,2.25c-3.75-0.44-7.46-1.54-10.5-3.64c-10.38-7.16-16.74-16.65-16.5-29.84
	c0.19-10.81,0.01-21.63,0.05-32.44c0.04-12.16,5.79-21.19,15.74-27.64c11.44-7.41,28.99-5.61,39.64,2.9
	c8.92,7.13,12.39,15.97,12.53,26.73c0.12,10.08,0.06,20.17,0.01,30.25c-0.08,17.14-10.92,29.72-25.31,33.1
	c-0.84,0.2-1.67,0.53-2.51,0.57c-1.78,0.08-3.62,0.09-4-2.33c-0.35-2.21,0.41-3.57,2.7-4.2c4.96-1.36,9.53-3.46,13.33-7.1
	c6.03-5.78,8.73-12.86,8.68-21.1c-0.06-10.37,0.23-20.76-0.24-31.12c-1.04-22.59-25.17-32.03-42.34-21.17
	c-6.63,4.19-11.23,10.78-10.97,19.57c0.19,6.28,0.04,12.56,0.04,18.84C355.71,338.05,355.65,338.05,355.59,338.05z"/>
<path class="st0" d="M367.11,336.86c-0.28-5.13,0.07-10.22,0.85-15.29c1.17-7.71,6.54-12.99,13.49-13.09
	c8.38-0.12,14,4.3,15.23,12.61c1.58,10.73,1.73,21.5,0.22,32.31c-0.83,5.93-4.23,9.94-8.72,13.07c-6.69,4.66-16.8-0.41-19.28-9.6
	C367.13,350.34,366.74,343.61,367.11,336.86z"/>
<path class="st2" d="M295.22,345.06c0-11.98,0.01-23.96-0.01-35.95c-0.01-3.08,0.27-6.11,1.48-8.96c1.17-2.75,0.37-4.35-2.61-4.43
	c-6.87-0.17-13.74-0.34-20.6-0.13c-1.57,0.05-3.06,0.24-4.54-0.31c-1.89-0.7-4.19-1.16-3.63-3.98c0.49-2.48,2.68-3.01,4.67-3.03
	c17.98-0.13,35.95-0.27,53.93-0.1c6.05,0.06,8.42,2.97,8.21,8.61c-0.16,4.35-3.12,6.6-8.88,6.69c-4.97,0.08-9.94,0.08-14.91,0.15
	c-5.23,0.07-5.87,0.62-5.89,5.8c-0.08,21.19-0.09,42.38-0.13,63.56c-0.01,3.21-0.21,6.44-0.02,9.64c0.15,2.7-1.18,4.5-3.49,4.63
	c-2.59,0.14-3.41-1.93-3.39-4.5c0.09-12.57,0.04-25.13,0.04-37.7C295.38,345.06,295.3,345.06,295.22,345.06z"/>
<path class="st2" d="M311.68,241.5c0-4.08,0.15-8.17-0.05-12.25c-0.14-2.88,1.2-3.28,3.66-3.3c2.6-0.02,3.8,0.71,3.54,3.45
	c-0.15,1.59,0.21,3.23,0.02,4.8c-0.41,3.42,1.18,4.11,4.29,4.08c7.86-0.09,7.83,0.05,8.12-7.85c0.08-2.29-0.84-5.17,3.36-5.1
	c2.78,0.04,3.91,0.78,3.86,3.69c-0.14,8.46-0.14,16.92-0.01,25.37c0.04,2.88-1.3,3.31-3.74,3.27c-2.32-0.03-4.09-0.15-3.71-3.19
	c0.14-1.15-0.19-2.36,0-3.49c0.78-4.78-1.49-5.84-5.84-5.58c-7.16,0.42-5.99-0.79-6.42,6.37c-0.15,2.42,1.69,6.22-3.64,5.94
	c-2.73-0.14-3.52-0.92-3.42-3.53c0.17-4.22,0.05-8.46,0.05-12.69C311.73,241.5,311.71,241.5,311.68,241.5z"/>
<path class="st2" d="M264.99,241.38c0-4.24,0.07-8.47-0.03-12.71c-0.06-2.43,0.9-3.41,3.36-3.33c3.79,0.12,7.6,0,11.4,0.02
	c2.67,0.01,4.22,0.82,4.19,4.07c-0.03,3.37-2.08,2.84-4.07,2.88c-1.02,0.02-2.05,0-3.07,0.04c-2.06,0.09-4.45-0.71-4.38,3
	c0.07,3.79,2.65,2.61,4.59,2.84c0.87,0.11,1.75,0.06,2.63,0.06c1.69,0.02,3.3,0.06,3.22,2.46c-0.06,1.87,0.4,3.72-2.56,4.04
	c-1.52,0.16-3.05,0.86-4.66,0.75c-2.1-0.15-3.22,0.41-3.21,2.86c0.01,2.35,0.9,3.11,3.1,2.97c1.6-0.1,3.22,0.1,4.82,0.03
	c2.15-0.09,3.49,0.19,3.51,3c0.03,2.9-1.17,3.41-3.65,3.31c-3.79-0.14-7.61-0.22-11.39,0.03c-3.21,0.21-3.99-1.18-3.87-4.07
	c0.17-4.08,0.04-8.18,0.04-12.27C264.98,241.38,264.98,241.38,264.99,241.38z"/>
<path class="st2" d="M368.21,240.13c0.73,0,1.46,0,2.19,0c5.79,0,6.97,1.86,4.68,7.35c-2.75,6.57-8.83,10.27-16.67,10.13
	c-5.68-0.1-11.38-4.68-13.74-11.05c-2.44-6.61,0.26-14.48,6.01-18.74c5.85-4.34,14.78-3.18,20.21,1.11
	c0.78,0.61,1.41,1.49,1.91,2.36c0.52,0.92,0.64,1.94-0.37,2.74c-1.18,0.92-1.93,0.1-2.53-0.73c-1.15-1.61-2.77-2.45-4.51-3.28
	c-7.52-3.57-12.8-0.17-15.87,4.51c-3.3,5.02-2.07,12.69,2.57,16.61c5.59,4.73,15.44,2.97,18.62-3.35c1.28-2.54,1.82-4.68-2.41-4.27
	c-2.02,0.2-4.09,0-6.13-0.02c-1.08-0.01-2.02-0.16-2.06-1.61c-0.03-1.43,0.82-1.7,1.95-1.71c2.04-0.01,4.09,0,6.13,0
	C368.21,240.16,368.21,240.14,368.21,240.13z"/>
<path class="st2" d="M298.07,257.49c-3.18,0.72-3.95-0.67-3.89-3.48c0.14-5.84-0.19-11.69,0.01-17.53c0.11-3.17-0.7-4.69-4.09-4.2
	c-2.53,0.37-3.97-0.25-3.95-3.43c0.03-3.14,1.4-3.6,3.99-3.55c5.26,0.11,10.52,0.12,15.78,0c2.45-0.06,3.33,0.79,3.35,3.27
	c0.02,2.44-1.07,3.16-3.17,2.87c-4.11-0.57-4.9,1.56-4.79,5.14c0.18,5.84-0.08,11.69-0.05,17.53
	C301.26,256.5,301.05,258.42,298.07,257.49z"/>
<path class="st2" d="M424.01,237.89c3.92-1.66,7.21-3.17,11.21-1.5c6.14,2.56,9.12,8.4,6.72,14.26c-2.56,6.23-9.46,8.79-15.53,5.81
	c-0.68-0.33-1.43-2.11-2.23-0.44c-0.67,1.4-1.46,1.77-2.69,1.21c-1.17-0.53-0.8-1.77-0.8-2.73c-0.02-8.88,0.01-17.77,0.06-26.65
	c0.01-1.07-0.36-2.48,1.47-2.58c2.16-0.12,1.76,1.5,1.78,2.71C424.05,231.17,424.01,234.35,424.01,237.89z M424.19,246.69
	c0,4.01,3.31,7.34,7.4,7.44c4.23,0.11,7.55-3.37,7.46-7.82c-0.08-3.84-3.69-7.09-7.87-7.06
	C427.73,239.28,424.19,243.05,424.19,246.69z"/>
<path class="st2" d="M458.76,236.57c2.55-1.05,5.56,2.12,8.69-0.43c1.16-0.95,2.08,0.9,2.09,2.37c0.02,3.5-0.03,7,0.09,10.49
	c0.07,2.23-0.54,4.75,2.17,6.14c0.71,0.36,0.74,1.3,0.3,1.92c-0.6,0.85-1.82,0.8-2.36,0.32c-2.93-2.57-5.54-1.1-8.6-0.08
	c-5.61,1.87-10.84-1.5-13.47-7.98c-1.48-3.66,0.95-9.26,4.83-11.8C454.43,236.26,456.39,236.66,458.76,236.57z M465.31,246.74
	c0.04-4.61-2.99-7.55-7.63-7.4c-3,0.09-7.13,4.31-7.15,7.31c-0.03,3.69,3.76,7.39,7.68,7.5
	C462.72,254.27,465.27,251.61,465.31,246.74z"/>
<path class="st2" d="M403.15,257.6c-5.71-0.05-10.73-5.07-10.62-10.62c0.12-6.15,5.03-11.21,10.87-11.19
	c6.3,0.02,11.1,4.72,11.12,10.89C414.53,253.12,409.81,257.66,403.15,257.6z M403.16,254.16c4.73,0.01,7.93-3.23,7.81-7.9
	c-0.1-3.85-3.76-7.1-7.92-7.04c-3.49,0.05-6.98,3.79-6.98,7.47C396.07,250.81,399.24,254.15,403.16,254.16z"/>
<path class="st2" d="M480.49,241.4c0,4.52,0.01,9.04-0.01,13.56c-0.01,1.32,0.06,2.72-1.98,2.59c-1.76-0.11-1.64-1.35-1.64-2.49
	c0-8.9,0.02-17.79,0.03-26.69c0-1.39,0.15-2.76,2-2.69c1.7,0.06,1.54,1.48,1.55,2.59c0.04,4.37,0.02,8.75,0.02,13.12
	C480.46,241.4,480.47,241.4,480.49,241.4z"/>
<path class="st2" d="M386.37,241.97c0,4.37,0.02,8.73-0.02,13.1c-0.01,1.08,0.31,2.42-1.55,2.48c-1.75,0.05-1.81-1.07-1.81-2.3
	c0-8.88-0.01-17.75,0.01-26.63c0-1.12-0.19-2.41,1.6-2.48c2.21-0.08,1.7,1.55,1.72,2.73c0.06,4.37,0.02,8.73,0.02,13.1
	C386.35,241.97,386.36,241.97,386.37,241.97z"/>
<path class="st1" d="M150.72,327.12c3.51,0,7.01-0.03,10.52,0.01c4.84,0.05,9.3,3.74,10.09,8.52c0.42,2.52-1.53,4.05-3.43,4.39
	c-2.96,0.52-4.17,2.37-5.14,4.7c-1.01,2.42-2.27,2.77-4.16,0.83c-0.69-0.7-1.71-1.07-2.5-1.69c-5.29-4.22-6.51-4.21-11.36,0.2
	c-4.26,3.87-4.39,3.94-7.14-1.21c-1.35-2.53-4.02-3.16-5.9-4.91c-1.69-1.57-1.82-2.53-0.75-4.75c2.16-4.47,5.07-6.65,10.13-6.13
	C144.27,327.39,147.51,327.13,150.72,327.12z"/>
<path class="st1" d="M424.19,246.69c0-3.64,3.55-7.41,6.99-7.44c4.17-0.03,7.79,3.22,7.87,7.06c0.09,4.45-3.23,7.93-7.46,7.82
	C427.49,254.03,424.19,250.7,424.19,246.69z"/>
<path class="st1" d="M465.31,246.74c-0.04,4.87-2.58,7.53-7.1,7.4c-3.93-0.11-7.72-3.8-7.68-7.5c0.03-3,4.16-7.22,7.15-7.31
	C462.32,239.19,465.34,242.13,465.31,246.74z"/>
<path class="st1" d="M403.16,254.16c-3.92-0.01-7.09-3.35-7.09-7.47c0-3.68,3.49-7.42,6.98-7.47c4.16-0.06,7.82,3.19,7.92,7.04
	C411.1,250.93,407.89,254.17,403.16,254.16z"/>
</svg>
