<?xml version="1.0" encoding="UTF-8" standalone="no"?>
<!-- Generator: Adobe Illustrator 27.3.1, SVG Export Plug-In . SVG Version: 6.00 Build 0)  -->

<svg
   version="1.1"
   id="レイヤー_1"
   x="0px"
   y="0px"
   width="176px"
   height="176px"
   viewBox="0 0 176 176"
   style="enable-background:new 0 0 176 176;"
   xml:space="preserve"
   sodipodi:docname="logo.svg"
   inkscape:version="1.2 (dc2aeda, 2022-05-15)"
   xmlns:inkscape="http://www.inkscape.org/namespaces/inkscape"
   xmlns:sodipodi="http://sodipodi.sourceforge.net/DTD/sodipodi-0.dtd"
   xmlns="http://www.w3.org/2000/svg"
   xmlns:svg="http://www.w3.org/2000/svg"><defs
   id="defs1945" /><sodipodi:namedview
   id="namedview1943"
   pagecolor="#ffffff"
   bordercolor="#000000"
   borderopacity="0.25"
   inkscape:showpageshadow="2"
   inkscape:pageopacity="0.0"
   inkscape:pagecheckerboard="0"
   inkscape:deskcolor="#d1d1d1"
   showgrid="false"
   inkscape:zoom="1.3409091"
   inkscape:cx="-35.79661"
   inkscape:cy="88"
   inkscape:window-width="1309"
   inkscape:window-height="456"
   inkscape:window-x="0"
   inkscape:window-y="25"
   inkscape:window-maximized="0"
   inkscape:current-layer="レイヤー_1" />
<style
   type="text/css"
   id="style1924">
	.st0{fill:#0082E8;}
</style>
<circle
   class="st0"
   cx="74.5"
   cy="81.5"
   r="7.1"
   id="circle1926" />
<ellipse
   class="st0"
   cx="106.29742999999999"
   cy="81.50549000000001"
   rx="7.100108096677111"
   ry="7.1001080966771175"
   id="ellipse1928" />
<path
   class="st0"
   d="M76.2,93.9h-5.7c2.9,7.8,10.5,13.3,19.2,13.3c8.8,0,16.3-5.5,19.2-13.3h-5.7c-2.6,4.8-7.7,8-13.5,8  C83.8,101.9,78.8,98.7,76.2,93.9z"
   id="path1930" />
<path
   class="st0"
   d="M29.6,84.8c3.4,8.9,8.8,15.8,16.4,21.1c4.3,3,9.3,4.6,15.2,4.9c-0.6-0.8-0.9-1.3-1.3-1.7  C39.7,91.5,37.8,62,51.4,40.4c10-15.9,24.8-25.2,42.8-29.5c12.4-3,24.2-3,35.4-0.6C117.2,3.8,103.1,0,88.1,0  C73.2,0,59.2,3.7,46.9,10.2C35.8,21.9,28.1,35.4,25.5,51.8C23.7,63.2,25.5,74,29.6,84.8z M64.9,7.5c2.5,0,4.6,2.1,4.6,4.6  c0,2.5-2.1,4.6-4.6,4.6c-2.5,0-4.6-2.1-4.6-4.6C60.3,9.6,62.3,7.5,64.9,7.5z"
   id="path1932" />
<path
   class="st0"
   d="M137.5,15.1c-14.2-4.1-28.7-4.3-43.4,0.9c-9.4,3.3-17.3,8.7-24.1,16.2c-6.1,6.7-9.6,14.2-10.9,22.9  c-0.5,3.1,0.2,6.4,0.3,9.7c0.3,0,0.6,0.1,0.9,0.1c0.3-0.6,0.7-1.1,1-1.7c13.2-27.1,45.6-38.6,72.8-25.6c20.6,9.9,34.3,26,40.2,48.2  c0.7,2.7,1.3,5.4,1.7,8.1c0.1-1.9,0.2-3.9,0.2-5.8C176.2,57.7,160.8,31,137.5,15.1z"
   id="path1934" />
<path
   class="st0"
   d="M31.3,136c17.4,10.7,35.9,13.7,55.4,6.1c7.5-2.9,13.2-8,16.6-15.4c0.2-0.4,0.3-0.9,0.5-1.8  c-1,0.4-1.6,0.6-2.2,0.9c-23,11.7-49.8,3.8-65-12.6c-5.5-6-9.7-12.7-12.2-20.3C14.2,62.2,21.4,35.9,42,13C16.8,28.5,0,56.4,0,88.1  c0,3.6,0.2,7.2,0.7,10.7c1.9,3.7,3.9,7.6,6.1,11.4C12.8,120.8,20.9,129.6,31.3,136z M17.9,93.9c2.5,0,4.6,2.1,4.6,4.6  c0,2.5-2.1,4.6-4.6,4.6c-2.5,0-4.6-2.1-4.6-4.6C13.3,96,15.4,93.9,17.9,93.9z"
   id="path1936" />
<path
   class="st0"
   d="M135.8,48.5c-7.3-3-15-4.8-22.9-2.4c-3.3,1-6.6,2.4-9.9,3.5c0.1,0.3,0.1,0.7,0.2,1c1.2,0.2,2.5,0.4,3.7,0.6  c17.1,2.8,29.8,12,38.5,26.8c5.2,8.8,7.7,18.5,7.2,28.8c-1.1,24.9-13,43.9-33.2,57.9c-7.8,5.4-16.2,9-25,11.2  c40.6-2.8,73.6-33.2,80.5-72.5c-0.1-0.7-0.1-1.4-0.2-2C171.1,77,159.4,58.1,135.8,48.5z M161.7,100.7c-3.7,0-6.7-3-6.7-6.7  s3-6.7,6.7-6.7s6.7,3,6.7,6.7S165.4,100.7,161.7,100.7z"
   id="path1938" />
<path
   class="st0"
   d="M141.4,125.4c2.1-9.6,2-19.1-2-28.3c-1.8-4.2-4.9-7.3-8.9-10.7c0.4,2.3,0.6,3.8,0.8,5.3  c2.5,20.6-5,37.3-21,49.9c-16.1,12.7-34.9,14.6-54,9.9c-26.6-6.5-44.4-23.7-55-48.7c-0.1-0.2-0.2-0.4-0.2-0.6  c6.6,41.3,42,73.1,85,74c6.1-1.4,12.1-3.4,17.9-6.2C123.2,160.7,136.6,146.7,141.4,125.4z M134.6,116.5c2.5,0,4.6,2.1,4.6,4.6  c0,2.5-2.1,4.6-4.6,4.6c-2.5,0-4.6-2.1-4.6-4.6C130,118.5,132.1,116.5,134.6,116.5z"
   id="path1940" />
</svg>
