<?xml version="1.0" encoding="utf-8"?>
<!-- Generator: Adobe Illustrator 27.4.0, SVG Export Plug-In . SVG Version: 6.00 Build 0)  -->
<svg version="1.0" id="レイヤー_1" xmlns="http://www.w3.org/2000/svg" xmlns:xlink="http://www.w3.org/1999/xlink" x="0px"
	 y="0px" width="841.89px" height="595.28px" viewBox="0 0 841.89 595.28" style="enable-background:new 0 0 841.89 595.28;"
	 xml:space="preserve">
<style type="text/css">
	.st0{fill:#1E1105;}
	.st1{fill:#B48741;}
	.st2{fill:#EEE6D5;}
</style>
<path class="st0" d="M505.38,49.36c8.67,0.3,17.32-0.51,25.96-0.82c9.74-0.35,19.5-1.02,29.22-1.83c10.22-0.85,20.49-1.26,30.64-2.6
	c9.74-1.29,19.53-2.02,29.26-3.49c7.31-1.11,14.75-1.75,22.07-2.87c11.3-1.74,22.54-3.9,33.58-6.99c9.98-2.79,19.74-6.2,29.55-10.16
	c-0.55,5.08-1.59,9.72-3.32,14.19c-0.44,1.15-1.23,1.84-2.45,2.56c-4.15,2.47-8.48,4.8-11.87,8.35c-4.02,4.21-9.28,6.97-12.98,11.56
	c-2.39,2.96-3.4,6.39-4.33,9.91c-0.8,3.04-1.77,6.04-2.42,9.12c-0.23,1.08-0.81,0.98-1.47,1.21c-0.57,0.2-1.46,0.57-1.1,1.27
	c1.72,3.31-0.99,2.21-2.32,2.35c-9.5,1.05-19.04,1.57-28.59,2.03c-7.23,0.35-14.45,0.92-21.68,1.29c-3.77,0.19-7.56,0.33-11.34,0.58
	c-0.9,0.06-2.22-0.18-2.16,1.18c0.05,1.11,0.65,2.19,2.22,1.98c0.83-0.11,1.68-0.02,2.64-0.02c-0.3,1.82-0.99,3.42-2.18,4.46
	c-2.3,1.99-2.36,4.46-2.33,7.14c0.07,5.2,0.14,10.4-0.08,15.59c-0.11,2.67,0.49,3.66,3.41,3.52c6.03-0.28,12.09-0.05,18.13-0.14
	c2.05-0.03,1.98,0.52,1.94,2.54c-0.13,8.29-5.4,12.48-11.69,16.18c-3.23,1.9-6.69,1.64-10.16,1.59c-1.31-0.02-2.15,0.05-2.12,1.81
	c0.28,16.75,0.46,33.51,0.73,50.26c0.04,2.55,2.37,4.49,5.19,4.56c1.8,0.05,3.61,0.08,5.41,0c1.7-0.07,2.77,0.69,3.79,2.92
	c-3.44-1.37-6.52-0.82-9.56-1.04c-1.52-0.11-2.21,0.64-2.99,1.73c-1.08,1.52,0.81,0.87,1.05,1.54c0.5,1.36,0.22,2.66-1.23,3.08
	c-0.47,0.14-0.46,0.43-0.42,0.65c0.08,0.48,0.77,0.79,0.91,0.57c1.84-2.98,4.1-0.29,6.12-0.5c0.61-0.06,1.45,0.12,1.64-0.62
	c0.25-0.98-0.63-1.2-1.35-1.3c-1.17-0.16-1.71-0.81-1.58-1.93c0.13-1.06,1-1.26,1.89-1.29c2.44-0.07,4.78-1.45,7.35-0.1
	c1.44,0.76,1.5-0.64,1.63-1.76c0.22-1.85,1.19-2.7,2.91-1.35c3.38,2.66,7.21,4.67,10.32,7.76c2.02,2.01,4.52,3.84,7.15,4.83
	c1.9,0.72,2.63,1.96,3.45,3.33c0.77,1.29,2.05,2.66,0.47,4.3c-0.21,0.21-0.21,0.92-0.01,1.17c0.73,0.95,0.35,1.69-0.48,2.04
	c-0.86,0.36-1.72,1.42-2.84,0.42c-0.53-0.48-1.14-1.37-1.85-0.9c-1.04,0.69-2.88,0.29-3.17,1.63c-0.33,1.53,1.32,1.91,2.42,2.44
	c2.38,1.16,4.69,2.4,6.41,4.51c0.93,1.14,2.58,2.03,0.79,3.74c-0.14,0.13-0.12,0.71,0.02,0.83c2.54,2.09,1.61,5.35,2.71,7.92
	c0.54,1.25,0.18,1.91-1.37,1.89c-5.29-0.05-10.59-0.05-15.88,0.05c-1.1,0.02-1.29-1.04-2.06-1.24c-5.84-1.49-11.22-0.32-16.25,2.87
	c-1.65,1.04-3.13,2.84-5.47,1.52c-0.24-0.13-0.62-0.01-0.94,0c0.18,3.1-4.24,3.36-3.92,6.91c0.45,4.94,0.11,9.96,0.12,14.94
	c0,1.73-0.3,3.03,2.66,2.47c3.19-0.6,7-1.3,9.68,2c0.4,0.49,1.11,0.42,1.75,0.11c4.65-2.24,9.74-1.04,14.51-1.85
	c5.36-0.9,9.27,1.77,13.27,3.98c2.03,1.13,4.48,2.28,5.95,4.59c1.65,2.59,4.34,0.74,6.42,0.7c1.95-0.04,4.21,0.43,6.09-0.83
	c0.14-0.1,0.46-0.08,0.62,0.02c5.31,3.2,12.19,3.48,16.39,8.76c0.23,0.29,1.1-0.14,0.74,0.87c-1.1,3.06,1.91,4.67,2.89,6.95
	c1.04,2.4,0.81,3.72-1.1,4.96c-0.63,0.41-0.52,0.53-0.34,1.11c0.45,1.4,0.54,2.7-1.47,3.06c-0.23,0.04-0.64,0.99-0.52,1.83
	c0.39,3.01-0.45,3.79-3.28,2.74c-1.81-0.67-2.82-0.48-3.36,1.3c-0.19,0.62-0.67,1.15-0.96,0.8c-1.52-1.79-4.19,0.61-5.97-2.12
	c-0.89-1.36-4.86-0.77-7.45-0.95c-1.89-0.13-3.81,0.18-4.82-2.16c-0.25-0.59-1.56-1.4-2.43-1.01c-2.79,1.26-5.78,0.49-8.65,0.89
	c-3.61,0.5-7.59,0.24-11.06-0.83c-2.45-0.75-4.08-0.33-6.1,0.55c-2.21,0.97-3.96,2.57-5.82,3.98c-2.15,1.62-2.08,3.9,0.12,5.51
	c2.3,1.68,4.43,3.66,7.28,4.55c1.7,0.53,3.14,1.58,4.48,2.81c0.89,0.81,2.21,1.95,3.11-0.2c0.08-0.2,0.26-0.79,0.52-0.35
	c1.48,2.46,3.85,0.69,5.35,0.62c4.62-0.24,9.01,0.66,13.45,1.43c0.95,0.17,1.56-0.39,2.34-0.52c1.39-0.22,2.72-1.66,3.69-1.46
	c4.36,0.89,9.28-0.42,13.06,2.43c2.39,1.8,4.9,4.26,5.8,6.95c0.78,2.34,2.17,3.66,3.64,5.16c1.56,1.59,3.28,2.8,5.75,2.89
	c1.46,0.06,2.98,0.86,4.3,1.63c1.96,1.13,3.7,2.02,6.23,1.6c2.98-0.49,4.56,2.66,6.95,3.89c1.07,0.55,1.68,1.47,2.86,0.24
	c0.79-0.83,1.72-0.19,2.65,0.05c4.94,1.29,8.8,4.79,11.47,8.41c2.88,3.89,6.35,8.51,4.85,14.3c-0.14,0.55,0.25,1.61-0.58,1.54
	c-3.13-0.29-3.55,1.47-3.24,3.92c-2.32,0.21-1.99,3.47-3.55,3.63c-1.61,0.16-3.07,0.93-5,0.76c-3.02-0.28-6.22-0.61-9.22-0.99
	c-2.37-0.3-5.11-1.17-7.39-2.76c-1.96-1.36-4.5-1.73-4.43-5.08c0.03-1.56-1.93-1.98-3.46-1.88c-2.17,0.15-4.16,0.08-5.71-1.84
	c-0.97-1.2-2.81-1.21-3.82-0.68c-2.53,1.32-5.26,1.1-7.87,1.55c-2.34,0.41-4.27-1.22-6.01-2.63c-1.06-0.86-1.84-2.04-2.81-3.02
	c-1.75-1.77-3.37-2.08-5.24,0.07c-1.78,2.05-4.47,1.96-6.91,1.95c-1.92,0-3.52,0.16-4.58,2.01c-0.83,1.47-2.4,2.3-3.87,2.3
	c-3.4,0.01-6.61,0.93-9.9,1.41c-3.68,0.53-6.35,2.17-7.74,5.68c-0.19,0.48-0.53,1.03-0.44,1.48c0.75,3.63,0.36,6.98-1.86,10.09
	c-0.4,0.56,0.03,1.53,0.47,2.34c1.2,2.22,2.2,4.54,3.21,6.86c0.87,2,1.99,3.95,0.21,6.17c-0.63,0.78-0.42,2.11,0.64,2.82
	c1.6,1.09,3.3,1.94,5.32,1.27c3.05-1.01,4.72-3.5,5.84-6.2c1.49-3.57,3.6-5.84,7.76-5.73c1.04,0.03,2.26-0.49,2.03-2.11
	c-0.05-0.35,0.17-0.95,0.45-1.1c2.8-1.56,2.67-5.42,5.27-6.93c3.14-1.82,5.93-4.81,10.21-3.8c0.8,0.19,1.39,0.44,1.72,1.13
	c0.25,0.52,0.6,1.12,1.1,0.69c3.32-2.93,7.61-1.04,11.24-2.34c0.19-0.07,0.56-0.09,0.61-0.01c1.66,2.97,4.31,0.81,6.46,1.24
	c0.86,0.17,0.98,0.17,1.24,1.23c0.37,1.46,2.5,0.9,3.55,0.54c2.16-0.74,4.01-1.36,5.91,0.52c0.37,0.37,1.57,0.35,2.09,0.03
	c1.55-0.96,2.64,0.02,3.67,0.76c3.98,2.85,7.97,5.67,10.93,9.72c1.28,1.76,0.75,3.44,0.49,5.1c-0.28,1.79,0.09,3.41,1.12,4.62
	c2.57,2.99,1.3,5.39,0.17,8.67c-1.25,3.6-2.79,2.6-5.3,2.71c-3.96,0.17-7.88,0.31-11.83-0.05c-0.26-0.02-0.65,0.09-0.78,0.27
	c-2.17,3.07-4.93,5.6-7.51,8.29c-0.56,0.59-1.05,1.43-0.62,2.32c1.06,2.2,0.47,3.83-1.54,5.12c-0.5,0.32-1.07,0.92-1.16,1.47
	c-0.62,3.96-4.02,6.71-4.55,10.69c-0.05,0.4-0.29,0.79-0.51,1.14c-12.17,18.43-24.6,36.6-40.09,52.58
	c-19.95,20.57-42.52,37.54-67.38,51.57c-19.87,11.21-40.94,19.51-62.91,25.58c-13.15,3.63-26.4,6.65-39.98,8.29
	c-9.04,1.09-18.06,2.03-27.16,2.6c-10.44,0.65-20.88,0.53-31.29,0.32c-8.84-0.18-17.72-1.09-26.55-2.2
	c-6.61-0.84-13.23-1.57-19.81-2.67c-10.49-1.74-20.85-4.04-31.05-7.04c-18.46-5.43-36.3-12.38-53.25-21.54
	c-13.69-7.4-26.83-15.65-39.34-24.89c-6.18-4.57-12.24-9.3-17.86-14.59c-5.19-4.88-10.93-9.21-15.7-14.52
	c-7.1-7.91-14.03-15.95-20.69-24.26c-7.8-9.73-14.25-20.26-20.35-31.01c-1.62-2.86-4.54-5.41-4.28-9.42
	c0.08-1.19-0.1-3.35-2.28-3.96c-0.88-0.25-0.9-1.3-0.41-2.16c0.81-1.44,0.56-2.56-0.2-4.17c-1.25-2.66-3.88-3.45-5.71-5.25
	c-0.64-0.63-1.69-0.99-2.23-1.94c-0.93-1.63-2.16-1.15-3.77-0.92c-2.59,0.38-5.34,2.01-7.97-0.05c-0.3-0.24-0.77-0.27-1.15-0.41
	c-1.2-0.43-3.2,1.02-3.6-0.72c-0.8-3.46-3.34-7.24,0.32-10.46c1.13-1,1.39-1,0.36-2.39c-0.72-0.97-0.52-3.32,0.18-4.52
	c2.72-4.64,5.77-8.72,11.38-10.88c2.4-0.93,4.7-2.41,7.41-2.75c2.56-0.32,5.43,1.41,7.67-1.26c0.25-0.3,1.46-0.05,2.07,0.26
	c0.63,0.32,1.49,0.53,1.78,0.24c2.48-2.48,5.57-1.38,8.25-1.12c4.06,0.4,7.99-1.54,12.08-0.18c2.12,0.7,3.93,1.81,5.82,2.86
	c4.15,2.3,5.97,6.48,8.42,10.16c0.14,0.2,0.5,0.35,0.76,0.36c5.68,0.19,7.03,5.01,9.32,8.77c1.17,1.93,1.8,4.23,4.81,4.07
	c3.14-0.17,4.71-2.4,3.07-5.12c-0.99-1.65-0.81-2.87-0.08-4.39c0.91-1.89,1.54-3.93,2.54-5.77c1.67-3.09,1.7-6.02-0.3-8.93
	c-0.72-1.05-0.82-2-0.54-3.38c0.99-4.93-1.98-8.8-7.37-10.06c-1.62-0.38-3.21-0.85-4.92-0.66c-1.78,0.2-3.1-0.93-3.97-2.16
	c-1.42-2.01-3.21-2.4-5.47-2.28c-3.18,0.17-6.41,0.3-8.09-3.36c-0.39-0.84-1.31-0.44-1.98-0.15c-1.07,0.48-1.99,1.17-2.73,2.11
	c-3.65,4.61-8.3,5.65-13.79,3.98c-2.63-0.8-5.22-1.44-7.38,1.27c-1.06,1.33-2.83,0.69-4.23,0.61c-2.26-0.13-3.35,0.82-3.6,2.94
	c-0.27,2.2-0.97,3.88-3.7,3.45c-0.4-0.06-1.1-0.02-1.2,0.19c-1.79,3.81-5.6,1.9-8.37,2.89c-3.85,1.37-8.14,1.61-12.05,0.7
	c-1.62-0.38-3.16-2.61-5.19-3.39c-0.18-0.07-0.08-1.01-0.01-1.53c0.26-2.01-0.44-3.11-2.59-2.64c-2.29,0.5-2.61-0.61-2.56-2.56
	c0.11-3.93,1-7.5,4.02-10.22c0.72-0.65,0.28-1.36,0.49-2.01c0.56-1.76,0.9-3.62,3.49-3.6c0.79,0.01,2.12-0.43,2.2-1.74
	c0.05-0.89,0.88-1.08,1.28-1.12c3.47-0.31,5.58-4,9.34-3.63c1.26,0.12,1.86-1.25,2.58-2.1c1.05-1.25,2.52-2.16,3.88-1.51
	c1.74,0.83,2.71,0.06,3.88-0.78c1.7-1.22,3.48-2.04,5.69-2.03c3.42,0.02,4.81-3.17,7.03-4.99c1.32-1.08,2.21-2.69,3.83-3.54
	c0.5-0.26,1.13-0.78,1.2-1.25c0.75-4.91,5.76-5.03,8.49-7.69c4.76,1.51,9.74-1.76,14.57,0.91c2.06,1.14,4.5,0.85,7.15-0.04
	c2.65-0.89,5.96-0.64,9.01-0.62c2.36,0.01,5.71,1.55,7.17-0.3c2.29-2.91,5.97-2.9,8.38-5.25c1.27-1.24,1.78-2.95,3.11-4.07
	c0.12-0.1,0.15-0.4,0.11-0.58c-0.56-2.75-9.51-8.9-12.35-8.02c-3.01,0.94-6.01,0.86-9.01,1.29c-2.11,0.3-4.06-0.11-6.02-0.28
	c-3.09-0.27-6.13-1.34-8.15,2.19c-0.18,0.32-0.94,0.39-1.44,0.44c-3.23,0.26-6.46,0.58-9.7,0.69c-1.92,0.07-2.34,3.07-4.68,2.18
	c-0.3-0.11-1.19,0.76-1.21,0.04c-0.11-3.4-2.58-1.78-4.13-2.09c-0.51-0.1-1.49-0.2-1.49-0.25c0.22-3.23-4.54-4-3.69-7.4
	c0.23-0.94-0.05-1.3-0.65-1.83c-2.03-1.8-1.47-3.69,0.25-5.18c0.91-0.79,1.61-1.17,0.92-2.48c-0.54-1.03,0.58-1.4,1.15-1.94
	c1-0.94,1.96-1.83,2.42-3.24c0.31-0.96,0.87-2.3,2.45-1.53c0.39,0.19,0.69,0.03,0.74-0.22c0.86-4.28,5.69-2.79,7.76-5.36
	c0.73-0.91,2.1-0.93,2.87-0.11c1.66,1.78,3.18,1,4.95,0.3c0.93-0.36,1.98-1.37,3.31,0.12c0.49,0.54,2.54-0.8,3.5-2.04
	c4.18-5.38,9.65-7.38,16.46-7.27c2.06,0.03,4.38,0.11,6.57-0.07c2.67-0.22,5.71-0.57,8.25,1.35c0.62,0.47,1.81,1.4,2.52,0.26
	c1.64-2.68,4.17-2.03,6.52-1.97c2.07,0.05,4.21-0.46,6.65,0.57c0-6.02,0.01-11.97,0-17.93c0-1.8-0.05-3.61-0.06-5.41
	c0-0.59-0.24-1.24,0.69-1.48c0.6-0.16,2.08,0.61,1.57-1.01c-0.28-0.89-0.36-2.39-1.72-2.33c-4.68,0.22-8.92-2.77-13.39-2.22
	c-2.97,0.37-6.23-0.42-9.22,2.01c-1.7,1.38-5.52,1.43-7.79,0.55c-3.2-1.25-6.01-0.63-8.85,0.1c-2.04,0.52-2.3,0.22-1.71-1.59
	c0.46-1.41,0.75-2.53-0.96-3.66c-1.28-0.85-0.78-2.38,0.6-3.37c0.9-0.64,2.3-1.58,0.71-2.66c-2.9-1.98-0.38-3.32,0.4-4.84
	c0.19-0.37,1.28-0.5,1.27-0.73c-0.04-4.86,3.5-4.31,6.63-4.59c1.1-0.1,2.36-0.46,3.12-1.41c1.88-2.37,4.33-1.95,6.59-1.16
	c5.6,1.95,10.53,0.97,15.45-2.25c2.03-1.33,4.83-1.47,7.28-2.15c4.44-0.43,8.87-0.14,13.17,0.89c2.83,0.68,5.43,2.27,8.24,3.11
	c3.37,1,5.89,6.01,3.52,8.38c-2.72,2.73-5.53,6.23-10.34,4.98c-1.3-0.34-2.57-0.83-3.88-1.15c-0.42-0.1-1.69-0.45-1.17,0.4
	c1.06,1.74-0.6,1.57-1.11,1.8c-1.76,0.79-1.83,2.23-1.6,3.72c0.29,1.88,1.36,3.36,3.16,3.98c1.51,0.52,2.97,0.05,3.87-1.38
	c0.51-0.81,1.04-1.24,1.98-1.7c2.82-1.37,5.34-1.21,8.04,0.18c1.83,0.95,3.32-0.44,2.98-1.85c-0.58-2.35-0.15-3.57,2.03-4.44
	c1.74-0.7,2.99-3.09,4.83-2.67c3.38,0.75,6.32-0.99,9.51-0.9c1.03,0.06,1.82,1.14,2.95,0.74c3.49-1.21,7.1-0.25,10.62-0.63
	c2.95-0.32,5.19,0.83,7.54,2.41c2.11,1.42,3.77,4.48,7.19,2.78c0.29-0.14,0.91,0.39,1.38,0.58c1.15,0.45,2.41,0.26,3.52,0.41
	c3.27,0.43,6.67-1.33,9.74,0.33c4.46,2.42,9.13,4.41,13.52,6.98c5.02,2.94,8.03,8.1,12.92,11.13c2.32,1.44,1.42,4.05,0.91,5.5
	c-0.46,1.35-2.16,3.31-4.51,3.04c-1.5-0.17-2.5,0.13-2.16,1.96c0.1,0.55,0.62,1.07-0.15,1.63c-0.91,0.66-1.67-0.25-1.89-0.5
	c-2.95-3.34-7.04-2.65-10.74-3.03c-1.6-0.16-2.65-0.63-3.78-1.69c-1.5-1.39-2.78-3.36-5.12-3.41c-2.31-0.05-4.64,0.03-6.82-0.74
	c-3.89-1.38-8.15,0.27-12.01-1.73c-1.32-0.68-3.05,0.26-3.34,1.99c-0.23,1.34-1.2,1.33-1.79,1.1c-4.71-1.88-9.38,0.32-14.07,0.03
	c-1.99-0.13-3.94,0.66-5.1,2.58c-0.74,1.99-1.73,3.88-4.26,3.02c-1.67-0.57-4-0.52-4.57-2.77c-0.67-2.67-3.47-5.21-6.16-5.49
	c-3.28-0.34-6.64,0.6-9.85-0.71c-0.76-0.31-1.48-0.15-1.94,0.56c-0.44,0.67-0.47,1.48-0.03,2.11c1,1.41,2.51,3.11,4.04,2.61
	c3.97-1.3,6.37,1.51,9.25,2.92c2.61,1.28,2.48,2.34,0,3.99c-1.9,1.27-4.3,1.26-6.38,2.38c1.7,2.99,3.3,5.82,4.92,8.64
	c0.53,0.92,1.38,2.47,0.31,2.76c-3.55,0.97-2.11,3.55-2.1,5.56c0.1,33.7,0.9,67.39,1.98,101.07c0.22,6.97,0.16,13.94,0.52,20.92
	c0.94,18.17,1.44,36.37,2.59,54.54c0.2,3.08,1.47,4.18,4.2,3.97c1.86-0.14,3.79,0.42,4.52,1.69c1.37,2.39,3.11,2.5,5.31,2.04
	c5.79,0.09,9.02,3.2,9.02,8.81c0.01,20.04-0.01,40.08,0.02,60.12c0,1.21-0.44,2.62,0.95,3.64c0.34-1.88,0.33-3.75,0.35-5.61
	c0.01-0.82-0.09-1.58,0.59-2.33c2.23-2.49,4.37-5.06,6.48-7.66c1.82-2.24,4-3.64,7-3.38c1.02,0.09,1.7-0.35,2.51-0.97
	c6.92-5.32,14.34-9.69,22.41-13.19c6.78-2.95,14.32-3.31,20.79-6.92c1.89-1.05,3.34,0.07,4.9,0.68c1.91,0.75,3.74,1.05,5.69,0.07
	c2.49-1.24,4.59-0.73,6.87,1.02c1.75,1.36,3.04,3.66,5.38,3.95c3.89,0.49,7.81,0.54,9.54-4.19c0.17-0.47,0.52-0.9,0.89-1.26
	c3.32-3.28,6.48-6.68,9.44-10.32c2.96-3.66,5.74-7.9,10.98-8.76c1.75-0.29,3.41-0.7,5.01-1.45c2.79-1.3,5.22-0.27,7.38,1.49
	c0.74,0.6,1.57,1.53,2.34,1.34c4.74-1.16,9.36,0.57,14.05,0.36c2.58-0.11,4.95-0.35,6.17-3.09c0.44-0.99,1.13-1.39,2.36-1.48
	c3.27-0.26,5.24,1.45,7.03,3.81c2.94,3.87,6.45,7.13,11.51,7.62c2.43,0.23,4.58,1.16,6.88,1.63c2.98,0.61,6.12,1.07,8.91-0.31
	c3.12-1.55,5.98-1.14,8.81,0.31c1.69,0.87,3.47,1.54,5.25,1.58c3.87,0.1,6.9,1.78,9.2,4.59c1.67,2.03,3.47,3.8,5.42,5.53
	c1.82,1.61,4.46,1.24,6.02,2.86c3.33,3.44,7.74,3.89,11.95,4.12c3.63,0.2,6.71,0.87,8.49,4.08c1.68,3.04,5.18,4.47,6.18,8.19
	c1.04,3.88-0.61,8.01,1.48,11.48c0.77-3.72,0.92-7.69,0.91-11.68c-0.06-15.59-0.03-31.18,0-46.77c0.01-5.03,2.66-7.77,7.73-7.72
	c2.04,0.02,2.4-0.61,2.41-2.51c0.08-16.5-0.17-33.01,0.69-49.5c0.29-5.49,0.25-11,0.32-16.49c0.4-31.38,1.22-62.77,1.01-94.16
	c-0.02-2.41-1.17-3.15-3.08-3.48c-0.83-0.14-1.7-0.11-2.54-0.04c-7.18,0.57-14.04-0.05-19.95-4.86c-1.35-1.1-3.04-1.2-4.68-0.25
	c-2.77,1.61-6.11,1.82-9.05,2.74c-3.58,1.11-7.9,1.94-12.13,1.24c-1.89-0.31-2.97-1.67-4.47-1.99c-1.44-0.3-2.29-0.68-2.64-2.04
	c-0.45-1.72,0.9-2.64,1.81-3.65c2.91-3.23,7.24-4.14,10.81-6.33c1.64-1.01,3.43-2.16,5.45-2.62c3.52-0.82,7.44,0.14,10.61-2.37
	c0.35-0.27,1.04-0.21,1.55-0.16c4.36,0.44,7.58-1.45,10.78-4.29c2.07-1.84,2.85-4.84,5.97-5.8c2.02-0.62,4.59-1.14,5.13-4.18
	c0.15-0.86,2.23-0.75,2.68,0.2c0.85,1.79,2.41,1.07,3.76,1.74c0-5.61,0.05-11.01-0.05-16.41c-0.02-0.99,0.72-2.51-0.84-2.98
	c-1.42-0.42-2.55,0.03-3.7,1.32c-3.29,3.68-3.7,3.82-6.74,0.12c-4.02-4.89-8.99-4.5-14.35-3.85c-4.82,0.58-9.88,2.32-14.06-2.09
	c-1.92-2.03-3.82-0.17-5.74,0.35c-2.29,0.63-0.18,1.8-0.39,2.69c-0.18,0.79-0.43,1.39-1.11,1.79c-2.58,1.52-5.19,0.84-6.9-1.68
	c-0.6-0.89-1.02-2.49-2.51-1.91c-3.31,1.3-5.41-1.26-7.45-2.67c-3.41-2.36-6.61-2.64-9.67,0.46c-1.49,1.5-3.27,2.58-5.25,1.86
	c-1.67-0.6-2.8-0.13-4.13,0.56c-3,1.55-6.05,3-9.55,2.97c-1.1-0.01-2.32-0.04-2.44-1.42c-0.13-1.51,1.26-0.99,2.08-1.24
	c3.26-1.03,6.84-1.33,9.44-4.1c-1.35-0.65-2.52-1.29-3.58-2.21c-1.6-1.39-5.39-1.07-6.52,0.37c-1.94,2.5-4,2.94-5.59,0.43
	c-1.83-2.9-4.11-3.1-6.88-2.76c-1.97,0.24-3.1-0.63-3.91-2.38c-0.81-1.75,0.25-2.83,1.17-3.89c1.03-1.18,2.78-1.96,3.36-3.29
	c2.71-6.21,7.94-7.4,13.88-7.68c1.8-0.08,3.04,0,4.62,1.27c1.23,0.99,2.93,2.79,5.13,1.82c5.13-2.26,9.78-5.55,15.24-7.15
	c0.93-0.27,2.62,0.04,2.61-1.7c-0.01-1.72-1.26-1.87-2.65-1.93c-1-0.04-1.98-0.56-1.6-1.8c0.27-0.87,0.41-2.14,1.96-1.85
	c1.17,0.22,2.23-0.7,3.1-0.8c2.21-0.26,3.3-2.7,5.54-2.4c2.15,0.3,3.97-0.26,5.43-1.84c0.85-0.92,2.05-0.95,3.09-1.23
	c4.22-1.11,8.56-1.39,12.9-1.29c4.16,0.1,8.53-0.79,12.36,1.22c2.34,1.23,4.63,0.9,6.96,1.25c3.52,0.52,7,1.12,9.15,4.71
	c1.05,1.76,3.54,1.43,4.8,0.44c1.11-0.88,3.68-2.41,0.8-4.67c-1.49-1.17-0.81-3.29,0.38-4.21c1.56-1.22,1.44-2.6,1.44-4.12
	c-0.05-16.12-0.12-32.24-0.18-48.35c-0.01-3.95,0-7.91,0-12.45c-5.6,3.1-10.16,1.47-14.7-1.26c-2.83-1.7-5.05-4.19-6.96-6.55
	c-1.45-1.8-1.68-5.05-2.74-7.48c-1.4-3.21-0.07-3.38,2.57-3.34c6.36,0.1,12.73-0.12,19.09,0.04c2.19,0.05,2.67-0.66,2.62-2.65
	c-0.1-4.34-0.24-8.71,0.09-13.04c0.35-4.62-0.53-8.67-3.72-12.11c-1.54-1.66-1.15-2.47,1.07-2.71c0.92-0.1,2.6,0.75,2.37-1.44
	c-0.21-2.01-1.76-1.14-2.68-1.14c-6.53-0.01-13.06,0.28-19.58,0.44c-14.62,0.37-29.26,0.12-43.89,0.64
	c0.88-1.66,2.82-1.83,4.16-2.95c7.37-6.15,10.06-14.88,13.63-23.21c1.14-2.65,0.23-5.15,0.59-7.69c0.8-5.53-4.13-1.3-5.42-3.22
	C505.52,49.52,505.44,49.44,505.38,49.36z M616.09,505.05c-0.31-3.31,0.31-6.64-0.5-9.99c-0.62-2.58-0.62-5.16,1-7.58
	c1.45-2.17,1.73-4.39-0.1-6.69c-1.48-1.86-1.74-4.21-0.78-6.32c1.6-3.5,1.23-6.53-1.17-9.49c-1.08-1.33-1.48-2.53,0.87-3.36
	c1.55-0.54,2.26-2.17,1.9-3.99c-0.35-1.8-1.16-3.3-2.45-4.62c-1.72-1.75-2.57-3.92-1.73-6.33c0.69-1.98,0.23-3.45-1.2-4.84
	c-2.09-2.04-2.41-4.18-1.44-7.15c1.02-3.09,1.52-6.57-0.77-9.72c-1.07-1.47-1.67-3.24-0.12-5.06c1.28-1.5,0.77-3.12-0.27-4.64
	c-1.38-2.02-2.88-4.05-0.02-6.17c0.38-0.28,0.58-1.24,0.42-1.75c-1.05-3.27-0.32-6.73-1.17-9.99c-1.16-4.46-3.11-8.94,1.7-12.63
	c1.07-0.82,0.32-1.83-0.31-2.75c-1.05-1.54-2.76-2.96-2.23-5.04c0.84-3.32-0.95-5.84-2.35-8.4c-0.54-0.99-1.81-2-3.4-1.61
	c-1.45,0.36-1.19,1.47-1.19,2.51c-0.15,32.54,0.3,65.08,0.88,97.62c0.02,1.28,0.36,1.5,1.55,1.67c6.05,0.86,7.67,2.75,7.69,8.83
	c0.04,8.06-0.02,16.11,0.05,24.17c0.01,0.87-0.73,2.54,0.91,2.5C613.32,504.19,614.41,505.24,616.09,505.05z M243.05,407.37
	c0.19,0,0.37,0,0.56,0c0-11.66,0-23.33,0-34.99c0-1.27-0.08-2.54-0.1-3.81c-0.04-1.68-1.18-1.93-2.38-1.56
	c-2.72,0.83-5.83,6.06-4.98,8.03c1.08,2.53,0.27,4.54-1.04,6.46c-1.25,1.83-1.03,3.2,0.59,4.61c1.9,1.65,2.94,3.71,2.28,6.3
	c-1.54,6.05-2.51,12.11-0.66,18.28c0.09,0.29,0.14,0.7,0,0.94c-2.21,4.07-1.84,8.41-1.39,12.76c0.03,0.28-0.21,0.59-0.32,0.88
	c-0.99,2.62-0.82,5.2-0.34,7.96c0.45,2.6,0.91,5.53-0.79,7.97c-1.29,1.85-1.74,3.8-1.59,5.97c0.12,1.83-0.35,3.45-1.09,5.16
	c-1.32,3.06-2.68,6.35-0.05,9.44c1.54,1.81,1.08,3.05-0.48,4.55c-1.4,1.35-3.13,3.15-2.03,5.18c1.97,3.63,1.67,7.02-0.04,10.49
	c-0.8,1.64-0.76,2.99,0.31,4.6c2.13,3.21,2.79,6.74,0.82,10.3c-1.12,2.03-0.37,3.87,0.28,5.68c0.34,0.96,0.07,2.82,2.21,2.33
	c1.73-0.4,2.85-0.84,2.8-3.13c-0.17-8.69,0.05-17.39-0.11-26.08c-0.07-3.78,1.11-5.84,5.07-6.59c2.14-0.4,2.23-1.48,2.36-3.19
	c0.54-7.33-0.54-14.62-0.07-22.01C243.62,431.79,243.05,419.56,243.05,407.37z M211.25,445.88c-0.15,5.46-0.95,6.49-6.24,8.22
	c-3.2,1.04-6.43,2-8.96,4.47c-2.36,2.3-1.95,5.62,0.96,7.12c0.54,0.28,1.12,0.73,1.37,1.25c1.54,3.17,4.3,5.56,5.35,9.1
	c0.5,1.69,0.69,4.36,3.71,4.33c0.67-0.01,0.51,0.99,0.67,1.58c0.64,2.3,1.23,4.62,2.93,6.48c0.71,0.78,1.47,0.71,2.3,0.61
	c0.87-0.11,0.6-0.84,0.42-1.2c-1.13-2.38,0.11-4.24,1.21-6.17c1.18-2.07,1.84-4.35,1.32-6.69c-0.84-3.76-2.31-7.46-0.02-11.22
	c0.1-0.16-0.11-0.65-0.31-0.83c-2.49-2.27-1.72-4.89-0.91-7.56c1.22-4.01-0.01-8.58,2.98-12.25c1.13-1.39-0.5-2.04-1.56-2.34
	C212.58,439.67,211.39,440.87,211.25,445.88z M635.09,445.22c0-0.85,0.16-1.73-0.03-2.53c-0.53-2.24-2.35-2.15-4.06-1.94
	c-1.19,0.15-2.7,1.2-2.1,2.14c2.43,3.81,0.92,8.28,2.43,12.13c0.99,2.54,1.72,4.8,0.04,7.38c-0.52,0.8-0.25,2.24,0.32,3.36
	c1.07,2.09,0.97,4.25,0.17,6.42c-0.91,2.47-0.58,4.92-0.19,7.47c0.37,2.44,2.03,4.58,1.52,7.22c-0.15,0.77-1.6,1.81,0.32,2.46
	c1.58,0.53,2.57-0.21,3.46-1.26c0.99-1.16,0.73-2.62,0.7-3.97c-0.03-1.11,0.3-2.85,0.89-2.76c2.91,0.46,2.75-2.18,3.39-3.43
	c1.87-3.68,5.49-6.37,6.05-10.78c0.07-0.54,0.93-1.17,1.46-0.8c1.48,1.03,1.21,0.08,1.62-0.94c2.19-5.41-1.37-8.85-7.27-10.79
	C638.02,452.71,635,450.69,635.09,445.22z M671.25,436.24c1.03-0.11,1.05-0.83,1.41-1.28c3.23-3.95,2.77-9.72,6.61-13.35
	c0.42-0.4,0.63-1.03-0.07-1.26c-2.69-0.89-2.71-3.52-3.69-5.51c-2.74-5.52-6.83-6.64-11.14-2.78c-1.2,1.08-2.38,1.73-3.85,2.28
	c-3.65,1.38-6.86,3.29-9.28,6.65c-1.33,1.85-0.79,2.76,0.53,3.5c3.04,1.7,6.42,2.44,9.88,1.98c2.38-0.31,4.9-1.65,4.76,2.56
	c-0.02,0.49,0.66,1.03,1.05,1.52c1.18,1.46,3.26,2.36,2.87,4.81C670.3,435.63,671.02,436.02,671.25,436.24z M196.07,422.59
	c-1.26-2.4-1.92-5.2-4.7-6.62c-2.32-1.19-4.75-2-6.77-3.98c-3.29-3.23-5.72-2.83-8.75-0.58c-3.33,2.47-1.47,7.52-5.24,9.58
	c-0.01,0.01,0.32,0.71,0.53,1.06c2.23,3.73,2.78,7.99,3.82,12.1c0.16,0.64-0.31,1.57,0.97,1.52c0.9-0.03,2.02-0.17,2.08-1.05
	c0.29-4.27,6.51-3.65,6.59-8.15c0.01-0.65,1.92-0.65,2.6-0.3c2.66,1.38,4.72-0.88,7.12-1C194.74,425.14,196.39,424.17,196.07,422.59
	z M607.33,293.38c0.43-0.27,0.85-0.49,1.22-0.77c2.55-1.93,2.23-3.32-0.58-4.86c-1.75-0.96-3.3,0.24-4.94-0.28
	c-1.97-0.62-2.72,0.55-3,2.4c-0.32,2.15,0.69,4.11,0.67,6.21c-0.03,2.85-0.82,6.18,0.37,8.42c1.38,2.58,5.26,1.68,8.02,2.29
	c2.67,0.59,5.29,1.7,7.9-1.35c2.15-2.51,4.45-5.4,8.01-6.4c1.07-0.3,0.82-1.01,0.4-1.65c-0.78-1.19-2.01-2.36-3.25-2.26
	c-2.44,0.18-4.48-0.83-6.62-1.5c-1.88-0.59-3.57-0.77-5.45-0.06C609.31,293.86,608.26,294.21,607.33,293.38z M653.61,358.06
	c0.72,0,1.25-0.02,1.78,0c1.2,0.05,2.33-0.4,2.35-1.59c0.03-1.37-1.34-0.87-2.2-1.06c-2.66-0.57-5.49-1.56-7.19-3.36
	c-2.05-2.18-4.29-2.19-6.66-2.35c-2.65-0.17-5.49,0.06-7.38,2c-1.59,1.63-3.28,2.38-5.37,2.84c-0.68,0.15-2.14-0.33-2.11,1.26
	c0.05,2.75-1.36,4.76-3.2,6.61c-0.8,0.81-1.11,2.03-0.41,2.91c0.72,0.89,1.67,1.67,3.21,1.11c3.36-1.23,6.88-1.38,10.45-1.58
	c2.17-0.12,5.1,0.18,5.81-3.31c0.46-2.29,2.53-3.2,4.57-3.95C649.54,356.75,651.58,358.51,653.61,358.06z M236.69,294.33
	c-1.72-0.23-3.11-1.72-4.78-1.24c-2.57,0.74-5.16,1.26-7.84,1.28c-1.97,0.01-3.56,1.13-5.06,2.2c-0.64,0.45-1.54,1.77,0.01,2.2
	c4.9,1.35,7.81,5.24,11.27,8.44c0.79,0.73,1.56,1.1,2.74,0.53c2.46-1.19,5.18-1.53,7.84-2.03c1.01-0.19,2.27-0.23,2.23-2.01
	c-0.1-4.98-0.1-9.96,0.05-14.94c0.04-1.39-0.92-1.56-1.64-1.89c-0.96-0.43-1.99-0.1-2.17,1.08c-0.3,1.89-0.89,1.46-1.93,0.49
	c-1.27-1.18-2.81-0.57-3.61,0.43c-0.92,1.16,0.26,2.2,1.14,3.06C235.58,292.55,236.57,292.9,236.69,294.33z M559.39,286.07
	c-1.54,0.7-2.73,1.37-3.99,1.79c-4.32,1.42-4.74,1.24-6.74-2.98c-0.31-0.65-0.61-0.86-1.09-0.55c-1.74,1.11-4.08,1.27-5.49,2.54
	c-2.29,2.05-4.81,3.11-7.7,3.66c-1.36,0.25-1.89,1.1-1.09,2.31c2.75,4.15,10.03,6.76,15.11,5.48c0.63-0.16,1.1-0.05,1.71,0.36
	c2.69,1.8,5.68,0.6,8.54,0.61c1.01,0,0.73-1.11,0.74-1.79C559.4,293.8,559.39,290.1,559.39,286.07z M206.52,349.64
	c-2.5-0.12-4.82,0.61-6.62,2.66c-1.45,1.65-3.28,2.42-5.48,2.53c-0.75,0.03-2.11-0.67-2.18,0.91c-0.06,1.23,0.85,1.98,1.95,2.16
	c1.13,0.19,2.43,0.35,3.45-0.03c4.16-1.52,7.3,0.22,9.16,3.52c1.75,3.11,4.33,3.87,7.28,4.2c1.74,0.19,3.47,0.08,5.21,0.62
	c1.51,0.47,2.9-0.29,3.79-1.59c0.89-1.29-0.3-2.27-0.95-2.96c-1.58-1.68-2.55-3.49-2.59-5.81c-0.02-0.98-0.54-1.79-1.51-1.65
	c-2.09,0.29-3.29-1.11-4.68-2.15C211.35,350.57,209.22,349.53,206.52,349.64z M651.31,397.43c-4.9,0-4.85,0.06-8.44,3.38
	c-3.93,3.63-4.45,9.64,0.17,13.29c2.85,2.26,3.85,2.41,5.99-0.61c1.62-2.3,3.53-3.65,6.39-4.09c3.04-0.47,4.49-3.2,6.16-5.47
	c0.36-0.49,0.34-1.04-0.18-1.38C658.1,400.35,655.74,396.21,651.31,397.43z M206.8,405.2c0.07-3.85-3.18-7.08-6.56-7.88
	c-4.85-1.16-7.92,1.63-11.12,4.28c-0.84,0.7-2.82,1.03-1.95,2.7c0.86,1.63,1.97,3.83,3.44,4.31c3.61,1.16,5.5,3.99,7.77,6.48
	c1.03,1.12,2.1,1.57,3.43,1.31c2.53-0.5,5.15-3.89,4.97-6.49C206.66,408.19,206.58,406.5,206.8,405.2z M600.65,308.38
	c0,7.85,0,15.37,0,22.9c0,6.76,0.01,6.76,6.29,9.13c0.47,0.18,0.97,0.33,1.47,0.37c0.98,0.08,1.84-0.45,1.79-1.37
	c-0.21-4.19,1.44-8.63-2.03-12.38c-2.26-2.44-2.51-5.2-0.19-7.95c0.92-1.1,1.63-2.38,2.42-3.59c0.75-1.16,0.76-1.95-0.71-2.74
	C606.85,311.2,604.07,309.55,600.65,308.38z M600.64,341.42c0,4.99,0,9.64,0,14.29c0,4.27,0.02,4.47,4.23,4.13
	c5.03-0.41,8.55,1.27,11.49,5.54c1.4,2.03,1.98,4.38,3.49,6.25c0.52,0.64,1.17,1.48,2.09,0.81c0.96-0.71,0.43-1.58-0.25-2.13
	c-3.27-2.65-4.1-7.08-7.22-9.85c-0.58-0.51-0.81-1.84,0.5-1.75c4.32,0.31,1.96-3.27,2.79-4.88c0.91-1.75-0.63-2.66-2.5-3.02
	c-1.15-0.22-2.31-0.97-3.24-1.76C608.65,346.17,604.99,343.74,600.64,341.42z M243.68,307.95c-2.4,1.36-4.38,2.46-6.34,3.58
	c-3.65,2.09-3.78,2.19-1.3,5.69c2.71,3.81,2.81,7.5,0.27,11.34c-1.75,2.64-1.82,5.61-1.35,8.54c0.23,1.48,0.22,3.65,2.74,3.47
	c2.97-0.22,5.97-2.39,5.97-4.33C243.69,327.03,243.68,317.84,243.68,307.95z M652.72,435.63c0-0.01,0-0.02,0-0.03
	c-1.17,0-2.34,0.07-3.49-0.01c-3.34-0.25-5.23,1.59-6.69,4.31c-1.35,2.52,0.66,3.92,1.71,5.55c1.48,2.3,3.62,2.54,6.29,1.95
	c2.84-0.63,6.05-1.03,8.72,0.07c4.04,1.67,3.91,2,3.87-2.37c-0.01-1.27,0.03-2.55-0.11-3.81c-0.34-3.08-3.06-5.56-6.16-5.65
	C655.47,435.59,654.09,435.63,652.72,435.63z M225.71,371.27c1.16-0.23,1.54-1.14,2.16-2c3.64-5.04,7.42-9.97,14.53-10
	c0.77,0,1.18-0.3,1.18-1.1c0-5.53,0-11.05,0-16.8c-4.5,2.62-7.57,6.46-11.72,8.74c-3.09,1.7-3.72,4.11-1.83,6.34
	c3.16,3.74,0.87,5.99-1.33,8.59c-0.88,1.04-1.68,2.18-2.38,3.36C225.82,369.24,224.84,370.05,225.71,371.27z M184.49,444.7
	c0.01,4.32,0.16,4.43,3.76,3.06c1.59-0.6,3.36-1.2,4.91-0.63c3.02,1.11,5.16,0.45,7.61-1.65c2.25-1.93,3.47-4.04,2.72-6.63
	c-0.76-2.63-3.23-3.97-5.94-3.79c-3.08,0.21-6.15,0.83-9.17,1.49c-1.45,0.32-2.58,1.43-2.92,2.95
	C185.05,441.3,184.12,443.02,184.49,444.7z M625.58,409.64c0.43,2.03,0.97,3.99,1.24,5.99c0.28,2.09-0.31,4.14-0.6,6.21
	c-0.35,2.48,3.75,7.73,6.15,7.9c2.89,0.21,5.31-0.98,7.05-3.36c1.62-2.23,1.86-4.3-0.77-6.05c-1.6-1.06-2.28-2.53-2.31-4.56
	c-0.05-3.38-1.04-4.12-4.27-3.75c-1.17,0.13-1.95-0.65-2.91-1.01C628.02,410.6,627.19,409.42,625.58,409.64z M613.71,316.66
	c-1.57,0.15-3.29,5.04-2.2,6.64c2.75,4.03,2.8,8.5,2.53,13.02c-0.14,2.23,0.81,3.36,2.73,3.78c2.13,0.47,2.48-1.21,3.07-2.74
	c1.59-4.13,2.44-8.83,7.51-10.51c0.61-0.2,1.55-0.52,1.29-1.5c-0.23-0.86-1.05-0.36-1.6-0.49c-4.76-1.12-9.91-1.57-12.1-7.12
	C614.75,317.24,614.05,316.94,613.71,316.66z M207.4,423.08c0.11,3.21,1.95,4.66,4.43,5.91c2.12,1.08,3.74,2.11,4.69-1.13
	c0.27-0.94,1.14-1.51,2.07-1.84c1.43-0.5,1.6-1.54,1.64-2.91c0.08-2.94-1.02-5.74-0.82-8.72c0.09-1.4,1.64-3.09,0.36-4.06
	c-1.48-1.12-2.64,1.05-4.08,1.42c-0.4,0.1-0.83,0.34-1.2,0.26c-2.48-0.52-3.42,1.02-3.93,2.97c-0.64,2.43-1.15,4.87-2.94,6.82
	C207.32,422.12,207.44,422.8,207.4,423.08z M218.26,325.69c0.92,1.35,1.94,2.14,3.42,2.3c1.44,0.16,3.35,1.19,3.27,2.04
	c-0.32,3.1,2.3,4.79,2.95,7.37c0.21,0.84-0.27,2.62,1.96,2.27c2.18-0.35,1.76-1.73,1.69-3.03c-0.22-4.15,0.05-8.18,1.98-11.98
	c1.55-3.04,0.46-5.66-1.44-8.03c-2.64,1.46-2.92,4.88-5.51,6.33C224.07,324.35,220.84,323.65,218.26,325.69z M533.91,244.71
	c1.82,0,3.52,0.05,5.21-0.02c1.48-0.06,3.22-0.29,3.58-1.91c0.39-1.73-1.47-1.56-2.53-2.06c-0.65-0.3-1.15-0.92-1.77-1.33
	c-1.56-1.04-3.14-1.48-5.03-0.63c-3.63,1.63-7.14,2.04-10.57-0.87c-0.81-0.69-2.68-0.38-4.01-0.18c-1.37,0.21-2.33,3.13-1.27,3.65
	c3.06,1.48,6.18,3.43,9.41,3.72C529.1,245.28,531.67,245.03,533.91,244.71z M163.96,416.56c1.69-0.07,3.25-0.86,4.06-2.61
	c0.67-1.45,1.63-2.63,2.72-3.74c0.9-0.91,1.71-1.91,1.02-3.3c-0.41-0.83-1.28-1.42-2.04-1.04c-1.33,0.65-3.17,0.79-3.63,2.61
	c-0.74,2.92-2,3.49-4.71,2.07c-0.96-0.5-2.13-1-2.29,0.72C158.89,413.27,161.69,416.32,163.96,416.56z M684.57,415.88
	c2.26,0.37,3.23-1.21,3.84-3.12c0.22-0.69,1.25-1.38,0.29-2.24c-0.94-0.84-1.36,0.18-2.07,0.48c-1.44,0.6-3.88,1.3-4.04-0.66
	c-0.17-2.12-1.73-2.89-2.4-4.4c-0.67-1.52-1.59-0.59-2.5,0c-0.97,0.64-1.87,1.27-0.93,2.44c1.7,2.11,3.43,4.18,4.82,6.54
	C682.12,415.84,683.3,416.05,684.57,415.88z M592.7,88.7c0.03-0.41,0.05-0.81,0.08-1.22c-8.9,0.36-17.8,0.72-26.69,1.08
	c0.01,0.48,0.02,0.96,0.04,1.44C574.98,89.5,583.85,89.68,592.7,88.7z M628.23,344.04c-2.5-0.35-4.31,0.46-5.89,1.77
	c-0.71,0.58-1.55,1.78,0.22,1.92c2.64,0.21,5.33,1.25,7.99,0c0.76-0.36,1.76-0.66,1.64-1.64c-0.12-0.93-0.74-1.83-1.78-2.02
	C629.58,343.92,628.71,344.04,628.23,344.04z M220.3,348.44c0.82,0,1.54-0.2,2.06,0.05c0.79,0.38,1.19,0.1,1.51-0.49
	c0.31-0.59,0.22-1.21-0.2-1.77c-1.35-1.8-5.93-2.84-8.08-1.91c-1.78,0.77-1.48,1.74-0.36,2.79
	C216.72,348.51,218.57,348.63,220.3,348.44z M563.53,83.79c9.5,0,19.22,0,28.94,0C582.75,82.88,573.07,83.22,563.53,83.79z
	 M180.38,363.11c2.04-0.25,3.99-0.8,4.31-3.2c0.25-1.87-1.43-1.31-2.36-1.3c-1.9,0.01-4.37-0.5-4.72,2.24
	C177.44,362.19,178.71,363.2,180.38,363.11z M667.64,359.23c-0.72,0.56-2.66-0.91-2.55,0.87c0.13,2.05,1.91,3.07,4.04,3.07
	c1.27,0,2.33-0.35,2.31-1.89C671.4,358.54,669.31,359.37,667.64,359.23z M617.23,289.87c-1.03-1.68-2.59-2.72-4.22-3.53
	c-1.1-0.55-1.97,1.31-1.92,1.4c0.93,1.59,2.54,2.48,4.1,3.31C615.78,291.36,616.61,290.56,617.23,289.87z M228.11,290.59
	c1.41-0.27,3.18-0.41,3.57-2.19c0.26-1.18-0.84-1.79-2.07-1.69c-1.79,0.15-3.31,1.01-3.67,2.73
	C225.66,290.78,227.11,290.5,228.11,290.59z M613.13,342.72c-0.78-0.16-1.51,0.57-1.44,0.9c0.4,1.99,2.12,2.73,3.76,3.41
	c1.04,0.43,1.8-0.38,1.71-1.22C616.9,343.52,614.43,343.83,613.13,342.72z M233.85,343.57c-1.57-0.78-2.87,0.36-4.28,0.51
	c-0.91,0.1-1.27,1.2-0.7,2.27c0.57,1.07,1.25,0.9,2.04,0.35C232.11,345.85,233.25,344.97,233.85,343.57z"/>
<path class="st1" d="M505.38,49.36c0.07,0.08,0.14,0.16,0.2,0.24c1.3,1.92,6.22-2.31,5.42,3.22c-0.36,2.53,0.55,5.04-0.59,7.69
	c-3.57,8.32-6.26,17.06-13.63,23.21c-1.34,1.12-3.28,1.29-4.16,2.95c-10.83,0.23-21.66,0.47-32.5,0.7c0.49-2.39-0.49-3-2.88-2.99
	c-21.61,0.14-43.22,0.15-64.83,0.2c-0.74,0-1.48,0.07-2.22,0.04c-1.57-0.05-1.26,1.03-1.21,1.96c-1.37,0.08-2.74,0.25-4.11,0.22
	c-19.9-0.37-39.79-0.75-59.69-1.15c-10.97-0.22-21.97,0.22-32.9-1.25c-6.81-0.92-13.65-1.03-20.49-0.23
	c-0.49-0.02-0.97-0.04-1.46-0.06c-3.68-1.82-7.48-1.17-11.27-0.5c-0.63,0.05-1.27,0.17-1.89,0.13c-9.23-0.58-18.48-0.87-27.71-1.65
	c-6.07-0.51-12.23-0.56-18.31-0.99c-9.85-0.7-19.76-0.93-29.55-2.42c-2.23-2.02-2.45-4.82-3.13-7.53
	c-3.61-14.42-3.68-14.4-16.42-25.2c-4.37-3.71-8.99-7.08-13.97-9.91c-0.94-0.53-1.43-1.15-1.73-2.09c-1.21-3.84-2.21-7.71-2.84-11.7
	c-0.43-2.72,0.73-2.37,2.31-1.59c4.2,2.07,8.66,3.43,13.08,4.89c22.82,7.54,46.45,11.09,70.19,14.14
	c23.01,2.96,46.13,4.69,69.25,6.51c13.08,1.03,26.16,1.47,39.23,2.23c4.44,0.26,8.99,0.43,13.44,1.27
	c3.78,0.71,7.56-0.52,11.38-0.35c34.65,1.54,69.32,1.43,103.99,0.97c10.7-0.14,21.4-0.62,32.11-0.53
	C500.8,49.84,503.02,48.6,505.38,49.36z"/>
<path class="st0" d="M565.98,44.79c-12.33,0.76-24.18,1.62-36.06,2.12c-8.83,0.38-17.66,0.76-26.49,1.19
	c-36.82,1.81-73.65,1.49-110.48,1.1c-9.39-0.1-18.79,0.03-28.15-0.59c-9.35-0.63-18.72-0.56-28.07-1.18
	c-9.96-0.66-19.91-1.33-29.87-1.99c-9.21-0.61-18.44-1.11-27.64-1.86c-11.8-0.96-23.6-1.93-35.36-3.23
	c-11.16-1.23-22.33-2.58-33.4-4.46c-10.84-1.84-21.7-3.61-32.38-6.32c-10.8-2.73-21.29-6.37-31.72-10.21
	c-1.07-0.39-2.03-1.07-3.1-1.49c-1.63-0.66-3.3-1.21-4.95-1.81c0.7-1.91,1.31-3.86,2.12-5.73c2.45-5.63,2.48-5.61,8.27-3.3
	c14.77,5.88,30.08,9.7,45.73,12.42c9.41,1.64,18.87,2.94,28.31,4.33c8.16,1.2,16.44,1.51,24.61,2.62
	c10.35,1.41,20.78,1.88,31.15,3.09c5.92,0.69,11.93,0.72,17.86,1.32c8.78,0.89,17.64,0.58,26.38,1.94c0.31,0.05,0.64,0.03,0.95,0.01
	c8.35-0.44,16.66,0.54,24.99,0.76c11.69,0.32,23.39,0.71,35.08,1.23c22.97,1.02,45.93,0.5,68.88,0.25c7.06-0.08,14.14,0,21.19-0.39
	c12.09-0.67,24.19-0.89,36.29-1.33c8.7-0.31,17.41-0.85,26.12-1.21c10.05-0.41,20.09-1.19,30.12-1.9
	c7.73-0.55,15.47-1.04,23.16-1.94c12.54-1.47,25.14-2.34,37.63-4.23c9.36-1.42,18.77-2.51,28.11-4.02
	c14.97-2.43,29.61-6.21,43.68-11.93c8.28-3.37,8.03-3.39,11.38,4.93c1.24,3.09,0.46,3.99-2.3,5.04c-7.42,2.82-14.66,6.07-22.24,8.53
	c-15.87,5.17-32.17,8.3-48.63,10.66c-10.64,1.53-21.31,2.79-32.01,3.92c-11.33,1.2-22.67,2.27-34.03,3.19
	C569.26,44.51,567.42,45.11,565.98,44.79z"/>
<path class="st1" d="M287,227.35c-3.19-0.09-6.13,1.65-9.51,0.9c-1.85-0.41-3.09,1.98-4.83,2.67c-2.18,0.87-2.61,2.09-2.03,4.44
	c0.35,1.41-1.15,2.8-2.98,1.85c-2.7-1.4-5.22-1.55-8.04-0.18c-0.94,0.46-1.47,0.89-1.98,1.7c-0.9,1.43-2.36,1.9-3.87,1.38
	c-1.8-0.62-2.87-2.1-3.16-3.98c-0.23-1.5-0.16-2.93,1.6-3.72c0.51-0.23,2.17-0.06,1.11-1.8c-0.52-0.85,0.75-0.5,1.17-0.4
	c1.31,0.32,2.57,0.81,3.88,1.15c4.81,1.25,7.62-2.25,10.34-4.98c2.36-2.37-0.15-7.39-3.52-8.38c-2.81-0.83-5.41-2.43-8.24-3.11
	c-4.3-1.03-8.73-1.31-13.17-0.89c-0.6-1.38-0.71-2.81-0.69-4.31c0.3-22.67,0.57-45.34,0.79-68.01c0.01-1.16,0.62-2.58-0.79-3.46
	c0.28-0.43,0.57-0.86,0.85-1.29c-0.06-0.61-0.12-1.21-0.17-1.82c-0.15-0.15-0.23-0.33-0.23-0.54c-4.5-1.54-9.32-0.75-13.87-1.89
	l0.07,0.06c-0.34-0.23-0.68-0.47-1.02-0.7l-0.17,0.13l-0.15-0.15c-0.22-0.19-0.44-0.37-0.66-0.56c-3.05-1.16-3.73-4.45-5.85-6.46
	c-0.08-0.07-0.21-0.13-0.23-0.21c-1.23-6.11-1.23-6.11,5.1-6.12c4.76-0.01,9.52-0.09,14.28,0.02c1.97,0.04,2.84-0.44,2.81-2.62
	c-0.1-6.77-0.08-13.54,0.03-20.31c0.03-2.09-1.12-3.56-1.97-5.23c-0.42-0.83-1.12-2.02-0.81-2.59c0.53-1.01,1.89-0.39,2.88-0.35
	c1.15,0.05,2.29,0.34,3.44,0.52c2.12,1.28,4.44,0.55,6.68,0.64c8.87,0.2,17.74,0.41,26.62,0.61c2.93,0.67,5.86,1.02,8.8,0.03
	c0.94-0.19,1.93-1.23,2.8,0.11c0.74,1.15-0.41,1.81-0.87,2.45c-2.08,2.89-4.51,5.34-3.97,9.59c0.57,4.44,0.31,9.02,0.04,13.51
	c-0.18,3.06,1,3.69,3.78,3.62c6.66-0.17,13.33-0.02,20-0.07c1.84-0.02,2.95,0.43,2.39,2.52c-1.15,4.27-2.67,8.34-6.59,10.96
	c-2.77-0.18-5.24,1.43-8,1.33c-3.61,0.23-7.28-0.49-10.84,0.6l0.08-0.04c-1.19,2.04-0.8,4.31-0.8,6.47
	c-0.04,25.38-0.02,50.77-0.04,76.15C287.46,220.18,287.59,223.78,287,227.35z"/>
<path class="st0" d="M640.96,141.59c12.5,0,25.01,0.04,37.51-0.04c1.9-0.01,2.77,0.39,2.45,2.42c-0.13,0.83-0.03,1.69,0.02,2.54
	c0.21,3.52,0,6.8-3.04,9.36c-1.69,1.43-2.97,3.74-3.03,5.74c-0.12,3.73-3.52,5.5-4.29,8.75c-0.24,1-1.87,0.47-2.86,0.48
	c-14.52,0.02-29.04,0-43.56-0.01c-6.89,0-13.78-0.05-20.67,0.08c-1.94,0.04-2.53-0.45-2.52-2.43c0.03-8.16-0.04-16.32-0.23-24.48
	c-0.05-2.12,0.33-2.84,2.72-2.81c12.5,0.16,25,0.07,37.5,0.07C640.96,141.37,640.96,141.48,640.96,141.59z"/>
<path class="st1" d="M178.92,167.12c-2.8,0.45-4.14-0.69-4.83-3.53c-0.9-3.69-2.56-7.08-5.09-10.1c-2.77-3.31-1.44-7.5-1.63-11.34
	c-0.05-0.93,0.76-0.79,1.39-0.77c23.73,0.87,47.46,0.04,71.2,0.3c-0.01,7.74-0.04,15.48,0.01,23.21c0.01,1.43-0.27,2.15-1.88,2.14
	c-9.85-0.07-19.7-0.07-29.56-0.09c-5.56-0.64-11.14-0.32-16.71-0.32c-4.08,0-8.19-0.52-12.24,0.41
	C179.36,167.05,179.14,167.08,178.92,167.12z"/>
<path class="st0" d="M677.75,139.78c-4.26,0.98-9.64,0.95-14.93,1.07c-13.74,0.32-27.5-0.02-41.25-0.19
	c-2.01-0.02-4.91,1.48-5.83-0.68c-0.89-2.08,2.04-3.57,3.24-5.34c0.86-1.27,1.81-1.64,3.91-1.56c8.71,0.32,17.48,0.83,26.21-0.32
	c3.44-0.45,6.93,0.13,10.42-0.33c6.81-0.9,13.66-1.52,20.49-2.27c2.05-0.23,3.47,0.3,3.48,2.69c0,0.1,0.09,0.19,0.12,0.29
	C685.54,139.46,685.4,139.65,677.75,139.78z"/>
<path class="st0" d="M229.47,139.83c-22.81,0.04-45.63,1.71-68.65-0.88c1.13-2.33,0.96-4.54,1.42-6.64c0.4-1.85,0.35-2.93,3.2-2.34
	c5.77,1.19,11.73,1.46,17.63,2.01c12.81,1.19,25.65,1.5,38.5,1.31c1.06-0.02,1.69,0.3,2.32,1.18
	C225.36,136.49,227.01,138.38,229.47,139.83z"/>
<path class="st0" d="M254.06,88.75c-2.24-0.1-4.56,0.64-6.68-0.64c0.76-2.89-0.29-3.85-3.31-3.92c-9.64-0.23-19.29-0.58-28.9-1.25
	c-9.92-0.69-19.81-1.74-29.77-1.95c-1.28-0.03-4.04,0.91-3.8-2.28c9.79,1.48,19.7,1.72,29.55,2.42c6.07,0.43,12.24,0.48,18.31,0.99
	c9.23,0.78,18.48,1.07,27.71,1.65c0.62,0.04,1.26-0.08,1.89-0.13c3.78-0.23,7.48,1.09,11.27,0.5c0.49,0.02,0.97,0.04,1.46,0.06
	c6.26,0.44,12.6-0.5,19.26,0.74c-2.01,1.37-2.51,2.73-1.57,4.46c-2.94,0.99-5.87,0.64-8.8-0.03c0.03-0.97-0.5-1.26-1.38-1.2
	c-7.91,0.51-15.75-1.17-23.66-0.63C254.79,87.59,253.86,87.4,254.06,88.75z"/>
<path class="st0" d="M178.92,167.12c0.22-0.03,0.44-0.07,0.65-0.1c9.65-0.03,19.3-0.06,28.95-0.09c9.85,0.02,19.7,0.03,29.56,0.09
	c1.61,0.01,1.89-0.71,1.88-2.14c-0.05-7.74-0.02-15.48-0.01-23.21c1.71-0.36,2.62-0.17,2.57,2.08c-0.17,8.03-0.18,16.07-0.06,24.1
	c0.03,2.1-0.73,2.38-2.55,2.37c-19.35-0.11-38.7-0.17-58.05-0.17C179.72,170.05,178.23,169.78,178.92,167.12z"/>
<path class="st0" d="M228.37,132.03l0.15,0.15c0,0,0.17-0.13,0.17-0.13c0.34,0.23,0.68,0.47,1.02,0.7c0,0-0.07-0.06-0.07-0.06
	c4.36,2.6,9.22,1.5,13.87,1.89c0,0.21,0.07,0.39,0.23,0.52c0.06,0.6,0.12,1.22,0.17,1.84c-0.28,0.43-0.57,0.86-0.85,1.29
	c-4.1,0.69-8.42,0.55-12.1-0.74c-3.93-1.37-7.14-4.66-8.42-9.1c-0.32-1.1-0.46-2.25-0.68-3.38c2.11,2,2.8,5.3,5.84,6.46
	C227.93,131.65,228.15,131.84,228.37,132.03z"/>
<path class="st1" d="M287.57,291.75c-0.01,5.58-0.05,11.17,0.01,16.75c0.02,1.77-0.22,2.98-2.4,2.43c-4.26,0.2-7.47,2.01-9.55,5.87
	c-0.71,1.32-1.29,2.59,0.59,2.83c3.48,0.45,6.78,2.18,10.44,1.42c1.36-0.28,2.43,0.32,2.02,1.9c-0.88,3.43,1.14,2.77,3.13,2.41
	c1.37-0.25,2.9-0.96,4.21,0.51c-0.97,0.88-1.82,0.58-2.64,0.52c-3.88-0.28-7,1.25-9.65,3.99c-1.52,1.57-1.54,4.39,0.17,5.16
	c1.1,0.49,2.39,0.53,3.6,0.78c0.07,30.11,0.1,60.21,0.21,90.32c0.05,13.99,0.28,27.98,0.42,41.97c-2.2,0.46-3.94,0.35-5.31-2.04
	c-0.73-1.27-2.66-1.84-4.52-1.69c-2.73,0.21-4.01-0.88-4.2-3.97c-1.15-18.17-1.65-36.37-2.59-54.54
	c-0.36-6.98-0.29-13.95-0.52-20.92c-1.07-33.68-1.88-67.37-1.98-101.07c-0.01-2.01-1.45-4.59,2.1-5.56
	c1.07-0.29,0.21-1.84-0.31-2.76c-1.62-2.82-3.22-5.66-4.92-8.64c2.08-1.12,4.48-1.11,6.38-2.38c2.48-1.65,2.61-2.71,0-3.99
	c-2.88-1.41-5.28-4.22-9.25-2.92c-1.53,0.5-3.04-1.2-4.04-2.61c-0.44-0.63-0.42-1.44,0.03-2.11c0.47-0.71,1.18-0.87,1.94-0.56
	c3.21,1.31,6.57,0.37,9.85,0.71c2.69,0.28,5.49,2.82,6.16,5.49c0.57,2.25,2.9,2.21,4.57,2.77c2.54,0.86,3.53-1.04,4.26-3.02
	c2.92,1.4,1.31,4.05,1.69,6.15c-1.61-0.19-3.12,0.68-4.64,0.65c-2.38-0.05-2.19,1.47-2.13,2.91c0.06,1.54,0.74,2.52,2.56,2.28
	c0.71-0.1,1.63-0.4,2.26,0.45c-0.55,1.37-2.73,0.79-2.7,1.84c0.06,2.67-1.98,4.41-2.79,6.96c1.91-0.85,3.5-1.54,5.08-2.24
	c0.88,0.65,2.14,0.87,2.45,2.17c-0.69,1.91-1.65,3.58-3.7,4.35c-1.61,0.6-2.25,1.77-1.96,3.48c0.28,1.62,1.18,2.58,2.78,3.05
	C285.66,291.11,286.88,290.64,287.57,291.75z"/>
<path class="st2" d="M616.09,505.05c-1.68,0.19-2.77-0.86-4.24-0.82c-1.64,0.05-0.9-1.62-0.91-2.5c-0.07-8.06-0.02-16.11-0.05-24.17
	c-0.03-6.08-1.65-7.97-7.69-8.83c-1.19-0.17-1.53-0.38-1.55-1.67c-0.57-32.54-1.03-65.08-0.88-97.62c0-1.04-0.26-2.15,1.19-2.51
	c1.58-0.39,2.86,0.62,3.4,1.61c1.4,2.56,3.19,5.08,2.35,8.4c-0.52,2.08,1.19,3.5,2.23,5.04c0.63,0.93,1.38,1.93,0.31,2.75
	c-4.82,3.69-2.86,8.17-1.7,12.63c0.84,3.26,0.12,6.73,1.17,9.99c0.16,0.5-0.04,1.46-0.42,1.75c-2.86,2.12-1.36,4.15,0.02,6.17
	c1.04,1.52,1.55,3.14,0.27,4.64c-1.55,1.82-0.96,3.59,0.12,5.06c2.3,3.15,1.79,6.62,0.77,9.72c-0.98,2.97-0.66,5.11,1.44,7.15
	c1.43,1.39,1.9,2.85,1.2,4.84c-0.84,2.41,0.01,4.58,1.73,6.33c1.3,1.32,2.1,2.82,2.45,4.62c0.36,1.83-0.35,3.45-1.9,3.99
	c-2.35,0.83-1.95,2.02-0.87,3.36c2.4,2.96,2.77,5.99,1.17,9.49c-0.97,2.12-0.7,4.47,0.78,6.32c1.83,2.3,1.55,4.53,0.1,6.69
	c-1.62,2.41-1.61,5-1,7.58C616.4,498.41,615.78,501.73,616.09,505.05z"/>
<path class="st2" d="M243.05,407.37c0,12.19,0.57,24.42-0.21,36.56c-0.48,7.39,0.61,14.67,0.07,22.01
	c-0.13,1.71-0.22,2.79-2.36,3.19c-3.96,0.74-5.14,2.8-5.07,6.59c0.16,8.69-0.05,17.39,0.11,26.08c0.04,2.28-1.07,2.73-2.8,3.13
	c-2.13,0.49-1.86-1.37-2.21-2.33c-0.65-1.81-1.4-3.66-0.28-5.68c1.97-3.56,1.31-7.09-0.82-10.3c-1.07-1.61-1.11-2.97-0.31-4.6
	c1.71-3.47,2.01-6.86,0.04-10.49c-1.1-2.03,0.63-3.82,2.03-5.18c1.56-1.5,2.02-2.74,0.48-4.55c-2.63-3.09-1.27-6.38,0.05-9.44
	c0.74-1.71,1.21-3.34,1.09-5.16c-0.15-2.17,0.3-4.12,1.59-5.97c1.7-2.44,1.23-5.37,0.79-7.97c-0.48-2.77-0.64-5.34,0.34-7.96
	c0.11-0.3,0.35-0.6,0.32-0.88c-0.44-4.36-0.82-8.69,1.39-12.76c0.13-0.24,0.08-0.65,0-0.94c-1.85-6.17-0.88-12.23,0.66-18.28
	c0.66-2.59-0.38-4.65-2.28-6.3c-1.62-1.41-1.84-2.78-0.59-4.61c1.31-1.92,2.12-3.94,1.04-6.46c-0.85-1.97,2.26-7.21,4.98-8.03
	c1.21-0.37,2.35-0.12,2.38,1.56c0.03,1.27,0.1,2.54,0.1,3.81c0.01,11.66,0,23.33,0,34.99C243.42,407.37,243.23,407.37,243.05,407.37
	z"/>
<path class="st2" d="M211.25,445.88c0.14-5.01,1.33-6.21,5.25-5.1c1.05,0.3,2.68,0.95,1.56,2.34c-2.99,3.67-1.76,8.24-2.98,12.25
	c-0.81,2.66-1.57,5.29,0.91,7.56c0.2,0.18,0.4,0.67,0.31,0.83c-2.29,3.76-0.81,7.46,0.02,11.22c0.52,2.34-0.14,4.62-1.32,6.69
	c-1.11,1.93-2.34,3.79-1.21,6.17c0.17,0.37,0.44,1.09-0.42,1.2c-0.83,0.1-1.59,0.17-2.3-0.61c-1.7-1.86-2.29-4.18-2.93-6.48
	c-0.16-0.59,0-1.59-0.67-1.58c-3.02,0.03-3.21-2.63-3.71-4.33c-1.05-3.54-3.81-5.93-5.35-9.1c-0.25-0.52-0.84-0.97-1.37-1.25
	c-2.91-1.5-3.32-4.82-0.96-7.12c2.53-2.47,5.76-3.43,8.96-4.47C210.3,452.37,211.1,451.34,211.25,445.88z"/>
<path class="st2" d="M635.09,445.22c-0.08,5.47,2.93,7.49,8.74,9.4c5.9,1.94,9.46,5.38,7.27,10.79c-0.41,1.02-0.14,1.97-1.62,0.94
	c-0.54-0.37-1.39,0.26-1.46,0.8c-0.56,4.41-4.18,7.11-6.05,10.78c-0.64,1.25-0.48,3.88-3.39,3.43c-0.59-0.09-0.92,1.65-0.89,2.76
	c0.03,1.35,0.29,2.81-0.7,3.97c-0.9,1.05-1.88,1.79-3.46,1.26c-1.92-0.65-0.47-1.7-0.32-2.46c0.51-2.64-1.15-4.78-1.52-7.22
	c-0.39-2.55-0.72-5,0.19-7.47c0.8-2.17,0.9-4.33-0.17-6.42c-0.57-1.12-0.84-2.56-0.32-3.36c1.69-2.58,0.96-4.84-0.04-7.38
	c-1.51-3.85,0-8.32-2.43-12.13c-0.6-0.94,0.91-1.99,2.1-2.14c1.7-0.22,3.53-0.3,4.06,1.94
	C635.24,443.49,635.09,444.37,635.09,445.22z"/>
<path class="st2" d="M671.25,436.24c-0.24-0.22-0.95-0.61-0.91-0.89c0.38-2.45-1.69-3.35-2.87-4.81c-0.39-0.49-1.07-1.02-1.05-1.52
	c0.14-4.21-2.39-2.87-4.76-2.56c-3.45,0.45-6.84-0.28-9.88-1.98c-1.33-0.74-1.86-1.66-0.53-3.5c2.42-3.36,5.64-5.27,9.28-6.65
	c1.47-0.55,2.65-1.21,3.85-2.28c4.31-3.86,8.39-2.74,11.14,2.78c0.99,1.99,1.01,4.62,3.69,5.51c0.69,0.23,0.48,0.86,0.07,1.26
	c-3.84,3.63-3.38,9.4-6.61,13.35C672.3,435.4,672.29,436.13,671.25,436.24z"/>
<path class="st2" d="M196.07,422.59c0.32,1.59-1.34,2.55-1.75,2.58c-2.4,0.12-4.46,2.38-7.12,1c-0.68-0.35-2.59-0.35-2.6,0.3
	c-0.09,4.5-6.3,3.88-6.59,8.15c-0.06,0.88-1.18,1.02-2.08,1.05c-1.28,0.04-0.8-0.88-0.97-1.52c-1.04-4.11-1.59-8.37-3.82-12.1
	c-0.21-0.35-0.55-1.05-0.53-1.06c3.78-2.06,1.92-7.11,5.24-9.58c3.03-2.25,5.46-2.65,8.75,0.58c2.02,1.98,4.44,2.79,6.77,3.98
	C194.15,417.39,194.81,420.18,196.07,422.59z"/>
<path class="st2" d="M607.33,293.38c0.93,0.83,1.97,0.48,2.75,0.19c1.88-0.7,3.57-0.53,5.45,0.06c2.14,0.67,4.18,1.69,6.62,1.5
	c1.25-0.09,2.47,1.07,3.25,2.26c0.42,0.64,0.67,1.35-0.4,1.65c-3.56,1.01-5.86,3.9-8.01,6.4c-2.61,3.05-5.23,1.94-7.9,1.35
	c-2.77-0.61-6.65,0.29-8.02-2.29c-1.19-2.24-0.4-5.57-0.37-8.42c0.02-2.1-0.99-4.05-0.67-6.21c0.28-1.85,1.03-3.02,3-2.4
	c1.65,0.52,3.19-0.68,4.94,0.28c2.81,1.54,3.14,2.93,0.58,4.86C608.19,292.89,607.77,293.11,607.33,293.38z"/>
<path class="st2" d="M653.61,358.06c-2.03,0.45-4.07-1.31-6.34-0.47c-2.04,0.75-4.11,1.66-4.57,3.95c-0.7,3.49-3.63,3.19-5.81,3.31
	c-3.56,0.2-7.09,0.35-10.45,1.58c-1.54,0.56-2.49-0.22-3.21-1.11c-0.71-0.87-0.39-2.1,0.41-2.91c1.84-1.85,3.25-3.87,3.2-6.61
	c-0.03-1.59,1.43-1.11,2.11-1.26c2.1-0.46,3.78-1.2,5.37-2.84c1.89-1.94,4.74-2.17,7.38-2c2.37,0.16,4.61,0.17,6.66,2.35
	c1.7,1.8,4.53,2.79,7.19,3.36c0.86,0.19,2.23-0.31,2.2,1.06c-0.02,1.19-1.16,1.64-2.35,1.59
	C654.86,358.04,654.33,358.06,653.61,358.06z"/>
<path class="st2" d="M236.69,294.33c-0.12-1.43-1.11-1.78-1.75-2.41c-0.88-0.86-2.06-1.9-1.14-3.06c0.8-1,2.33-1.62,3.61-0.43
	c1.04,0.97,1.63,1.4,1.93-0.49c0.19-1.18,1.21-1.51,2.17-1.08c0.72,0.33,1.68,0.5,1.64,1.89c-0.15,4.98-0.16,9.96-0.05,14.94
	c0.04,1.78-1.22,1.82-2.23,2.01c-2.67,0.5-5.38,0.84-7.84,2.03c-1.18,0.57-1.95,0.21-2.74-0.53c-3.46-3.2-6.37-7.09-11.27-8.44
	c-1.55-0.43-0.65-1.75-0.01-2.2c1.51-1.07,3.09-2.19,5.06-2.2c2.69-0.02,5.27-0.54,7.84-1.28
	C233.57,292.61,234.96,294.1,236.69,294.33z"/>
<path class="st2" d="M559.39,286.07c0,4.03,0.01,7.73-0.01,11.42c0,0.68,0.27,1.79-0.74,1.79c-2.86,0-5.85,1.19-8.54-0.61
	c-0.61-0.41-1.08-0.52-1.71-0.36c-5.08,1.28-12.36-1.33-15.11-5.48c-0.8-1.21-0.27-2.06,1.09-2.31c2.9-0.54,5.41-1.61,7.7-3.66
	c1.42-1.27,3.75-1.43,5.49-2.54c0.48-0.31,0.78-0.1,1.09,0.55c2,4.22,2.42,4.4,6.74,2.98C556.67,287.44,557.85,286.77,559.39,286.07
	z"/>
<path class="st2" d="M206.52,349.64c2.7-0.11,4.83,0.93,6.83,2.41c1.39,1.04,2.59,2.44,4.68,2.15c0.97-0.14,1.5,0.68,1.51,1.65
	c0.04,2.31,1.01,4.13,2.59,5.81c0.65,0.69,1.84,1.68,0.95,2.96c-0.9,1.3-2.28,2.06-3.79,1.59c-1.74-0.54-3.47-0.43-5.21-0.62
	c-2.95-0.33-5.53-1.09-7.28-4.2c-1.86-3.3-5-5.04-9.16-3.52c-1.03,0.37-2.32,0.21-3.45,0.03c-1.09-0.18-2-0.93-1.95-2.16
	c0.07-1.58,1.43-0.87,2.18-0.91c2.21-0.1,4.03-0.87,5.48-2.53C201.7,350.25,204.01,349.52,206.52,349.64z"/>
<path class="st2" d="M651.31,397.43c4.43-1.22,6.8,2.92,10.09,5.12c0.52,0.34,0.54,0.9,0.18,1.38c-1.67,2.27-3.11,5-6.16,5.47
	c-2.87,0.44-4.77,1.8-6.39,4.09c-2.14,3.03-3.14,2.87-5.99,0.61c-4.61-3.65-4.1-9.66-0.17-13.29
	C646.46,397.5,646.4,397.44,651.31,397.43z"/>
<path class="st2" d="M206.8,405.2c-0.22,1.29-0.13,2.98-0.02,4.7c0.18,2.6-2.44,5.99-4.97,6.49c-1.33,0.26-2.41-0.18-3.43-1.31
	c-2.27-2.49-4.16-5.32-7.77-6.48c-1.47-0.47-2.59-2.67-3.44-4.31c-0.87-1.66,1.11-2,1.95-2.7c3.2-2.65,6.27-5.44,11.12-4.28
	C203.62,398.13,206.87,401.35,206.8,405.2z"/>
<path class="st2" d="M600.65,308.38c3.42,1.17,6.2,2.82,9.05,4.36c1.47,0.79,1.46,1.58,0.71,2.74c-0.79,1.21-1.5,2.49-2.42,3.59
	c-2.32,2.75-2.07,5.51,0.19,7.95c3.47,3.75,1.82,8.2,2.03,12.38c0.05,0.92-0.81,1.45-1.79,1.37c-0.5-0.04-1-0.19-1.47-0.37
	c-6.28-2.37-6.29-2.37-6.29-9.13C600.65,323.75,600.65,316.23,600.65,308.38z"/>
<path class="st2" d="M600.64,341.42c4.34,2.32,8.01,4.75,11.39,7.63c0.92,0.79,2.08,1.54,3.24,1.76c1.87,0.36,3.41,1.27,2.5,3.02
	c-0.83,1.61,1.52,5.19-2.79,4.88c-1.3-0.09-1.07,1.24-0.5,1.75c3.12,2.78,3.95,7.2,7.22,9.85c0.68,0.55,1.21,1.42,0.25,2.13
	c-0.93,0.68-1.58-0.16-2.09-0.81c-1.51-1.87-2.09-4.22-3.49-6.25c-2.94-4.26-6.46-5.95-11.49-5.54c-4.21,0.34-4.23,0.14-4.23-4.13
	C600.64,351.06,600.64,346.41,600.64,341.42z"/>
<path class="st2" d="M243.68,307.95c0,9.89,0.01,19.08-0.01,28.28c0,1.94-3,4.11-5.97,4.33c-2.52,0.19-2.5-1.99-2.74-3.47
	c-0.47-2.93-0.4-5.89,1.35-8.54c2.53-3.84,2.44-7.53-0.27-11.34c-2.49-3.5-2.36-3.6,1.3-5.69
	C239.3,310.41,241.27,309.31,243.68,307.95z"/>
<path class="st2" d="M652.72,435.63c1.38,0,2.76-0.04,4.13,0.01c3.1,0.1,5.83,2.57,6.16,5.65c0.14,1.26,0.1,2.54,0.11,3.81
	c0.04,4.37,0.18,4.04-3.87,2.37c-2.67-1.1-5.88-0.7-8.72-0.07c-2.67,0.59-4.81,0.35-6.29-1.95c-1.05-1.63-3.07-3.04-1.71-5.55
	c1.46-2.72,3.35-4.56,6.69-4.31c1.16,0.09,2.33,0.01,3.49,0.01C652.72,435.61,652.72,435.62,652.72,435.63z"/>
<path class="st2" d="M225.71,371.27c-0.88-1.22,0.11-2.03,0.6-2.86c0.7-1.17,1.49-2.31,2.38-3.36c2.2-2.6,4.49-4.85,1.33-8.59
	c-1.89-2.24-1.26-4.64,1.83-6.34c4.14-2.28,7.22-6.12,11.72-8.74c0,5.74,0,11.27,0,16.8c0,0.8-0.41,1.1-1.18,1.1
	c-7.1,0.03-10.89,4.95-14.53,10C227.26,370.13,226.87,371.04,225.71,371.27z"/>
<path class="st2" d="M184.49,444.7c-0.36-1.68,0.57-3.4,0.97-5.2c0.34-1.51,1.47-2.63,2.92-2.95c3.03-0.66,6.09-1.28,9.17-1.49
	c2.72-0.19,5.18,1.16,5.94,3.79c0.75,2.59-0.46,4.7-2.72,6.63c-2.45,2.1-4.59,2.76-7.61,1.65c-1.55-0.57-3.32,0.03-4.91,0.63
	C184.65,449.13,184.5,449.02,184.49,444.7z"/>
<path class="st2" d="M625.58,409.64c1.61-0.23,2.44,0.96,3.58,1.38c0.96,0.36,1.74,1.14,2.91,1.01c3.23-0.37,4.22,0.37,4.27,3.75
	c0.03,2.03,0.71,3.49,2.31,4.56c2.63,1.74,2.39,3.82,0.77,6.05c-1.73,2.38-4.15,3.56-7.05,3.36c-2.4-0.17-6.5-5.42-6.15-7.9
	c0.29-2.07,0.89-4.12,0.6-6.21C626.55,413.63,626.01,411.67,625.58,409.64z"/>
<path class="st2" d="M613.71,316.66c0.34,0.28,1.04,0.58,1.24,1.08c2.19,5.55,7.33,6,12.1,7.12c0.55,0.13,1.37-0.37,1.6,0.49
	c0.27,0.99-0.67,1.3-1.29,1.5c-5.07,1.69-5.93,6.38-7.51,10.51c-0.59,1.53-0.94,3.21-3.07,2.74c-1.92-0.42-2.87-1.56-2.73-3.78
	c0.28-4.51,0.23-8.99-2.53-13.02C610.42,321.7,612.14,316.81,613.71,316.66z"/>
<path class="st2" d="M207.4,423.08c0.04-0.28-0.08-0.97,0.21-1.28c1.79-1.95,2.3-4.39,2.94-6.82c0.51-1.95,1.45-3.49,3.93-2.97
	c0.37,0.08,0.8-0.16,1.2-0.26c1.44-0.37,2.6-2.54,4.08-1.42c1.28,0.97-0.27,2.66-0.36,4.06c-0.2,2.98,0.9,5.78,0.82,8.72
	c-0.04,1.37-0.21,2.41-1.64,2.91c-0.92,0.33-1.8,0.9-2.07,1.84c-0.94,3.24-2.56,2.21-4.69,1.13
	C209.35,427.74,207.52,426.29,207.4,423.08z"/>
<path class="st2" d="M218.26,325.69c2.58-2.03,5.81-1.33,8.33-2.74c2.58-1.44,2.86-4.87,5.51-6.33c1.91,2.38,3,4.99,1.44,8.03
	c-1.93,3.8-2.2,7.83-1.98,11.98c0.07,1.3,0.48,2.68-1.69,3.03c-2.23,0.36-1.75-1.43-1.96-2.27c-0.65-2.58-3.27-4.27-2.95-7.37
	c0.09-0.85-1.83-1.88-3.27-2.04C220.2,327.82,219.18,327.03,218.26,325.69z"/>
<path class="st2" d="M533.91,244.71c-2.24,0.33-4.81,0.57-6.97,0.38c-3.23-0.29-6.36-2.24-9.41-3.72c-1.06-0.51-0.1-3.44,1.27-3.65
	c1.33-0.2,3.19-0.52,4.01,0.18c3.43,2.91,6.94,2.5,10.57,0.87c1.89-0.85,3.47-0.4,5.03,0.63c0.61,0.41,1.11,1.03,1.77,1.33
	c1.06,0.49,2.91,0.33,2.53,2.06c-0.36,1.61-2.09,1.85-3.58,1.91C537.42,244.76,535.73,244.71,533.91,244.71z"/>
<path class="st2" d="M163.96,416.56c-2.27-0.24-5.07-3.29-4.88-5.31c0.16-1.71,1.34-1.22,2.29-0.72c2.71,1.42,3.97,0.85,4.71-2.07
	c0.46-1.81,2.3-1.95,3.63-2.61c0.77-0.38,1.63,0.22,2.04,1.04c0.69,1.39-0.12,2.39-1.02,3.3c-1.1,1.12-2.05,2.29-2.72,3.74
	C167.21,415.7,165.65,416.49,163.96,416.56z"/>
<path class="st2" d="M684.57,415.88c-1.27,0.16-2.45-0.04-3-0.96c-1.39-2.35-3.11-4.43-4.82-6.54c-0.94-1.17-0.04-1.8,0.93-2.44
	c0.91-0.59,1.83-1.53,2.5,0c0.66,1.51,2.23,2.28,2.4,4.4c0.16,1.96,2.61,1.26,4.04,0.66c0.71-0.3,1.13-1.32,2.07-0.48
	c0.96,0.86-0.07,1.55-0.29,2.24C687.8,414.67,686.83,416.26,684.57,415.88z"/>
<path class="st2" d="M592.7,88.7c-8.85,0.99-17.72,0.81-26.58,1.31c-0.01-0.48-0.02-0.96-0.04-1.44c8.9-0.36,17.8-0.72,26.69-1.08
	C592.75,87.89,592.73,88.29,592.7,88.7z"/>
<path class="st2" d="M628.23,344.04c0.49,0,1.35-0.12,2.17,0.03c1.04,0.19,1.66,1.09,1.78,2.02c0.12,0.98-0.88,1.28-1.64,1.64
	c-2.66,1.25-5.34,0.21-7.99,0c-1.77-0.14-0.93-1.33-0.22-1.92C623.91,344.51,625.73,343.69,628.23,344.04z"/>
<path class="st2" d="M220.3,348.44c-1.73,0.19-3.59,0.07-5.08-1.34c-1.12-1.05-1.42-2.01,0.36-2.79c2.14-0.93,6.73,0.11,8.08,1.91
	c0.42,0.56,0.51,1.17,0.2,1.77c-0.31,0.59-0.72,0.87-1.51,0.49C221.84,348.24,221.12,348.44,220.3,348.44z"/>
<path class="st2" d="M563.53,83.79c9.53-0.56,19.22-0.9,28.94,0C582.75,83.79,573.03,83.79,563.53,83.79z"/>
<path class="st2" d="M180.38,363.11c-1.67,0.09-2.94-0.92-2.76-2.27c0.36-2.74,2.83-2.23,4.72-2.24c0.93,0,2.61-0.57,2.36,1.3
	C184.38,362.31,182.42,362.86,180.38,363.11z"/>
<path class="st2" d="M667.64,359.23c1.67,0.14,3.75-0.69,3.8,2.05c0.02,1.54-1.03,1.89-2.31,1.89c-2.13,0-3.91-1.02-4.04-3.07
	C664.98,358.32,666.92,359.8,667.64,359.23z"/>
<path class="st2" d="M617.23,289.87c-0.62,0.69-1.46,1.49-2.04,1.18c-1.55-0.83-3.16-1.73-4.1-3.31c-0.05-0.09,0.82-1.95,1.92-1.4
	C614.64,287.15,616.2,288.2,617.23,289.87z"/>
<path class="st2" d="M228.11,290.59c-1-0.09-2.45,0.18-2.17-1.15c0.36-1.72,1.88-2.58,3.67-2.73c1.23-0.1,2.32,0.5,2.07,1.69
	C231.3,290.18,229.52,290.32,228.11,290.59z"/>
<path class="st2" d="M613.13,342.72c1.3,1.11,3.77,0.8,4.03,3.09c0.09,0.84-0.66,1.65-1.71,1.22c-1.64-0.68-3.37-1.42-3.76-3.41
	C611.62,343.29,612.35,342.56,613.13,342.72z"/>
<path class="st2" d="M233.85,343.57c-0.59,1.41-1.74,2.29-2.93,3.13c-0.79,0.56-1.47,0.73-2.04-0.35c-0.57-1.07-0.21-2.16,0.7-2.27
	C230.97,343.92,232.27,342.78,233.85,343.57z"/>
<path class="st0" d="M391.88,131.39c-1.2-4.18-0.67-8.53-0.94-12.76c-0.33-5.21-0.92-10.45-0.9-15.72
	c0.03-5.44-0.68-10.88-1.07-16.32c-0.04-0.93-0.35-2.01,1.21-1.96c0.74,0.02,1.48-0.04,2.22-0.04c21.61-0.05,43.22-0.06,64.83-0.2
	c2.39-0.02,3.36,0.59,2.88,2.99c-0.83,0.25-0.67,0.95-0.7,1.55c-0.43,8.58-0.82,17.15-1.31,25.72c-0.31,5.41-0.76,10.82-1.15,16.23
	c-3.71,1.44-4.07,1.15-4.11-2.52c-0.07-7.29,0.8-14.54,1.11-21.81c0.19-4.45-0.49-9.04,0.88-13.48c0.74-2.39-0.72-3-3-2.99
	c-18.12,0.06-36.24,0.08-54.37-0.05c-2.62-0.02-3.1,0.84-3.05,3.24c0.24,11.54,1.61,23.04,1.39,34.59
	C395.75,131.55,395.79,131.55,391.88,131.39z"/>
<path class="st2" d="M270.33,84.13c-3.79,0.59-7.5-0.73-11.27-0.5C262.85,82.96,266.64,82.31,270.33,84.13z"/>
<path class="st0" d="M307.06,132.07c-3.53,4.36-12.61,7.31-17.46,5.65c-1.99-0.68-1.28-2.36-1.31-3.75c0,0-0.08,0.04-0.08,0.04
	c3.67,0.86,7.31,1.03,10.84-0.6C301.82,133.5,304.29,131.89,307.06,132.07z"/>
<path class="st2" d="M254.06,88.75c-0.2-1.35,0.72-1.16,1.57-1.22c7.91-0.54,15.76,1.14,23.66,0.63c0.88-0.06,1.42,0.23,1.38,1.2
	C271.81,89.15,262.93,88.95,254.06,88.75z"/>
<path class="st2" d="M243.52,134.58c-4.66-0.39-9.52,0.71-13.87-1.89C234.2,133.83,239.02,133.04,243.52,134.58z"/>
<path class="st2" d="M299.07,133.4c-3.53,1.63-7.17,1.46-10.84,0.6C291.79,132.92,295.45,133.64,299.07,133.4z"/>
<path class="st2" d="M243.92,136.94c-0.06-0.62-0.12-1.25-0.17-1.84C243.8,135.72,243.86,136.33,243.92,136.94z"/>
<path class="st2" d="M228.37,132.03c-0.22-0.19-0.44-0.37-0.66-0.56C227.93,131.65,228.15,131.84,228.37,132.03z"/>
<path class="st2" d="M229.71,132.75c-0.34-0.23-0.68-0.47-1.02-0.7C229.04,132.28,229.37,132.51,229.71,132.75z"/>
<path class="st2" d="M208.53,166.93c-9.65,0.03-19.3,0.06-28.95,0.09c4.05-0.92,8.16-0.41,12.24-0.41
	C197.39,166.61,202.97,166.29,208.53,166.93z"/>
<path class="st1" d="M391.88,131.39c3.91,0.15,3.87,0.15,3.94-3.53c0.22-11.56-1.16-23.05-1.39-34.59c-0.05-2.4,0.43-3.26,3.05-3.24
	c18.12,0.13,36.24,0.11,54.37,0.05c2.27-0.01,3.73,0.6,3,2.99c-1.37,4.44-0.69,9.03-0.88,13.48c-0.31,7.27-1.17,14.52-1.11,21.81
	c0.03,3.67,0.39,3.96,4.11,2.52c2.45,1.38,5.09,0.34,7.63,0.59c1.75,0.17,3.53-0.3,5.26,0.31c2.22,1.83,4.82,0.68,7.23,0.88
	c3.44,0.28,3.9,0.87,2.66,4.09c-2.13,5.52-7.08,8.79-10.6,13.2c-4.05,5.06-9.51,8.67-14.74,12.46c-0.71,0.52-1.87,1.09-1.48,2.18
	c0.34,0.95,1.49,0.47,2.29,0.54c9.94,0.83,19.91,0.58,29.87,0.66c3.65,0.03,7.31,0,10.97,0c-1.49,0.51-2.97,0.5-4.45,0.51
	c-67.52,0.56-135.04-0.48-202.55,0.82c-0.04-7.83-0.04-15.66-0.17-23.49c-0.03-2.03,0.51-2.84,2.67-2.69
	c7.82,0.55,14.26-2.36,19.4-8.19c1.34-1.51,3.05-1.23,4.71-1.23c23.82-0.01,47.64-0.01,71.46-0.01
	C388.71,131.48,390.3,131.42,391.88,131.39z"/>
<path class="st0" d="M289.04,167.1c67.51-1.3,135.04-0.26,202.55-0.82c1.48-0.01,2.96,0,4.45-0.51c-3.66,0-7.31,0.02-10.97,0
	c-9.96-0.08-19.93,0.17-29.87-0.66c-0.8-0.07-1.95,0.42-2.29-0.54c-0.39-1.08,0.76-1.66,1.48-2.18c5.22-3.79,10.69-7.4,14.74-12.46
	c3.52-4.41,8.47-7.67,10.6-13.2c1.24-3.21,0.78-3.81-2.66-4.09c-2.41-0.19-5.02,0.96-7.23-0.88c21.09-0.1,42.18-0.17,63.28-0.33
	c2.58-0.02,4.41,0.48,6.16,2.74c3.72,4.81,9.15,6.66,15.06,6.7c2.67,0.02,3.31,0.74,3.23,3.34c-0.2,7.2-0.08,14.41-0.08,21.62
	c0,4.82,0,4.83-4.98,4.81c-13.57-0.05-27.13-0.14-40.7-0.16c-73.35-0.11-146.7-0.22-220.04-0.25
	C289.2,170.23,288.23,169.65,289.04,167.1z"/>
<path class="st0" d="M287.57,291.75c-0.69-1.11-1.91-0.63-2.87-0.92c-1.6-0.47-2.5-1.43-2.78-3.05c-0.3-1.71,0.34-2.88,1.96-3.48
	c2.05-0.77,3.01-2.44,3.7-4.35c1.08-0.36,1.99,1.28,2.95,0.44c2.32-2.01,5.17-1.01,7.81-1.46c-0.15-1.78-1.4-2.62-2.67-2.85
	c-2.56-0.47-5.19-0.56-7.79-0.83c-1.9-0.2-2.7,0.75-2.75,2.53c-1.58,0.7-3.17,1.4-5.08,2.24c0.81-2.55,2.85-4.29,2.79-6.96
	c-0.02-1.06,2.16-0.48,2.7-1.84c-0.63-0.85-1.54-0.54-2.26-0.45c-1.83,0.25-2.5-0.74-2.56-2.28c-0.06-1.44-0.25-2.96,2.13-2.91
	c1.53,0.03,3.03-0.84,4.64-0.65c6.36,0.67,12.73,0.17,19.1,0.18c3.2,0,6.99,0.19,9.01,2.45c3.13,3.49,5.17,0.83,7.6-0.24
	c2.46-1.08,4.84-1.33,7.01,0.47c0.6,0.5,1.15,0.49,1.7,0.43c4.69-0.49,8.97,1.55,13.44,2.32c1.28,0.22,2.18-0.47,3.44-0.13
	c4.86,1.31,9.03,4.15,13.75,5.71c0.88,0.29,1.78,1.1,2.56,0.98c4.04-0.61,5.8,2.23,7.81,4.8c1.98,2.53,5.43,3.38,7.13,6.39
	c0.61,1.08,2.16,1.84,1.51,3.26c-0.62,1.36-2.04,2.03-3.61,2.11c-0.92,0.05-1.83-0.22-1.89,1.34c-0.23,6.26-2.75,7.3-7.97,3.72
	c-3-2.06-6.06-3.28-9.51-3.71c-2.61-0.32-2.98-2.01-2.68-3.97c0.16-1.03,0.4-1.83-0.59-2.47c-0.94-0.61-1.91-0.85-2.95-0.16
	c-2.77,1.82-5.75,1.81-8.71,0.68c-2.51-0.96-5.05-1.29-7.7-1.11c-2.25,0.15-4.4,0.06-6.18-1.72c-0.63-0.63-1.63-0.88-2.65-0.83
	c-1.37,0.07-2.9,0.15-3.68,1.25c-0.87,1.22,0.35,2.32,0.96,3.41c0.72,1.27,2.22,2.15,1.92,3.94c-0.77,0.43-1.69,0.46-2.43,0.19
	c-5.12-1.88-10.49-1.51-15.77-1.75c-2.18-0.1-4.11-0.3-5.88-1.72c-2.24-1.79-4.29,0.61-6.53,0.66
	C293.03,291.47,290.3,291.79,287.57,291.75z M296.74,271.04c-0.42-0.97-1.31-0.9-2.13-0.93c-0.54-0.02-1.19,0.14-1.13,0.76
	c0.11,1.05,1,1.15,1.87,1.13C296.05,271.99,296.52,271.7,296.74,271.04z"/>
<path class="st0" d="M287.51,336.31c-1.21-0.24-2.5-0.29-3.6-0.78c-1.71-0.76-1.69-3.58-0.17-5.16c2.65-2.74,5.77-4.27,9.65-3.99
	c0.82,0.06,1.67,0.35,2.64-0.52c-1.31-1.48-2.84-0.76-4.21-0.51c-2,0.36-4.02,1.02-3.13-2.41c0.41-1.58-0.66-2.18-2.02-1.9
	c-3.66,0.76-6.96-0.97-10.44-1.42c-1.88-0.24-1.3-1.51-0.59-2.83c2.08-3.85,5.29-5.66,9.55-5.87c3.26,1.13,6.63,1.4,10.04,1.23
	c3.47-0.17,6.8,0.38,10.18,1.12c1.66,0.36,2.75,1.29,3.72,2.23c3.86,3.79,9.08,3.52,13.75,4.84c1.14,0.32,2.34,0.51,3.06,1.37
	c2.77,3.32,6.73,3.9,10.49,5.23c2.41,0.85,4.93,2.46,6.02,5.29c0.23,0.6,0.14,0.99-0.23,1.38c-0.66,0.69-1.69,1.48-0.99,2.38
	c0.66,0.83,1.99,0.41,3.03,0.36c3.34-0.17,6.68-0.44,10.02-0.6c0.89-0.04,1.98-0.29,2.53,1.15c-2.21,0-4.34,0-6.54,0
	c0.3,1.07,3.41,1.22,0.67,2.84c-0.34,0.2,0.07,0.77,1.32,1.07c0.67,0.16,1.57-0.21,1.45,1.05c-0.09,0.98-1,0.97-1.56,1.33
	c-0.56,0.36-1.16,0.01-1.74-0.33c-3.79-2.24-7.92-1.84-11.82-0.8c-3.28,0.87-5.61-0.3-7.99-2.02c-0.79-0.57-1.54-1.25-2.55-1.06
	c-7.47,1.42-14.5-2.24-21.81-1.87c-4.09,0.2-8.11-0.01-12.16-0.03C291.8,337.03,289.76,335.79,287.51,336.31z"/>
<path class="st0" d="M479.19,293.79c0.02-1.79,2.76-3.75,4.35-2.94c2.31,1.18,4.07,0.59,5.87-0.86c1.15-0.93,2.86-1.37,3.61-0.28
	c0.83,1.21-0.34,2.41-1.61,3.26c-2.95,1.96-5.71,4.2-9.67,3.26C480.22,295.87,478.77,295.73,479.19,293.79z"/>
<path class="st2" d="M285.13,277.78c0.05-1.78,0.85-2.73,2.75-2.53c2.6,0.27,5.23,0.36,7.79,0.83c1.28,0.24,2.52,1.07,2.67,2.85
	c-2.64,0.45-5.49-0.54-7.81,1.46c-0.97,0.84-1.88-0.81-2.95-0.44C287.27,278.65,286.01,278.43,285.13,277.78z"/>
<path class="st2" d="M296.74,271.04c-0.21,0.66-0.69,0.95-1.38,0.96c-0.87,0.02-1.76-0.08-1.87-1.13c-0.07-0.62,0.59-0.78,1.13-0.76
	C295.43,270.14,296.31,270.07,296.74,271.04z"/>
</svg>
