<?xml version="1.0" encoding="UTF-8"?><svg id="d" xmlns="http://www.w3.org/2000/svg" viewBox="0 0 107 220"><path d="M80.61,124.14c-2.92,.16-12.81-.16-14.76-.49,0,0,2.11,14.43-4.86,18.16s-11.03,2.43-15.57-2.92c-4.54-5.35-5.84-18-5.03-25.62,0,0,55.62-.16,61.46-3.24,0,0,3.89-24.81-5.19-38.76-9.08-13.95-21.08-24-53.03-21.41C11.69,52.46,4.88,75.32,3.26,88.78c-1.62,13.46-2.43,51.08,11.03,68.92,13.46,17.84,24.32,14.76,37.3,15.57s40.86,1.95,46.22-16.54c5.35-18.49,3.89-29.51,3.89-31.62,0,0-18.16-1.14-21.08-.97Zm-38.97-39.19c.97-4.54,3.89-8,9.03-9.68,5.14-1.68,9.14-.81,14.38,2.16,5.24,2.97,6.15,15.36,5.14,15.14-2.16-.49-26.32-.22-28.16-.32-1.84-.11-1.35-2.76-.38-7.3Z"/></svg>