<?xml version="1.0" encoding="UTF-8"?><svg id="d" xmlns="http://www.w3.org/2000/svg" viewBox="0 0 154 220"><path d="M2.82,54.14s-.16,102.16-.16,118.38c0,0,15.24,.16,19.14,.65s14.11-.32,16.54-1.95c0,0,1.3-19.78,.81-32.27s-4.86-45.24,9.24-44.27,11.51,8.27,12.49,33.24-.16,42.16,.65,44.43c0,0,16.86,.32,19.95,.32s14.11-1.3,15.57-1.3c0,0,.32-41.03,.49-49.14s-2.27-28.54,7.14-27.73,10.22,10.86,10.38,28.7,.16,44.43,.81,49.3c0,0,13.46,.65,19.62,.32s14.76-1.95,16.05-1.78c0,0-.81-42.97,.16-54.32s2.11-43.3-6.16-53.68-38.27-9.89-52.7,1.78c0,0-16.38-20.27-52.86-.97,0,0,.49-6.65-.65-8.76s-11.84-.97-15.73-.32-17.35,.81-20.76-.65Z"/></svg>