<?xml version="1.0" encoding="UTF-8"?><svg id="d" xmlns="http://www.w3.org/2000/svg" viewBox="0 0 116 220"><path d="M45.36,73.59s2.05-19.33,5.19-23.44,12.2-8.94,16.07,2.9-.36,21.99-11.11,27.79-16.31,10.87-27.79,17.88-15.83,12.68-16.79,14.01-5.07,7.73-6.28,16.91-2.05,40.23-2.42,41.8c0,0,3.26,.85,6.4,.97s40.59-1.09,45.54-.97,51.1-.6,52.91-.6,1.81-1.21,1.69-1.99-.72-15.7-.3-18.36-.6-11.11-2.23-14.56c0,0-54.24,1.39-60.04,.48,0,0,7.49-16.03,15.54-20.78s32.86-16.43,39.7-24,10.63-12.64,10.47-27.79-.81-36.56-19.81-50.74-57.91-6.93-68.7,.4S-2.12,40.25,4.49,73.91c0,0,12.32,4.59,40.87-.32Z"/></svg>