<?xml version="1.0" encoding="UTF-8"?><svg id="d" xmlns="http://www.w3.org/2000/svg" viewBox="0 0 113 220"><path d="M40.17,58.25s5.07-10.83,16.35-12.93,10.79,13.05,10.31,15.22-.72,7.33-10.63,8.05-18.52,1.37-21.74,2.98c0,0,.81,12.89-.24,18.44s1.93,14.58,2.74,15.54c0,0,11.44-2.82,17.07-1.05s11.68,2.74,13.05,12.72-5.07,13.45-8.7,14.34-13.13-2.82-17.8-14.34c0,0-12.16-1.13-18.6,.32s-17.72,.89-18.28,1.05c0,0-1.05,27.06,4.51,35.28s5.72,9.99,22.63,15.3,43.57,3.3,53.88-2.17,20.86-15.54,22.47-32.62,1.69-69.34,1.61-76.35,.64-22.47-3.7-31.65S80.76,5.86,58.29,5.54,23.66,13.19,20.43,14.96s-12,7.89-15.79,19.01-1.37,22.39-1.45,24.72c0,0,14.66,.64,18.85,.64s17.32-.56,18.12-1.09Z"/></svg>