<?xml version="1.0" encoding="UTF-8"?><svg id="d" xmlns="http://www.w3.org/2000/svg" viewBox="0 0 119 220"><path d="M99.84,24.87C84.7,6.67,63.76,2.32,45.08,6.99c0,0-33.99,9.83-39.14,42.36-2.58,5.32-2.42,16.11-2.74,37.85-.32,21.75-.48,50.42,12.24,64.91,12.77,14.55,29.96,24.64,57.66,16.43s41.23-54.6,42.36-77.64c1.13-23.03-.48-47.84-15.62-66.04Zm-29.8,72.97c-.81,28.19-5.48,32.86-12.24,33.18-6.77,.32-6.28-2.42-9.99-11.76-3.7-9.34-3.7-33.18-3.7-33.18,2.26-30.44,2.26-41.72,13.69-41.23s13.05,24.81,12.24,52.99Z"/></svg>