<?xml version="1.0" encoding="UTF-8"?><svg id="d" xmlns="http://www.w3.org/2000/svg" viewBox="0 0 166 220"><path d="M1.53,53.54s12.76,48.32,16.43,70.81,8.32,41.95,8.65,48.22c0,0,20.43,.54,27.03,.43s20.43-.22,22.38-.86,6.38-35.14,6.38-35.14c0,0,4.97,34.81,5.73,35.68,0,0,18.59,.54,24.32,.43s20.86-.32,22.16-.97,12.97-53.95,15.46-65.19,12.54-50.92,14.59-51.89c0,0-12.11-.65-17.95-.54s-17.41,.76-18.81,.65c0,0-6.92,28.32-8.32,34.49s-7.57,34.59-7.57,34.59c0,0-6.38-32-7.14-41.62s-4.22-26.92-4.65-27.57-11.78-1.19-15.89-.97-14.59,.43-16.22,0c0,0-4.65,30.38-6.16,35.68s-8.65,35.03-8.65,35.03c0,0-7.03-36.32-7.78-42.92s-3.46-25.51-4.11-26.81c0,0-9.08-.54-11.57-.76,0,0-23.24,1.19-28.32-.76Z"/></svg>