<?xml version="1.0" encoding="UTF-8"?><svg id="d" xmlns="http://www.w3.org/2000/svg" viewBox="0 0 95 220"><path d="M18.23,62.08l-16.7-.32s.16,25.46-.32,30.16c0,0,13.14,.49,16.22,.16,0,0,.49,41.03,2.43,53.51s2.11,17.68,12.97,24.32,44.27,11.68,58.22,8.59c0,0,3.24-10.22,2.27-20.27s-1.78-13.3-1.78-13.3c0,0-24.76,2.81-35.84-8.05,0,0,.76-42.97,.32-45.24,0,0,33.78-.11,35.89,.05,0,0-.43-10.76,.32-15.89s-.65-14.86-.65-14.86c0,0-7.89-.11-13.57,.22s-21.78,1.19-22.49,1.14c0,0-.32-42.92-.27-44.38,0,0-8.59,1.78-16.7,.32s-20.05-.32-20.05-.32c0,0,.05,42-.27,44.16Z"/></svg>