<?xml version="1.0" encoding="UTF-8"?><svg id="d" xmlns="http://www.w3.org/2000/svg" viewBox="0 0 107 220"><path d="M1.53,56.46s17.3,42.92,19.89,58.49c0,0-16,50.59-17.84,56.43,0,0,7.89,2.7,20.76,2.38s19.03,0,19.03,0c0,0,8.32-28.11,9.41-30.27,0,0,5.3,25.3,7.89,28.54,0,0,35.15,.91,40.22,2.04,.18,.04,.33,.08,.43,.12,2.92,1.19-16.11-47.03-16.65-58.49s20.11-53.73,21.08-60.65c0,0-19.78,.22-25.73,.32s-18.92,.65-20,.76c0,0-7.14,28.86-7.68,30.16,0,0-7.24-26.49-7.57-28.76s-22.49-2.05-25.62-1.95-17.62,.86-17.62,.86Z"/></svg>