<?xml version="1.0" encoding="UTF-8"?><svg id="d" xmlns="http://www.w3.org/2000/svg" viewBox="0 0 107 220"><path d="M103.15,54.51s-33.73-1.14-37.3,.65c0,0-1.46,1.46-1.62,4.86-11.84-7.3-36.49-7.14-50.11,10.22C.5,87.59-.47,136.41,6.5,151.32c6.97,14.92,12.16,26.27,57.73,19.3,0,0,4.22,15.73-5.51,20.76-9.73,5.03-13.3-1.62-15.24-11.35,0,0-24.65-5.03-36.16,.49,0,0-2.11,19.3,11.51,28.22s24.81,11.84,46.38,10.22,34.38-8.11,37.14-24.97,.81-138.81,.81-139.46Zm-37.46,69.41c-.81,11.84,2.76,18.65-10.38,20.27-13.14,1.62-20.24-12.48-20.59-27.89-.32-13.95,5.84-29.19,18.97-30.49,13.14-1.3,12.81,26.27,12,38.11Z"/></svg>