<?xml version="1.0" encoding="UTF-8"?><svg id="d" xmlns="http://www.w3.org/2000/svg" viewBox="0 0 107 220"><path d="M104.18,105.54c-3.73-35.35-16.86-48.49-38.59-51.08-21.73-2.59-20.11,2.43-23.19,4.7l-.49-5.19s-12.81-.49-17.68-.49-17.35,.16-20.11,0c0,0,0,84.97,.97,103.46,.97,18.49,.16,55.3,.32,60.97,0,0,12.65,1.78,20.27,1.46s13.46-1.62,15.57-2.27c0,0,2.92-35.51,.65-47.51,0,0,29.51,6.16,43.3-1.46s22.7-27.24,18.97-62.59Zm-56.11,36.81c-8.59-.81-6.64-16.71-6.97-28.7-.81-29.03,8.92-29.68,14.11-29.03,5.19,.65,15.89,3.57,16.38,31.46,.49,27.89-14.92,27.08-23.51,26.27Z"/></svg>