<?xml version="1.0" encoding="UTF-8"?><svg id="d" xmlns="http://www.w3.org/2000/svg" viewBox="0 0 130 220"><path d="M5.85,91.65s-2.14,16.08-.27,21.03c0,0,12,2.84,19.86,2.35s10.14-.73,11.51-.32c0,0-2.27,5.76-2.68,7.38,0,0-9.24,.97-14.03,1.14s-12.89-.24-13.7-.41c0,0-1.7,6.08-1.54,12.73s.24,11.51,.24,11.51c0,0,17.95,.27,18.86,.59,0,0-8.27,19.46-8,23.24,0,0,9.41,.81,17.62,0s20,.49,21.24,1.08c0,0,4.43-8.49,5.84-14s4.81-11.35,4.81-11.35c0,0,43.35-1.3,47.84-.81,0,0-1.14-6.92-.92-11.57s.27-11.89,.27-11.89c0,0-23.19-.65-36.92,.05,0,0,3.14-6.43,3.73-8.43,0,0,10.76,.05,15.51-.38s12.7-.05,14.11,.22l4.27-.54s-.7-6.16-.7-12.05-.05-11.78-.05-11.78c0,0-17.51,1.41-22.97-.11,0,0,9.08-17.08,12.49-24.16s11.78-26.86,12.76-29.08,9.14-25.19,9.41-25.89c0,0-7.35-1.08-16.05-.86s-21.41,1.35-21.41,1.35l-2.86,1.57s-11.68,29.14-14.49,32.92c0,0-5.95-17.08-6.49-19.51s-5.19-15.78-5.3-16.32c0,0-4.11-.22-7.08-.65s-14.38,.7-18.32,.65-9.41,.05-14.43-.65c0,0,4.32,20.76,11.14,36.7s11.89,30.54,12.65,32.22,3.78,11.78,4.16,12.27c0,0-7.41,1.14-15.84,.59s-24.27,1.19-24.27,1.19Z"/></svg>