<?xml version="1.0" encoding="UTF-8"?><svg id="d" xmlns="http://www.w3.org/2000/svg" viewBox="0 0 82 220"><path d="M4.74,77.81s-2.92,18-.57,24c0,0,.05,1.73,5.68,1.62s10.54,.92,14.32,6,7.08,16.05,6.19,27.57-2.35,18.57,9.89,27.57,32.43,6.97,35.11,6.49c0,0,.61-9.97,.53-13.01s-.16-12.61-.16-12.61c0,0-7.12,.22-10.74-6.81s-2.59-16.54-2.32-19.73,.38-20.38-11.89-27.57c0,0,10.16-2.43,11.46-15.68s-.49-23.24,.76-30.59,9.41-8.16,11.95-9.78c0,0,1.51-15.95-.38-22.65,0,0-14.32-1.41-23.03-.05s-13.3,2.65-18.11,10.16-3.41,15.51-2.65,24.22-2.22,19.3-5.62,23.73-8.81,8.54-20.41,7.14Z"/></svg>