<?xml version="1.0" encoding="UTF-8"?><svg id="d" xmlns="http://www.w3.org/2000/svg" viewBox="0 0 82 220"><path d="M7.04,12.51s-2.22,14.59-.43,22.97c0,0,10.16,3.14,11.35,7.03s1.84,13.08,.86,21.84,1.08,23.08,12.49,27.03c0,0-9.62,6.49-11.24,16.22s-1.08,12.7-.86,14.81,.43,11.46-2.54,16.43-8.43,6.76-10.65,6.65c0,0-.27,24.54,.16,25.62,0,0,4.81,0,7.35,.38s15.3,.86,25.89-5.68,13.35-14.38,12.76-20.59-2.54-18.76,2.27-30.38,12.76-11.41,15.57-11.57,5.78,.81,7.35-1.19,.81-11.3,.7-14.16-1.24-10.27-1.24-10.27c0,0-10.32,2.38-18.11-4.49s-7.84-21.95-7.84-23.89,.43-9.95,1.03-13.73-1.89-11.51-6.38-16.43-9.35-6.16-16.32-6.7-16.81-.22-22.16,.11Z"/></svg>