<?xml version="1.0" encoding="UTF-8"?><svg id="d" xmlns="http://www.w3.org/2000/svg" viewBox="0 0 98 220"><path d="M3.91,64.95s10.27,1.03,18.49,.65,14.49-.05,14.49-.05c0,0,6.92-25.95,8.86-33.3s6.22-24.81,6.22-24.81c0,0,.86-2.92-12.65-2.05s-16.38,1.73-19.08,1.46c0,0-5.68,17.14-8.49,27.41s-7.84,30.7-7.84,30.7Z"/><path d="M57.2,6.73s-7.08,22.7-9.14,30.7-7.14,27.51-7.14,27.51c0,0,3.78,.65,7.24,.76s22.43-.38,25.57-.11c0,0,7.19-26.97,9.08-33.89s6.11-24.27,6.11-24.27c0,0,.49-2.22-7.62-2.27s-21.51,2.05-24.11,1.57Z"/></svg>