<?xml version="1.0" encoding="UTF-8"?><svg id="d" xmlns="http://www.w3.org/2000/svg" viewBox="0 0 96 220"><path d="M6.39,28.24s2.65,5.24,6.76,9.84,8.7,10.27,9.35,10.59c0,0-16.43,17.3-16.59,18.65,0,0,18.92,16.43,20.81,19.19,0,0,3.73,.65,6.32-1.08s12.7-11.73,12.92-11.95c0,0,12.49,12,15.51,16.11,0,0,18.16-13.51,20.59-15.46s6.7-6.81,7.41-7.41c0,0-7.46-7.35-9.35-10.16s-6.76-7.89-8-8.32c0,0,3.95-6.59,8.43-10.16s6.65-7.62,6.97-8.92l-20.27-20.43,.27,1.03s-10.7,5.03-19.68,12.54c0,0-7.51-6.16-9.84-8.49s-7.84-6.27-9.78-6.38c0,0-7.73,6.76-10.54,9.51s-9.68,10.97-11.3,11.3Z"/></svg>