<?xml version="1.0" encoding="UTF-8"?><svg id="d" xmlns="http://www.w3.org/2000/svg" viewBox="0 0 111 220"><path d="M4.12,78.95s.65,12.97,.89,16.54,.57,13.14,.08,16.38c0,0,.49,1.84,11.95,2.97s15.03,1.3,15.03,1.3c0,0-.16,14.27-.32,17.95s1.03,12.32,1.14,13.03c0,0,11.14-2.65,19.57-1.95s21.03,.65,21.89-1.35c0,0,.86-14.22,1.41-17.62s.38-9.24,.27-11.03c0,0,12.38-.65,16.97-.49s9.24-.49,10.54-1.57c0,0,.81-12.43,.7-19.73s.32-14.49,.32-14.49c0,0-10.11-1.03-14.7-1.19s-12.65,.38-14.43,.11c0,0,.76,.11,.86-2.65s-.43-23.84-.11-25.89c0,0-8.92-.7-17.41-.32s-15.78,.92-23.19-4.49c0,0,.05,5.84-.05,6.49s-.38,2.16-.43,3.51-1.35,10.65-1.35,12.43,.54,11.57,.54,11.57c0,0-26.43,1.62-30.16,.49Z"/></svg>