<?xml version="1.0" encoding="UTF-8"?><svg id="d" xmlns="http://www.w3.org/2000/svg" viewBox="0 0 114 220"><path d="M4.55,14.14s5.62,52.54,8.22,68.86,10.05,53.73,11.35,58.38,7.03,28.43,7.46,28.97,11.03,3.14,19.35,2.81,20.11-.86,21.19-.76c0,0,22.27-84.65,23.89-90.38S111.26,14.89,111.01,12.22c0,0-3.16,.16-5.03-.24s-14.11-.89-19.54-.89-13.54-1.14-15.41-1.78c0,0-5.35,24.08-6.32,31.38s-10.46,61.38-11.68,63.41c0,0-4.7-32.76-5.03-39.24s-3.97-52.38-3.89-53.76c0,0-14.92-2.51-23.19-1.46s-14.11,1.81-16.38,4.51Z"/></svg>