<?xml version="1.0" encoding="UTF-8"?><svg id="d" xmlns="http://www.w3.org/2000/svg" viewBox="0 0 113 220"><path d="M3.85,84.14c.59,34.76,3.41,82.43,4.16,87.73,0,0,8.43-.86,13.19,.11s21.08,.97,23.89-2.38,.65-47.24,.76-50.27,.76-10.92,.76-10.92c0,0,8.43-1.84,19.35-.32,0,0,2.92,26.38,2.59,40.97s1.62,23.68,1.62,23.68c0,0,15.68-.54,19.46-.43s15.35-.76,19.89-1.41c0,0-2.81-73.95-3.14-81.41s-3.14-79.68-3.24-82.16c0,0-23.57-1.84-38.7,3.14,0,0,1.84,41.95-.76,59.78,0,0-5.19,.86-8.43,1.08s-9.62-.86-9.62-.86c0,0-4-24.54-3.57-33.41s-1.73-26.81-1.73-26.81c0,0-4.86-2.05-16.32-1.62s-20.86,.43-20.86,.43c0,0,.11,64.86,.7,75.08Z"/></svg>