<?xml version="1.0" encoding="UTF-8"?><svg id="d" xmlns="http://www.w3.org/2000/svg" viewBox="0 0 119 220"><path d="M6.93,91.76c1.04,37.62,3.89,58.05,11.19,66.65s18.16,22.7,54.16,16.38,38.43-23.51,40.22-39.24,.65-40.86-.97-46.38c0,0-27.73-1.78-33.41-1.62s-20.11,2.43-22.05,2.59c0,0,.97,10.54,.49,14.27s.32,11.68,.32,11.68c0,0,5.51,1.95,12.16,1.78l6.65-.16s-.81,17.51-5.51,19.14-14.76,6-19.46-1.14-5.35-30.32-5.35-51.89,4.22-36,6.16-37.95,6.43-2.76,9.57-2.11,3.78-.11,5.84,1.95,6.16,7.35,8.43,17.08c0,0,11.46,1.3,22.05,.97s11.89,0,14.16-.22c0,0,2.49-21.84-4.54-32.54S87.8,7.54,57.09,8.08,14.72,24.19,10.82,38.35s-4.22,41.62-3.89,53.41Z"/></svg>