<?xml version="1.0" encoding="UTF-8"?><svg id="d" xmlns="http://www.w3.org/2000/svg" viewBox="0 0 113 220"><path d="M104.23,48.95c-9.3-21.84-13.08-25.08-19.78-30.92-6.7-5.84-15.68-9.51-18.7-9.84-3.03-.32-13.51,.76-21.84,0-8.32-.76-29.51,.65-38.59,3.3,0,0,.97,45.24,.49,64.54-.49,19.3,.49,81.41,4.05,96.24,0,0,63.65-.57,66.49-.73,0,0,30.38-36.86,31.78-57.41s5.41-43.35-3.89-65.19ZM59.91,119.65c-6.7,3.35-14.49,.11-14.49,.11,0-.65-.11-24.43,.54-32.22,.65-7.78-.43-19.57-.32-27.14,0,0,5.95-1.84,13.62-.11s11.24,14.7,13.19,27.89c1.95,13.19-5.84,28.11-12.54,31.46Z"/></svg>