<?xml version="1.0" encoding="utf-8"?>
<!-- Generator: Adobe Illustrator 27.3.1, SVG Export Plug-In . SVG Version: 6.00 Build 0)  -->
<svg version="1.1" id="レイヤー_1" xmlns="http://www.w3.org/2000/svg" xmlns:xlink="http://www.w3.org/1999/xlink" x="0px"
	 y="0px" width="1280px" height="1024px" viewBox="0 0 1280 1024" style="enable-background:new 0 0 1280 1024;"
	 xml:space="preserve">
<style type="text/css">
	.st0{fill:#0082E8;}
	.st1{fill:#FFFFFF;}
</style>
<circle class="st0" cx="394.7" cy="505" r="7.1"/>
<circle class="st0" cx="426.5" cy="505" r="7.1"/>
<path class="st0" d="M423.3,517.4c-2.6,4.8-7.7,8-13.5,8c-5.8,0-10.9-3.3-13.5-8h-5.7c2.9,7.8,10.5,13.3,19.2,13.3
	c8.8,0,16.3-5.5,19.2-13.3H423.3z"/>
<g>
	<path d="M570.2,524.1c-4.9,4.7-11.9,7.2-19,7.2s-14.1-2.5-19-7.2c-5.1-4.9-7.6-11.6-7.6-18c0-6.4,2.5-13.2,7.6-18.1
		c4.9-4.7,11.9-7.2,19-7.2s14.1,2.5,19,7.2c5.1,4.8,7.6,11.6,7.6,18.1C577.7,512.5,575.3,519.2,570.2,524.1z M541.4,496.8
		c-2.6,2.5-3.8,6.1-3.8,9.5c0,4.3,2,7.2,3.8,9c2.3,2.2,5.6,3.8,9.8,3.8c4.3,0,7.4-1.5,9.7-3.8s3.9-5.6,3.9-9.3
		c0-3.8-1.7-7.1-3.9-9.3c-2.7-2.5-6.4-3.8-9.7-3.8C547.7,493,544,494.2,541.4,496.8z"/>
	<path d="M596.2,546.7h-11.6v-48.9h11.6v3.5c2-2.5,5.1-4.6,9.9-4.6c5,0,8.9,2.1,11.5,4.7c2.7,2.7,4.9,6.9,4.9,12.5
		c0,5.4-2.1,9.8-5.2,12.8c-3.6,3.5-7.8,4.5-11.1,4.5c-2.1,0-6.4-0.4-10-4.2V546.7z M598.1,508.8c-1.4,1.4-2.2,3.5-2.2,5.3
		c0,1.9,1,3.9,2.2,5.1c1.4,1.4,3.3,2.2,5.2,2.2c2,0,3.8-0.8,5.1-2.2c1.2-1.2,2.2-3.2,2.2-5.1c0-1.8-0.8-3.9-2.2-5.3
		c-1.3-1.4-3.1-2.2-5.1-2.2C601.3,506.6,599.4,507.4,598.1,508.8z"/>
	<path d="M662,516.2h-24.1c0,1.7,0.7,4,2,5.4c0.7,0.7,2.2,1.6,4.8,1.6c0.3,0,2.3-0.1,3.8-0.9c0.7-0.4,1.5-1.2,2-2.2h11.1
		c-0.5,1.8-1.5,4.3-3.9,6.7s-6.1,4.5-13.2,4.5c-4.3,0-9.4-0.9-13.4-4.9c-2.1-2.1-4.8-6.1-4.8-12.2c0-5.4,2-9.8,4.8-12.5
		c2.7-2.6,6.9-4.7,13.2-4.7c3.8,0,8.6,0.8,12.4,4.4c4.6,4.3,5.1,10,5.1,13.6V516.2z M651.3,509.5c-0.3-1.2-1-2.6-1.9-3.5
		c-1.5-1.5-3.6-1.7-4.8-1.7c-2,0-3.5,0.5-4.7,1.7c-0.8,0.9-1.5,2-1.7,3.5H651.3z"/>
	<path d="M668.6,497.9h11.6v4c3.2-4.2,7.4-4.8,10.3-4.8c3.3,0,6.9,0.8,9.5,3.5c2.7,2.7,3,5.5,3,9v20.5h-11.6v-16.3
		c0-1.9,0.1-4.7-1.4-6.3c-1.1-1.2-2.5-1.4-3.7-1.4c-1.8,0-3.3,0.7-4.3,1.5c-1.2,1.1-1.9,3.2-1.9,5.1v17.4h-11.6V497.9z"/>
	<path d="M738,502.8h24.9c0,9.5-2,16.3-7.7,21.7c-5.1,4.7-10.8,6.1-17,6.1c-8.7,0-14.6-3.2-18.5-7.2c-3.6-3.6-6.9-9.5-6.9-17.4
		c0-7.7,3-14,7.2-18.1c4-4,10.2-7.1,18.7-7.1c4.5,0,9.3,1,13,3.3c3.8,2.3,6.9,6.1,8.6,9.9l-11.9,4.9c-0.9-2.2-2.2-3.8-3.5-4.8
		c-2.1-1.7-4.3-2.4-6.7-2.4c-3,0-6,1.1-8.2,3.3c-2.8,2.8-4.2,7.3-4.2,11.1c0,4.4,1.6,8,3.8,10.4c2.3,2.5,5.1,3.7,8.8,3.7
		c2.2,0,4.7-0.4,6.9-2.2c1.2-0.9,2.5-2.7,3-5.4H738V502.8z"/>
	<path d="M793.3,497.9h11.6v32.3h-11.6v-3.5c-2.7,3.7-6.9,4.6-10,4.6c-3.5,0-7.7-1-11.6-5.1c-3.1-3.3-4.6-7-4.6-11.9
		c0-6.1,2.4-10.3,5-12.9c2.7-2.7,7-4.6,11.6-4.6c5.2,0,8.3,2.7,9.7,4.2V497.9z M781.2,508.7c-1.6,1.5-2.3,3.6-2.3,5.3
		c0,1.9,0.8,3.9,2.2,5.3c1.2,1.2,3.3,2.2,5.2,2.2c1.9,0,3.8-0.8,5.2-2.2c1-1,2.2-2.6,2.2-5.2c0-1.5-0.4-3.5-2.2-5.3
		c-1.1-1-2.7-2.1-5.2-2.1C784.8,506.6,782.8,507.1,781.2,508.7z"/>
	<path d="M824.4,477.5v52.7h-11.6v-52.7H824.4z"/>
	<path d="M855.9,497.9h11.6v32.3h-11.6v-3.5c-2.7,3.7-6.9,4.6-10,4.6c-3.5,0-7.7-1-11.6-5.1c-3.1-3.3-4.6-7-4.6-11.9
		c0-6.1,2.4-10.3,5-12.9c2.7-2.7,7-4.6,11.6-4.6c5.2,0,8.3,2.7,9.7,4.2V497.9z M843.7,508.7c-1.6,1.5-2.3,3.6-2.3,5.3
		c0,1.9,0.8,3.9,2.2,5.3c1.2,1.2,3.3,2.2,5.2,2.2c1.9,0,3.8-0.8,5.2-2.2c1-1,2.2-2.6,2.2-5.2c0-1.5-0.4-3.5-2.2-5.3
		c-1.1-1-2.7-2.1-5.2-2.1C847.3,506.6,845.4,507.1,843.7,508.7z"/>
	<path d="M886.1,512.6L873,497.9h15l5.6,6.7l5.7-6.7h15l-13.4,14.7l16.2,17.6h-15.3l-8.2-9.6l-8.2,9.6H870L886.1,512.6z"/>
	<path d="M931.3,525.8l-15.6-27.9h13.4l8.6,16.6l8.4-16.6h13.2l-26,48.9h-12.9L931.3,525.8z"/>
</g>
<g>
	<path class="st0" d="M345.7,475.3c-1.8,11.3,0,22.2,4.1,32.9c3.4,8.9,8.8,15.8,16.4,21.1c4.3,3,9.3,4.6,15.2,4.9
		c-0.6-0.8-0.9-1.3-1.3-1.7c-20.2-17.5-22.1-47.1-8.5-68.6c10-15.9,24.8-25.2,42.8-29.5c12.4-3,24.2-3,35.4-0.6
		c-12.4-6.6-26.5-10.4-41.5-10.4c-14.9,0-28.9,3.7-41.2,10.2C356,445.3,348.3,458.9,345.7,475.3z"/>
	<path class="st0" d="M457.7,438.6c-14.2-4.1-28.7-4.3-43.4,0.9c-9.4,3.3-17.3,8.7-24.1,16.2c-6.1,6.7-9.6,14.2-10.9,22.9
		c-0.5,3.1,0.2,6.4,0.3,9.7c0.3,0,0.6,0.1,0.9,0.1c0.3-0.6,0.7-1.1,1-1.7c13.2-27.1,45.6-38.6,72.8-25.6c20.6,9.9,34.3,26,40.2,48.2
		c0.7,2.7,1.3,5.4,1.7,8.1c0.1-1.9,0.2-3.9,0.2-5.8C496.4,481.2,481,454.5,457.7,438.6z"/>
	<path class="st0" d="M326.9,533.7c6.1,10.6,14.1,19.4,24.5,25.8c17.4,10.7,35.9,13.7,55.4,6.1c7.5-2.9,13.2-8,16.6-15.4
		c0.2-0.4,0.3-0.9,0.5-1.8c-1,0.4-1.6,0.6-2.2,0.9c-23,11.7-49.8,3.8-65-12.6c-5.5-6-9.7-12.7-12.2-20.3
		c-10.1-30.7-2.9-57.1,17.7-79.9c-25.2,15.5-42,43.3-42,75.1c0,3.6,0.2,7.2,0.7,10.7C322.8,526,324.8,529.9,326.9,533.7z"/>
	<path class="st0" d="M494.8,524.9c-3.5-24.4-15.2-43.2-38.9-52.9c-7.3-3-15-4.8-22.9-2.4c-3.3,1-6.6,2.4-9.9,3.5
		c0.1,0.3,0.1,0.7,0.2,1c1.2,0.2,2.5,0.4,3.7,0.6c17.1,2.8,29.8,12,38.5,26.8c5.2,8.8,7.7,18.5,7.2,28.8
		c-1.1,24.9-13,43.9-33.2,57.9c-7.8,5.4-16.2,9-25,11.2c40.6-2.8,73.6-33.2,80.5-72.5C495,526.2,494.9,525.6,494.8,524.9z"/>
	<path class="st0" d="M424.3,593.4c19.1-9.2,32.6-23.3,37.3-44.5c2.1-9.6,2-19.1-2-28.3c-1.8-4.2-4.9-7.3-8.9-10.7
		c0.4,2.3,0.6,3.8,0.8,5.3c2.5,20.6-5,37.3-21,49.9c-16.1,12.7-34.9,14.6-54,9.9c-26.6-6.5-44.4-23.7-55-48.7
		c-0.1-0.2-0.2-0.4-0.2-0.6c6.6,41.3,42,73.1,85,74C412.5,598.3,418.5,596.2,424.3,593.4z"/>
</g>
<circle class="st1" cx="338.1" cy="522" r="4.6"/>
<circle class="st1" cx="454.8" cy="544.5" r="4.6"/>
<circle class="st1" cx="481.9" cy="517.4" r="6.7"/>
<circle class="st1" cx="385.1" cy="435.6" r="4.6"/>
</svg>
