<?xml version="1.0" standalone="no"?>
<!DOCTYPE svg PUBLIC "-//W3C//DTD SVG 20010904//EN"
 "http://www.w3.org/TR/2001/REC-SVG-20010904/DTD/svg10.dtd">
<svg version="1.0" xmlns="http://www.w3.org/2000/svg"
 width="700.000000pt" height="700.000000pt" viewBox="0 0 700.000000 700.000000"
 preserveAspectRatio="xMidYMid meet">
<metadata>
Created by potrace 1.14, written by Peter Selinger 2001-2017
</metadata>
<g transform="translate(0.000000,700.000000) scale(0.100000,-0.100000)"
fill="#000000" stroke="none">
<path d="M3278 6995 c-2 -1 -43 -6 -91 -10 -48 -3 -96 -8 -105 -10 -9 -1 -39
-6 -67 -9 -27 -4 -72 -11 -100 -16 -27 -5 -61 -12 -75 -14 -187 -34 -493 -123
-625 -181 -16 -7 -45 -19 -64 -26 -19 -8 -75 -34 -125 -57 -50 -24 -107 -51
-126 -60 -19 -9 -69 -54 -110 -100 -264 -296 -477 -633 -608 -963 -59 -149
-118 -342 -136 -444 -6 -31 -22 -114 -30 -150 -2 -11 -7 -51 -11 -90 -4 -38
-9 -79 -11 -90 -6 -27 -5 -307 0 -375 5 -67 15 -150 21 -170 2 -8 7 -35 10
-60 4 -25 16 -83 27 -130 11 -47 21 -92 23 -100 26 -111 122 -374 178 -485 47
-95 147 -256 177 -285 3 -3 18 -23 35 -45 76 -103 283 -287 422 -374 106 -66
291 -129 428 -146 28 -3 65 -8 83 -10 17 -3 32 -1 32 3 0 5 -56 65 -123 134
-238 241 -380 461 -486 750 -104 284 -147 654 -111 944 7 49 14 105 16 124 3
19 7 42 9 50 2 8 7 31 10 50 27 160 125 428 220 605 387 717 1074 1189 1965
1349 149 27 150 27 330 45 85 9 470 6 545 -3 22 -3 63 -8 90 -11 82 -11 229
-37 240 -42 7 -4 7 -2 0 5 -16 17 -260 126 -407 181 -147 55 -341 112 -487
143 -118 24 -115 24 -174 32 -27 4 -57 9 -67 11 -11 2 -45 7 -77 10 -32 4 -76
9 -98 11 -45 6 -542 14 -547 9z m-623 -310 c103 -50 138 -176 74 -269 -70
-102 -213 -103 -293 -3 -28 35 -31 46 -31 106 0 59 4 73 28 104 53 70 148 96
222 62z"/>
<path d="M4449 6516 c-2 -2 -33 -7 -69 -10 -99 -10 -122 -13 -160 -20 -19 -3
-46 -8 -60 -10 -183 -31 -491 -132 -670 -220 -274 -136 -541 -343 -730 -565
-25 -29 -50 -58 -56 -65 -31 -33 -147 -211 -182 -281 -81 -159 -128 -302 -161
-485 -18 -96 -19 -146 -7 -325 10 -154 26 -154 110 1 112 210 225 365 379 523
300 308 688 521 1107 610 158 33 257 44 430 45 144 2 208 -3 395 -30 22 -3 83
-16 135 -30 52 -14 102 -26 110 -28 240 -61 663 -291 940 -513 80 -64 326
-302 380 -368 209 -255 355 -500 470 -789 76 -193 162 -490 177 -616 3 -25 8
-47 10 -50 7 -7 -3 579 -11 609 -3 13 -8 49 -12 80 -3 31 -8 65 -10 76 -2 11
-9 47 -15 80 -103 580 -393 1185 -785 1642 -113 131 -388 398 -466 451 -13 9
-25 19 -28 22 -10 13 -174 131 -199 144 -14 7 -48 19 -76 25 -27 7 -57 15 -65
17 -101 25 -226 49 -316 59 -27 3 -60 8 -74 11 -29 6 -486 15 -491 10z"/>
<path d="M1570 6418 c-217 -147 -362 -267 -545 -452 -203 -204 -293 -314 -442
-536 -117 -176 -195 -317 -284 -520 -81 -181 -181 -483 -213 -640 -3 -14 -7
-36 -10 -50 -3 -14 -10 -50 -16 -80 -6 -30 -12 -64 -14 -75 -2 -12 -7 -48 -11
-80 -4 -33 -9 -69 -11 -80 -26 -141 -25 -662 2 -810 11 -62 235 -477 356 -659
288 -434 639 -744 1099 -974 325 -162 558 -233 891 -272 72 -8 424 -6 463 3
11 3 43 8 70 11 238 32 555 132 725 231 166 97 318 243 409 395 28 46 77 149
86 177 5 20 4 21 -22 13 -15 -4 -79 -31 -140 -59 -151 -68 -295 -115 -448
-147 -11 -2 -31 -6 -45 -9 -158 -32 -454 -37 -640 -11 -97 13 -138 21 -240 46
-310 76 -584 205 -843 398 -50 38 -103 79 -117 91 -277 246 -503 565 -624 878
-91 235 -175 594 -203 863 -10 96 -10 514 0 605 42 377 163 749 363 1112 39
72 233 370 256 394 7 8 26 32 42 54 39 53 178 218 191 227 6 5 6 8 0 7 -5 0
-44 -23 -85 -51z m-787 -3167 c40 -15 96 -80 104 -120 10 -52 10 -52 -3 -100
-15 -53 -46 -88 -99 -112 -175 -81 -336 137 -207 281 55 62 129 80 205 51z"/>
<path d="M4602 5194 c-79 -17 -154 -40 -302 -94 -63 -23 -133 -48 -155 -55
-28 -8 -41 -19 -43 -33 -3 -21 7 -24 143 -47 75 -13 90 -16 180 -37 196 -45
436 -142 603 -244 418 -254 774 -704 936 -1184 83 -250 106 -407 101 -695 -4
-232 -7 -258 -35 -425 -54 -316 -134 -556 -276 -830 -60 -114 -207 -347 -251
-395 -10 -11 -45 -54 -78 -95 -72 -92 -280 -300 -395 -396 -345 -290 -723
-498 -1125 -618 l-120 -36 75 5 c41 3 86 7 100 9 14 2 46 7 71 10 239 33 524
111 774 211 514 207 975 532 1330 939 33 38 65 74 71 80 5 6 44 56 85 111 40
55 76 102 79 105 3 3 37 55 77 115 214 333 363 674 458 1054 57 228 58 267 20
461 -140 705 -405 1188 -860 1568 -200 168 -512 343 -765 431 -36 13 -74 27
-85 31 -21 9 -174 47 -228 56 -72 13 -323 11 -385 -2z m1938 -1691 c171 -77
209 -295 75 -429 -99 -99 -238 -105 -353 -14 -82 64 -113 175 -82 285 18 64
96 145 160 167 59 20 144 16 200 -9z"/>
<path d="M2874 4029 c-53 -19 -126 -81 -156 -136 -139 -247 144 -520 390 -376
107 63 159 196 124 318 -22 79 -70 136 -146 176 -45 24 -164 34 -212 18z"/>
<path d="M4130 4021 c-72 -26 -151 -107 -170 -177 -16 -57 -16 -136 2 -179 81
-203 330 -252 473 -93 195 217 -29 547 -305 449z"/>
<path d="M5190 3558 c0 -2 7 -40 15 -86 8 -45 18 -115 22 -155 12 -111 9 -483
-6 -562 -6 -38 -14 -83 -17 -100 -38 -241 -164 -544 -319 -765 -104 -148 -265
-324 -416 -457 -198 -172 -492 -342 -739 -426 -113 -39 -265 -78 -360 -93 -19
-3 -46 -7 -60 -10 -116 -19 -440 -25 -593 -11 -413 39 -859 171 -1217 360
-476 251 -876 634 -1180 1132 -73 119 -195 354 -247 475 l-24 55 7 -45 c8 -57
3 -32 64 -290 59 -250 232 -652 393 -912 96 -155 267 -392 317 -438 3 -3 33
-37 68 -77 34 -39 105 -113 158 -165 121 -117 103 -101 209 -189 326 -271 695
-479 1102 -619 149 -52 399 -117 514 -135 19 -3 79 -12 134 -21 55 -8 177 -18
270 -21 162 -5 175 -4 270 22 415 111 803 300 1155 563 140 105 379 341 478
475 158 210 283 447 362 687 26 78 58 190 63 220 3 14 9 43 15 65 6 22 13 60
16 85 3 25 8 56 11 70 22 107 26 413 6 535 -35 214 -101 405 -186 536 -26 40
-90 116 -142 169 -82 83 -143 138 -143 128z m254 -1218 c133 -82 118 -264 -26
-325 -43 -18 -69 -19 -119 -5 -42 12 -95 62 -114 107 -27 63 -5 158 45 201 59
51 153 61 214 22z"/>
<path d="M2814 3259 c-6 -11 45 -114 89 -178 90 -133 265 -260 422 -307 117
-35 217 -44 345 -30 262 29 501 198 624 441 20 39 36 72 36 75 0 3 -50 6 -110
5 l-111 0 -48 -65 c-52 -70 -88 -105 -157 -152 -53 -35 -150 -76 -201 -84 -21
-3 -42 -8 -46 -11 -18 -11 -174 -2 -235 13 -109 27 -185 69 -288 160 -12 11
-40 46 -63 79 l-42 59 -104 2 c-58 1 -107 -2 -111 -7z"/>
</g>
</svg>
