<svg xmlns="http://www.w3.org/2000/svg" viewBox="0 -320 732 1362"><path d="M304,51Q384,51,430.5,91.5Q477,132,477,205Q477,268,436.5,312.0Q396,356,334,392L527,578Q553,547,569.5,506.5Q586,466,597,419H686Q670,483,646.0,538.0Q622,593,584,634L730,776H611L524,692Q477,734,419.0,760.0Q361,786,278,786Q175,786,114.0,735.0Q53,684,53,590Q53,513,94.5,466.5Q136,420,207,380Q175,344,147.5,303.0Q120,262,120,207Q120,133,169.5,92.0Q219,51,304,51ZM301,123Q259,123,232.5,145.0Q206,167,206,206Q206,242,225.0,272.5Q244,303,280,340Q339,306,364.5,275.5Q390,245,390,205Q390,169,366.0,146.0Q342,123,301,123ZM260,435Q206,467,175.5,500.0Q145,533,145,587Q145,642,182.0,675.0Q219,708,281,708Q345,708,391.0,687.0Q437,666,468,637Z"/></svg>
