<?xml version="1.0" encoding="UTF-8"?><svg xmlns="http://www.w3.org/2000/svg" viewBox="0 0 732 1000"><path d="M304,275Q384,275,430.5,315.5Q477,356,477,429Q477,492,436.5,536.0Q396,580,334,616L527,802Q553,771,569.5,730.5Q586,690,597,643H686Q670,707,646.0,762.0Q622,817,584,858L730,1000H611L524,916Q477,958,419.0,984.0Q361,1010,278,1010Q175,1010,114.0,959.0Q53,908,53,814Q53,737,94.5,690.5Q136,644,207,604Q175,568,147.5,527.0Q120,486,120,431Q120,357,169.5,316.0Q219,275,304,275ZM301,347Q259,347,232.5,369.0Q206,391,206,430Q206,466,225.0,496.5Q244,527,280,564Q339,530,364.5,499.5Q390,469,390,429Q390,393,366.0,370.0Q342,347,301,347ZM260,659Q206,691,175.5,724.0Q145,757,145,811Q145,866,182.0,899.0Q219,932,281,932Q345,932,391.0,911.0Q437,890,468,861Z"/></svg>