<?xml version="1.0" encoding="UTF-8"?><svg xmlns="http://www.w3.org/2000/svg" viewBox="0 0 899 1000"><path d="M841,643Q841,689,830.5,733.0Q820,777,798.0,812.5Q776,848,744.0,869.5Q712,891,668,891Q622,891,595.5,864.5Q569,838,563,804H558Q540,841,505.0,866.0Q470,891,417,891Q341,891,299.5,840.0Q258,789,258,705Q258,639,284.0,588.5Q310,538,357.5,509.0Q405,480,470,480Q514,480,556.5,487.5Q599,495,623,504L613,707Q612,725,612.0,732.5Q612,740,612,743Q612,795,630.5,812.0Q649,829,674,829Q705,829,726.5,803.5Q748,778,759.5,735.5Q771,693,771,642Q771,549,733.5,484.5Q696,420,630.5,386.0Q565,352,482,352Q368,352,289.5,399.0Q211,446,170.5,528.5Q130,611,130,717Q130,865,208.0,944.0Q286,1023,433,1023Q494,1023,549.5,1009.5Q605,996,648,980V1048Q605,1066,551.5,1077.5Q498,1089,433,1089Q315,1089,231.0,1045.0Q147,1001,102.5,918.5Q58,836,58,720Q58,627,87.0,547.5Q116,468,171.0,409.5Q226,351,304.5,318.5Q383,286,482,286Q586,286,667.0,329.0Q748,372,794.5,452.0Q841,532,841,643ZM336,707Q336,771,361.5,800.0Q387,829,430,829Q486,829,510.5,787.0Q535,745,539,678L545,553Q532,549,512.0,546.0Q492,543,471,543Q422,543,392.0,567.0Q362,591,349.0,628.5Q336,666,336,707Z"/></svg>