<svg xmlns="http://www.w3.org/2000/svg" viewBox="0 -320 899 1362"><path d="M841,419Q841,465,830.5,509.0Q820,553,798.0,588.5Q776,624,744.0,645.5Q712,667,668,667Q622,667,595.5,640.5Q569,614,563,580H558Q540,617,505.0,642.0Q470,667,417,667Q341,667,299.5,616.0Q258,565,258,481Q258,415,284.0,364.5Q310,314,357.5,285.0Q405,256,470,256Q514,256,556.5,263.5Q599,271,623,280L613,483Q612,501,612.0,508.5Q612,516,612,519Q612,571,630.5,588.0Q649,605,674,605Q705,605,726.5,579.5Q748,554,759.5,511.5Q771,469,771,418Q771,325,733.5,260.5Q696,196,630.5,162.0Q565,128,482,128Q368,128,289.5,175.0Q211,222,170.5,304.5Q130,387,130,493Q130,641,208.0,720.0Q286,799,433,799Q494,799,549.5,785.5Q605,772,648,756V824Q605,842,551.5,853.5Q498,865,433,865Q315,865,231.0,821.0Q147,777,102.5,694.5Q58,612,58,496Q58,403,87.0,323.5Q116,244,171.0,185.5Q226,127,304.5,94.5Q383,62,482,62Q586,62,667.0,105.0Q748,148,794.5,228.0Q841,308,841,419ZM336,483Q336,547,361.5,576.0Q387,605,430,605Q486,605,510.5,563.0Q535,521,539,454L545,329Q532,325,512.0,322.0Q492,319,471,319Q422,319,392.0,343.0Q362,367,349.0,404.5Q336,442,336,483Z"/></svg>
