<svg xmlns="http://www.w3.org/2000/svg" viewBox="0 -320 572 1362"><path d="M253,727Q198,726,146.0,717.5Q94,709,62,694V609Q96,625,149.0,637.0Q202,649,253,650V448Q154,421,108.0,380.0Q62,339,62,268Q62,194,113.5,152.0Q165,110,253,105V17H317V104Q370,105,413.5,115.5Q457,126,493,141L466,215Q434,202,395.5,192.5Q357,183,317,180V381Q383,400,427.0,421.5Q471,443,493.5,474.5Q516,506,516,556Q516,626,464.0,669.5Q412,713,317,723V834H253ZM253,182Q199,186,173.5,207.0Q148,228,148,261Q148,301,170.5,322.5Q193,344,253,359ZM317,645Q376,639,403.0,617.5Q430,596,430,562Q430,524,406.0,504.5Q382,485,317,469Z"/></svg>
