<?xml version="1.0" encoding="UTF-8"?><svg xmlns="http://www.w3.org/2000/svg" viewBox="0 0 572 1000"><path d="M253,951Q198,950,146.0,941.5Q94,933,62,918V833Q96,849,149.0,861.0Q202,873,253,874V672Q154,645,108.0,604.0Q62,563,62,492Q62,418,113.5,376.0Q165,334,253,329V241H317V328Q370,329,413.5,339.5Q457,350,493,365L466,439Q434,426,395.5,416.5Q357,407,317,404V605Q383,624,427.0,645.5Q471,667,493.5,698.5Q516,730,516,780Q516,850,464.0,893.5Q412,937,317,947V1058H253ZM253,406Q199,410,173.5,431.0Q148,452,148,485Q148,525,170.5,546.5Q193,568,253,583ZM317,869Q376,863,403.0,841.5Q430,820,430,786Q430,748,406.0,728.5Q382,709,317,693Z"/></svg>