<?xml version="1.0" encoding="UTF-8"?><svg xmlns="http://www.w3.org/2000/svg" viewBox="0 0 831 1000"><path d="M195,276Q269,276,307.0,334.5Q345,393,345,499Q345,605,308.5,664.5Q272,724,195,724Q124,724,86.5,664.5Q49,605,49,499Q49,393,84.0,334.5Q119,276,195,276ZM652,286,256,1000H179L575,286ZM195,338Q157,338,139.5,378.5Q122,419,122,499Q122,579,139.5,620.0Q157,661,195,661Q272,661,272,499Q272,338,195,338ZM632,562Q705,562,743.5,620.5Q782,679,782,785Q782,891,745.5,950.5Q709,1010,632,1010Q561,1010,523.5,950.5Q486,891,486,785Q486,679,521.0,620.5Q556,562,632,562ZM632,625Q594,625,576.5,665.0Q559,705,559,785Q559,866,576.5,906.5Q594,947,632,947Q709,947,709,785Q709,625,632,625Z"/></svg>