<svg xmlns="http://www.w3.org/2000/svg" viewBox="0 -320 831 1362"><path d="M195,52Q269,52,307.0,110.5Q345,169,345,275Q345,381,308.5,440.5Q272,500,195,500Q124,500,86.5,440.5Q49,381,49,275Q49,169,84.0,110.5Q119,52,195,52ZM652,62,256,776H179L575,62ZM195,114Q157,114,139.5,154.5Q122,195,122,275Q122,355,139.5,396.0Q157,437,195,437Q272,437,272,275Q272,114,195,114ZM632,338Q705,338,743.5,396.5Q782,455,782,561Q782,667,745.5,726.5Q709,786,632,786Q561,786,523.5,726.5Q486,667,486,561Q486,455,521.0,396.5Q556,338,632,338ZM632,401Q594,401,576.5,441.0Q559,481,559,561Q559,642,576.5,682.5Q594,723,632,723Q709,723,709,561Q709,401,632,401Z"/></svg>
