<svg xmlns="http://www.w3.org/2000/svg" viewBox="0 -320 434 1362"><path d="M140,548Q140,510,147.5,482.5Q155,455,173.5,430.0Q192,405,224,378Q263,345,284.5,323.0Q306,301,315.0,280.0Q324,259,324,229Q324,181,293.0,155.0Q262,129,203,129Q154,129,116.0,141.5Q78,154,43,171L12,101Q52,80,100.5,66.0Q149,52,209,52Q304,52,356.0,99.0Q408,146,408,227Q408,272,393.5,303.5Q379,335,352.5,361.5Q326,388,290,418Q257,446,239.5,467.0Q222,488,216.0,508.5Q210,529,210,558V575H140ZM117,722Q117,685,134.5,670.0Q152,655,179,655Q204,655,222.0,670.0Q240,685,240,722Q240,758,222.0,774.0Q204,790,179,790Q152,790,134.5,774.0Q117,758,117,722Z"/></svg>
