<?xml version="1.0" encoding="UTF-8"?><svg xmlns="http://www.w3.org/2000/svg" viewBox="0 0 434 1000"><path d="M140,772Q140,734,147.5,706.5Q155,679,173.5,654.0Q192,629,224,602Q263,569,284.5,547.0Q306,525,315.0,504.0Q324,483,324,453Q324,405,293.0,379.0Q262,353,203,353Q154,353,116.0,365.5Q78,378,43,395L12,325Q52,304,100.5,290.0Q149,276,209,276Q304,276,356.0,323.0Q408,370,408,451Q408,496,393.5,527.5Q379,559,352.5,585.5Q326,612,290,642Q257,670,239.5,691.0Q222,712,216.0,732.5Q210,753,210,782V799H140ZM117,946Q117,909,134.5,894.0Q152,879,179,879Q204,879,222.0,894.0Q240,909,240,946Q240,982,222.0,998.0Q204,1014,179,1014Q152,1014,134.5,998.0Q117,982,117,946Z"/></svg>