<?xml version="1.0" encoding="UTF-8"?><svg id="d" xmlns="http://www.w3.org/2000/svg" viewBox="0 0 107 220"><path d="M105.15,59.32c-.65-3.57-.27-5.08-.27-5.08,0,0-14.49-.16-18.86-.7s-19.51-1.84-21.51-1.03c-1.14,2.32,.11,5.84,.11,5.84-10.86-5.68-40.7-10.54-57.08,20.76-16.38,31.3,3.57,78.97,12.49,85.62,8.92,6.65,20.92,13.14,44.27-.49,0,0-.49,6.65,5.84,7.62,6.32,.97,26.92,.16,29.19,0s5.51-.81,5.84-7.95c.32-7.14,.65-101.03,0-104.59Zm-40.86,61.14c.32,19.78-9.57,17.19-14.43,16.7-4.86-.49-14.92-7.62-13.62-27.73,1.3-20.11,15.56-21.77,21.57-21.57,9.73,.32,6.16,12.81,6.49,32.59Z"/></svg>