<?xml version="1.0" encoding="UTF-8"?><svg id="d" xmlns="http://www.w3.org/2000/svg" viewBox="0 0 107 220"><path d="M104.28,96.62c-3.89-28.05-11.84-37.78-24.16-40.38-12.32-2.59-29.35-2.43-38.76,.65,0,0,0-42.97-.81-48-7.95-3.41-34.05-.81-36-.32-.81,5.03,.16,46.86-.49,66.81-.65,19.95-1.14,91.3-1.14,96.81,0,0,34.38,1.3,37.62-.16,2.03-.65,.81-8.59,.81-8.59,12.81,13.46,26.76,9.41,41.84,1.95s24.97-40.7,21.08-68.76Zm-44.92,43.14c-16.54,5.51-17.84-8.27-18.65-21.41,0,0-1.46-14.59,.49-26.43,1.95-11.84,11.68-10.22,22.05-4.86s12.65,47.19-3.89,52.7Z"/></svg>