<?xml version="1.0" encoding="UTF-8"?><svg id="d" xmlns="http://www.w3.org/2000/svg" viewBox="0 0 107 220"><path d="M40.55,123.05c-.72,8.73,1.3,15.03,10.49,15.46s12.86-1.73,14.81-15.24c0,0,14.59,.97,20,.54s13.95-.32,15.89,.22c0,0-.11,21.08-3.03,29.62s-9.84,21.08-35.35,20.22-35.24-.43-47.46-11.46S4.01,128.46,3.69,123.38s-.97-38.38,.43-43.57,1.41-19.78,16.32-25.41,28.65-3.57,33.62-3.78,22.05-1.41,35.57,8,11.57,26.92,12.22,36.65,.65,8.11,.65,8.11c0,0-9.73,2.05-19.14,1.08s-16.97-2.05-16.97-2.05c0,0-2.7-13.51-9.95-14.27s-12.76,.54-14.59,8.65-.76,19.68-1.3,26.27Z"/></svg>