<?xml version="1.0" encoding="UTF-8"?><svg id="d" xmlns="http://www.w3.org/2000/svg" viewBox="0 0 107 220"><path d="M102.7,75.95c-.65-19.95,.32-61.78-.49-66.81-1.95-.49-28.05-3.08-36,.32-.81,5.03-.81,48-.81,48-9.41-3.08-26.43-3.24-38.76-.65-12.32,2.59-20.27,12.32-24.16,40.38-3.89,28.05,6,61.3,21.08,68.76s29.03,11.51,41.84-1.95c0,0-1.22,7.95,.81,8.59,3.24,1.46,37.62,.16,37.62,.16,0-5.51-.49-76.86-1.14-96.81Zm-36.65,42.97c-.81,13.14-2.11,26.92-18.65,21.41-16.54-5.51-14.27-47.35-3.89-52.7s20.11-6.97,22.05,4.86c1.95,11.84,.49,26.43,.49,26.43Z"/></svg>