<?xml version="1.0" encoding="UTF-8"?><svg id="d" xmlns="http://www.w3.org/2000/svg" viewBox="0 0 107 220"><path d="M93.2,61.97c-12.76-10.38-21.54-10.59-37.59-11.16-16.05-.57-32.92,1.3-41.43,8.03-8.51,6.73-11.35,31.68-10.05,55.24,1.3,23.57,1.73,38.49,12.11,48.54,10.38,10.05,23.89,12.11,43.89,11.78,12.97-.21,37.84,1.95,41.08-28.32,3.24-30.27,4.76-73.73-8-84.11Zm-25.73,54.7c-1.08,11.24,.86,23.78-15.14,22.27-16-1.51-10.81-23.56-10.81-28.11,0-18.81,3.24-23.57,14.27-22.49,11.03,1.08,12.76,17.08,11.68,28.32Z"/></svg>