<?xml version="1.0" encoding="UTF-8"?><svg id="d" xmlns="http://www.w3.org/2000/svg" viewBox="0 0 107 220"><path d="M103.36,53.16s-13.78,0-18.65-.16-16.54,.16-18.16,.65c-1.62,.49-1.78,2.16-1.84,6.16,0,0-10-9.57-29.3-4.54C16.12,60.3,2.5,78.95,1.85,115.11c-.65,36.16,12.16,51.73,23.84,54.16,11.68,2.43,33.41,3.24,38.92-.16,0,0,.16,33.57,.65,38.92,.49,5.35,.32,6.65,.32,8.59,0,0,9.24,2.92,19.3,2.27,10.05-.65,15.41-.97,16.54-1.3,0,0,1.46-78,1.3-96.16-.16-18.16,1.3-65.19,.65-68.27Zm-48,89.03c-10.7,.65-21.32-11.04-20.59-28.05,.65-15.24,6-28.7,18.16-29.51,12.16-.81,12.49,11.03,12.97,32.76,.49,21.73,.16,24.16-10.54,24.81Z"/></svg>