<?xml version="1.0" encoding="UTF-8"?><svg id="d" xmlns="http://www.w3.org/2000/svg" viewBox="0 0 107 220"><path d="M.99,134.07s.72,22.68,15.74,32.06c15.02,9.39,48.24,15.31,70.77,2.31,22.53-13,20.08-49.68,5.2-57.63-14.88-7.94-30.47-9.82-37.55-11.27-7.08-1.44-11.27-13-7.37-17.19,3.9-4.19,8.38-6.07,12.42-3.76,4.04,2.31,6.5,6.79,5.78,12.57,0,0,11.84,3.76,25.13,3.03,13.29-.72,14.3-2.17,14.3-2.17,0,0-.29-19.64-7.8-28.45-7.51-8.81-10.11-11.99-37.26-13.29-27.15-1.3-35.1,2.74-45.35,9.97-10.25,7.22-11.74,20.21-11.84,25.85-.29,16.32,17.76,28.6,26.86,31.92s25.91,5.5,32.21,10.54c2.17,1.73,2.67,8.33,1.59,10.98-1.19,2.9-.63,3.6-4.48,5.34-3.18,1.44-16.03,1.88-17.76-11.41,0,0-17.76-1.01-22.53-.72-4.77,.29-15.17,.29-18.05,1.3Z"/></svg>