<?xml version="1.0" encoding="UTF-8"?><svg xmlns="http://www.w3.org/2000/svg" viewBox="0 0 561 1000"><path d="M288,455Q386,455,433.0,498.0Q480,541,480,635V1000H416L399,924H395Q360,968,321.5,989.0Q283,1010,215,1010Q142,1010,94.0,971.5Q46,933,46,851Q46,771,109.0,727.5Q172,684,303,680L394,677V645Q394,578,365.0,552.0Q336,526,283,526Q241,526,203.0,538.5Q165,551,132,567L105,501Q140,482,188.0,468.5Q236,455,288,455ZM314,741Q214,745,175.5,773.0Q137,801,137,852Q137,897,164.5,918.0Q192,939,235,939Q303,939,348.0,901.5Q393,864,393,786V738Z"/></svg>