<svg xmlns="http://www.w3.org/2000/svg" viewBox="0 -320 561 1362"><path d="M288,231Q386,231,433.0,274.0Q480,317,480,411V776H416L399,700H395Q360,744,321.5,765.0Q283,786,215,786Q142,786,94.0,747.5Q46,709,46,627Q46,547,109.0,503.5Q172,460,303,456L394,453V421Q394,354,365.0,328.0Q336,302,283,302Q241,302,203.0,314.5Q165,327,132,343L105,277Q140,258,188.0,244.5Q236,231,288,231ZM314,517Q214,521,175.5,549.0Q137,577,137,628Q137,673,164.5,694.0Q192,715,235,715Q303,715,348.0,677.5Q393,640,393,562V514Z"/></svg>
