<?xml version="1.0" encoding="UTF-8"?><svg xmlns="http://www.w3.org/2000/svg" viewBox="0 0 564 1000"><path d="M292,454Q361,454,410.5,484.0Q460,514,486.5,568.5Q513,623,513,696V749H146Q148,840,192.5,887.5Q237,935,317,935Q368,935,407.5,925.5Q447,916,489,898V975Q448,993,408.0,1001.5Q368,1010,313,1010Q237,1010,178.5,979.0Q120,948,87.5,886.5Q55,825,55,736Q55,648,84.5,585.0Q114,522,167.5,488.0Q221,454,292,454ZM291,526Q228,526,191.5,566.5Q155,607,148,679H421Q420,611,389.0,568.5Q358,526,291,526Z"/></svg>