<svg xmlns="http://www.w3.org/2000/svg" viewBox="0 -320 615 1362"><path d="M275,230Q328,230,370.5,250.0Q413,270,443,311H448L460,240H530V785Q530,900,471.5,958.0Q413,1016,290,1016Q172,1016,97,982V901Q176,943,295,943Q364,943,403.5,902.5Q443,862,443,792V771Q443,759,444.0,736.5Q445,714,446,705H442Q388,786,276,786Q172,786,113.5,713.0Q55,640,55,509Q55,381,113.5,305.5Q172,230,275,230ZM287,304Q220,304,183.0,357.5Q146,411,146,510Q146,609,182.5,661.5Q219,714,289,714Q370,714,407.0,670.5Q444,627,444,530V509Q444,399,406.0,351.5Q368,304,287,304Z"/></svg>
