<?xml version="1.0" encoding="UTF-8"?><svg xmlns="http://www.w3.org/2000/svg" viewBox="0 0 615 1000"><path d="M275,454Q328,454,370.5,474.0Q413,494,443,535H448L460,464H530V1009Q530,1124,471.5,1182.0Q413,1240,290,1240Q172,1240,97,1206V1125Q176,1167,295,1167Q364,1167,403.5,1126.5Q443,1086,443,1016V995Q443,983,444.0,960.5Q445,938,446,929H442Q388,1010,276,1010Q172,1010,113.5,937.0Q55,864,55,733Q55,605,113.5,529.5Q172,454,275,454ZM287,528Q220,528,183.0,581.5Q146,635,146,734Q146,833,182.5,885.5Q219,938,289,938Q370,938,407.0,894.5Q444,851,444,754V733Q444,623,406.0,575.5Q368,528,287,528Z"/></svg>