<?xml version="1.0" encoding="UTF-8"?><svg xmlns="http://www.w3.org/2000/svg" viewBox="0 0 615 1000"><path d="M340,454Q439,454,499.5,523.0Q560,592,560,731Q560,868,499.5,939.0Q439,1010,339,1010Q277,1010,236.5,986.5Q196,963,173,932H167Q169,949,171.0,975.0Q173,1001,173,1020V1240H85V464H157L169,537H173Q197,502,236.0,478.0Q275,454,340,454ZM324,528Q242,528,208.5,574.0Q175,620,173,714V731Q173,830,205.5,883.5Q238,937,326,937Q375,937,406.5,910.0Q438,883,453.5,836.5Q469,790,469,730Q469,638,433.5,583.0Q398,528,324,528Z"/></svg>