<?xml version="1.0" encoding="UTF-8"?><svg xmlns="http://www.w3.org/2000/svg" viewBox="0 0 479 1000"><path d="M434,852Q434,930,376.0,970.0Q318,1010,220,1010Q164,1010,123.5,1001.0Q83,992,52,976V896Q84,912,129.5,925.5Q175,939,222,939Q289,939,319.0,917.5Q349,896,349,860Q349,840,338.0,824.0Q327,808,298.5,792.0Q270,776,217,756Q165,736,128.0,716.0Q91,696,71.0,668.0Q51,640,51,596Q51,528,106.5,491.0Q162,454,252,454Q301,454,343.5,463.5Q386,473,423,490L393,560Q359,546,322.0,536.0Q285,526,246,526Q192,526,163.5,543.5Q135,561,135,591Q135,613,148.0,628.5Q161,644,191.5,658.5Q222,673,273,693Q324,712,360.0,732.0Q396,752,415.0,780.5Q434,809,434,852Z"/></svg>