<svg xmlns="http://www.w3.org/2000/svg" viewBox="0 -320 479 1362"><path d="M434,628Q434,706,376.0,746.0Q318,786,220,786Q164,786,123.5,777.0Q83,768,52,752V672Q84,688,129.5,701.5Q175,715,222,715Q289,715,319.0,693.5Q349,672,349,636Q349,616,338.0,600.0Q327,584,298.5,568.0Q270,552,217,532Q165,512,128.0,492.0Q91,472,71.0,444.0Q51,416,51,372Q51,304,106.5,267.0Q162,230,252,230Q301,230,343.5,239.5Q386,249,423,266L393,336Q359,322,322.0,312.0Q285,302,246,302Q192,302,163.5,319.5Q135,337,135,367Q135,389,148.0,404.5Q161,420,191.5,434.5Q222,449,273,469Q324,488,360.0,508.0Q396,528,415.0,556.5Q434,585,434,628Z"/></svg>
