<?xml version="1.0" encoding="UTF-8"?><svg id="d" xmlns="http://www.w3.org/2000/svg" viewBox="0 0 109 220"><path d="M90.72,81.38c-2.27-9.89-16.86-72.81-17.19-74.43,0,0-14.35,1.38-20.19,1.3s-18.24,.49-19.38,.65c0,0-15.08,57.08-19.14,83.84C10.77,119.49,.88,167.81,1.53,171.22c0,0,13.54,.57,17.51,.89,3.97,.32,19.54,1.14,20.84,.16s5.03-10.05,7.14-20.76c2.11-10.7,3-16.62,3.57-17.68,0,0,7.7-.49,8.76,.08,0,0,4.86,14.68,5.43,17.92s4.86,18.89,5.03,19.14c.16,.24,14.92,2.76,21.49,2.76s15.97-1.3,16.7-1.62c0,0-15-80.84-17.27-90.73Zm-40.7,22.78c.32-2.27,2.92-20.84,3.16-25.46,.24-4.62,.65-15.24,1.38-22.95,0,0,1.95,19.7,2.43,22.95,.49,3.24,2.59,25.46,2.59,25.46-1.22-.24-9.57,0-9.57,0Z"/></svg>