<?xml version="1.0" encoding="UTF-8"?><svg id="d" xmlns="http://www.w3.org/2000/svg" viewBox="0 0 113 220"><path d="M2.39,120.62c.16,21.24-3.57,49.78,40.86,54.81s60.81-23.03,65.51-39.57-1.3-29.51-1.3-29.51c0,0-12.16-2.27-18.81-1.78s-16.05-.16-18.32-.97c0,0-1.62,12.81-1.46,18s-5.68,15.08-13.14,13.46-12-16.54-12-29.03,.32-47.19,.97-53.03,1.95-9.08,11.19-9.24,10.7,10.7,11.35,29.51c0,0,9.08,2.92,21.41,3.57s15.73-2.27,18.97-1.95c0,0,7.46-14.43,0-35.84S74.07,1.92,52.66,2.41,21.2,8.41,14.23,16.03,2.23,40.03,2.39,46.03s0,74.59,0,74.59Z"/></svg>