<?xml version="1.0" encoding="UTF-8"?><svg id="d" xmlns="http://www.w3.org/2000/svg" viewBox="0 0 113 220"><path d="M5.53,12.62s-.49,68.11-.65,80.92-.32,77.03,.81,78.81c0,0,13.46,.57,18.81,.73s18.97-.81,21.16-1.62c0,0-1.62-34.38-1.78-40.95s-.49-29.59-.32-30.65c0,0,6.73,16.78,12,16.62s9.49-11.27,12.57-16.86c0,0,1.3,38.11,1.38,43.3s.57,27.73,.73,29.59c0,0,16.38-.41,20.43-.41s15,.49,16.78,1.22c0,0,.89-54.81,.73-63.89s.24-66.73,.32-72.73,0-26.68,.16-27.49c0,0-17.43,.49-21.57,.57s-16.38,.73-18.32-.41c0,0-12.16,29.35-12.08,31.62,0,0-9.73-27.24-14.03-30.41,0,0-13.05,.41-18.08,0s-16.05,.57-19.05,2.03Z"/></svg>