<?xml version="1.0" encoding="UTF-8"?><svg id="d" xmlns="http://www.w3.org/2000/svg" viewBox="0 0 113 220"><path d="M96.77,22.35c-10.92-9.95-25.51-14.59-44.43-14.05-18.92,.54-31.03,8.43-33.84,9.84-2.81,1.41-10.38,15.14-12.97,30.05s-2.05,46.27-2.05,46.27c.86,23.35,1.19,34.7,1.95,42.92,.76,8.22,3.14,29.3,22.92,35.03,19.78,5.73,44.76,4.97,63.14-7.68s16.43-50.38,16.97-60.97c.54-10.59,.32-33.73,.86-42.05,.54-8.32-1.62-29.41-12.54-39.35Zm-24.11,90.49c-.43,15.78,.54,21.62-10.49,26.49-11.03,4.86-18.92-1.51-21.51-5.84-2.59-4.32-3.46-26.16-5.08-34.05,0,0-.22-3.03,.11-21.51,.32-18.49,7.57-30.92,16.76-33.95,9.19-3.03,13.73,.97,17.41,9.3s3.24,43.78,2.81,59.57Z"/></svg>