<?xml version="1.0" encoding="UTF-8"?><svg id="d" xmlns="http://www.w3.org/2000/svg" viewBox="0 0 126 220"><path d="M110.61,151c-7.46-12.97-31.14-47.57-31.46-49.3,0,0,24-.43,34.05-27.24,10.05-26.81-.54-40.11-14.81-54.59C84.12,5.38,60.12,4.19,47.47,4.51,34.82,4.84,4.55,8.51,1.42,9.27c0,0,2.59,28.43,2.27,58.92s.76,80.43,.97,90.38c.22,9.95,1.08,13.3,1.73,13.84s17.73,.32,21.73,.43c4,.11,19.57-1.08,22.16-3.78,0,0-2.27-44.97-1.73-48.22,0,0,17.84,27.78,26.7,51.24,0,0,15.78,1.41,24.65,.54,8.86-.86,19.14-.97,20.54-.65,0,0-2.38-8-9.84-20.97Zm-46.59-81.62c-2.05,.86-19.46,1.62-20.32,.32-.86-1.3-1.41-26.92-1.41-26.92,0,0,9.41-2.16,13.73-1.51s13.19,.22,13.95,12.11c.76,11.89-3.89,15.14-5.95,16Z"/></svg>