<?xml version="1.0" encoding="UTF-8"?><svg id="d" xmlns="http://www.w3.org/2000/svg" viewBox="0 0 114 220"><path d="M1.96,11.43s13.84,31.68,16.97,42.81,10.05,31.89,9.95,37.08-10.7,36.43-12,40.86-11.03,35.46-11.78,37.19c0,0,8.65,3.46,20.65,3.03s17.19-.54,17.19-.54c0,0,6.38-17.41,7.89-22.38s6.59-22.81,6.59-22.81c0,0,5.95,22.7,6.92,26.16s4.11,15.57,5.3,17.41c0,0,10.27,2.92,19.89,1.95s17.62,.22,18.59,.43c0,0-5.73-20.86-8.65-31.35s-12.65-42.59-13.3-48.76c0,0,11.14-37.41,13.95-46.27s11.24-37.62,11.24-37.62c0,0-16.65,.32-20.11,.22s-20.43,.54-22.16,.76c0,0-11.57,43.24-12.65,44.76,0,0-6.27-19.57-6.92-23.35s-5.19-20.54-5.19-20.54c0,0-29.73-.32-42.38,.97Z"/></svg>