<?xml version="1.0" encoding="UTF-8"?><svg id="d" xmlns="http://www.w3.org/2000/svg" viewBox="0 0 135.15 220"><path d="M71.9,153.4c-16.27-.4-24.32-2.42-28.27-7.57-3.95-5.15-6.44-10.71-9.34-33.83-2.9-23.11,1.69-51.7,3.62-56.62,1.93-4.91,9.02-15.62,23.36-16.11s23.84,3.06,31.17,9.66,8.7,15.54,8.7,29.07-.32,29.64-1.21,31.73c-.89,2.09-1.53,2.09-1.93-.08-.4-2.17-.32-24.97-.16-28.27,.16-3.3,.81-9.91-.4-13.77-1.21-3.87-2.58-4.67-4.35-5.4-1.77-.72-1.93-2.58-13.53-3.46-11.6-.89-24.97,5.07-31.49,10.31s-14.5,21.83-12.48,36.64c2.01,14.82,5.72,23.03,18.6,27.62,12.89,4.59,27.95-1.37,28.99-2.66,0,0,7.17,7.09,18.52,5.4,11.36-1.69,22.23-7.17,24.32-18.2,2.09-11.03,2.26-34.63,.81-52.27s-7.33-33.5-25.29-41.88c-17.96-8.38-40.91-6.6-49.13-5.8-8.21,.81-31.25,5.48-38.98,21.5s-7.73,24-8.21,38.17c-.48,14.17,1.29,48.4,2.09,51.87,.81,3.46,4.67,29.56,23.6,40.11,18.93,10.55,43.33,7.41,56.62,6.77,13.93-1.77,38.09-13.77,39.7-15.38l-10.11-21.79s-28.95,14.62-45.22,14.21Zm-1.29-48.56c-.32,2.9-2.98,6.44-6.36,4.83-3.38-1.61-2.34-13.29-.48-19.41,1.85-6.12,9.66-6.77,9.66-6.77-1.85,3.3-2.5,18.44-2.82,21.34Z"/></svg>