<?xml version="1.0" encoding="UTF-8"?><svg id="d" xmlns="http://www.w3.org/2000/svg" viewBox="0 0 163 220"><path d="M155.05,82.59c.24-.32-1.62-23.92-1.46-24.49,0,0-10.3,.16-11.03,0s-2.68-.32-3.16-.32c0,0,6-20.76,6.73-22.14s2.03-6.16,2.19-8.03c.16-1.86,0-4.38,0-4.38,0,0-8.19-1.22-16.38-.89-8.19,.32-12.65-.73-15.97-1.46,0,0-9.16,33.24-11.59,36.24h-10.05c-3.49,0-11.11,.08-11.11,.08,0,0,10.3-30,9.89-33.97,0,0-15.32-.32-17.84-.49-2.51-.16-13.05-.49-16.46-1.38,0,0-7.62,29.19-10.78,35.92,0,0-28.3,1.86-40.54-2.68l.24,28.86,31.38-.16s-7.38,21.81-7.22,26.59c0,0-18.95,3.19-27.11-6.92,0,0,.19,31.65,.68,33.19,0,0,9.49,.81,14.59-.16,0,0-3,9.16-4.3,11.84s-7.05,21.08-7.05,23.92c0,0,18.65-.41,21.32-.41s9.81,1.38,11.76-.57c0,0,3.32-5.92,4.22-8.68s9.73-26.11,10.3-26.76h19.86s-4.38,15.24-7.46,22.14c-3.08,6.89-4.3,14.19-4.3,14.19,0,0,16.95,.24,20.76,.32s11.84-.57,12.41-.49c0,0,5.27-9,7.14-14.84,1.86-5.84,7.22-20.59,7.22-20.59,0,0,20.92,0,25.86-.08,4.95-.08,13.86-.81,14.84-1.22,0,0-.41-15.57-.41-17.43s-.97-5.68-1.7-6.16c0,0-15-.97-18.41-1.05-3.41-.08-10.95,0-10.95,0,0,0,7.7-22.78,9.08-26.84,0,0,24.57-.41,24.81-.73Zm-64.7,16.95c-.97,2.11-3.57,10.38-3.57,10.38-.59-.16-21.89,.11-21.89,.11,.86-2.54,9.24-27.19,9.24-27.19,0,0,7.78-.05,9.51,.05,1.73,.11,11.68,.16,11.68,.16-.11,1.41-4,14.38-4.97,16.49Z"/></svg>