<?xml version="1.0" encoding="UTF-8"?><svg id="d" xmlns="http://www.w3.org/2000/svg" viewBox="0 0 143 220"><path d="M129.8,149.1c-6.28-9.3-11.96-12.81-12.32-16.67s10.63-17.88,13.41-33.1c2.78-15.22,1.09-14.74-.85-16.91-1.93-2.17-6.89-3.02-21.74-2.54-14.86,.48-12.08,.48-16.43,3.02-4.35,2.54-5.32,9.54-4.83,11.23,0,0-8.09-12.81-4.11-19.21,3.99-6.4,16.91-24.16,18.12-34.79,1.21-10.63-4.71-32.62-32.01-38.54S21.08,12.47,15.4,19.95c-5.68,7.49-12.56,22.83,11.96,56.05,0,0-28.87,25.73-21.87,54.48,7.01,28.75,24.4,39.26,42.28,41.32s37.57-5.19,38.9-7.37c0,0,5.07,6.4,16.19,7.25,11.11,.85,28.63,1.33,30.68-4.59s2.54-8.7-3.74-18ZM56.11,29.3c3.22-1.13,3.38-.24,2.82,9.34-.56,9.58-1.21,12.32-3.95,14.82s-3.54-16.43-3.54-16.43c.72-5.64,1.45-6.6,4.67-7.73Zm10.55,105.58s-6.44,5.15-14.09,1.05-5.96-20.21-5.96-20.21c1.53-9.99,5.07-11.03,10.31-10.39,5.24,.64,8.7,4.03,10.23,11.03,1.53,7.01-.48,18.52-.48,18.52Z"/></svg>