<?xml version="1.0" encoding="UTF-8"?><svg id="d" xmlns="http://www.w3.org/2000/svg" viewBox="0 0 113 220"><path d="M2.53,40.07s55.99,1.75,59.25,1.87c0,0-19.03,42.28-22.77,49.11s-19.63,41.68-25.37,52.37S1.51,169.21,1.51,169.21c0,0,5.56,2.54,18.97,2.17s6.46-1.03,21.99-1.09c0,0,29.48-52.91,32.01-57.87s18.91-34.31,22.59-41.92,14.13-28.21,14.68-30.56c0,0-.54-18-.48-20.48s.12-12.44,.12-12.44c0,0-12.74-1.33-22.53-1.75s-19.63-.24-26.15-.24-34.07,.6-36.79,.66-20.96,.18-21.93,.36c0,0-.24,13.71-.3,16.19s-.72,15.89-1.15,17.82Z"/></svg>