<?xml version="1.0" encoding="UTF-8"?><svg id="d" xmlns="http://www.w3.org/2000/svg" viewBox="0 0 108 220"><path d="M2.35,139.55s-.97,12.81,5.92,22.11,15.58,11.96,20.05,13.41,4.95,3.02,5.32,6.16-.6,11.48,.85,14.13,1.45,4.83,9.79,4.95,19.33-.24,22.35-.48,6.89-2.3,7.01-7.49,.12-16.91,.12-16.91c0,0,10.51-5.32,13.77-7.97s14.98-13.41,14.62-27.54-6.52-26.21-15.1-34.67-20.05-13.29-29.36-22.11-9.66-12.56-9.91-15.22,1.45-9.18,5.32-10.15,6.04,.12,6.16,6.16,4.11,11.6,8.7,11.84,19.57,.24,24.89,0,9.91-1.57,10.15-6.52,.85-18.24-6.28-27.66-14.5-13.89-23.92-14.98l.24-20.42s-.6-3.62-8.7-4.23-24.4-.6-26.09-.24-5.56,.36-5.44,4.83,.85,17.64,1.69,19.21c0,0-18.6,6.4-25.37,16.91s-7.25,25.49,2.17,39.87,15.95,17.03,20.17,20.9,18.85,14.5,22.83,20.9,5.56,13.65,2.54,17.88-9.91,4.11-11.48-2.05-.48-9.54-.48-12.2-1.33-5.92-6.04-6.89-11.11-.24-15.83-.85-14.62-.85-18,.72-2.78,12.08-2.66,18.6Z"/></svg>