<?xml version="1.0" encoding="UTF-8"?><svg id="d" xmlns="http://www.w3.org/2000/svg" viewBox="0 0 113 220"><path d="M3.2,90.26s4.59,1.33,20.78,.48,31.17-2.17,36.12,2.66,11.72,18.72,5.19,30.93-14.62,8.94-16.79,7.01-4.47-9.42-4.35-12.68l-39.26,.85s-7.01,27.3,6.89,39.5,29.96,18,58.83,13.05,38.54-24.77,39.62-32.98,4.47-34.07-5.92-56.3-20.17-24.28-25.73-27.3-13.93-3.58-19.41-3.91-10.07-.08-10.91,0-3.74,.6-3.79-2.21,.2-5.19,.2-5.19c0,0,10.67,1.13,25.73,.85s35.76-.85,37.29-1.73c0,0,.52-18.64,.77-21.1s.52-13.13-.44-14.17-16.11-.89-22.23-.89-38.01,.72-45.83,.81-34.59,.81-36.81,.77c0,0-.02,41.17-.02,44.74s.06,36.85,.06,36.85Z"/></svg>