<?xml version="1.0" encoding="UTF-8"?><svg id="d" xmlns="http://www.w3.org/2000/svg" viewBox="0 0 115 220"><path d="M112.83,101.32c-.12-5.07-.91-34.31-.79-39.93,.12-5.62-.3-26.52-5.13-36.24s-7.91-11.6-9.6-12.99c-1.69-1.39-5.44-4.17-17.15-5.44-11.72-1.27-17.52-.79-19.69-.97s-14.26-.12-27.54,4.11S10.08,22.55,5.19,34.93c-4.89,12.38-3.99,35.15,2.96,46.15s12.44,15.22,22.29,20.05c9.85,4.83,24.04,5.98,35.34,2.78,0,0,.36,8.94-1.03,14.25s-3.26,10.27-9.12,10.45c-5.86,.18-10.09-9.18-10.21-10.57,0,0-9.36-1.57-19.57-.91-10.21,.66-22.29,1.09-23.25,.97,0,0-1.15,9.6-.06,16.49s4.41,21.2,24.52,30.38c20.11,9.18,36.97,9.42,54.06,5.13s25.13-17.52,29.36-32.8c4.23-15.28,2.48-30.93,2.36-36Zm-42.87-43.91c-.64,4.75-1.21,9.66-8.38,11.52-7.17,1.85-11.68-6.44-11.68-6.44-1.53-8.46-.56-11.52,0-12.97s7.17-6.04,12.89-4.03c5.72,2.01,7.81,7.17,7.17,11.92Z"/></svg>