<?xml version="1.0" encoding="UTF-8"?><svg id="d" xmlns="http://www.w3.org/2000/svg" viewBox="0 0 113 220"><path d="M92.59,90.91s15.3-12.48,17.64-29.48c2.34-16.99-3.54-37.21-14.74-46.79-11.19-9.58-27.62-9.02-45.34-8.86-17.72,.16-27.62,7.01-35.28,17.07S1.91,52.49,5.78,66.67c3.87,14.17,11.19,22.63,11.19,22.63,0,0-15.3,16.51-14.58,37.13,.72,20.62,11.84,37.37,26.66,42.77,14.82,5.4,29.48,7.57,47.84,2.58,18.36-4.99,27.3-14.74,32.46-36.89,5.15-22.15-13.05-42.12-16.75-43.97ZM54.58,49.59c6.04-.73,9.18,5.96,9.42,6.52,.24,.56,.81,12.32-6.68,12.32s-8.78-8.62-8.78-8.62c-.4-2.74,0-9.5,6.04-10.23Zm7.89,78.76c-.81,.89-5.48,2.5-11.44,.08s-3.87-12.16-3.87-12.16c.72-4.75,5.15-8.38,7.09-8.7s10.87,.64,12,8.94c1.13,8.3-2.98,10.95-3.79,11.84Z"/></svg>