<?xml version="1.0" encoding="UTF-8"?><svg id="d" xmlns="http://www.w3.org/2000/svg" viewBox="0 0 99.21 220"><path d="M23.64,171.86s11.19,.41,16.38-1.22c0,0,1.14-.65,2.68-5.59s12.24-30.41,15.49-39.65,16.78-49.14,19.54-57,8.59-24.24,10.22-29.51,8.19-26.27,8.27-27-.89-1.46-1.22-1.54c0,0,.65-1.22,1.86-1.54,0,0-3.32-3.16-15.97-2.84s-18.57-.24-20.76-1.05c0,0-5.92,21.81-8.76,29.19s-6,17.84-6.08,18.32-2.03,7.22-3.08,9.49-13.86,38.03-15.16,41.35-8.19,23.19-9.16,25.62-9.08,24-7.54,21.81c0,0-5.27,13.46-5.19,15.73s-.65,5.51,2.59,5.68,15.89-.24,15.89-.24Z"/></svg>