<?xml version="1.0" encoding="UTF-8"?><svg id="d" xmlns="http://www.w3.org/2000/svg" viewBox="0 0 113 220"><path d="M109.57,110.2c-3.68-12.44-14.74-20.78-28.09-23.26-13.35-2.48-33.58,4.59-33.58,4.59,.48-2.6-1.27-23.38-1.21-25.91,.06-2.54,.3-13.11,4.59-18.79,4.29-5.68,9.36-6.89,13.65-1.99,4.29,4.89,4.17,16.31,4.17,16.31,0,0,10.99-.18,19.21-.18s18.54-1.75,18.54-1.75c0,0,7.43-20.54-8.7-38.96C82.02,1.83,57.62,3.28,34.61,11.92,11.59,20.56,5.74,35.3,4.71,37.77c-1.03,2.48-1.69,12.14-1.63,13.23,.06,1.09-.91,13.71-1.09,16.61s-.91,24.77-.72,31.89,1.69,33.89,10.45,50.8,24.52,23.98,48.08,22.05c23.56-1.93,36.54-10.69,45.3-21.81s8.15-27.91,4.47-40.35Zm-35.76,22.11c-5.5,4.41-12.32,1.63-12.32,1.63-1.87-1.57-3.5-4.23-4.05-7.91-.54-3.68,3.5-9.85,11.36-11.54,7.85-1.69,8.46,4.59,8.4,5.68-.06,1.09,2.11,7.73-3.38,12.14Z"/></svg>