<?xml version="1.0" encoding="UTF-8"?><svg id="d" xmlns="http://www.w3.org/2000/svg" viewBox="0 0 114 220"><path d="M4.72,9.87s3.51,59.73,5.35,74.97,9.95,79.68,11.68,86.16c0,0,14.49,2.92,26.16-.32,0,0,9.19-28.54,9.84-32.76,0,0,4.65,16.43,5.62,20.76s4.76,12.22,5.73,13.08c0,0,23.14,.97,24.97-.97,0,0,8.43-87.35,8.86-91.03s6.7-68.54,6.7-68.97-1.3-1.19-1.95-1.41-23.68-2.27-37.3,1.08c0,0-3.14,73.08-2.7,80.43,0,0-2.92-23.57-11.46-29.3,0,0-4.32,6.16-5.41,12.22s-3.46,17.41-3.46,17.41c0,0-2.05-31.03-1.62-38.59s-.76-42.27-.86-43.68c0,0-16.65-.43-19.03-.65s-18.49,.65-21.14,1.57Z"/></svg>