<?xml version="1.0" encoding="UTF-8"?><svg id="d" xmlns="http://www.w3.org/2000/svg" viewBox="0 0 114 220"><path d="M2.39,11s2.16,11.03,1.95,16.97,.54,16.11,2.81,17.95c0,0,50.59,1.19,54.16,2.59,0,0-25.41,35.35-28.76,39.78S8.12,125.81,5.31,134.68c0,0,.22,14.7,.11,19.68s.86,16.76,2.59,18.81c0,0,36.76-1.62,44.43-1.41s47.03,.54,56.32,1.51c0,0,3.03-32,.43-40,0,0-52.43-.11-57.19,1.73,0,0,31.35-45.41,35.24-50.81s22.7-33.62,23.46-35.78,.22-17.73,.43-21.3-.32-16.11-.76-17.19c0,0-43.68-.65-51.03-.86s-41.51,.11-56.97,1.95Z"/></svg>