<?xml version="1.0" encoding="UTF-8"?><svg id="d" xmlns="http://www.w3.org/2000/svg" viewBox="0 0 117 220"><path d="M108.99,37.76C100.07,16.92,74.12,6.78,46.8,5.32S3.26,10.35,3.26,10.35c0,0,0,.14,0,.41,.11,5.6,1.27,67.47,.75,80.78-.54,13.95,.86,76.65,.86,79.46,0,0,11.78,1.51,23.35,1.19,11.57-.32,15.41-.86,17.46-1.3,2.05-.43,4.05-.76,4.59-.81,0,0,.27-29.57,.16-34.65s.43-21.24-.05-22.97c0,0,25.68,2.73,44.97-15.43,19.3-18.16,22.54-38.43,13.62-59.27Zm-39.68,34.65c-4.65,5.51-23.35,4.11-23.35,4.11-.86-2.05-1.73-11.46-1.73-16s-.43-17.95-.43-17.95c22.59-1.08,25.84,6.59,28.11,11.89s2.05,12.43-2.59,17.95Z"/></svg>