<?xml version="1.0" encoding="UTF-8"?><svg id="d" xmlns="http://www.w3.org/2000/svg" viewBox="0 0 113 220"><path d="M6.61,9.27s-1.84,36.43-1.95,52.11,.65,108.11,.65,110.7c0,0,14.05,.65,17.84,1.19s16.86,.76,21.19-1.41c0,0,.32-61.51,.11-64.22,0,0,12.54,30.59,13.95,33.08s14.38,31.78,14.38,31.78c0,0,14.92,.65,18.16,1.08s15.03,.22,16.86-1.41c0,0,.22-86.81,.22-93.19s.22-67.89,0-70.49c0,0-7.89-2.38-18.92-2.27s-19.89,1.73-19.89,1.73c0,0-.43,23.35-.32,31.24s.54,31.24,.54,31.24c0,0-11.14-24.97-13.73-31.57s-11.46-26.49-12.54-27.68S23.58,5.05,6.61,9.27Z"/></svg>