<?xml version="1.0" encoding="UTF-8"?><svg id="d" xmlns="http://www.w3.org/2000/svg" viewBox="0 0 119 220"><path d="M4.12,13.92c-.32,12.97,1.03,51.24,.05,73.62s.49,76.22-.49,83.03c0,0-2.92,2.59,23.84,2.59s23.35-1.3,23.35-1.3c0,0,1.78-53.84,2.11-56.43,0,0,8.76-1.78,17.51-1.95s12.11-1.51,12.86-2.27-.54-16,0-20.76,.32-17.19-.86-19.35c0,0-19.35,2.59-29.95,.54,0,0-3.03-14.59,0-19.24,0,0,28.97-1.73,35.35-1.95s26.16-1.51,26.49-1.51c0,0,.97-11.46,.65-18.05s-.86-16.65-.54-17.51c0,0-19.78-5.19-54.81-4.11S6.18,13.38,4.12,13.92Z"/></svg>