<?xml version="1.0" encoding="UTF-8"?><svg id="d" xmlns="http://www.w3.org/2000/svg" viewBox="0 0 113 220"><path d="M6.5,8.73s0,58.38-1.14,81.08-.16,76.7,.65,80.76c0,0,11.35,2.92,23.68,2.43s16.86-2.27,16.86-2.27c0,0-.81-49.14-.65-52.22,0,0,3.19,12.7,4.81,15.62s15.14,33.08,21.19,37.95c0,0,14.38,.54,20.11,.86s17.51-1.3,18.05-1.84c0,0-17.41-37.08-21.73-46.05s-17.95-36.54-17.95-36.54c0,0,14.49-28.86,17.95-33.41s21.62-38.27,21.73-45.08c0,0-10.49-1.19-17.84-1.08s-17.95-.11-19.78-.22c0,0-11.57,18.27-13.73,22.7s-11.89,23.35-14.05,25.3c0,0-.11-25.51,0-29.73s.11-17.51-.11-17.95c0,0-14.92,.22-19.46-.11s-18.59-.22-18.59-.22Z"/></svg>