<?xml version="1.0" encoding="UTF-8"?><svg id="d" xmlns="http://www.w3.org/2000/svg" viewBox="0 0 114 220"><path d="M3.78,56.08s18.32,1.86,27.16,1.46,7.78-.16,12.57-5.76,5.68-10.54,13.95-6.57,5.43,14.27,.57,21.08-15.16,20.19-17.59,25.62-8.35,19.86-7.22,35.84c0,0,.24,2.11,1.78,3.16,0,0,16.22,0,19.7,.16s12.97-.49,15.24-1.14c0,0-1.46-3.08,.32-8.43s3.65-19.46,12.73-30.32,20.68-19.7,23.35-38.03-8.59-36.24-30.73-44.27-45.24,.81-56.59,13.46S4.26,47.08,3.78,56.08Z"/><path d="M32.94,143.38s-.22,10.92-.43,14,.32,11.73,.92,14.27l33.24,.27s3.14-27.84,1.24-29.68c0,0-4.38-1.89-17.19-1.62s-17.78,2.76-17.78,2.76Z"/></svg>