<?xml version="1.0" encoding="UTF-8"?><svg id="d" xmlns="http://www.w3.org/2000/svg" viewBox="0 0 113 220"><path d="M4.82,10.84c-1.68,14.54-1.46,69.57-1.62,80.92s2.27,68.11,1.14,79.13c0,0,38.43,2.27,59.03,1.62s40.38-.97,42.32-.65c0,0,4.7-13.46,2.27-32.92,0,0-19.14,.32-30-.32s-26.76-1.3-30.49-1.14c0,0-1.95-18.81-.32-27.24,0,0,1.95-.97,6.49-.49s18.16-.16,21.41-2.11c0,0,1.84-26.38-.43-33.51,0,0-11.46-1.84-27.89,1.19,0,0-2.16-9.19-1.41-15.89s1.19-11.89,1.19-11.89c0,0,29.84-.11,36.43-.22s22.49-1.95,24.32-3.03c0,0,.97-17.84,1.19-21.62s-.76-11.14-1.08-12.54c0,0-30.59-1.84-49.62-.86s-46.81,1.73-52.92,1.57Z"/></svg>