<?xml version="1.0" encoding="UTF-8"?><svg id="d" xmlns="http://www.w3.org/2000/svg" viewBox="0 0 109 220"><path d="M103.74,112.35c-4.7-9.41-14.43-18.81-14.92-20.43-.49-1.62,11.03-12.65,12.65-35.35,1.62-22.7-8.59-39.89-31.14-47.51C47.8,1.43,14.34,6.78,2.61,10.68c0,0,.27,71.68-.05,86.27s.49,73.62,.49,73.62c0,0,35.03,3.41,51.57,3.08,16.54-.32,39.24-5.19,47.51-20.92,8.27-15.73,6.32-30.97,1.62-40.38Zm-40.27,19.73c-3.68,8.11-21.3,5.62-21.3,5.62-4-8.76-1.41-24.43,0-29.51,0,0,11.46-1.3,16.86,2.81,5.41,4.11,8.11,12.97,4.43,21.08Zm-2.49-62.59c-4.76,6.16-18.7,4.32-18.7,4.32,.22-3.78-.54-23.78-.97-29.3,2.81,.97,6.92,.86,11.78,1.19,4.86,.32,7.68,2.16,11.03,6.92,3.35,4.76,1.62,10.7-3.14,16.86Z"/></svg>