<?xml version="1.0" encoding="UTF-8"?><svg id="d" xmlns="http://www.w3.org/2000/svg" viewBox="0 0 117 220"><path d="M106.07,31.22c-6.16-16.11-14.92-20.76-22.92-24s-38.38-2.38-48.43,1.62c-10.05,4-23.78,7.35-27.14,31.03-3.35,23.68-2.7,62.05-2.7,62.05,.43,27.24,1.89,35.57,4.16,42.54,2.27,6.97,16.22,27.08,40.54,29.03,24.32,1.95,29.84-4.38,29.84-4.38,0,0,5.03,4.86,8.43,5.35,3.41,.49,11.51-2.35,17.27-7.86,5.76-5.51,3.49-8.11-1.62-13.46,0,0,5.35-11.27,6.65-16.38s3.05-32.78,3.27-48.46c.22-15.68-1.19-40.97-7.35-57.08Zm-29.16,89.57c-.41-.97-2.19-4.22-8.03-4.05-5.84,.16-5.51,2.27-11.92,6.73-6.41,4.46-7.22,4.54-6.41,8.59,.81,4.05,9.03,11.81,9.03,11.81-18.16-1.08-18.16-16.11-18.81-20.76-.65-4.65-.32-37.19-.32-37.19,0,0,1.51-33.89,3.38-38.51,1.86-4.62,9.24-6.65,21.24-4.7,12,1.95,11.43,22.86,12.08,34.05,.65,11.19-.24,44.03-.24,44.03Z"/></svg>