<?xml version="1.0" encoding="UTF-8"?><svg xmlns="http://www.w3.org/2000/svg" viewBox="0 0 632 1000"><path d="M584,713Q584,801,555.0,867.5Q526,934,467.0,971.0Q408,1008,317,1008Q227,1008,167.0,971.0Q107,934,77.5,867.0Q48,800,48,712Q48,625,77.5,559.0Q107,493,167.0,456.0Q227,419,317,419Q408,419,467.0,456.0Q526,493,555.0,559.5Q584,626,584,713ZM140,713Q140,813,182.5,873.0Q225,933,316,933Q408,933,450.0,873.0Q492,813,492,713Q492,609,448.0,551.5Q404,494,316,494Q225,494,182.5,553.5Q140,613,140,713Z"/></svg>