<?xml version="1.0" encoding="UTF-8"?><svg xmlns="http://www.w3.org/2000/svg" viewBox="0 0 632 1000"><path d="M584,713Q584,813,545.5,887.0Q507,961,422,990L558,1136H440L332,1008H317Q227,1008,167.0,971.0Q107,934,77.5,867.0Q48,800,48,712Q48,625,77.5,559.0Q107,493,167.0,456.0Q227,419,317,419Q408,419,467.0,456.0Q526,493,555.0,559.5Q584,626,584,713ZM142,713Q142,813,184.0,873.5Q226,934,317,934Q410,934,451.5,874.0Q493,814,493,713Q493,609,449.5,551.5Q406,494,318,494Q227,494,184.5,554.0Q142,614,142,713Z"/></svg>