<svg xmlns="http://www.w3.org/2000/svg" viewBox="0 -320 549 1362"><path d="M502,585Q502,680,433.0,733.0Q364,786,247,786Q187,786,136.0,777.0Q85,768,51,752V666Q87,682,140.5,695.0Q194,708,251,708Q331,708,371.5,677.0Q412,646,412,593Q412,558,397.0,534.0Q382,510,345.5,489.5Q309,469,244,446Q153,413,106.5,365.0Q60,317,60,234Q60,177,89.0,136.5Q118,96,169.5,74.0Q221,52,288,52Q347,52,396.0,63.0Q445,74,485,92L457,169Q420,153,376.5,142.0Q333,131,286,131Q219,131,185.0,159.5Q151,188,151,235Q151,271,166.0,295.0Q181,319,215.0,338.0Q249,357,307,379Q370,402,413.5,428.5Q457,455,479.5,492.0Q502,529,502,585Z"/></svg>
