<?xml version="1.0" encoding="UTF-8"?><svg xmlns="http://www.w3.org/2000/svg" viewBox="0 0 453 1000"><path d="M418,842Q418,916,363.0,962.0Q308,1008,210,1008Q155,1008,115.0,1001.0Q75,994,41,980V900Q118,936,210,936Q263,936,296.0,913.5Q329,891,329,849Q329,806,295.5,784.5Q262,763,197,740Q125,714,86.0,679.0Q47,644,47,575Q47,525,73.0,490.5Q99,456,143.5,438.0Q188,420,244,420Q291,420,332.5,430.0Q374,440,409,455L381,524Q345,508,309.5,499.5Q274,491,242,491Q193,491,163.5,512.0Q134,533,134,572Q134,601,149.0,619.0Q164,637,193.5,650.0Q223,663,264,679Q309,696,344.0,716.0Q379,736,398.5,765.5Q418,795,418,842Z"/></svg>