<svg viewBox="0 0 1024 1024"  xmlns="http://www.w3.org/2000/svg">
<defs>
<g x_x="x" id="alphabet64" fill="#222"><g x_x="x"><rect x="0" y="0" width="128" height="128" fill="#FFE33A"/>
<g x_x="x" transform="translate(31 12) scale(0.128)"><path d="M22 50 c-8 68 -7 324 -8 377 s11 317 5 368 c0 0 179 11 275 8 s188 -5 197 -3 c0 0 22 -63 11 -153 0 0 -89 1 -140 -1 s-125 -6 -142 -5 c0 0 -9 -88 -1 -127 0 0 9 -5 30 -2 s85 -1 100 -10 c0 0 9 -123 -2 -156 0 0 -53 -9 -130 6 0 0 -10 -43 -7 -74 s6 -55 6 -55 c0 0 139 -1 170 -1 s105 -9 113 -14 c0 0 5 -83 6 -101 s-4 -52 -5 -58 c0 0 -142 -9 -231 -4 s-218 8 -246 7 Z"/>
</g>
</g>
<g x_x="x"><rect x="128" y="0" width="128" height="128" fill="#7FAE2E"/>
<g x_x="x" transform="translate(175 12) scale(0.128)"><path d="M27 33 c-6 47 -12 291 -6 386 s5 351 -3 395 c0 0 37 -13 102 -6 s123 -7 125 -16 -11 -279 -5 -348 7 -389 6 -409 c0 0 -72 0 -105 -1 s-107 -4 -115 -3 Z"/>
</g>
</g>
<g x_x="x"><rect x="256" y="0" width="64" height="64" fill="#B1661A"/>
<g x_x="x" transform="translate(272 6) scale(0.064)"><path d="M422 379 c-11 -46 -78 -339 -80 -346 0 0 -67 6 -94 6 s-85 2 -90 3 c0 0 -70 266 -89 390 C50 556 4 781 7 797 c0 0 63 3 82 4 18 1 91 5 97 1 s23 -47 33 -97 c10 -50 14 -77 17 -82 0 0 36 -2 41 0 0 0 23 68 25 83 s23 88 23 89 c1 1 69 13 100 13 s74 -6 78 -8 c0 0 -70 -376 -80 -422 Zm-189 106 c1 -11 14 -97 15 -119 1 -22 3 -71 6 -107 0 0 9 92 11 107 2 15 12 119 12 119 -6 -1 -45 0 -45 0 Z"/>
</g>
</g>
<g x_x="x"><rect x="320" y="0" width="64" height="64" fill="#DB3F14"/>
<g x_x="x" transform="translate(335 6) scale(0.064)"><path d="M26 59 s-2 317 -3 377 -1 359 4 367 c0 0 63 3 88 3 s88 -4 98 -8 c0 0 -8 -160 -8 -191 s-2 -138 -1 -143 c0 0 31 78 56 77 s44 -52 59 -78 c0 0 6 177 6 202 s3 129 3 138 c0 0 76 -2 95 -2 s70 2 78 6 c0 0 4 -255 3 -297 s1 -311 1 -339 0 -124 1 -128 c0 0 -81 2 -100 3 s-76 3 -85 -2 c0 0 -57 137 -56 147 0 0 -45 -127 -65 -142 0 0 -61 2 -84 0 s-75 3 -89 9 Z"/>
</g>
</g>
<g x_x="x"><rect x="384" y="0" width="64" height="64" fill="#F9BE02"/>
<g x_x="x" transform="translate(399 6) scale(0.064)"><path d="M450 104 c-51 -46 -119 -68 -207 -65 -88 3 -144 39 -158 46 -13 7 -48 70 -60 140 s-10 215 -10 215 c4 109 6 162 9 200 4 38 15 136 107 163 92 27 208 23 294 -36 s76 -234 79 -284 c3 -49 1 -157 4 -196 3 -39 -8 -137 -58 -183 Zm-112 421 c-2 73 3 101 -49 123 -51 23 -88 -7 -100 -27 -12 -20 -16 -122 -24 -158 0 0 -1 -14 1 -100 1 -86 35 -144 78 -158 43 -14 64 5 81 43 s15 204 13 277 Z"/>
</g>
</g>
<g x_x="x"><rect x="448" y="0" width="64" height="64" fill="#FFE33A"/>
<g x_x="x" transform="translate(463 6) scale(0.064)"><path d="M22 50 c-8 68 -7 324 -8 377 s11 317 5 368 c0 0 179 11 275 8 s188 -5 197 -3 c0 0 22 -63 11 -153 0 0 -89 1 -140 -1 s-125 -6 -142 -5 c0 0 -9 -88 -1 -127 0 0 9 -5 30 -2 s85 -1 100 -10 c0 0 9 -123 -2 -156 0 0 -53 -9 -130 6 0 0 -10 -43 -7 -74 s6 -55 6 -55 c0 0 139 -1 170 -1 s105 -9 113 -14 c0 0 5 -83 6 -101 s-4 -52 -5 -58 c0 0 -142 -9 -231 -4 s-218 8 -246 7 Z"/>
</g>
</g>
<g x_x="x"><rect x="512" y="0" width="256" height="256" fill="#7FAE2E"/>
<g x_x="x" transform="translate(573 25) scale(0.256)"><path d="M20 36 s-2 158 7 178 c0 0 21 7 65 6 s54 -1 63 5 c0 0 10 228 8 257 s1 195 -1 241 1 81 5 86 c0 0 85 -9 107 -7 s90 -4 96 -6 c0 0 -3 -321 -5 -356 s-2 -213 1 -218 113 -2 134 5 c0 0 8 -57 8 -79 s-1 -97 -2 -102 c0 0 -162 -11 -202 -11 s-285 2 -285 2 Z"/>
</g>
</g>
<g x_x="x"><rect x="768" y="0" width="64" height="64" fill="#B1661A"/>
<g x_x="x" transform="translate(783 6) scale(0.064)"><path d="M21 66 s26 245 38 321 47 250 53 272 33 132 35 135 51 15 90 13 94 -4 99 -4 c0 0 104 -394 111 -421 S518 69 517 57 c0 0 -15 1 -23 -1 s-66 -4 -91 -4 -63 -5 -72 -8 c0 0 -25 112 -29 146 s-49 286 -54 295 c0 0 -22 -152 -23 -183 s-18 -244 -18 -250 c0 0 -69 -12 -108 -7 s-66 8 -76 21 Z"/>
</g>
</g>
<g x_x="x"><rect x="832" y="0" width="64" height="64" fill="#DB3F14"/>
<g x_x="x" transform="translate(848 6) scale(0.064)"><path d="M422 379 c-11 -46 -78 -339 -80 -346 0 0 -67 6 -94 6 s-85 2 -90 3 c0 0 -70 266 -89 390 C50 556 4 781 7 797 c0 0 63 3 82 4 18 1 91 5 97 1 s23 -47 33 -97 c10 -50 14 -77 17 -82 0 0 36 -2 41 0 0 0 23 68 25 83 s23 88 23 89 c1 1 69 13 100 13 s74 -6 78 -8 c0 0 -70 -376 -80 -422 Zm-189 106 c1 -11 14 -97 15 -119 1 -22 3 -71 6 -107 0 0 9 92 11 107 2 15 12 119 12 119 -6 -1 -45 0 -45 0 Z"/>
</g>
</g>
<g x_x="x"><rect x="896" y="0" width="64" height="64" fill="#F9BE02"/>
<g x_x="x" transform="translate(911 6) scale(0.064)"><path d="M17 486 c-3 30 -2 211 75 280 s239 55 319 1 89 -128 94 -258 -1 -300 0 -360 -1 -122 -1 -122 c0 0 -63 0 -97 1 s-93 1 -93 1 c0 0 -4 247 -4 277 s4 181 4 212 -1 96 -42 98 -56 -82 -56 -127 c0 0 -55 -11 -103 -11 s-95 9 -95 9 Z"/>
</g>
</g>
<g x_x="x"><rect x="960" y="0" width="64" height="64" fill="#FFE33A"/>
<g x_x="x" transform="translate(973 6) scale(0.064)"><path d="M515 703 c-35 -60 -145 -221 -146 -229 0 0 112 -2 158 -127 47 -125 -3 -187 -69 -254 C392 25 280 20 221 21 162 23 21 40 7 43 c0 0 12 132 11 274 s4 374 5 421 c1 46 5 62 8 64 s83 1 101 2 c19 1 91 -5 103 -18 0 0 -11 -209 -8 -224 0 0 83 129 124 238 0 0 73 7 115 3 41 -4 89 -5 96 -3 0 0 -11 -37 -46 -98 Zm-217 -380 c-10 4 -91 8 -95 1 -4 -6 -7 -125 -7 -125 0 0 44 -10 64 -7 s61 1 65 56 c4 55 -18 70 -28 74 Z"/>
</g>
</g>
<g x_x="x"><rect x="256" y="64" width="64" height="64" fill="#7FAE2E"/>
<g x_x="x" transform="translate(271 70) scale(0.064)"><path d="M31 43 s-9 170 -9 243 3 503 3 515 c0 0 65 3 83 6 s78 4 99 -7 c0 0 1 -286 1 -299 0 0 58 142 65 154 s67 148 67 148 c0 0 69 3 85 5 s70 1 78 -7 c0 0 1 -404 1 -434 s1 -316 0 -328 c0 0 -37 -11 -88 -11 s-93 8 -93 8 c0 0 -2 109 -1 145 s3 145 3 145 c0 0 -52 -116 -64 -147 s-53 -123 -58 -129 S110 24 31 43 Z"/>
</g>
</g>
<g x_x="x"><rect x="320" y="64" width="64" height="64" fill="#B1661A"/>
<g x_x="x" transform="translate(335 70) scale(0.064)"><path d="M26 59 s-2 317 -3 377 -1 359 4 367 c0 0 63 3 88 3 s88 -4 98 -8 c0 0 -8 -160 -8 -191 s-2 -138 -1 -143 c0 0 31 78 56 77 s44 -52 59 -78 c0 0 6 177 6 202 s3 129 3 138 c0 0 76 -2 95 -2 s70 2 78 6 c0 0 4 -255 3 -297 s1 -311 1 -339 0 -124 1 -128 c0 0 -81 2 -100 3 s-76 3 -85 -2 c0 0 -57 137 -56 147 0 0 -45 -127 -65 -142 0 0 -61 2 -84 0 s-75 3 -89 9 Z"/>
</g>
</g>
<g x_x="x"><rect x="384" y="64" width="64" height="64" fill="#DB3F14"/>
<g x_x="x" transform="translate(398 70) scale(0.064)"><path d="M32 427 c5 175 18 270 52 310 s85 106 252 76 179 -109 187 -183 3 -190 -5 -216 c0 0 -129 -8 -156 -8 s-94 11 -103 12 c0 0 5 49 2 66 s1 54 1 54 c0 0 26 9 57 8 l31 -1 s-4 82 -26 89 -69 28 -91 -5 -25 -141 -25 -242 20 -168 29 -177 30 -13 45 -10 18 -1 27 9 29 34 39 79 c0 0 53 6 103 5 s55 0 66 -1 c0 0 12 -102 -21 -151 S409 35 266 38 69 113 50 179 s-20 194 -18 249 Z"/>
</g>
</g>
<g x_x="x"><rect x="448" y="64" width="64" height="64" fill="#F9BE02"/>
<g x_x="x" transform="translate(464 70) scale(0.064)"><path d="M483 523 c-22 -44 -67 -88 -69 -95 -2 -8 51 -59 59 -165 8 -106 -40 -186 -145 -221 C222 7 67 32 12 50 c0 0 1 334 0 402 s2 343 2 343 c0 0 163 16 240 14 77 -1 183 -24 221 -97 38 -73 29 -144 8 -188 Zm-187 92 c-17 38 -99 26 -99 26 -19 -41 -7 -114 0 -137 0 0 53 -6 78 13 25 19 38 60 21 98 Zm-12 -291 c-22 29 -87 20 -87 20 1 -18 -3 -111 -5 -136 13 5 32 4 55 6 23 1 36 10 51 32 16 22 8 50 -15 78 Z"/>
</g>
</g>
<g x_x="x"><rect x="768" y="64" width="64" height="64" fill="#FFE33A"/>
<g x_x="x" transform="translate(783 70) scale(0.064)"><path d="M22 50 c-8 68 -7 324 -8 377 s11 317 5 368 c0 0 179 11 275 8 s188 -5 197 -3 c0 0 22 -63 11 -153 0 0 -89 1 -140 -1 s-125 -6 -142 -5 c0 0 -9 -88 -1 -127 0 0 9 -5 30 -2 s85 -1 100 -10 c0 0 9 -123 -2 -156 0 0 -53 -9 -130 6 0 0 -10 -43 -7 -74 s6 -55 6 -55 c0 0 139 -1 170 -1 s105 -9 113 -14 c0 0 5 -83 6 -101 s-4 -52 -5 -58 c0 0 -142 -9 -231 -4 s-218 8 -246 7 Z"/>
</g>
</g>
<g x_x="x"><rect x="832" y="64" width="64" height="64" fill="#7FAE2E"/>
<g x_x="x" transform="translate(855 70) scale(0.064)"><path d="M27 33 c-6 47 -12 291 -6 386 s5 351 -3 395 c0 0 37 -13 102 -6 s123 -7 125 -16 -11 -279 -5 -348 7 -389 6 -409 c0 0 -72 0 -105 -1 s-107 -4 -115 -3 Z"/>
</g>
</g>
<g x_x="x"><rect x="896" y="64" width="64" height="64" fill="#B1661A"/>
<g x_x="x" transform="translate(912 70) scale(0.064)"><path d="M422 379 c-11 -46 -78 -339 -80 -346 0 0 -67 6 -94 6 s-85 2 -90 3 c0 0 -70 266 -89 390 C50 556 4 781 7 797 c0 0 63 3 82 4 18 1 91 5 97 1 s23 -47 33 -97 c10 -50 14 -77 17 -82 0 0 36 -2 41 0 0 0 23 68 25 83 s23 88 23 89 c1 1 69 13 100 13 s74 -6 78 -8 c0 0 -70 -376 -80 -422 Zm-189 106 c1 -11 14 -97 15 -119 1 -22 3 -71 6 -107 0 0 9 92 11 107 2 15 12 119 12 119 -6 -1 -45 0 -45 0 Z"/>
</g>
</g>
<g x_x="x"><rect x="960" y="64" width="64" height="64" fill="#DB3F14"/>
<g x_x="x" transform="translate(974 70) scale(0.064)"><path d="M32 427 c5 175 18 270 52 310 s85 106 252 76 179 -109 187 -183 3 -190 -5 -216 c0 0 -129 -8 -156 -8 s-94 11 -103 12 c0 0 5 49 2 66 s1 54 1 54 c0 0 26 9 57 8 l31 -1 s-4 82 -26 89 -69 28 -91 -5 -25 -141 -25 -242 20 -168 29 -177 30 -13 45 -10 18 -1 27 9 29 34 39 79 c0 0 53 6 103 5 s55 0 66 -1 c0 0 12 -102 -21 -151 S409 35 266 38 69 113 50 179 s-20 194 -18 249 Z"/>
</g>
</g>
<g x_x="x"><rect x="0" y="128" width="128" height="128" fill="#F9BE02"/>
<g x_x="x" transform="translate(31 140) scale(0.128)"><path d="M22 50 c-8 68 -7 324 -8 377 s11 317 5 368 c0 0 179 11 275 8 s188 -5 197 -3 c0 0 22 -63 11 -153 0 0 -89 1 -140 -1 s-125 -6 -142 -5 c0 0 -9 -88 -1 -127 0 0 9 -5 30 -2 s85 -1 100 -10 c0 0 9 -123 -2 -156 0 0 -53 -9 -130 6 0 0 -10 -43 -7 -74 s6 -55 6 -55 c0 0 139 -1 170 -1 s105 -9 113 -14 c0 0 5 -83 6 -101 s-4 -52 -5 -58 c0 0 -142 -9 -231 -4 s-218 8 -246 7 Z"/>
</g>
</g>
<g x_x="x"><rect x="128" y="128" width="64" height="64" fill="#FFE33A"/>
<g x_x="x" transform="translate(151 134) scale(0.064)"><path d="M27 33 c-6 47 -12 291 -6 386 s5 351 -3 395 c0 0 37 -13 102 -6 s123 -7 125 -16 -11 -279 -5 -348 7 -389 6 -409 c0 0 -72 0 -105 -1 s-107 -4 -115 -3 Z"/>
</g>
</g>
<g x_x="x"><rect x="192" y="128" width="64" height="64" fill="#7FAE2E"/>
<g x_x="x" transform="translate(207 134) scale(0.064)"><path d="M23 39 s6 342 5 379 -6 376 -7 386 c0 0 202 3 254 2 s183 -3 203 -2 30 -11 29 -32 -2 -79 -2 -90 4 -45 1 -54 c0 0 -83 2 -115 -1 s-153 -8 -163 -7 c0 0 1 -303 -3 -348 s1 -222 2 -230 c0 0 -45 -17 -101 -17 S23 39 23 39 Z"/>
</g>
</g>
<g x_x="x"><rect x="256" y="128" width="128" height="128" fill="#B1661A"/>
<g x_x="x" transform="translate(287 140) scale(0.128)"><path d="M485 228 c-43 -102 -61 -117 -92 -144 -31 -27 -73 -44 -87 -46 -14 -1 -63 4 -102 0 -39 -4 -137 3 -180 15 0 0 5 211 2 300 -2 90 2 379 19 448 0 0 296 -3 309 -3 0 0 141 -172 148 -267 s25 -202 -18 -303 ZM279 557 c-31 16 -67 1 -67 1 0 -3 -1 -114 3 -150 3 -36 -2 -91 -1 -126 0 0 28 -9 63 -1 s52 68 61 130 c9 61 -27 131 -58 146 Z"/>
</g>
</g>
<g x_x="x"><rect x="384" y="128" width="128" height="128" fill="#DB3F14"/>
<g x_x="x" transform="translate(415 140) scale(0.128)"><path d="M18 392 c3 162 16 384 19 408 0 0 39 -4 61 1 s98 5 111 -11 3 -220 4 -234 4 -51 4 -51 c0 0 39 -9 90 -1 0 0 14 123 12 191 s8 110 8 110 c0 0 73 -3 91 -2 s71 -4 93 -7 c0 0 -13 -344 -15 -379 s-15 -371 -15 -382 c0 0 -110 -9 -180 15 0 0 9 195 -4 278 0 0 -24 4 -39 5 s-45 -4 -45 -4 c0 0 -19 -114 -17 -156 s-8 -125 -8 -125 c0 0 -23 -10 -76 -8 s-97 2 -97 2 c0 0 1 302 3 349 Z"/>
</g>
</g>
<g x_x="x"><rect x="768" y="128" width="64" height="64" fill="#F9BE02"/>
<g x_x="x" transform="translate(783 134) scale(0.064)"><path d="M31 43 s-9 170 -9 243 3 503 3 515 c0 0 65 3 83 6 s78 4 99 -7 c0 0 1 -286 1 -299 0 0 58 142 65 154 s67 148 67 148 c0 0 69 3 85 5 s70 1 78 -7 c0 0 1 -404 1 -434 s1 -316 0 -328 c0 0 -37 -11 -88 -11 s-93 8 -93 8 c0 0 -2 109 -1 145 s3 145 3 145 c0 0 -52 -116 -64 -147 s-53 -123 -58 -129 S110 24 31 43 Z"/>
</g>
</g>
<g x_x="x"><rect x="832" y="128" width="64" height="64" fill="#FFE33A"/>
<g x_x="x" transform="translate(846 134) scale(0.064)"><path d="M32 427 c5 175 18 270 52 310 s85 106 252 76 179 -109 187 -183 3 -190 -5 -216 c0 0 -129 -8 -156 -8 s-94 11 -103 12 c0 0 5 49 2 66 s1 54 1 54 c0 0 26 9 57 8 l31 -1 s-4 82 -26 89 -69 28 -91 -5 -25 -141 -25 -242 20 -168 29 -177 30 -13 45 -10 18 -1 27 9 29 34 39 79 c0 0 53 6 103 5 s55 0 66 -1 c0 0 12 -102 -21 -151 S409 35 266 38 69 113 50 179 s-20 194 -18 249 Z"/>
</g>
</g>
<g x_x="x"><rect x="896" y="128" width="64" height="64" fill="#7FAE2E"/>
<g x_x="x" transform="translate(911 134) scale(0.064)"><path d="M20 36 s-2 158 7 178 c0 0 21 7 65 6 s54 -1 63 5 c0 0 10 228 8 257 s1 195 -1 241 1 81 5 86 c0 0 85 -9 107 -7 s90 -4 96 -6 c0 0 -3 -321 -5 -356 s-2 -213 1 -218 113 -2 134 5 c0 0 8 -57 8 -79 s-1 -97 -2 -102 c0 0 -162 -11 -202 -11 s-285 2 -285 2 Z"/>
</g>
</g>
<g x_x="x"><rect x="960" y="128" width="64" height="64" fill="#B1661A"/>
<g x_x="x" transform="translate(975 134) scale(0.064)"><path d="M31 43 s-9 170 -9 243 3 503 3 515 c0 0 65 3 83 6 s78 4 99 -7 c0 0 1 -286 1 -299 0 0 58 142 65 154 s67 148 67 148 c0 0 69 3 85 5 s70 1 78 -7 c0 0 1 -404 1 -434 s1 -316 0 -328 c0 0 -37 -11 -88 -11 s-93 8 -93 8 c0 0 -2 109 -1 145 s3 145 3 145 c0 0 -52 -116 -64 -147 s-53 -123 -58 -129 S110 24 31 43 Z"/>
</g>
</g>
<g x_x="x"><rect x="128" y="192" width="64" height="64" fill="#DB3F14"/>
<g x_x="x" transform="translate(143 198) scale(0.064)"><path d="M450 104 c-51 -46 -119 -68 -207 -65 -88 3 -144 39 -158 46 -13 7 -48 70 -60 140 s-10 215 -10 215 c4 109 6 162 9 200 4 38 15 136 107 163 92 27 208 23 294 -36 s76 -234 79 -284 c3 -49 1 -157 4 -196 3 -39 -8 -137 -58 -183 Zm-112 421 c-2 73 3 101 -49 123 -51 23 -88 -7 -100 -27 -12 -20 -16 -122 -24 -158 0 0 -1 -14 1 -100 1 -86 35 -144 78 -158 43 -14 64 5 81 43 s15 204 13 277 Z"/>
</g>
</g>
<g x_x="x"><rect x="192" y="192" width="64" height="64" fill="#F9BE02"/>
<g x_x="x" transform="translate(207 198) scale(0.064)"><path d="M22 50 c-8 68 -7 324 -8 377 s11 317 5 368 c0 0 179 11 275 8 s188 -5 197 -3 c0 0 22 -63 11 -153 0 0 -89 1 -140 -1 s-125 -6 -142 -5 c0 0 -9 -88 -1 -127 0 0 9 -5 30 -2 s85 -1 100 -10 c0 0 9 -123 -2 -156 0 0 -53 -9 -130 6 0 0 -10 -43 -7 -74 s6 -55 6 -55 c0 0 139 -1 170 -1 s105 -9 113 -14 c0 0 5 -83 6 -101 s-4 -52 -5 -58 c0 0 -142 -9 -231 -4 s-218 8 -246 7 Z"/>
</g>
</g>
<g x_x="x"><rect x="768" y="192" width="64" height="64" fill="#FFE33A"/>
<g x_x="x" transform="translate(783 198) scale(0.064)"><path d="M22 50 c-8 68 -7 324 -8 377 s11 317 5 368 c0 0 179 11 275 8 s188 -5 197 -3 c0 0 22 -63 11 -153 0 0 -89 1 -140 -1 s-125 -6 -142 -5 c0 0 -9 -88 -1 -127 0 0 9 -5 30 -2 s85 -1 100 -10 c0 0 9 -123 -2 -156 0 0 -53 -9 -130 6 0 0 -10 -43 -7 -74 s6 -55 6 -55 c0 0 139 -1 170 -1 s105 -9 113 -14 c0 0 5 -83 6 -101 s-4 -52 -5 -58 c0 0 -142 -9 -231 -4 s-218 8 -246 7 Z"/>
</g>
</g>
<g x_x="x"><rect x="832" y="192" width="64" height="64" fill="#7FAE2E"/>
<g x_x="x" transform="translate(847 198) scale(0.064)"><path d="M11 561 c1 99 -17 232 190 255 s283 -107 305 -184 -6 -137 -6 -137 c0 0 -57 -11 -88 -8 s-75 -1 -85 -5 c0 0 -8 60 -7 84 s-26 70 -61 63 -56 -77 -56 -135 1 -220 5 -247 9 -42 52 -43 50 50 53 137 c0 0 42 14 100 17 s73 -11 88 -9 c0 0 35 -67 0 -167 S345 9 245 11 99 39 66 75 10 186 11 214 s0 347 0 347 Z"/>
</g>
</g>
<g x_x="x"><rect x="896" y="192" width="64" height="64" fill="#B1661A"/>
<g x_x="x" transform="translate(911 198) scale(0.064)"><path d="M23 39 s6 342 5 379 -6 376 -7 386 c0 0 202 3 254 2 s183 -3 203 -2 30 -11 29 -32 -2 -79 -2 -90 4 -45 1 -54 c0 0 -83 2 -115 -1 s-153 -8 -163 -7 c0 0 1 -303 -3 -348 s1 -222 2 -230 c0 0 -45 -17 -101 -17 S23 39 23 39 Z"/>
</g>
</g>
<g x_x="x"><rect x="960" y="192" width="64" height="64" fill="#DB3F14"/>
<g x_x="x" transform="translate(975 198) scale(0.064)"><path d="M9 53 s64 147 79 199 47 148 46 173 -50 170 -56 190 -51 165 -55 173 c0 0 40 16 96 14 s80 -3 80 -3 c0 0 30 -81 37 -104 s31 -106 31 -106 c0 0 28 106 32 122 s19 72 25 81 c0 0 48 14 93 9 s82 1 87 2 c0 0 -27 -97 -40 -146 s-59 -198 -62 -227 c0 0 52 -174 65 -215 s52 -175 52 -175 c0 0 -77 1 -94 1 s-95 3 -103 4 c0 0 -54 201 -59 208 0 0 -29 -91 -32 -109 s-24 -96 -24 -96 c0 0 -138 -1 -197 5 Z"/>
</g>
</g>
<g x_x="x"><rect x="0" y="256" width="128" height="128" fill="#F9BE02"/>
<g x_x="x" transform="translate(31 268) scale(0.128)"><path d="M22 50 c-8 68 -7 324 -8 377 s11 317 5 368 c0 0 179 11 275 8 s188 -5 197 -3 c0 0 22 -63 11 -153 0 0 -89 1 -140 -1 s-125 -6 -142 -5 c0 0 -9 -88 -1 -127 0 0 9 -5 30 -2 s85 -1 100 -10 c0 0 9 -123 -2 -156 0 0 -53 -9 -130 6 0 0 -10 -43 -7 -74 s6 -55 6 -55 c0 0 139 -1 170 -1 s105 -9 113 -14 c0 0 5 -83 6 -101 s-4 -52 -5 -58 c0 0 -142 -9 -231 -4 s-218 8 -246 7 Z"/>
</g>
</g>
<g x_x="x"><rect x="128" y="256" width="64" height="64" fill="#FFE33A"/>
<g x_x="x" transform="translate(143 262) scale(0.064)"><path d="M22 50 c-8 68 -7 324 -8 377 s11 317 5 368 c0 0 179 11 275 8 s188 -5 197 -3 c0 0 22 -63 11 -153 0 0 -89 1 -140 -1 s-125 -6 -142 -5 c0 0 -9 -88 -1 -127 0 0 9 -5 30 -2 s85 -1 100 -10 c0 0 9 -123 -2 -156 0 0 -53 -9 -130 6 0 0 -10 -43 -7 -74 s6 -55 6 -55 c0 0 139 -1 170 -1 s105 -9 113 -14 c0 0 5 -83 6 -101 s-4 -52 -5 -58 c0 0 -142 -9 -231 -4 s-218 8 -246 7 Z"/>
</g>
</g>
<g x_x="x"><rect x="192" y="256" width="64" height="64" fill="#7FAE2E"/>
<g x_x="x" transform="translate(207 262) scale(0.064)"><path d="M20 36 s-2 158 7 178 c0 0 21 7 65 6 s54 -1 63 5 c0 0 10 228 8 257 s1 195 -1 241 1 81 5 86 c0 0 85 -9 107 -7 s90 -4 96 -6 c0 0 -3 -321 -5 -356 s-2 -213 1 -218 113 -2 134 5 c0 0 8 -57 8 -79 s-1 -97 -2 -102 c0 0 -162 -11 -202 -11 s-285 2 -285 2 Z"/>
</g>
</g>
<g x_x="x"><rect x="256" y="256" width="64" height="64" fill="#B1661A"/>
<g x_x="x" transform="translate(271 262) scale(0.064)"><path d="M31 43 s-9 170 -9 243 3 503 3 515 c0 0 65 3 83 6 s78 4 99 -7 c0 0 1 -286 1 -299 0 0 58 142 65 154 s67 148 67 148 c0 0 69 3 85 5 s70 1 78 -7 c0 0 1 -404 1 -434 s1 -316 0 -328 c0 0 -37 -11 -88 -11 s-93 8 -93 8 c0 0 -2 109 -1 145 s3 145 3 145 c0 0 -52 -116 -64 -147 s-53 -123 -58 -129 S110 24 31 43 Z"/>
</g>
</g>
<g x_x="x"><rect x="320" y="256" width="64" height="64" fill="#DB3F14"/>
<g x_x="x" transform="translate(335 262) scale(0.064)"><path d="M9 53 s64 147 79 199 47 148 46 173 -50 170 -56 190 -51 165 -55 173 c0 0 40 16 96 14 s80 -3 80 -3 c0 0 30 -81 37 -104 s31 -106 31 -106 c0 0 28 106 32 122 s19 72 25 81 c0 0 48 14 93 9 s82 1 87 2 c0 0 -27 -97 -40 -146 s-59 -198 -62 -227 c0 0 52 -174 65 -215 s52 -175 52 -175 c0 0 -77 1 -94 1 s-95 3 -103 4 c0 0 -54 201 -59 208 0 0 -29 -91 -32 -109 s-24 -96 -24 -96 c0 0 -138 -1 -197 5 Z"/>
</g>
</g>
<g x_x="x"><rect x="384" y="256" width="128" height="128" fill="#F9BE02"/>
<g x_x="x" transform="translate(415 268) scale(0.128)"><path d="M22 50 c-8 68 -7 324 -8 377 s11 317 5 368 c0 0 179 11 275 8 s188 -5 197 -3 c0 0 22 -63 11 -153 0 0 -89 1 -140 -1 s-125 -6 -142 -5 c0 0 -9 -88 -1 -127 0 0 9 -5 30 -2 s85 -1 100 -10 c0 0 9 -123 -2 -156 0 0 -53 -9 -130 6 0 0 -10 -43 -7 -74 s6 -55 6 -55 c0 0 139 -1 170 -1 s105 -9 113 -14 c0 0 5 -83 6 -101 s-4 -52 -5 -58 c0 0 -142 -9 -231 -4 s-218 8 -246 7 Z"/>
</g>
</g>
<g x_x="x"><rect x="512" y="256" width="128" height="128" fill="#FFE33A"/>
<g x_x="x" transform="translate(541 268) scale(0.128)"><path d="M19 65 c-1 60 5 238 0 343 s2 355 -2 386 c0 0 -14 12 111 12 s109 -6 109 -6 c0 0 8 -251 10 -263 0 0 41 -8 82 -9 s56 -7 60 -11 -3 -74 0 -97 1 -80 -4 -90 c0 0 -90 12 -139 3 0 0 -14 -68 0 -90 0 0 135 -8 165 -9 s122 -7 123 -7 c0 0 5 -53 3 -84 s-4 -77 -3 -82 c0 0 -92 -24 -255 -19 S29 62 19 65 Z"/>
</g>
</g>
<g x_x="x"><rect x="640" y="256" width="128" height="128" fill="#7FAE2E"/>
<g x_x="x" transform="translate(669 268) scale(0.128)"><path d="M494 145 c-29 -75 -69 -97 -107 -112 s-179 -11 -225 8 c-47 19 -111 34 -126 144 -16 110 -13 289 -13 289 2 127 9 166 19 198 11 32 75 126 189 135 113 9 139 -20 139 -20 0 0 23 23 39 25 16 2 54 -11 80 -37 27 -26 16 -38 -8 -63 0 0 25 -52 31 -76 s14 -153 15 -226 c1 -73 -6 -191 -34 -266 Zm-136 417 c-2 -5 -10 -20 -37 -19 -27 1 -26 11 -55 31 -30 21 -34 21 -30 40 4 19 42 55 42 55 -85 -5 -85 -75 -88 -97 -3 -22 -1 -173 -1 -173 0 0 7 -158 16 -179 9 -22 43 -31 99 -22 56 9 53 106 56 158 3 52 -1 205 -1 205 Z"/>
</g>
</g>
<g x_x="x"><rect x="768" y="256" width="256" height="256" fill="#B1661A"/>
<g x_x="x" transform="translate(830 281) scale(0.256)"><path d="M450 104 c-51 -46 -119 -68 -207 -65 -88 3 -144 39 -158 46 -13 7 -48 70 -60 140 s-10 215 -10 215 c4 109 6 162 9 200 4 38 15 136 107 163 92 27 208 23 294 -36 s76 -234 79 -284 c3 -49 1 -157 4 -196 3 -39 -8 -137 -58 -183 Zm-112 421 c-2 73 3 101 -49 123 -51 23 -88 -7 -100 -27 -12 -20 -16 -122 -24 -158 0 0 -1 -14 1 -100 1 -86 35 -144 78 -158 43 -14 64 5 81 43 s15 204 13 277 Z"/>
</g>
</g>
<g x_x="x"><rect x="128" y="320" width="64" height="64" fill="#DB3F14"/>
<g x_x="x" transform="translate(143 326) scale(0.064)"><path d="M9 53 s64 147 79 199 47 148 46 173 -50 170 -56 190 -51 165 -55 173 c0 0 40 16 96 14 s80 -3 80 -3 c0 0 30 -81 37 -104 s31 -106 31 -106 c0 0 28 106 32 122 s19 72 25 81 c0 0 48 14 93 9 s82 1 87 2 c0 0 -27 -97 -40 -146 s-59 -198 -62 -227 c0 0 52 -174 65 -215 s52 -175 52 -175 c0 0 -77 1 -94 1 s-95 3 -103 4 c0 0 -54 201 -59 208 0 0 -29 -91 -32 -109 s-24 -96 -24 -96 c0 0 -138 -1 -197 5 Z"/>
</g>
</g>
<g x_x="x"><rect x="192" y="320" width="64" height="64" fill="#F9BE02"/>
<g x_x="x" transform="translate(207 326) scale(0.064)"><path d="M18 392 c3 162 16 384 19 408 0 0 39 -4 61 1 s98 5 111 -11 3 -220 4 -234 4 -51 4 -51 c0 0 39 -9 90 -1 0 0 14 123 12 191 s8 110 8 110 c0 0 73 -3 91 -2 s71 -4 93 -7 c0 0 -13 -344 -15 -379 s-15 -371 -15 -382 c0 0 -110 -9 -180 15 0 0 9 195 -4 278 0 0 -24 4 -39 5 s-45 -4 -45 -4 c0 0 -19 -114 -17 -156 s-8 -125 -8 -125 c0 0 -23 -10 -76 -8 s-97 2 -97 2 c0 0 1 302 3 349 Z"/>
</g>
</g>
<g x_x="x"><rect x="256" y="320" width="64" height="64" fill="#FFE33A"/>
<g x_x="x" transform="translate(279 326) scale(0.064)"><path d="M27 33 c-6 47 -12 291 -6 386 s5 351 -3 395 c0 0 37 -13 102 -6 s123 -7 125 -16 -11 -279 -5 -348 7 -389 6 -409 c0 0 -72 0 -105 -1 s-107 -4 -115 -3 Z"/>
</g>
</g>
<g x_x="x"><rect x="320" y="320" width="64" height="64" fill="#7FAE2E"/>
<g x_x="x" transform="translate(335 326) scale(0.064)"><path d="M485 228 c-43 -102 -61 -117 -92 -144 -31 -27 -73 -44 -87 -46 -14 -1 -63 4 -102 0 -39 -4 -137 3 -180 15 0 0 5 211 2 300 -2 90 2 379 19 448 0 0 296 -3 309 -3 0 0 141 -172 148 -267 s25 -202 -18 -303 ZM279 557 c-31 16 -67 1 -67 1 0 -3 -1 -114 3 -150 3 -36 -2 -91 -1 -126 0 0 28 -9 63 -1 s52 68 61 130 c9 61 -27 131 -58 146 Z"/>
</g>
</g>
<g x_x="x"><rect x="0" y="384" width="128" height="128" fill="#B1661A"/>
<g x_x="x" transform="translate(29 396) scale(0.128)"><path d="M32 427 c5 175 18 270 52 310 s85 106 252 76 179 -109 187 -183 3 -190 -5 -216 c0 0 -129 -8 -156 -8 s-94 11 -103 12 c0 0 5 49 2 66 s1 54 1 54 c0 0 26 9 57 8 l31 -1 s-4 82 -26 89 -69 28 -91 -5 -25 -141 -25 -242 20 -168 29 -177 30 -13 45 -10 18 -1 27 9 29 34 39 79 c0 0 53 6 103 5 s55 0 66 -1 c0 0 12 -102 -21 -151 S409 35 266 38 69 113 50 179 s-20 194 -18 249 Z"/>
</g>
</g>
<g x_x="x"><rect x="128" y="384" width="128" height="128" fill="#DB3F14"/>
<g x_x="x" transform="translate(159 396) scale(0.128)"><path d="M22 50 c-8 68 -7 324 -8 377 s11 317 5 368 c0 0 179 11 275 8 s188 -5 197 -3 c0 0 22 -63 11 -153 0 0 -89 1 -140 -1 s-125 -6 -142 -5 c0 0 -9 -88 -1 -127 0 0 9 -5 30 -2 s85 -1 100 -10 c0 0 9 -123 -2 -156 0 0 -53 -9 -130 6 0 0 -10 -43 -7 -74 s6 -55 6 -55 c0 0 139 -1 170 -1 s105 -9 113 -14 c0 0 5 -83 6 -101 s-4 -52 -5 -58 c0 0 -142 -9 -231 -4 s-218 8 -246 7 Z"/>
</g>
</g>
<g x_x="x"><rect x="256" y="384" width="64" height="64" fill="#F9BE02"/>
<g x_x="x" transform="translate(271 390) scale(0.064)"><path d="M20 36 s-2 158 7 178 c0 0 21 7 65 6 s54 -1 63 5 c0 0 10 228 8 257 s1 195 -1 241 1 81 5 86 c0 0 85 -9 107 -7 s90 -4 96 -6 c0 0 -3 -321 -5 -356 s-2 -213 1 -218 113 -2 134 5 c0 0 8 -57 8 -79 s-1 -97 -2 -102 c0 0 -162 -11 -202 -11 s-285 2 -285 2 Z"/>
</g>
</g>
<g x_x="x"><rect x="320" y="384" width="64" height="64" fill="#FFE33A"/>
<g x_x="x" transform="translate(335 390) scale(0.064)"><path d="M450 104 c-51 -46 -119 -68 -207 -65 -88 3 -144 39 -158 46 -13 7 -48 70 -60 140 s-10 215 -10 215 c4 109 6 162 9 200 4 38 15 136 107 163 92 27 208 23 294 -36 s76 -234 79 -284 c3 -49 1 -157 4 -196 3 -39 -8 -137 -58 -183 Zm-112 421 c-2 73 3 101 -49 123 -51 23 -88 -7 -100 -27 -12 -20 -16 -122 -24 -158 0 0 -1 -14 1 -100 1 -86 35 -144 78 -158 43 -14 64 5 81 43 s15 204 13 277 Z"/>
</g>
</g>
<g x_x="x"><rect x="384" y="384" width="128" height="128" fill="#7FAE2E"/>
<g x_x="x" transform="translate(416 396) scale(0.128)"><path d="M483 523 c-22 -44 -67 -88 -69 -95 -2 -8 51 -59 59 -165 8 -106 -40 -186 -145 -221 C222 7 67 32 12 50 c0 0 1 334 0 402 s2 343 2 343 c0 0 163 16 240 14 77 -1 183 -24 221 -97 38 -73 29 -144 8 -188 Zm-187 92 c-17 38 -99 26 -99 26 -19 -41 -7 -114 0 -137 0 0 53 -6 78 13 25 19 38 60 21 98 Zm-12 -291 c-22 29 -87 20 -87 20 1 -18 -3 -111 -5 -136 13 5 32 4 55 6 23 1 36 10 51 32 16 22 8 50 -15 78 Z"/>
</g>
</g>
<g x_x="x"><rect x="512" y="384" width="64" height="64" fill="#B1661A"/>
<g x_x="x" transform="translate(527 390) scale(0.064)"><path d="M22 50 c-8 68 -7 324 -8 377 s11 317 5 368 c0 0 179 11 275 8 s188 -5 197 -3 c0 0 22 -63 11 -153 0 0 -89 1 -140 -1 s-125 -6 -142 -5 c0 0 -9 -88 -1 -127 0 0 9 -5 30 -2 s85 -1 100 -10 c0 0 9 -123 -2 -156 0 0 -53 -9 -130 6 0 0 -10 -43 -7 -74 s6 -55 6 -55 c0 0 139 -1 170 -1 s105 -9 113 -14 c0 0 5 -83 6 -101 s-4 -52 -5 -58 c0 0 -142 -9 -231 -4 s-218 8 -246 7 Z"/>
</g>
</g>
<g x_x="x"><rect x="576" y="384" width="64" height="64" fill="#DB3F14"/>
<g x_x="x" transform="translate(591 390) scale(0.064)"><path d="M18 392 c3 162 16 384 19 408 0 0 39 -4 61 1 s98 5 111 -11 3 -220 4 -234 4 -51 4 -51 c0 0 39 -9 90 -1 0 0 14 123 12 191 s8 110 8 110 c0 0 73 -3 91 -2 s71 -4 93 -7 c0 0 -13 -344 -15 -379 s-15 -371 -15 -382 c0 0 -110 -9 -180 15 0 0 9 195 -4 278 0 0 -24 4 -39 5 s-45 -4 -45 -4 c0 0 -19 -114 -17 -156 s-8 -125 -8 -125 c0 0 -23 -10 -76 -8 s-97 2 -97 2 c0 0 1 302 3 349 Z"/>
</g>
</g>
<g x_x="x"><rect x="640" y="384" width="64" height="64" fill="#F9BE02"/>
<g x_x="x" transform="translate(654 390) scale(0.064)"><path d="M19 65 c-1 60 5 238 0 343 s2 355 -2 386 c0 0 -14 12 111 12 s109 -6 109 -6 c0 0 8 -251 10 -263 0 0 41 -8 82 -9 s56 -7 60 -11 -3 -74 0 -97 1 -80 -4 -90 c0 0 -90 12 -139 3 0 0 -14 -68 0 -90 0 0 135 -8 165 -9 s122 -7 123 -7 c0 0 5 -53 3 -84 s-4 -77 -3 -82 c0 0 -92 -24 -255 -19 S29 62 19 65 Z"/>
</g>
</g>
<g x_x="x"><rect x="704" y="384" width="64" height="64" fill="#FFE33A"/>
<g x_x="x" transform="translate(719 390) scale(0.064)"><path d="M23 39 s6 342 5 379 -6 376 -7 386 c0 0 202 3 254 2 s183 -3 203 -2 30 -11 29 -32 -2 -79 -2 -90 4 -45 1 -54 c0 0 -83 2 -115 -1 s-153 -8 -163 -7 c0 0 1 -303 -3 -348 s1 -222 2 -230 c0 0 -45 -17 -101 -17 S23 39 23 39 Z"/>
</g>
</g>
<g x_x="x"><rect x="256" y="448" width="64" height="64" fill="#7FAE2E"/>
<g x_x="x" transform="translate(271 454) scale(0.064)"><path d="M22 46 s16 278 25 349 46 371 54 401 c0 0 67 14 122 -1 0 0 43 -133 46 -152 0 0 22 76 26 97 s22 57 27 61 c0 0 108 5 116 -5 0 0 39 -407 41 -424 s31 -319 31 -321 -6 -6 -9 -7 -110 -11 -174 5 c0 0 -15 340 -13 374 0 0 -14 -110 -53 -136 0 0 -20 29 -25 57 s-16 81 -16 81 c0 0 -10 -144 -8 -180 s-4 -197 -4 -203 c0 0 -77 -2 -89 -3 s-86 3 -98 7 Z"/>
</g>
</g>
<g x_x="x"><rect x="320" y="448" width="64" height="64" fill="#B1661A"/>
<g x_x="x" transform="translate(334 454) scale(0.064)"><path d="M494 145 c-29 -75 -69 -97 -107 -112 s-179 -11 -225 8 c-47 19 -111 34 -126 144 -16 110 -13 289 -13 289 2 127 9 166 19 198 11 32 75 126 189 135 113 9 139 -20 139 -20 0 0 23 23 39 25 16 2 54 -11 80 -37 27 -26 16 -38 -8 -63 0 0 25 -52 31 -76 s14 -153 15 -226 c1 -73 -6 -191 -34 -266 Zm-136 417 c-2 -5 -10 -20 -37 -19 -27 1 -26 11 -55 31 -30 21 -34 21 -30 40 4 19 42 55 42 55 -85 -5 -85 -75 -88 -97 -3 -22 -1 -173 -1 -173 0 0 7 -158 16 -179 9 -22 43 -31 99 -22 56 9 53 106 56 158 3 52 -1 205 -1 205 Z"/>
</g>
</g>
<g x_x="x"><rect x="512" y="448" width="64" height="64" fill="#DB3F14"/>
<g x_x="x" transform="translate(527 454) scale(0.064)"><path d="M20 36 s-2 158 7 178 c0 0 21 7 65 6 s54 -1 63 5 c0 0 10 228 8 257 s1 195 -1 241 1 81 5 86 c0 0 85 -9 107 -7 s90 -4 96 -6 c0 0 -3 -321 -5 -356 s-2 -213 1 -218 113 -2 134 5 c0 0 8 -57 8 -79 s-1 -97 -2 -102 c0 0 -162 -11 -202 -11 s-285 2 -285 2 Z"/>
</g>
</g>
<g x_x="x"><rect x="576" y="448" width="64" height="64" fill="#F9BE02"/>
<g x_x="x" transform="translate(591 454) scale(0.064)"><path d="M31 43 s-9 170 -9 243 3 503 3 515 c0 0 65 3 83 6 s78 4 99 -7 c0 0 1 -286 1 -299 0 0 58 142 65 154 s67 148 67 148 c0 0 69 3 85 5 s70 1 78 -7 c0 0 1 -404 1 -434 s1 -316 0 -328 c0 0 -37 -11 -88 -11 s-93 8 -93 8 c0 0 -2 109 -1 145 s3 145 3 145 c0 0 -52 -116 -64 -147 s-53 -123 -58 -129 S110 24 31 43 Z"/>
</g>
</g>
<g x_x="x"><rect x="640" y="448" width="64" height="64" fill="#FFE33A"/>
<g x_x="x" transform="translate(654 454) scale(0.064)"><path d="M494 145 c-29 -75 -69 -97 -107 -112 s-179 -11 -225 8 c-47 19 -111 34 -126 144 -16 110 -13 289 -13 289 2 127 9 166 19 198 11 32 75 126 189 135 113 9 139 -20 139 -20 0 0 23 23 39 25 16 2 54 -11 80 -37 27 -26 16 -38 -8 -63 0 0 25 -52 31 -76 s14 -153 15 -226 c1 -73 -6 -191 -34 -266 Zm-136 417 c-2 -5 -10 -20 -37 -19 -27 1 -26 11 -55 31 -30 21 -34 21 -30 40 4 19 42 55 42 55 -85 -5 -85 -75 -88 -97 -3 -22 -1 -173 -1 -173 0 0 7 -158 16 -179 9 -22 43 -31 99 -22 56 9 53 106 56 158 3 52 -1 205 -1 205 Z"/>
</g>
</g>
<g x_x="x"><rect x="704" y="448" width="64" height="64" fill="#7FAE2E"/>
<g x_x="x" transform="translate(717 454) scale(0.064)"><path d="M515 703 c-35 -60 -145 -221 -146 -229 0 0 112 -2 158 -127 47 -125 -3 -187 -69 -254 C392 25 280 20 221 21 162 23 21 40 7 43 c0 0 12 132 11 274 s4 374 5 421 c1 46 5 62 8 64 s83 1 101 2 c19 1 91 -5 103 -18 0 0 -11 -209 -8 -224 0 0 83 129 124 238 0 0 73 7 115 3 41 -4 89 -5 96 -3 0 0 -11 -37 -46 -98 Zm-217 -380 c-10 4 -91 8 -95 1 -4 -6 -7 -125 -7 -125 0 0 44 -10 64 -7 s61 1 65 56 c4 55 -18 70 -28 74 Z"/>
</g>
</g>
<g x_x="x"><rect x="0" y="512" width="128" height="128" fill="#B1661A"/>
<g x_x="x" transform="translate(31 524) scale(0.128)"><path d="M26 59 s-2 317 -3 377 -1 359 4 367 c0 0 63 3 88 3 s88 -4 98 -8 c0 0 -8 -160 -8 -191 s-2 -138 -1 -143 c0 0 31 78 56 77 s44 -52 59 -78 c0 0 6 177 6 202 s3 129 3 138 c0 0 76 -2 95 -2 s70 2 78 6 c0 0 4 -255 3 -297 s1 -311 1 -339 0 -124 1 -128 c0 0 -81 2 -100 3 s-76 3 -85 -2 c0 0 -57 137 -56 147 0 0 -45 -127 -65 -142 0 0 -61 2 -84 0 s-75 3 -89 9 Z"/>
</g>
</g>
<g x_x="x"><rect x="128" y="512" width="64" height="64" fill="#DB3F14"/>
<g x_x="x" transform="translate(143 518) scale(0.064)"><path d="M11 561 c1 99 -17 232 190 255 s283 -107 305 -184 -6 -137 -6 -137 c0 0 -57 -11 -88 -8 s-75 -1 -85 -5 c0 0 -8 60 -7 84 s-26 70 -61 63 -56 -77 -56 -135 1 -220 5 -247 9 -42 52 -43 50 50 53 137 c0 0 42 14 100 17 s73 -11 88 -9 c0 0 35 -67 0 -167 S345 9 245 11 99 39 66 75 10 186 11 214 s0 347 0 347 Z"/>
</g>
</g>
<g x_x="x"><rect x="192" y="512" width="64" height="64" fill="#F9BE02"/>
<g x_x="x" transform="translate(207 518) scale(0.064)"><path d="M26 59 s-2 317 -3 377 -1 359 4 367 c0 0 63 3 88 3 s88 -4 98 -8 c0 0 -8 -160 -8 -191 s-2 -138 -1 -143 c0 0 31 78 56 77 s44 -52 59 -78 c0 0 6 177 6 202 s3 129 3 138 c0 0 76 -2 95 -2 s70 2 78 6 c0 0 4 -255 3 -297 s1 -311 1 -339 0 -124 1 -128 c0 0 -81 2 -100 3 s-76 3 -85 -2 c0 0 -57 137 -56 147 0 0 -45 -127 -65 -142 0 0 -61 2 -84 0 s-75 3 -89 9 Z"/>
</g>
</g>
<g x_x="x"><rect x="256" y="512" width="256" height="256" fill="#FFE33A"/>
<g x_x="x" transform="translate(320 537) scale(0.256)"><path d="M422 379 c-11 -46 -78 -339 -80 -346 0 0 -67 6 -94 6 s-85 2 -90 3 c0 0 -70 266 -89 390 C50 556 4 781 7 797 c0 0 63 3 82 4 18 1 91 5 97 1 s23 -47 33 -97 c10 -50 14 -77 17 -82 0 0 36 -2 41 0 0 0 23 68 25 83 s23 88 23 89 c1 1 69 13 100 13 s74 -6 78 -8 c0 0 -70 -376 -80 -422 Zm-189 106 c1 -11 14 -97 15 -119 1 -22 3 -71 6 -107 0 0 9 92 11 107 2 15 12 119 12 119 -6 -1 -45 0 -45 0 Z"/>
</g>
</g>
<g x_x="x"><rect x="512" y="512" width="64" height="64" fill="#7FAE2E"/>
<g x_x="x" transform="translate(535 518) scale(0.064)"><path d="M27 33 c-6 47 -12 291 -6 386 s5 351 -3 395 c0 0 37 -13 102 -6 s123 -7 125 -16 -11 -279 -5 -348 7 -389 6 -409 c0 0 -72 0 -105 -1 s-107 -4 -115 -3 Z"/>
</g>
</g>
<g x_x="x"><rect x="576" y="512" width="64" height="64" fill="#B1661A"/>
<g x_x="x" transform="translate(591 518) scale(0.064)"><path d="M485 228 c-43 -102 -61 -117 -92 -144 -31 -27 -73 -44 -87 -46 -14 -1 -63 4 -102 0 -39 -4 -137 3 -180 15 0 0 5 211 2 300 -2 90 2 379 19 448 0 0 296 -3 309 -3 0 0 141 -172 148 -267 s25 -202 -18 -303 ZM279 557 c-31 16 -67 1 -67 1 0 -3 -1 -114 3 -150 3 -36 -2 -91 -1 -126 0 0 28 -9 63 -1 s52 68 61 130 c9 61 -27 131 -58 146 Z"/>
</g>
</g>
<g x_x="x"><rect x="640" y="512" width="64" height="64" fill="#DB3F14"/>
<g x_x="x" transform="translate(655 518) scale(0.064)"><path d="M23 39 s6 342 5 379 -6 376 -7 386 c0 0 202 3 254 2 s183 -3 203 -2 30 -11 29 -32 -2 -79 -2 -90 4 -45 1 -54 c0 0 -83 2 -115 -1 s-153 -8 -163 -7 c0 0 1 -303 -3 -348 s1 -222 2 -230 c0 0 -45 -17 -101 -17 S23 39 23 39 Z"/>
</g>
</g>
<g x_x="x"><rect x="704" y="512" width="64" height="64" fill="#F9BE02"/>
<g x_x="x" transform="translate(719 518) scale(0.064)"><path d="M450 104 c-51 -46 -119 -68 -207 -65 -88 3 -144 39 -158 46 -13 7 -48 70 -60 140 s-10 215 -10 215 c4 109 6 162 9 200 4 38 15 136 107 163 92 27 208 23 294 -36 s76 -234 79 -284 c3 -49 1 -157 4 -196 3 -39 -8 -137 -58 -183 Zm-112 421 c-2 73 3 101 -49 123 -51 23 -88 -7 -100 -27 -12 -20 -16 -122 -24 -158 0 0 -1 -14 1 -100 1 -86 35 -144 78 -158 43 -14 64 5 81 43 s15 204 13 277 Z"/>
</g>
</g>
<g x_x="x"><rect x="768" y="512" width="256" height="256" fill="#FFE33A"/>
<g x_x="x" transform="translate(832 537) scale(0.256)"><path d="M422 379 c-11 -46 -78 -339 -80 -346 0 0 -67 6 -94 6 s-85 2 -90 3 c0 0 -70 266 -89 390 C50 556 4 781 7 797 c0 0 63 3 82 4 18 1 91 5 97 1 s23 -47 33 -97 c10 -50 14 -77 17 -82 0 0 36 -2 41 0 0 0 23 68 25 83 s23 88 23 89 c1 1 69 13 100 13 s74 -6 78 -8 c0 0 -70 -376 -80 -422 Zm-189 106 c1 -11 14 -97 15 -119 1 -22 3 -71 6 -107 0 0 9 92 11 107 2 15 12 119 12 119 -6 -1 -45 0 -45 0 Z"/>
</g>
</g>
<g x_x="x"><rect x="128" y="576" width="64" height="64" fill="#7FAE2E"/>
<g x_x="x" transform="translate(143 582) scale(0.064)"><path d="M18 392 c3 162 16 384 19 408 0 0 39 -4 61 1 s98 5 111 -11 3 -220 4 -234 4 -51 4 -51 c0 0 39 -9 90 -1 0 0 14 123 12 191 s8 110 8 110 c0 0 73 -3 91 -2 s71 -4 93 -7 c0 0 -13 -344 -15 -379 s-15 -371 -15 -382 c0 0 -110 -9 -180 15 0 0 9 195 -4 278 0 0 -24 4 -39 5 s-45 -4 -45 -4 c0 0 -19 -114 -17 -156 s-8 -125 -8 -125 c0 0 -23 -10 -76 -8 s-97 2 -97 2 c0 0 1 302 3 349 Z"/>
</g>
</g>
<g x_x="x"><rect x="192" y="576" width="64" height="64" fill="#B1661A"/>
<g x_x="x" transform="translate(207 582) scale(0.064)"><path d="M20 36 s-2 158 7 178 c0 0 21 7 65 6 s54 -1 63 5 c0 0 10 228 8 257 s1 195 -1 241 1 81 5 86 c0 0 85 -9 107 -7 s90 -4 96 -6 c0 0 -3 -321 -5 -356 s-2 -213 1 -218 113 -2 134 5 c0 0 8 -57 8 -79 s-1 -97 -2 -102 c0 0 -162 -11 -202 -11 s-285 2 -285 2 Z"/>
</g>
</g>
<g x_x="x"><rect x="512" y="576" width="64" height="64" fill="#DB3F14"/>
<g x_x="x" transform="translate(527 582) scale(0.064)"><path d="M20 61 s1 294 -3 373 -4 224 3 241 40 141 251 145 225 -164 232 -214 17 -280 16 -321 -5 -204 -6 -212 h-10 s-24 -23 -180 -1 c0 0 -5 328 -5 348 s-3 157 -5 171 -13 52 -51 54 -50 -43 -50 -66 -18 -280 -13 -358 2 -141 5 -150 c0 0 -40 -13 -95 -13 s-74 4 -89 2 Z"/>
</g>
</g>
<g x_x="x"><rect x="576" y="576" width="64" height="64" fill="#F9BE02"/>
<g x_x="x" transform="translate(591 582) scale(0.064)"><path d="M20 36 s-2 158 7 178 c0 0 21 7 65 6 s54 -1 63 5 c0 0 10 228 8 257 s1 195 -1 241 1 81 5 86 c0 0 85 -9 107 -7 s90 -4 96 -6 c0 0 -3 -321 -5 -356 s-2 -213 1 -218 113 -2 134 5 c0 0 8 -57 8 -79 s-1 -97 -2 -102 c0 0 -162 -11 -202 -11 s-285 2 -285 2 Z"/>
</g>
</g>
<g x_x="x"><rect x="640" y="576" width="64" height="64" fill="#FFE33A"/>
<g x_x="x" transform="translate(655 582) scale(0.064)"><path d="M485 228 c-43 -102 -61 -117 -92 -144 -31 -27 -73 -44 -87 -46 -14 -1 -63 4 -102 0 -39 -4 -137 3 -180 15 0 0 5 211 2 300 -2 90 2 379 19 448 0 0 296 -3 309 -3 0 0 141 -172 148 -267 s25 -202 -18 -303 ZM279 557 c-31 16 -67 1 -67 1 0 -3 -1 -114 3 -150 3 -36 -2 -91 -1 -126 0 0 28 -9 63 -1 s52 68 61 130 c9 61 -27 131 -58 146 Z"/>
</g>
</g>
<g x_x="x"><rect x="704" y="576" width="64" height="64" fill="#7FAE2E"/>
<g x_x="x" transform="translate(719 582) scale(0.064)"><path d="M22 50 c-8 68 -7 324 -8 377 s11 317 5 368 c0 0 179 11 275 8 s188 -5 197 -3 c0 0 22 -63 11 -153 0 0 -89 1 -140 -1 s-125 -6 -142 -5 c0 0 -9 -88 -1 -127 0 0 9 -5 30 -2 s85 -1 100 -10 c0 0 9 -123 -2 -156 0 0 -53 -9 -130 6 0 0 -10 -43 -7 -74 s6 -55 6 -55 c0 0 139 -1 170 -1 s105 -9 113 -14 c0 0 5 -83 6 -101 s-4 -52 -5 -58 c0 0 -142 -9 -231 -4 s-218 8 -246 7 Z"/>
</g>
</g>
<g x_x="x"><rect x="0" y="640" width="64" height="64" fill="#B1661A"/>
<g x_x="x" transform="translate(14 646) scale(0.064)"><path d="M19 65 c-1 60 5 238 0 343 s2 355 -2 386 c0 0 -14 12 111 12 s109 -6 109 -6 c0 0 8 -251 10 -263 0 0 41 -8 82 -9 s56 -7 60 -11 -3 -74 0 -97 1 -80 -4 -90 c0 0 -90 12 -139 3 0 0 -14 -68 0 -90 0 0 135 -8 165 -9 s122 -7 123 -7 c0 0 5 -53 3 -84 s-4 -77 -3 -82 c0 0 -92 -24 -255 -19 S29 62 19 65 Z"/>
</g>
</g>
<g x_x="x"><rect x="64" y="640" width="64" height="64" fill="#DB3F14"/>
<g x_x="x" transform="translate(78 646) scale(0.064)"><path d="M32 427 c5 175 18 270 52 310 s85 106 252 76 179 -109 187 -183 3 -190 -5 -216 c0 0 -129 -8 -156 -8 s-94 11 -103 12 c0 0 5 49 2 66 s1 54 1 54 c0 0 26 9 57 8 l31 -1 s-4 82 -26 89 -69 28 -91 -5 -25 -141 -25 -242 20 -168 29 -177 30 -13 45 -10 18 -1 27 9 29 34 39 79 c0 0 53 6 103 5 s55 0 66 -1 c0 0 12 -102 -21 -151 S409 35 266 38 69 113 50 179 s-20 194 -18 249 Z"/>
</g>
</g>
<g x_x="x"><rect x="128" y="640" width="128" height="128" fill="#F9BE02"/>
<g x_x="x" transform="translate(157 652) scale(0.128)"><path d="M32 427 c5 175 18 270 52 310 s85 106 252 76 179 -109 187 -183 3 -190 -5 -216 c0 0 -129 -8 -156 -8 s-94 11 -103 12 c0 0 5 49 2 66 s1 54 1 54 c0 0 26 9 57 8 l31 -1 s-4 82 -26 89 -69 28 -91 -5 -25 -141 -25 -242 20 -168 29 -177 30 -13 45 -10 18 -1 27 9 29 34 39 79 c0 0 53 6 103 5 s55 0 66 -1 c0 0 12 -102 -21 -151 S409 35 266 38 69 113 50 179 s-20 194 -18 249 Z"/>
</g>
</g>
<g x_x="x"><rect x="512" y="640" width="128" height="128" fill="#FFE33A"/>
<g x_x="x" transform="translate(541 652) scale(0.128)"><path d="M494 145 c-29 -75 -69 -97 -107 -112 s-179 -11 -225 8 c-47 19 -111 34 -126 144 -16 110 -13 289 -13 289 2 127 9 166 19 198 11 32 75 126 189 135 113 9 139 -20 139 -20 0 0 23 23 39 25 16 2 54 -11 80 -37 27 -26 16 -38 -8 -63 0 0 25 -52 31 -76 s14 -153 15 -226 c1 -73 -6 -191 -34 -266 Zm-136 417 c-2 -5 -10 -20 -37 -19 -27 1 -26 11 -55 31 -30 21 -34 21 -30 40 4 19 42 55 42 55 -85 -5 -85 -75 -88 -97 -3 -22 -1 -173 -1 -173 0 0 7 -158 16 -179 9 -22 43 -31 99 -22 56 9 53 106 56 158 3 52 -1 205 -1 205 Z"/>
</g>
</g>
<g x_x="x"><rect x="640" y="640" width="128" height="128" fill="#7FAE2E"/>
<g x_x="x" transform="translate(669 652) scale(0.128)"><path d="M19 65 c-1 60 5 238 0 343 s2 355 -2 386 c0 0 -14 12 111 12 s109 -6 109 -6 c0 0 8 -251 10 -263 0 0 41 -8 82 -9 s56 -7 60 -11 -3 -74 0 -97 1 -80 -4 -90 c0 0 -90 12 -139 3 0 0 -14 -68 0 -90 0 0 135 -8 165 -9 s122 -7 123 -7 c0 0 5 -53 3 -84 s-4 -77 -3 -82 c0 0 -92 -24 -255 -19 S29 62 19 65 Z"/>
</g>
</g>
<g x_x="x"><rect x="0" y="704" width="64" height="64" fill="#B1661A"/>
<g x_x="x" transform="translate(16 710) scale(0.064)"><path d="M483 523 c-22 -44 -67 -88 -69 -95 -2 -8 51 -59 59 -165 8 -106 -40 -186 -145 -221 C222 7 67 32 12 50 c0 0 1 334 0 402 s2 343 2 343 c0 0 163 16 240 14 77 -1 183 -24 221 -97 38 -73 29 -144 8 -188 Zm-187 92 c-17 38 -99 26 -99 26 -19 -41 -7 -114 0 -137 0 0 53 -6 78 13 25 19 38 60 21 98 Zm-12 -291 c-22 29 -87 20 -87 20 1 -18 -3 -111 -5 -136 13 5 32 4 55 6 23 1 36 10 51 32 16 22 8 50 -15 78 Z"/>
</g>
</g>
<g x_x="x"><rect x="64" y="704" width="64" height="64" fill="#DB3F14"/>
<g x_x="x" transform="translate(80 710) scale(0.064)"><path d="M422 379 c-11 -46 -78 -339 -80 -346 0 0 -67 6 -94 6 s-85 2 -90 3 c0 0 -70 266 -89 390 C50 556 4 781 7 797 c0 0 63 3 82 4 18 1 91 5 97 1 s23 -47 33 -97 c10 -50 14 -77 17 -82 0 0 36 -2 41 0 0 0 23 68 25 83 s23 88 23 89 c1 1 69 13 100 13 s74 -6 78 -8 c0 0 -70 -376 -80 -422 Zm-189 106 c1 -11 14 -97 15 -119 1 -22 3 -71 6 -107 0 0 9 92 11 107 2 15 12 119 12 119 -6 -1 -45 0 -45 0 Z"/>
</g>
</g>
<g x_x="x"><rect x="0" y="768" width="256" height="256" fill="#F9BE02"/>
<g x_x="x" transform="translate(62 793) scale(0.256)"><path d="M23 39 s6 342 5 379 -6 376 -7 386 c0 0 202 3 254 2 s183 -3 203 -2 30 -11 29 -32 -2 -79 -2 -90 4 -45 1 -54 c0 0 -83 2 -115 -1 s-153 -8 -163 -7 c0 0 1 -303 -3 -348 s1 -222 2 -230 c0 0 -45 -17 -101 -17 S23 39 23 39 Z"/>
</g>
</g>
<g x_x="x"><rect x="256" y="768" width="64" height="64" fill="#FFE33A"/>
<g x_x="x" transform="translate(271 774) scale(0.064)"><path d="M20 61 s1 294 -3 373 -4 224 3 241 40 141 251 145 225 -164 232 -214 17 -280 16 -321 -5 -204 -6 -212 h-10 s-24 -23 -180 -1 c0 0 -5 328 -5 348 s-3 157 -5 171 -13 52 -51 54 -50 -43 -50 -66 -18 -280 -13 -358 2 -141 5 -150 c0 0 -40 -13 -95 -13 s-74 4 -89 2 Z"/>
</g>
</g>
<g x_x="x"><rect x="320" y="768" width="64" height="64" fill="#7FAE2E"/>
<g x_x="x" transform="translate(335 774) scale(0.064)"><path d="M22 46 s16 278 25 349 46 371 54 401 c0 0 67 14 122 -1 0 0 43 -133 46 -152 0 0 22 76 26 97 s22 57 27 61 c0 0 108 5 116 -5 0 0 39 -407 41 -424 s31 -319 31 -321 -6 -6 -9 -7 -110 -11 -174 5 c0 0 -15 340 -13 374 0 0 -14 -110 -53 -136 0 0 -20 29 -25 57 s-16 81 -16 81 c0 0 -10 -144 -8 -180 s-4 -197 -4 -203 c0 0 -77 -2 -89 -3 s-86 3 -98 7 Z"/>
</g>
</g>
<g x_x="x"><rect x="384" y="768" width="64" height="64" fill="#B1661A"/>
<g x_x="x" transform="translate(399 774) scale(0.064)"><path d="M9 53 s64 147 79 199 47 148 46 173 -50 170 -56 190 -51 165 -55 173 c0 0 40 16 96 14 s80 -3 80 -3 c0 0 30 -81 37 -104 s31 -106 31 -106 c0 0 28 106 32 122 s19 72 25 81 c0 0 48 14 93 9 s82 1 87 2 c0 0 -27 -97 -40 -146 s-59 -198 -62 -227 c0 0 52 -174 65 -215 s52 -175 52 -175 c0 0 -77 1 -94 1 s-95 3 -103 4 c0 0 -54 201 -59 208 0 0 -29 -91 -32 -109 s-24 -96 -24 -96 c0 0 -138 -1 -197 5 Z"/>
</g>
</g>
<g x_x="x"><rect x="448" y="768" width="64" height="64" fill="#DB3F14"/>
<g x_x="x" transform="translate(464 774) scale(0.064)"><path d="M422 379 c-11 -46 -78 -339 -80 -346 0 0 -67 6 -94 6 s-85 2 -90 3 c0 0 -70 266 -89 390 C50 556 4 781 7 797 c0 0 63 3 82 4 18 1 91 5 97 1 s23 -47 33 -97 c10 -50 14 -77 17 -82 0 0 36 -2 41 0 0 0 23 68 25 83 s23 88 23 89 c1 1 69 13 100 13 s74 -6 78 -8 c0 0 -70 -376 -80 -422 Zm-189 106 c1 -11 14 -97 15 -119 1 -22 3 -71 6 -107 0 0 9 92 11 107 2 15 12 119 12 119 -6 -1 -45 0 -45 0 Z"/>
</g>
</g>
<g x_x="x"><rect x="512" y="768" width="256" height="256" fill="#F9BE02"/>
<g x_x="x" transform="translate(574 793) scale(0.256)"><path d="M22 50 c-8 68 -7 324 -8 377 s11 317 5 368 c0 0 179 11 275 8 s188 -5 197 -3 c0 0 22 -63 11 -153 0 0 -89 1 -140 -1 s-125 -6 -142 -5 c0 0 -9 -88 -1 -127 0 0 9 -5 30 -2 s85 -1 100 -10 c0 0 9 -123 -2 -156 0 0 -53 -9 -130 6 0 0 -10 -43 -7 -74 s6 -55 6 -55 c0 0 139 -1 170 -1 s105 -9 113 -14 c0 0 5 -83 6 -101 s-4 -52 -5 -58 c0 0 -142 -9 -231 -4 s-218 8 -246 7 Z"/>
</g>
</g>
<g x_x="x"><rect x="768" y="768" width="256" height="256" fill="#FFE33A"/>
<g x_x="x" transform="translate(829 793) scale(0.256)"><path d="M9 53 s64 147 79 199 47 148 46 173 -50 170 -56 190 -51 165 -55 173 c0 0 40 16 96 14 s80 -3 80 -3 c0 0 30 -81 37 -104 s31 -106 31 -106 c0 0 28 106 32 122 s19 72 25 81 c0 0 48 14 93 9 s82 1 87 2 c0 0 -27 -97 -40 -146 s-59 -198 -62 -227 c0 0 52 -174 65 -215 s52 -175 52 -175 c0 0 -77 1 -94 1 s-95 3 -103 4 c0 0 -54 201 -59 208 0 0 -29 -91 -32 -109 s-24 -96 -24 -96 c0 0 -138 -1 -197 5 Z"/>
</g>
</g>
<g x_x="x"><rect x="256" y="832" width="64" height="64" fill="#7FAE2E"/>
<g x_x="x" transform="translate(271 838) scale(0.064)"><path d="M22 50 c-8 68 -7 324 -8 377 s11 317 5 368 c0 0 179 11 275 8 s188 -5 197 -3 c0 0 22 -63 11 -153 0 0 -89 1 -140 -1 s-125 -6 -142 -5 c0 0 -9 -88 -1 -127 0 0 9 -5 30 -2 s85 -1 100 -10 c0 0 9 -123 -2 -156 0 0 -53 -9 -130 6 0 0 -10 -43 -7 -74 s6 -55 6 -55 c0 0 139 -1 170 -1 s105 -9 113 -14 c0 0 5 -83 6 -101 s-4 -52 -5 -58 c0 0 -142 -9 -231 -4 s-218 8 -246 7 Z"/>
</g>
</g>
<g x_x="x"><rect x="320" y="832" width="64" height="64" fill="#B1661A"/>
<g x_x="x" transform="translate(334 838) scale(0.064)"><path d="M494 145 c-29 -75 -69 -97 -107 -112 s-179 -11 -225 8 c-47 19 -111 34 -126 144 -16 110 -13 289 -13 289 2 127 9 166 19 198 11 32 75 126 189 135 113 9 139 -20 139 -20 0 0 23 23 39 25 16 2 54 -11 80 -37 27 -26 16 -38 -8 -63 0 0 25 -52 31 -76 s14 -153 15 -226 c1 -73 -6 -191 -34 -266 Zm-136 417 c-2 -5 -10 -20 -37 -19 -27 1 -26 11 -55 31 -30 21 -34 21 -30 40 4 19 42 55 42 55 -85 -5 -85 -75 -88 -97 -3 -22 -1 -173 -1 -173 0 0 7 -158 16 -179 9 -22 43 -31 99 -22 56 9 53 106 56 158 3 52 -1 205 -1 205 Z"/>
</g>
</g>
<g x_x="x"><rect x="384" y="832" width="64" height="64" fill="#DB3F14"/>
<g x_x="x" transform="translate(407 838) scale(0.064)"><path d="M27 33 c-6 47 -12 291 -6 386 s5 351 -3 395 c0 0 37 -13 102 -6 s123 -7 125 -16 -11 -279 -5 -348 7 -389 6 -409 c0 0 -72 0 -105 -1 s-107 -4 -115 -3 Z"/>
</g>
</g>
<g x_x="x"><rect x="448" y="832" width="64" height="64" fill="#F9BE02"/>
<g x_x="x" transform="translate(464 838) scale(0.064)"><path d="M422 379 c-11 -46 -78 -339 -80 -346 0 0 -67 6 -94 6 s-85 2 -90 3 c0 0 -70 266 -89 390 C50 556 4 781 7 797 c0 0 63 3 82 4 18 1 91 5 97 1 s23 -47 33 -97 c10 -50 14 -77 17 -82 0 0 36 -2 41 0 0 0 23 68 25 83 s23 88 23 89 c1 1 69 13 100 13 s74 -6 78 -8 c0 0 -70 -376 -80 -422 Zm-189 106 c1 -11 14 -97 15 -119 1 -22 3 -71 6 -107 0 0 9 92 11 107 2 15 12 119 12 119 -6 -1 -45 0 -45 0 Z"/>
</g>
</g>
<g x_x="x"><rect x="256" y="896" width="64" height="64" fill="#FFE33A"/>
<g x_x="x" transform="translate(271 902) scale(0.064)"><path d="M20 36 s-2 158 7 178 c0 0 21 7 65 6 s54 -1 63 5 c0 0 10 228 8 257 s1 195 -1 241 1 81 5 86 c0 0 85 -9 107 -7 s90 -4 96 -6 c0 0 -3 -321 -5 -356 s-2 -213 1 -218 113 -2 134 5 c0 0 8 -57 8 -79 s-1 -97 -2 -102 c0 0 -162 -11 -202 -11 s-285 2 -285 2 Z"/>
</g>
</g>
<g x_x="x"><rect x="320" y="896" width="64" height="64" fill="#7FAE2E"/>
<g x_x="x" transform="translate(335 902) scale(0.064)"><path d="M21 66 s26 245 38 321 47 250 53 272 33 132 35 135 51 15 90 13 94 -4 99 -4 c0 0 104 -394 111 -421 S518 69 517 57 c0 0 -15 1 -23 -1 s-66 -4 -91 -4 -63 -5 -72 -8 c0 0 -25 112 -29 146 s-49 286 -54 295 c0 0 -22 -152 -23 -183 s-18 -244 -18 -250 c0 0 -69 -12 -108 -7 s-66 8 -76 21 Z"/>
</g>
</g>
<g x_x="x"><rect x="384" y="896" width="64" height="64" fill="#B1661A"/>
<g x_x="x" transform="translate(400 902) scale(0.064)"><path d="M422 379 c-11 -46 -78 -339 -80 -346 0 0 -67 6 -94 6 s-85 2 -90 3 c0 0 -70 266 -89 390 C50 556 4 781 7 797 c0 0 63 3 82 4 18 1 91 5 97 1 s23 -47 33 -97 c10 -50 14 -77 17 -82 0 0 36 -2 41 0 0 0 23 68 25 83 s23 88 23 89 c1 1 69 13 100 13 s74 -6 78 -8 c0 0 -70 -376 -80 -422 Zm-189 106 c1 -11 14 -97 15 -119 1 -22 3 -71 6 -107 0 0 9 92 11 107 2 15 12 119 12 119 -6 -1 -45 0 -45 0 Z"/>
</g>
</g>
<g x_x="x"><rect x="448" y="896" width="64" height="64" fill="#DB3F14"/>
<g x_x="x" transform="translate(463 902) scale(0.064)"><path d="M31 43 s-9 170 -9 243 3 503 3 515 c0 0 65 3 83 6 s78 4 99 -7 c0 0 1 -286 1 -299 0 0 58 142 65 154 s67 148 67 148 c0 0 69 3 85 5 s70 1 78 -7 c0 0 1 -404 1 -434 s1 -316 0 -328 c0 0 -37 -11 -88 -11 s-93 8 -93 8 c0 0 -2 109 -1 145 s3 145 3 145 c0 0 -52 -116 -64 -147 s-53 -123 -58 -129 S110 24 31 43 Z"/>
</g>
</g>
<g x_x="x"><rect x="256" y="960" width="64" height="64" fill="#F9BE02"/>
<g x_x="x" transform="translate(271 966) scale(0.064)"><path d="M18 392 c3 162 16 384 19 408 0 0 39 -4 61 1 s98 5 111 -11 3 -220 4 -234 4 -51 4 -51 c0 0 39 -9 90 -1 0 0 14 123 12 191 s8 110 8 110 c0 0 73 -3 91 -2 s71 -4 93 -7 c0 0 -13 -344 -15 -379 s-15 -371 -15 -382 c0 0 -110 -9 -180 15 0 0 9 195 -4 278 0 0 -24 4 -39 5 s-45 -4 -45 -4 c0 0 -19 -114 -17 -156 s-8 -125 -8 -125 c0 0 -23 -10 -76 -8 s-97 2 -97 2 c0 0 1 302 3 349 Z"/>
</g>
</g>
<g x_x="x"><rect x="320" y="960" width="64" height="64" fill="#FFE33A"/>
<g x_x="x" transform="translate(343 966) scale(0.064)"><path d="M27 33 c-6 47 -12 291 -6 386 s5 351 -3 395 c0 0 37 -13 102 -6 s123 -7 125 -16 -11 -279 -5 -348 7 -389 6 -409 c0 0 -72 0 -105 -1 s-107 -4 -115 -3 Z"/>
</g>
</g>
<g x_x="x"><rect x="384" y="960" width="64" height="64" fill="#7FAE2E"/>
<g x_x="x" transform="translate(399 966) scale(0.064)"><path d="M485 228 c-43 -102 -61 -117 -92 -144 -31 -27 -73 -44 -87 -46 -14 -1 -63 4 -102 0 -39 -4 -137 3 -180 15 0 0 5 211 2 300 -2 90 2 379 19 448 0 0 296 -3 309 -3 0 0 141 -172 148 -267 s25 -202 -18 -303 ZM279 557 c-31 16 -67 1 -67 1 0 -3 -1 -114 3 -150 3 -36 -2 -91 -1 -126 0 0 28 -9 63 -1 s52 68 61 130 c9 61 -27 131 -58 146 Z"/>
</g>
</g>
<g x_x="x"><rect x="448" y="960" width="64" height="64" fill="#B1661A"/>
<g x_x="x" transform="translate(463 966) scale(0.064)"><path d="M23 48 s25 89 48 141 87 220 87 232 c0 0 -59 158 -67 177 S18 797 16 802 c0 0 66 4 100 3 s74 -3 88 1 c0 0 63 -170 85 -210 S438 277 459 224 s57 -161 58 -175 c0 0 -78 -14 -180 7 0 0 -69 199 -71 204 0 0 -66 -184 -68 -204 0 0 -21 -18 -85 -13 s-64 8 -91 7 Z"/>
</g>
</g>
</g>
</defs>
<use href="#alphabet64" />
</svg>
