<svg width="4096" height="1024" viewBox="0 0 4096 1024" xmlns="http://www.w3.org/2000/svg" shape-rendering="crispEdges">
<rect width="4096" height="1024" fill="#71BCE1" />
<path d="M174,531 Q230,493,276,443,323,394,371,342,420,290,463,314,507,339,566,462,625,586,670,549,715,513,764,316,814,120,858,263,902,407,948,301,994,196,1055,379,1116,563,1153,470,1190,378,1243,551,1296,725,1355,609,1414,493,1462,317,1511,142,1554,213,1597,284,1643,373,1690,463,1753,312,1816,162,1849,331,1883,501,1938,487,1993,473,2043,260,2093,48,2142,239,2192,430,2237,314,2283,198,2342,320,2401,442,2442,397,2484,353,2536,398,2589,444,2636,345,2684,247,2740,294,2796,341,2846,427,2896,513,2935,426,2974,340,3034,414,3095,488,3135,382,3176,276,3230,405,3284,535,3338,319,3392,103,3445,341,3498,579,3532,367,3566,156,3629,269,3693,382,3739,439,3786,497,3838,304,3891,112,3979,616" fill="transparent" stroke="#E50000" stroke-width="64" stroke-linecap="round" transform="translate(0,0)"/>
<path d="M174,531 Q230,493,276,443,323,394,371,342,420,290,463,314,507,339,566,462,625,586,670,549,715,513,764,316,814,120,858,263,902,407,948,301,994,196,1055,379,1116,563,1153,470,1190,378,1243,551,1296,725,1355,609,1414,493,1462,317,1511,142,1554,213,1597,284,1643,373,1690,463,1753,312,1816,162,1849,331,1883,501,1938,487,1993,473,2043,260,2093,48,2142,239,2192,430,2237,314,2283,198,2342,320,2401,442,2442,397,2484,353,2536,398,2589,444,2636,345,2684,247,2740,294,2796,341,2846,427,2896,513,2935,426,2974,340,3034,414,3095,488,3135,382,3176,276,3230,405,3284,535,3338,319,3392,103,3445,341,3498,579,3532,367,3566,156,3629,269,3693,382,3739,439,3786,497,3838,304,3891,112,3979,616" fill="transparent" stroke="#FF8D00" stroke-width="64" stroke-linecap="round" transform="translate(0,54)"/>
<path d="M174,531 Q230,493,276,443,323,394,371,342,420,290,463,314,507,339,566,462,625,586,670,549,715,513,764,316,814,120,858,263,902,407,948,301,994,196,1055,379,1116,563,1153,470,1190,378,1243,551,1296,725,1355,609,1414,493,1462,317,1511,142,1554,213,1597,284,1643,373,1690,463,1753,312,1816,162,1849,331,1883,501,1938,487,1993,473,2043,260,2093,48,2142,239,2192,430,2237,314,2283,198,2342,320,2401,442,2442,397,2484,353,2536,398,2589,444,2636,345,2684,247,2740,294,2796,341,2846,427,2896,513,2935,426,2974,340,3034,414,3095,488,3135,382,3176,276,3230,405,3284,535,3338,319,3392,103,3445,341,3498,579,3532,367,3566,156,3629,269,3693,382,3739,439,3786,497,3838,304,3891,112,3979,616" fill="transparent" stroke="#FFEE00" stroke-width="64" stroke-linecap="round" transform="translate(0,108)"/>
<path d="M174,531 Q230,493,276,443,323,394,371,342,420,290,463,314,507,339,566,462,625,586,670,549,715,513,764,316,814,120,858,263,902,407,948,301,994,196,1055,379,1116,563,1153,470,1190,378,1243,551,1296,725,1355,609,1414,493,1462,317,1511,142,1554,213,1597,284,1643,373,1690,463,1753,312,1816,162,1849,331,1883,501,1938,487,1993,473,2043,260,2093,48,2142,239,2192,430,2237,314,2283,198,2342,320,2401,442,2442,397,2484,353,2536,398,2589,444,2636,345,2684,247,2740,294,2796,341,2846,427,2896,513,2935,426,2974,340,3034,414,3095,488,3135,382,3176,276,3230,405,3284,535,3338,319,3392,103,3445,341,3498,579,3532,367,3566,156,3629,269,3693,382,3739,439,3786,497,3838,304,3891,112,3979,616" fill="transparent" stroke="#028121" stroke-width="64" stroke-linecap="round" transform="translate(0,162)"/>
<path d="M174,531 Q230,493,276,443,323,394,371,342,420,290,463,314,507,339,566,462,625,586,670,549,715,513,764,316,814,120,858,263,902,407,948,301,994,196,1055,379,1116,563,1153,470,1190,378,1243,551,1296,725,1355,609,1414,493,1462,317,1511,142,1554,213,1597,284,1643,373,1690,463,1753,312,1816,162,1849,331,1883,501,1938,487,1993,473,2043,260,2093,48,2142,239,2192,430,2237,314,2283,198,2342,320,2401,442,2442,397,2484,353,2536,398,2589,444,2636,345,2684,247,2740,294,2796,341,2846,427,2896,513,2935,426,2974,340,3034,414,3095,488,3135,382,3176,276,3230,405,3284,535,3338,319,3392,103,3445,341,3498,579,3532,367,3566,156,3629,269,3693,382,3739,439,3786,497,3838,304,3891,112,3979,616" fill="transparent" stroke="#004CFF" stroke-width="64" stroke-linecap="round" transform="translate(0,216)"/>
<path d="M174,531 Q230,493,276,443,323,394,371,342,420,290,463,314,507,339,566,462,625,586,670,549,715,513,764,316,814,120,858,263,902,407,948,301,994,196,1055,379,1116,563,1153,470,1190,378,1243,551,1296,725,1355,609,1414,493,1462,317,1511,142,1554,213,1597,284,1643,373,1690,463,1753,312,1816,162,1849,331,1883,501,1938,487,1993,473,2043,260,2093,48,2142,239,2192,430,2237,314,2283,198,2342,320,2401,442,2442,397,2484,353,2536,398,2589,444,2636,345,2684,247,2740,294,2796,341,2846,427,2896,513,2935,426,2974,340,3034,414,3095,488,3135,382,3176,276,3230,405,3284,535,3338,319,3392,103,3445,341,3498,579,3532,367,3566,156,3629,269,3693,382,3739,439,3786,497,3838,304,3891,112,3979,616" fill="transparent" stroke="#770088" stroke-width="64" stroke-linecap="round" transform="translate(0,270)"/>
</svg>
