<?xml version="1.0" encoding="utf-8"?>
<!-- Generator: Adobe Illustrator 27.4.0, SVG Export Plug-In . SVG Version: 6.00 Build 0)  -->
<svg version="1.0" id="レイヤー_1" xmlns="http://www.w3.org/2000/svg" xmlns:xlink="http://www.w3.org/1999/xlink" x="0px"
	 y="0px" width="841.89px" height="250.73px" viewBox="0 0 841.89 250.73" style="enable-background:new 0 0 841.89 250.73;"
	 xml:space="preserve">
<style type="text/css">
	.st0{fill:#2678BE;}
	.st1{fill:#040000;}
	.st2{fill:#FFFFFF;}
</style>
<circle class="st0" cx="98.14" cy="116.15" r="9.35"/>
<circle class="st0" cx="140.03" cy="116.15" r="9.35"/>
<path class="st0" d="M135.81,132.48c-3.43,6.32-10.14,10.54-17.78,10.54s-14.36-4.35-17.78-10.54h-7.51
	c3.82,10.27,13.83,17.52,25.29,17.52c11.59,0,21.47-7.25,25.29-17.52H135.81z"/>
<g>
	<path class="st1" d="M329.33,141.31c-6.45,6.19-15.68,9.48-25.03,9.48c-9.35,0-18.57-3.29-25.03-9.48
		c-6.72-6.45-10.01-15.28-10.01-23.71c0-8.43,3.29-17.39,10.01-23.84c6.45-6.19,15.68-9.48,25.03-9.48c9.35,0,18.57,3.29,25.03,9.48
		c6.72,6.32,10.01,15.28,10.01,23.84C339.21,126.03,336.04,134.85,329.33,141.31z M291.39,105.35c-3.42,3.29-5.01,8.04-5.01,12.51
		c0,5.66,2.63,9.48,5.01,11.86c3.03,2.9,7.38,5.01,12.91,5.01c5.66,0,9.75-1.98,12.78-5.01c3.03-3.03,5.14-7.38,5.14-12.25
		c0-5.01-2.24-9.35-5.14-12.25c-3.56-3.29-8.43-5.01-12.78-5.01C299.69,100.34,294.81,101.92,291.39,105.35z"/>
	<path class="st1" d="M363.58,171.08H348.3v-64.42h15.28v4.61c2.63-3.29,6.72-6.06,13.04-6.06c6.59,0,11.72,2.77,15.15,6.19
		c3.56,3.56,6.45,9.09,6.45,16.47c0,7.11-2.77,12.91-6.85,16.86c-4.74,4.61-10.27,5.93-14.62,5.93c-2.77,0-8.43-0.53-13.17-5.53
		L363.58,171.08L363.58,171.08z M366.08,121.15c-1.84,1.84-2.9,4.61-2.9,6.98c0,2.5,1.32,5.14,2.9,6.72c1.84,1.84,4.35,2.9,6.85,2.9
		c2.63,0,5.01-1.05,6.72-2.9c1.58-1.58,2.9-4.22,2.9-6.72c0-2.37-1.05-5.14-2.9-6.98c-1.71-1.84-4.08-2.9-6.72-2.9
		C370.29,118.26,367.79,119.31,366.08,121.15z"/>
	<path class="st1" d="M450.26,130.9h-31.75c0,2.24,0.92,5.27,2.63,7.11c0.92,0.92,2.9,2.11,6.32,2.11c0.4,0,3.03-0.13,5.01-1.19
		c0.92-0.53,1.98-1.58,2.63-2.9h14.62c-0.66,2.37-1.98,5.66-5.14,8.83c-3.16,3.16-8.04,5.93-17.39,5.93
		c-5.66,0-12.38-1.19-17.65-6.45c-2.77-2.77-6.32-8.04-6.32-16.07c0-7.11,2.63-12.91,6.32-16.47c3.56-3.43,9.09-6.19,17.39-6.19
		c5.01,0,11.33,1.05,16.33,5.8c6.06,5.66,6.72,13.17,6.72,17.92v1.58H450.26z M436.16,122.08c-0.4-1.58-1.32-3.43-2.5-4.61
		c-1.98-1.98-4.74-2.24-6.32-2.24c-2.63,0-4.61,0.66-6.19,2.24c-1.05,1.19-1.98,2.63-2.24,4.61H436.16z"/>
	<path class="st1" d="M458.95,106.8h15.28v5.27c4.22-5.53,9.75-6.32,13.57-6.32c4.35,0,9.09,1.05,12.51,4.61
		c3.56,3.56,3.95,7.25,3.95,11.86v27h-15.28v-21.47c0-2.5,0.13-6.19-1.84-8.3c-1.45-1.58-3.29-1.84-4.87-1.84
		c-2.37,0-4.35,0.92-5.66,1.98c-1.58,1.45-2.5,4.22-2.5,6.72v22.92h-15.28V106.8H458.95z"/>
	<path class="st1" d="M550.37,113.25h32.8c0,12.51-2.63,21.47-10.14,28.59c-6.72,6.19-14.23,8.04-22.39,8.04
		c-11.46,0-19.23-4.22-24.37-9.48c-4.74-4.74-9.09-12.51-9.09-22.92c0-10.14,3.95-18.44,9.48-23.84c5.27-5.27,13.44-9.35,24.63-9.35
		c5.93,0,12.25,1.32,17.12,4.35c5.01,3.03,9.09,8.04,11.33,13.04l-15.68,6.45c-1.19-2.9-2.9-5.01-4.61-6.32
		c-2.77-2.24-5.66-3.16-8.83-3.16c-3.95,0-7.9,1.45-10.8,4.35c-3.69,3.69-5.53,9.62-5.53,14.62c0,5.8,2.11,10.54,5.01,13.7
		c3.03,3.29,6.72,4.87,11.59,4.87c2.9,0,6.19-0.53,9.09-2.9c1.58-1.19,3.29-3.56,3.95-7.11h-13.57V113.25z"/>
	<path class="st1" d="M623.22,106.8h15.28v42.55h-15.28v-4.61c-3.56,4.87-9.09,6.06-13.17,6.06c-4.61,0-10.14-1.32-15.28-6.72
		c-4.08-4.35-6.06-9.22-6.06-15.68c0-8.04,3.16-13.57,6.59-16.99c3.56-3.56,9.22-6.06,15.28-6.06c6.85,0,10.93,3.56,12.78,5.53
		v-4.08H623.22z M607.28,121.02c-2.11,1.98-3.03,4.74-3.03,6.98c0,2.5,1.05,5.14,2.9,6.98c1.58,1.58,4.35,2.9,6.85,2.9
		s5.01-1.05,6.85-2.9c1.32-1.32,2.9-3.42,2.9-6.85c0-1.98-0.53-4.61-2.9-6.98c-1.45-1.32-3.56-2.77-6.85-2.77
		C612.02,118.26,609.39,118.91,607.28,121.02z"/>
	<path class="st1" d="M664.19,79.92v69.42H648.9V79.92H664.19z"/>
	<path class="st1" d="M705.68,106.8h15.28v42.55h-15.28v-4.61c-3.56,4.87-9.09,6.06-13.17,6.06c-4.61,0-10.14-1.32-15.28-6.72
		c-4.08-4.35-6.06-9.22-6.06-15.68c0-8.04,3.16-13.57,6.59-16.99c3.56-3.56,9.22-6.06,15.28-6.06c6.85,0,10.93,3.56,12.78,5.53
		v-4.08H705.68z M689.61,121.02c-2.11,1.98-3.03,4.74-3.03,6.98c0,2.5,1.05,5.14,2.9,6.98c1.58,1.58,4.35,2.9,6.85,2.9
		s5.01-1.05,6.85-2.9c1.32-1.32,2.9-3.42,2.9-6.85c0-1.98-0.53-4.61-2.9-6.98c-1.45-1.32-3.56-2.77-6.85-2.77
		C694.35,118.26,691.85,118.91,689.61,121.02z"/>
	<path class="st1" d="M745.46,126.16l-17.26-19.36h19.76l7.38,8.83l7.51-8.83h19.76l-17.65,19.36l21.34,23.18h-20.15l-10.8-12.65
		l-10.8,12.65h-20.29L745.46,126.16z"/>
	<path class="st1" d="M805.01,143.55l-20.55-36.75h17.65l11.33,21.87l11.07-21.87h17.39l-34.25,64.42h-16.99L805.01,143.55z"/>
</g>
<g>
	<path class="st0" d="M33.59,77.02c-2.37,14.89,0,29.24,5.4,43.34c4.48,11.72,11.59,20.81,21.6,27.8
		c5.66,3.95,12.25,6.06,20.02,6.45c-0.79-1.05-1.19-1.71-1.71-2.24c-26.61-23.05-29.11-62.05-11.2-90.37
		c13.17-20.95,32.67-33.2,56.38-38.86c16.33-3.95,31.88-3.95,46.63-0.79c-16.33-8.69-34.91-13.7-54.67-13.7
		c-19.63,0-38.07,4.87-54.27,13.44C47.16,37.51,37.02,55.42,33.59,77.02z"/>
	<path class="st0" d="M181.13,28.68c-18.71-5.4-37.81-5.66-57.17,1.19c-12.38,4.35-22.79,11.46-31.75,21.34
		c-8.04,8.83-12.65,18.71-14.36,30.17c-0.66,4.08,0.26,8.43,0.4,12.78c0.4,0,0.79,0.13,1.19,0.13c0.4-0.79,0.92-1.45,1.32-2.24
		c17.39-35.7,60.07-50.85,95.9-33.72c27.14,13.04,45.18,34.25,52.96,63.49c0.92,3.56,1.71,7.11,2.24,10.67
		c0.13-2.5,0.26-5.14,0.26-7.64C232.11,84.8,211.82,49.62,181.13,28.68z"/>
	<path class="st0" d="M8.83,153.96c8.04,13.96,18.57,25.56,32.27,33.99c22.92,14.1,47.29,18.05,72.98,8.04
		c9.88-3.82,17.39-10.54,21.87-20.29c0.26-0.53,0.4-1.19,0.66-2.37c-1.32,0.53-2.11,0.79-2.9,1.19c-30.3,15.41-65.6,5.01-85.62-16.6
		c-7.25-7.9-12.78-16.73-16.07-26.74c-13.3-40.44-3.82-75.22,23.32-105.25C22.13,46.33,0,82.95,0,124.84c0,4.74,0.26,9.48,0.92,14.1
		C3.43,143.81,6.06,148.95,8.83,153.96z"/>
	<path class="st0" d="M230,142.36c-4.61-32.14-20.02-56.91-51.24-69.69c-9.62-3.95-19.76-6.32-30.17-3.16
		c-4.35,1.32-8.69,3.16-13.04,4.61c0.13,0.4,0.13,0.92,0.26,1.32c1.58,0.26,3.29,0.53,4.87,0.79c22.53,3.69,39.26,15.81,50.72,35.3
		c6.85,11.59,10.14,24.37,9.48,37.94c-1.45,32.8-17.12,57.83-43.73,76.27c-10.27,7.11-21.34,11.86-32.93,14.75
		c53.48-3.69,96.95-43.73,106.04-95.5C230.27,144.08,230.13,143.28,230,142.36z"/>
	<path class="st0" d="M137.13,232.6c25.16-12.12,42.94-30.69,49.14-58.62c2.77-12.65,2.63-25.16-2.63-37.28
		c-2.37-5.53-6.45-9.62-11.72-14.1c0.53,3.03,0.79,5.01,1.05,6.98c3.29,27.14-6.59,49.14-27.66,65.73
		c-21.21,16.73-45.97,19.23-71.13,13.04c-35.04-8.56-58.49-31.22-72.45-64.15c-0.13-0.26-0.26-0.53-0.26-0.79
		c8.69,54.4,55.33,96.29,111.97,97.48C121.59,239.05,129.49,236.29,137.13,232.6z"/>
</g>
<circle class="st2" cx="23.58" cy="138.54" r="6.06"/>
<circle class="st2" cx="177.31" cy="168.18" r="6.06"/>
<circle class="st2" cx="213.01" cy="132.48" r="8.83"/>
<circle class="st2" cx="85.49" cy="24.73" r="6.06"/>
</svg>
