<svg width="88" height="48" viewBox="0 0 88 48" fill="none" xmlns="http://www.w3.org/2000/svg">
<path d="M84 16H64V32H84V16Z" fill="#42A5F5"/>
<path d="M16 32V16H23.9985C31.231 16 34.6443 14.3617 41.5016 8.87604C49.6448 2.36178 54.5654 0 64 0C77.2548 0 88 10.7452 88 24C88 37.2548 77.2548 48 64 48C54.5652 48 49.6365 45.6362 41.4778 39.1149C34.6255 33.6378 31.2119 32 23.9985 32H16ZM46.4985 15.1235C38.355 21.6381 33.434 24 23.9985 24C33.4141 24 38.334 26.3606 46.4847 32.8755C53.3451 38.359 56.7668 40 64 40C72.8366 40 80 32.8366 80 24C80 15.1634 72.8366 8 64 8C56.7685 8 53.3555 9.63815 46.4985 15.1235Z" fill="#2979FF"/>
<path d="M24 0C33.4346 0 38.3552 2.36178 46.4984 8.87604C53.3557 14.3617 56.769 16 64.0015 16H72V32H64.0015C56.7881 32 53.3745 33.6378 46.5222 39.1149C38.3635 45.6362 33.4348 48 24 48C10.7452 48 0 37.2548 0 24C0 10.7452 10.7452 0 24 0ZM24 8C15.1634 8 8 15.1634 8 24C8 32.8366 15.1634 40 24 40C31.2332 40 34.6549 38.359 41.5153 32.8755C49.666 26.3606 54.5859 24 64.0015 24C54.566 24 49.6449 21.6381 41.5015 15.1235C34.6445 9.63815 31.2315 8 24 8Z" fill="#42A5F5"/>
<path d="M24 16V32L1.36579 32.0004C0.481285 29.4981 0 26.8052 0 24C0 21.1951 0.481177 18.5025 1.36549 16.0004L24 16Z" fill="#2979FF"/>
</svg>
