<svg viewBox="0 0 1024 1024" xmlns="http://www.w3.org/2000/svg">
<defs><g id="asset"><path d="M776.0258828088283,514.4914325370969,C785.1663120035179,522.1385880110487,795.1061035342065,527.6927615537281,800.151590407587,527.9724362814645C805.1970772809677,528.2521110092008,821.7034219618162,528.0650187284348,840.2155338077046,527.518328803877C858.727645653593,526.9716388793194,871.3899689740266,530.9786996209223,870.9493282747766,537.244204390292C870.5086875755266,543.5097091596616,857.410160798494,545.7050596850796,839.1567875538236,542.5727250830541C820.9034143091533,539.4403904810287,804.5857340359007,536.9448487073051,799.5507674731136,536.5155848555698C794.5158009103264,536.0863210038344,791.5129026889058,540.063842270141,792.2621795570442,546.169762686411C793.0114564251826,552.275683102681,785.0459621391963,557.8497284244019,772.9284555619317,559.69899890418C760.8109489846672,561.5482693839582,757.1437220919279,565.5073674568928,764.0274194145062,569.3084602462543C770.9111167370845,573.1095530356158,782.5136153206722,577.4121705964475,792.1888237436026,579.7517067531273C801.864032166533,582.0912429098073,818.1091308560186,585.224241950901,831.6186749316746,587.3560733577237C845.1282190073307,589.4879047645466,853.8354668777338,593.978572629985,852.7527717044977,598.2557526427686C851.6700765312618,602.5329326555523,841.874921961842,602.3400329005038,828.9781246913432,597.7875493538163C816.0813274208443,593.2350658071288,800.3020982351143,588.2616524192401,790.679024725979,585.71615763564C781.0559512168438,583.1706628520399,775.08676801451,581.6488766252922,776.1907159824503,582.0225017454759C777.2946639503907,582.3961268656595,772.2901831097131,581.5087492479934,764.043917825466,579.8686725763831C755.7976525412188,578.2285959047729,754.2980243077349,583.1108061589812,760.4040434723497,591.7186974652383C766.5100626369646,600.3265887714954,784.6798778764415,611.4229893416331,804.505536772051,618.6517085578057C824.3311956676604,625.8804277739783,857.2555785898031,636.0150444534676,884.4190875539507,643.2502927313233C911.5825965180983,650.485541009179,928.0818113507578,662.1088675681598,924.465725497299,671.4622503987525C920.8496396438403,680.8156332293453,900.8225155998082,678.3176114288177,875.8562011185802,665.3990906887343C850.8898866373522,652.4805699486509,819.7105456196965,637.8322205621571,800.1781889398043,629.8448446050115C780.645832259912,621.857468647866,766.4293305546737,615.4343548634049,765.6721168397113,614.2547626038927C764.9149031247489,613.0751703443804,770.5597727536461,617.963052810812,779.3732567156756,626.1185549981441C788.186740677705,634.2740571854762,799.2437929516335,642.8615581294057,806.2107622349195,646.9620038911768C813.1777315182055,651.0624496529479,818.8811436085897,654.3166595626511,820.0539954640074,654.860571633175C821.2268473194249,655.4044837036989,832.5458518354941,659.653542835592,847.5273073962142,665.1738219533039C862.5087629569342,670.6941010710158,871.4426370962314,677.8371516891308,869.2114679284887,682.5113234535831C866.980298760746,687.1854952180355,855.8082919340376,684.7312045397057,842.0949465044392,676.5543072440447C828.3816010748409,668.3774099483837,817.9598186906519,662.248721778985,816.7993581933009,661.6788505222032C815.6388976959499,661.1089792654213,809.4335994382618,665.4557246235665,801.7379546552229,672.2292033332353C794.042309872184,679.0026820429041,785.5215457711244,687.2340123622494,781.0564883905149,692.2081604190246C776.5914310099055,697.1823084757998,769.6982347182884,699.1429609201072,764.3254294302794,696.9670255751103C758.9526241422705,694.7910902301135,767.7849577406306,702.6559186946083,785.7631323389205,716.0564150520397C803.7413069372104,729.456911409471,833.2015903218736,749.2492364754921,857.2686745347049,764.0960389986931C881.3357587475363,778.942841521894,893.9488880690903,794.8416088336962,887.8830660918752,802.6852800467566C881.8172441146601,810.528951259817,863.2571175857348,802.3202036971636,842.8342152935131,782.7611354772098C822.4113130012914,763.202067257256,795.8453706864881,739.6670903600876,778.3537727818543,725.6374051442767C760.8621748772206,711.6077199284659,742.1530217902906,699.7522851123626,732.9432070368784,696.862077920725C723.7333922834663,693.9718707290874,710.7064531044695,689.5343231694928,701.3244226218374,686.0913314168547C691.9423921392053,682.6483396642165,684.867092092467,683.7220310438678,684.1513642559678,688.6973784548434C683.4356364194686,693.672725865819,690.3993732278336,705.2453249482537,701.0536380626792,716.7862111791997C711.7079028975247,728.3270974101455,728.7264345501743,745.1516376925892,742.36075372445,757.622474000665C755.9950728987257,770.0933103087407,762.2961512449249,781.7481058427867,757.6546332055161,785.9108126755337C753.0131151661074,790.0735195082808,742.1103956994631,782.5456675240151,731.1917218787096,767.6393272768305C720.273048057956,752.7329870296459,705.3933580170988,733.9902444444258,695.075969352357,722.1472336233837C684.7585806876152,710.3042228023417,670.6729212259312,702.6692253393214,660.8874755133181,703.6156863830435C651.102029800705,704.5621474267655,646.4765375359743,714.1580897009073,649.6605525406708,726.9068084076596C652.8445675453671,739.6555271144119,655.0285659002163,750.5923165740315,654.9615194213728,753.4524138921731C654.8944729425293,756.3125112103148,655.5592579330955,759.543841021164,656.5750752237179,761.2954474136516C657.5908925143403,763.0470538061392,663.6621293388852,771.9990418116521,671.3110869337784,783.0235736406246C678.9600445286715,794.048105469597,681.6700047593447,803.270770717992,677.8886603091989,805.408683466826C674.1073158590531,807.54659621566,667.601846234755,800.4698523526167,662.0986854929415,788.2321206924494C656.595524751128,775.994389032282,652.0548698952801,766.1770340264457,651.0776785612723,764.4035891248852C650.1004872272642,762.6301442233248,645.072154386581,756.3743110729138,638.8729872003906,749.2195280801983C632.6738200142003,742.0647450874828,626.1699614023395,740.7616577877675,623.0869226084956,746.056694828462C620.0038838146515,751.3517318691564,613.6117567301379,762.7987512077409,607.572051044142,773.8407223492982C601.532345358146,784.8826934908553,597.3090979110389,792.6480584504809,597.3214504443673,792.6886955522729C597.3338029776958,792.7293326540648,600.8335823068443,801.5965142157197,605.8160604665725,814.2109808960954C610.7985386263007,826.8254475764711,611.3346989411449,836.5269684870404,607.1174204540584,837.7583617469918C602.900141966972,838.9897550069431,598.1316855659204,830.5240123098906,595.5434971505354,817.2104425793885C592.9553087351503,803.8968728488865,591.1337898461078,794.539659955244,591.1223347984903,794.498760798703C591.1108797508729,794.4578616421619,584.4673381020278,788.8495799543705,574.9972337090607,780.8864266050343C565.5271293160935,772.9232732556982,556.014563263164,769.8821940976742,551.9084811534067,773.5051665127432C547.8023990436494,777.1281389278122,544.736512890911,778.0473088877791,544.467009908896,775.7361615612065C544.1975069268811,773.4250142346339,544.4903553826881,775.7153352992253,545.1778071317285,781.2951932713802C545.865258880769,786.875051243535,549.454455884784,805.3204188103941,553.8894503453571,826.065502899679C558.3244448059302,846.8105869889639,556.2341566292495,861.8919606423683,548.8159353534136,862.6707787574568C541.3977140775777,863.4495968725453,536.2208252497745,849.1311836224767,536.2506712082602,827.9173485388437C536.2805171667459,806.7035134552108,535.960624726731,787.9149108292306,535.4742332470589,782.313944106853C534.987841767387,776.7129773844754,529.9332603462275,775.334946314773,523.2058317393904,778.9692085007791C516.4784031325534,782.6034706867853,505.50688804472907,783.2175707244764,496.57594074952556,780.4597425728451C487.64499345432205,777.7019144212138,477.58603249063844,777.6006293967303,472.1609869541769,780.2139051347784C466.73594141771537,782.8271808728266,462.88819150489644,784.916807469741,462.8217881366552,785.2858143505902C462.75538476841393,785.6548212314393,461.47609564779543,799.3450280605435,459.71671745554227,818.5144717027849C457.95733926328916,837.6839153450263,452.1508662245829,850.2145216048239,445.6233362936339,848.9285645663713C439.0958063626848,847.6426075279187,438.47593442450716,833.8459781871137,444.11879275436763,815.4416001469417C449.76165108422816,797.0372221067697,453.77050725883225,783.8847540551407,453.8490261878727,783.5181340022109C453.92754511691317,783.1515139492811,452.6727243110332,779.3742216548399,450.8033446202029,774.349948821528C448.9339649293726,769.3256759882161,445.95671146199976,769.8463338655669,443.577001252793,775.6136815335446C441.19729104358623,781.3810292015224,434.35634353000995,790.0912777036145,426.9727597149864,796.7550613929915C419.58917589996287,803.4188450823684,412.90169635492873,812.6816103373909,410.741013246457,819.2375013323665C408.5803301379853,825.7933923273421,402.8136922976056,848.6020285340715,396.7443194591277,874.598268824428C390.6749466206498,900.5945091147846,380.1476511704718,916.6088619476828,371.19263147325887,913.4680572537927C362.2376117760459,910.3272525599025,364.0195672633889,891.2456362553798,375.5177661512758,867.1534545729126C387.01596503916267,843.0612728904454,396.759517636401,821.6474647195973,399.1671656591357,815.1781920223108C401.57481368187047,808.7089193250242,398.3798920809112,801.4049554721178,391.4125015791375,797.450124418169C384.4451110773638,793.4952933642203,377.3905132697273,789.7824149388347,374.2896913664275,788.4382835798544C371.18886946312773,787.0941522208742,366.6588733619501,789.6864067554496,363.2945551985207,794.7301635181444C359.9302370350913,799.7739202808392,350.1407003210979,817.32797453238,339.5335437567891,837.3370913131466C328.92638719248026,857.3462080939132,312.5629241847325,892.5993534835042,299.81640053410035,922.9029781810859C287.06987688346817,953.2066028786676,270.9561610181303,970.453311576146,260.70543969590153,964.7639216215675C250.45471837367285,959.0745316669891,256.5666993831758,936.2766263240854,275.54034505877274,909.4291999154907C294.5139907343697,882.581773506896,315.77459748983927,850.0466573728654,327.1437595137959,830.4604714348341C338.5129215377525,810.8742854968027,349.26259530529694,787.0226719469464,353.23520069715624,772.5682055371244C357.20780608901555,758.1137391273024,349.4908514371461,749.3292835992864,334.50472824116247,751.2467115370857C319.51860504517884,753.164139474885,313.1698636589599,743.8245906396118,319.0951617697573,728.5779036844806C325.02045988055465,713.3312167293494,322.09837497891016,710.0245674896546,312.0027226880959,720.5520560153184C301.9070703972816,731.0795445409823,289.3678269401963,745.1454382746635,281.5676657534229,754.6925747863894C273.76750456664945,764.2397112981153,266.3411703022229,769.0131778447756,263.542582587339,766.2786586375065C260.7439948724551,763.5441394302375,265.3442238039563,756.0092660234137,274.70818679001184,747.990130951041C284.07214977606736,739.9709958786683,297.8439243431326,727.1094167269,308.1348240887139,716.7727058253897C318.42572383429524,706.4359949238794,321.8706232025443,703.0861891162943,316.4962303223282,708.6421092050377C311.12183744211205,714.1980292937811,301.99912932032925,712.6894324750876,294.35373488110775,704.9804664412186C286.70834044188626,697.2715004073495,280.11098509087765,688.0306655951912,278.3407364563295,682.5512557320963C276.5704878217814,677.0718458690014,261.50491513167646,682.6510134206352,241.7738124512204,696.0929245467414C222.04270977076436,709.5348356728475,201.9730743362119,723.9567756591608,193.06110508580187,731.0976332513851C184.14913583539183,738.2384908436095,176.5251227707429,741.1843462616024,174.55621900655697,738.2477677610766C172.58731524237103,735.3111892605508,178.20771701915913,729.3769898013877,188.19797089196499,723.844371015535C198.18822476477084,718.3117522296823,219.15125770362332,705.2222958066964,239.07911880180106,692.0738457170253C259.00697989997883,678.9253956273542,269.9625143103929,664.5451515986827,265.6702217396994,657.1703407930654C261.3779291690059,649.795529987448,255.76336118361908,643.3510732755839,252.04262954215864,641.5284555700941C248.3218979006982,639.7058378646044,241.8274290978211,637.316495919716,236.2793557487676,635.7290819174523C230.73128239971413,634.1416679151886,219.87494386575042,635.9872280672445,209.92901950128285,640.2085968496268C199.98309513681528,644.4299656320092,183.51750358563135,652.3556927012932,169.96399146442863,659.4457984741027C156.41047934322592,666.5359042469123,145.59909885329122,668.313406252623,143.72277668303374,663.7601237306823C141.84645451277626,659.2068412087415,150.77135009136813,652.8513946949489,165.3851445922373,648.3342826777878C179.9989390931065,643.8171706606266,197.26808937837825,637.8414445012464,207.30055790600372,633.8300929705543C217.3330264336292,629.8187414398623,218.51665181417744,623.3212529672888,210.17343504325675,618.0594898817837C201.83021827233605,612.7977267962787,204.01812655726354,598.6008158766756,215.48389204550793,583.6009682322618C226.94965753375232,568.6011205878481,231.5884991872485,559.0599343955029,226.74321644719763,560.4427493188025C221.89793370714676,561.8255642421021,203.8246437266808,565.3347950042049,182.8760077567462,568.9602997122558C161.9273717868116,572.5858044203067,131.5430226963003,579.2426544071252,109.12758763414598,585.1177025928832C86.71215257199165,590.9927507786414,70.1473708125567,589.6657787223863,68.92180666464367,581.8968966310993C67.69624251673063,574.1280145398122,83.04807986540214,567.766101337345,106.18354780219587,566.4553597319073C129.3190157389896,565.1446181264696,160.27707349205735,562.1245218434381,181.32446467857392,559.1250289478503C202.37185586509048,556.1255360522624,210.93633566122574,551.6225730074577,202.11203699929055,548.1955069944408C193.28773833735536,544.7684409814241,190.74015948671106,540.9947453236382,195.92859318704706,539.0360515143783C201.11702688738305,537.0773577051184,199.94655386385713,533.7723601279141,193.08763924645018,531.0142127347563C186.22872462904323,528.2560653415984,179.27502410711227,526.4165470544506,176.2097253582683,526.5493625232325C173.1444266094243,526.6821779920144,151.20914640972842,529.4270125699737,122.96875399978316,533.2115823726483C94.7283615898379,536.9961521753229,74.77292127068529,532.4804092874335,74.53321924455838,522.2510413826255C74.29351721843148,512.0216734778176,94.01553854940236,506.5761793054293,122.4022030575945,509.03382251760553C150.78886756578666,511.49146572978174,172.82863931797857,513.2058447458732,175.89679468912828,513.1949366343322C178.964950060278,513.1840285227912,182.13902948974078,511.63623164401207,183.60087097423212,509.4381480936061C185.06271245872347,507.24006454320016,187.75244236248804,500.551464970145,190.1293416144374,493.20368311046246C192.50624086638678,485.85590125077994,202.18894857768024,480.2830248945293,213.63105936029532,479.67728418752404C225.0731701429104,479.07154348051876,232.9299016690747,478.6279162601528,232.70079607428627,478.60051908954847C232.47169047949785,478.57312191894414,216.70651334814357,478.0834696285541,194.43580303701862,477.412042656563C172.16509272589366,476.7406156845719,157.32197866952657,470.7808165178567,158.40882717204997,462.9465106985165C159.49567567457336,455.11220487917626,175.4006161028312,453.4180646926893,197.0130515124816,458.8345199546162C218.625486922132,464.25097521654305,233.92858713804347,468.07140623021553,234.15649863848031,468.10741076450086C234.38441013891716,468.1434152987861,236.82712145127397,469.0142854234422,240.0854095908027,470.22117320298634C243.34369773033143,471.4280609825305,251.271035235517,467.1418764152077,259.3265200402823,459.81781260268826C267.38200484504756,452.4937487901688,271.6022379666959,441.60904312776114,269.56980431612783,433.39862410169883C267.53737066555976,425.1882050756365,253.26837253635443,414.5998269659654,234.9363137112605,407.69867723356504C216.6042548861666,400.79752750116467,196.76772600621416,393.93298537056717,186.78939895409448,391.0371672078429C176.8110719019748,388.1413490451187,170.63053752592916,384.005900022322,171.78810192485753,380.9996695796956C172.9456663237859,377.99343913706923,180.30363334056437,379.0710592805484,189.64724516946546,383.6152524522178C198.99085699836655,388.1594456238872,218.30854455315253,396.3714346767052,236.5348363218586,403.547264716339C254.76112809056465,410.7230947559728,267.2893705782848,409.93285741715613,266.94319187457734,401.6292129230946C266.5970131708699,393.32556842903307,263.4725882629439,379.17226190784356,259.3596362728151,367.2765271920521C255.24668428268637,355.3807924762606,248.54589299628444,342.2786016114924,243.09557975242203,335.47509305426524C237.64526650855962,328.67158449703805,223.66311684811268,317.0323311066044,209.1583232950265,307.2244780289408C194.6535297419403,297.4166249512772,177.35432189876335,286.48306403453194,167.16995474362605,280.68670881353967C156.98558758848876,274.89035359254746,151.2820449921056,268.7424250507068,153.32640475240478,265.76455215858664C155.37076451270397,262.7866792664665,163.15755423799507,265.90009046295773,172.22637981379097,273.32137545104126C181.29520538958687,280.74266043912473,197.71473810905738,292.9575812982974,212.07961456978734,302.96924161408174C226.4444910305173,312.9809019298661,246.50118196778834,320.42750920023906,260.760903252484,321.0435311052782C275.02062453717963,321.6595530103173,288.80117455346993,324.31381835876755,294.20884018522736,327.4859227277301C299.6165058169848,330.65802709669265,312.20329540680683,332.47152358873564,324.7593003546983,331.88761324239755C337.31530530258976,331.30370289605946,343.8460612481669,328.4196056667848,340.61064973716714,324.8873772490125C337.37523822616737,321.35514883124023,328.67388049153203,312.9126752195877,319.49084941038245,304.39593644403067C310.3078183292328,295.87919766847364,306.00132172959707,288.00672905269374,309.03818776078106,285.28800291058434C312.07505379196505,282.56927676847494,319.4249308236463,287.71718728520676,326.8776951192307,297.7829313492539C334.330459414815,307.848675413301,341.7624976847304,317.4274955005591,344.9166229588312,321.03249466784143C348.07074823293203,324.6374938351238,354.9034492387446,323.0693400359957,361.50084870109464,317.22629612626844C368.0982481634447,311.38325221654117,376.63577149691406,299.97069424202385,382.2229927143698,289.525912692974C387.81021393182556,279.0811311439241,390.6861833241722,263.7086954765011,389.20350094822084,252.214175636122C387.7208185722695,240.71965579574294,381.68500705940727,221.52751204858822,374.5534730043805,205.6313024634164C367.4219389493537,189.7350928782446,355.3677285733313,165.8408724522084,345.2956808295688,147.6356218176975C335.22363308580634,129.43037118318662,332.63625343144383,114.74133575505289,339.0156331248055,111.9826232057224C345.3950128181671,109.22391065639192,354.32570919591393,121.16982868278392,360.6920806436084,140.97756987172238C367.0584520913029,160.78531106066083,376.21235279723726,185.9337475811149,382.9102862405364,202.01746433884384C389.6082196838355,218.1011810965728,396.34834680828806,229.6935175821712,399.26981809600375,230.15420338155843C402.19128938371944,230.61488918094565,411.4343869403875,235.9897991257704,421.7045209034506,243.20010130589026C431.9746548665137,250.41040348601013,438.2428101021013,249.20120436416906,436.91848992186726,240.26515198103326C435.59416974163315,231.32909959789745,432.51768410945516,217.09595778281854,429.4512917855129,205.7186912648223C426.38489946157074,194.34142474682605,420.5143040256969,175.99433173532847,415.2022737372755,161.18691211070194C409.89024344885416,146.3794924860754,409.6301610681465,135.11229116858962,414.5710058229365,133.8393360973869C419.51185057772653,132.5663810261842,424.7285056114826,142.55657515003864,427.23278988545115,158.08738008732487C429.7370741594197,173.6181850246111,433.4627154560969,192.51790220960464,436.2756085667064,203.96048005090142C439.08850167731595,215.4030578921982,443.6996204187317,227.06441522252896,447.4676443468416,232.26474541578193C451.23566827495154,237.4650756090349,458.17884553991206,234.1577821957645,464.3200163491729,224.23733421852364C470.46118715843375,214.3168862412828,475.5290359155742,215.47248165292237,476.62062012864,227.04217745065853C477.7122043417058,238.6118732483947,477.02657153241876,235.24022472983347,474.95646282454527,218.8585645415294C472.8863541166718,202.47690435322534,467.67034181413675,173.70044798340882,462.296238789266,149.01279665362526C456.92213576439525,124.3251453238417,459.3881734431806,106.35696675045237,468.2817671358324,105.40071273763175C477.17536082848426,104.44445872481113,483.40480780249726,121.47768429944486,483.4017840630484,146.74349325858742C483.39876032359956,172.00930221772998,484.4194350117891,201.23684827833932,485.8791498110812,217.6841390367654C487.3388646103733,234.13142979519148,488.7767731607771,240.4822457777628,489.3692191081778,233.09874093621036C489.96166505557846,225.7152360946579,496.65222943364483,222.30940935746938,505.6084530355233,224.8321711857528C514.5646766374018,227.35493301403622,523.1999026119511,224.60658523326413,526.5677393815167,218.16142414504387C529.9355761510823,211.7162630568236,532.8536443213613,198.81573235583764,533.6504291152037,186.84945642420416C534.4472139090461,174.8831804925707,534.8410418603133,155.25153976269087,534.6063222008036,139.1998430021658C534.3716025412939,123.14814624164075,537.8413423847162,112.18335812026913,543.0280208498868,112.58627960077843C548.2146993150575,112.98920108128772,549.9494558131079,124.35829484552748,547.238594874281,140.18116737805943C544.5277339354543,156.00403991059136,541.8850081586083,175.46097745663567,540.8242119207714,187.4067439461281C539.7634156829345,199.35251043562053,538.767763965153,209.87011904613496,538.4075815378067,212.93492018524077C538.0473991104603,215.99972132434658,544.0929564009294,219.56757449111385,553.081264281664,221.59475796865647C562.0695721623985,223.6219414461991,573.2547891880233,228.19962613822156,580.2298492953166,232.70564314346828C587.2049094026098,237.211660148715,595.6457951497174,228.3169792114272,600.7174360601407,211.1166117422843C605.789076970564,193.91624427314142,612.2660701645449,167.61163875150248,616.4382933270845,147.2704818353937C620.6105164896242,126.92932491928492,628.220132665345,114.13192794706244,634.9082355011642,116.20883869893134C641.5963383369834,118.28574945080025,640.6182879792035,133.1425002767409,632.5343268657758,152.2689135191756C624.4503657523481,171.39532676161033,614.8877528494559,196.7417297993857,609.3241013733186,213.78930924193136C603.7604498971815,230.83688868447703,601.8213010844518,235.98329089966754,604.6174294977611,226.2805767545297C607.4135579110704,216.57786260939187,616.7414615981548,212.4526775997332,627.2579724275778,216.26799177963C637.7744832570007,220.0833059595268,642.7188121419288,232.83691868712478,639.2587706919662,247.22336247768334C635.7987292420037,261.60980626824187,640.7925218424108,257.00280757767933,651.379626518197,236.0413268209781C661.9667311939833,215.07984606427686,676.5088739615688,182.49967664808503,686.6760895463173,156.9632457137164C696.8433051310657,131.42681477934775,710.0049775076583,116.7268517872985,718.6218962856195,121.28372388835416C727.2388150635808,125.84059598940982,722.4979967367593,144.9937464693818,707.1150556865383,167.77195320867443C691.7321146363173,190.55015994796707,672.9901378969225,220.9093375284054,661.6248208821821,241.45927743303926C650.2595038674417,262.00921733767314,647.8262315948144,271.86001799919023,655.7188202204654,265.36898777652743C663.6114088461165,258.8779575538646,678.4204352987458,255.49633424026072,691.6630591831579,257.16116419981904C704.90568306757,258.8259941593774,707.5164673382185,268.63214070476204,697.9999142090037,280.9624907662866C688.4833610797889,293.2928408278111,690.0813865111968,291.7070328431282,701.878616712421,277.1134422597746C713.6758469136454,262.519851676421,732.1399639583703,237.10176103610752,746.6944347821418,215.4190475017321C761.2489056059133,193.7363339673567,776.4095411521595,182.7104956949298,783.4920938749724,188.6573041220551C790.5746465977853,194.60411254918043,782.3382150599393,211.4438030243107,763.50075519088,229.53033925586647C744.6632953218207,247.61687548742222,722.8232478902476,270.2003933317956,710.4909313278386,284.3447029558019C698.1586147654294,298.48901257980816,688.5202362127951,312.17686100278206,687.0968086272698,317.5676360212725C685.6733810417444,322.9584110397629,689.7235043060165,329.8768085385879,696.9272048997748,334.35986296016813C704.1309054935331,338.84291738174835,708.9244984740851,348.5027696737922,708.5621393185904,357.80610638745907C708.1997801630959,367.109443101126,717.7404878804111,366.7114115185106,731.7191968848897,356.8400103131499C745.6979058893684,346.9686091077892,768.4624412183953,329.03174956408407,786.9729234116542,313.3039434594967C805.4834056049131,297.5761373549093,821.8635195847332,291.58953298424314,826.7304816151011,298.7733503268119C831.597443645469,305.9571676693807,819.9637329093609,318.94964012043255,798.4933196342563,330.30847763519023C777.0229063591518,341.6673151499479,751.9234830793177,356.1577930598322,737.5723893433969,365.4795405232589C723.2212956074761,374.80128798668557,711.3432451477997,385.3676987005405,708.7421697810757,391.1261684695087C706.1410944143518,396.8846382384769,705.5073274501026,402.68074331337544,707.2039004503739,405.1943846707187C708.9004734506452,407.708026028062,715.5408797457403,409.48884924766753,723.3213914578862,409.51677112607183C731.1019031700321,409.5446930044762,739.4580344746223,408.2393057154629,743.6032635564063,406.3483553760395C747.7484926381903,404.4574050366161,758.4145463474617,398.79538481640947,769.4917434332785,392.60558785126614C780.5689405190953,386.4157908861228,789.5029056321649,384.72921154305067,791.1761247756805,388.5119486690523C792.849343919196,392.2946857950539,785.5913781636302,397.7702876444452,773.5597030388703,401.8022444200021C761.5280279141105,405.83420119555905,750.1634375490378,409.91700177079963,745.975745842092,411.71195455408133C741.7880541351462,413.50690733736303,742.4428855945596,418.5941738243969,747.5651425882409,424.059688745911C752.6873995819223,429.52520366742516,753.9767359483408,436.8283884812897,750.6945997882858,441.785865478592C747.412463628231,446.7433424758943,752.9387072918208,453.9253523612099,764.1078125639895,459.21792830702793C775.2769178361581,464.510504252846,783.5986957376989,468.13883881106193,784.3063026162731,468.02456558425115C785.0139094948473,467.91029235744037,792.5657752530385,466.1102558573744,802.6360738740187,463.6555449530231C812.706372494999,461.20083404867177,820.1076758034027,461.74679423312216,820.6004022924744,464.9806910317862C821.0931287815462,468.2145878304502,814.1902582057771,470.93997605970776,803.8458620600253,471.5957110057122C793.5014659142735,472.2514459517166,785.7561973978796,472.78212800367413,785.046666631885,472.8837742386187C784.3371358658904,472.98542047356324,779.028018085584,478.91310334965607,772.1604584272579,487.2713540349605C765.2928987689319,495.6296047202649,766.8854536141388,506.8442770631451,776.0258828088283,514.4914325370969" /></g></defs><use href="#asset" fill="#6B56EB" /></svg>