<svg width="1024" height="1024" viewBox="0 0 1024 1024" xmlns="http://www.w3.org/2000/svg" shape-rendering="crispEdges">
<rect width="1024" height="1024" fill="#71BCE1" />
<path d="M143,453 Q185,288,233,333,282,379,335,567,389,756,425,622,461,488,501,435,542,382,599,560,656,739,691,517,727,295,783,504,840,714,930,468" fill="transparent" stroke="#E50000" stroke-width="64" stroke-linecap="round" transform="translate(0,0)"/>
<path d="M143,453 Q185,288,233,333,282,379,335,567,389,756,425,622,461,488,501,435,542,382,599,560,656,739,691,517,727,295,783,504,840,714,930,468" fill="transparent" stroke="#FF8D00" stroke-width="64" stroke-linecap="round" transform="translate(0,54)"/>
<path d="M143,453 Q185,288,233,333,282,379,335,567,389,756,425,622,461,488,501,435,542,382,599,560,656,739,691,517,727,295,783,504,840,714,930,468" fill="transparent" stroke="#FFEE00" stroke-width="64" stroke-linecap="round" transform="translate(0,108)"/>
<path d="M143,453 Q185,288,233,333,282,379,335,567,389,756,425,622,461,488,501,435,542,382,599,560,656,739,691,517,727,295,783,504,840,714,930,468" fill="transparent" stroke="#028121" stroke-width="64" stroke-linecap="round" transform="translate(0,162)"/>
<path d="M143,453 Q185,288,233,333,282,379,335,567,389,756,425,622,461,488,501,435,542,382,599,560,656,739,691,517,727,295,783,504,840,714,930,468" fill="transparent" stroke="#004CFF" stroke-width="64" stroke-linecap="round" transform="translate(0,216)"/>
<path d="M143,453 Q185,288,233,333,282,379,335,567,389,756,425,622,461,488,501,435,542,382,599,560,656,739,691,517,727,295,783,504,840,714,930,468" fill="transparent" stroke="#770088" stroke-width="64" stroke-linecap="round" transform="translate(0,270)"/>
</svg>
