<?xml version="1.0"?>
<svg xmlns="http://www.w3.org/2000/svg" version="1.2" baseProfile="tiny" width="800" height="768" viewBox="0 0 800 768" stroke-linecap="round" stroke-linejoin="round">
<g id="ne_10m_admin_1_states_provinces">
<path d="M 37.92 639.24 37.46 636.3 39.08 611.25 38.45 586.39 38.28 573.1 33.18 567.39 32.22 557.89 26.49 549.1 9.52 550.46 1 546.5 2.7 535.83 11.57 526.51 20.4 516.73 31.58 514.38 37.33 501.24 46.51 496.85 51.25 487.75 58.71 473.93 63.79 460.1 84.81 445.61 94.97 446.98 106.13 456.45 111.54 459.49 117.97 459.16 125.76 456.47 132.2 449.73 151.2 435.56 160.33 440.3 169.72 437.41 177.4 430.52 183.02 420.95 194.57 385.85 200.35 350.07 203.47 339.67 203.08 325.85 204.97 313.69 206.26 297.8 207.53 297.8 214.45 310.69 218.25 314.63 223.64 317.76 226.79 321.69 232.34 320.46 229.63 306.62 226.95 301.27 230.12 297.65 233.91 296.87 238.65 298.28 243.54 299.07 242.13 294.2 239.77 291.2 231.08 291.83 226.34 291.67 218.76 291.35 216.07 288.36 214.5 284.9 211.49 287.42 208.49 289.93 207.22 287.57 206.77 273.1 206.48 265.98 197.2 249.64 189.27 245.03 181.88 243.94 174.68 242.52 173.59 236.48 178.26 233.64 189.24 232.89 198.97 235.08 206.16 227.63 210.13 214.85 211.69 203.85 209.83 198.09 210.62 192.05 211.9 177.55 215.5 172.24 214.35 165.1 216.13 161.19 223.38 168 231.96 173.71 237.32 175.85 245.03 184.95 256.35 200.24 267.75 208.49 277.03 208.79 288.95 200.68 294.94 187.95 305.29 184.41 324.89 187.99 341.62 202.93 345.88 216.07 343.37 231.33 342.26 248.13 340.68 253.74 340.86 260.96 343.18 273.1 344.98 290.57 350.66 309.52 358.44 374.31 371.46 398.61 392.89 409.06 413.28 406.88 427.04 390.99 436.34 381.25 444.48 363.32 442.31 359.22 441.11 352.74 442.84 348.48 444.56 346.27 441.07 344.88 437.06 346.22 434.3 344.67 431.38 341.59 435.17 339.72 440.5 339.22 439.64 334.6 440.33 330.67 444.64 327.27 443.59 323.66 445.14 320.94 449.6 310.16 452.36 308.47 458.53 309.5 463.53 316.9 474.14 317.92 478.43 319.98 482.37 327.35 486.13 332.12 492.63 337.76 492.8 341.17 491.94 342.37 491.77 342.54 490.57 345.6 489.87 350.38 491.93 351.58 496.79 352.36 505.5 355.11 515.91 361.52 521.23 363.57 526.04 362.55 530.33 365.8 532.88 371.95 537.14 379.81 541.09 382.55 549.18 387.7 555.68 387.53 564.76 384.12 571.98 376.96 581.3 365.52 599.09 321.76 603.39 305.53 605.67 267.08 608.25 258.25 607.57 253.24 610.15 246.41 614.95 242.14 618.74 236.16 621.15 225.4 617.89 208.28 611.62 193.36 602.64 178.05 589.81 162.74 580.05 155.69 570.47 154.9 566.69 163.22 563.89 168.08 560 173.14 560.29 175.42 562.98 176.02 565.48 171.96 568.27 168.48 569.57 167.39 569.47 169.38 568.67 172.26 564.28 179.1 549.81 191.7 541.74 194.06 532.07 201.9 525.88 209.67 515.5 208.08 503.16 202.4 497.27 203.78 491 201.99 484.72 205.76 477.43 215.28 460.76 215.07 453.39 220.72 446.7 219.12 441.23 220.5 426.38 230.81 420.3 240.92 413.2 240.84 399.19 231.37 399.04 208.65 399.17 202.15 404.65 195.92 407.52 179.7 405.68 170.06 411.21 154.88 413.92 140.79 415.64 130.37 415.63 125.57 420.83 120.98 424.52 105.42 426.14 92.32 430.33 74.74 437.42 67.8 450.61 46.56 456.71 41.56 458.04 38.76 460.67 27.42 460.08 20.37 457.39 14 459.19 11.72 460.69 5.76 463.48 1 469.26 8.77 479.51 15.32 485.38 22.69 491.26 29.24 497.71 33.02 502.16 35.3 509.89 37 528.88 38.72 547.2 48.59 562.39 66.15 569.64 75.37 578.41 81.95 580.18 86.65 584.93 92.53 602.53 103.71 620.02 111.91 638.09 111.94 651.42 107.77 665.8 100.61 677.93 90.35 686.95 81.3 694.19 74.2 699.5 67.39 700.93 69.79 702.27 73.63 699.49 77.07 700.82 82.53 700.14 84.45 696.68 86.84 697.46 89.35 699.33 91.63 698.32 97.66 693.09 104.16 690.8 112.78 687.42 124.93 683.95 134.88 677.67 167.05 675.74 181.98 675.54 187.73 670.09 221.95 671.79 235.03 673.41 240.8 671.78 247.5 671.93 255.29 672.67 261.68 668.46 296.9 669.36 327.37 670.43 352.2 671.67 359.18 677.39 419.33 685.31 471.52 691.67 503.39 706.32 547.32 711.63 558.39 715.71 565.1 728.06 578.99 733.68 582.73 740.56 582.58 745.42 578.07 752.47 576.38 755.38 581.79 758.55 587.91 773.71 599.69 799 628.39 796.16 630.07 758.34 653.87 754.3 660 752.3 666.08 750.98 671.58 748.7 676.6 743.33 681.44 736.2 683.08 724.88 681.67 708.4 676.28 699.97 676.97 689.56 680.26 668.71 689.66 657.29 692.85 647.88 691.42 643.58 687.23 638.85 684.31 633.41 684.15 606.7 696.4 539.21 737.52 511.89 762.8 506.62 765.98 501.38 767 495.65 765.27 489.45 762.42 468.32 748.26 471.6 732.48 471.74 724.42 472.5 717.51 475.95 705.14 477.91 693.96 479.45 688.82 482.04 683.35 484.38 676.77 484.93 669.91 483.14 652.6 480.16 647.25 477.31 643.75 472.96 639.91 474.05 638.45 475.34 635.96 477.24 633.47 478.22 630.28 478.08 627.34 477.45 624.56 476.23 622.03 474.6 619.67 470.13 615.54 463.55 611.44 443.31 603.35 435.03 601.67 421.5 605.8 415.45 611.87 407.89 622.87 401.85 627.48 390.73 632.11 376.68 643.95 370.15 644.07 364.38 644.96 352.38 650.41 346.39 651.72 340.08 651.38 333.14 647.52 328.39 645.53 322.08 643.94 314.2 644.67 307.73 648.18 303.99 651.8 300.95 653.71 293.76 651.24 270.34 632.44 252.76 623.7 250.85 618.43 247.96 613.86 241.98 611.57 231.32 611.91 219.59 615.98 207.03 625.62 194.36 630.57 116.07 629 104.46 625.67 97.64 622.16 89.65 619.85 82.69 621.24 73.44 628.48 68.09 633.73 60.88 638 54.44 637.13 38.06 639.22 37.92 639.24 Z"/>
</g>
</svg>