<?xml version="1.0" encoding="UTF-8" standalone="no"?>
<!-- Created with Inkscape (http://www.inkscape.org/) -->

<svg
   xmlns:svg="http://www.w3.org/2000/svg"
   xmlns="http://www.w3.org/2000/svg"
   version="1.1"
   width="59.999977"
   height="60"
   id="svg4267">
  <defs
     id="defs4269" />
  <g
     transform="translate(-345.00001,-497.04311)"
     id="layer1">
    <g
       id="g4344">
      <g
         id="g4326">
        <path
           d="m 362.28858,502.7387 -0.0546,0.0546 0,0.0546 -0.0546,0.0546 0,0.0546 0,0.0546 0,0.0545 0,0.0546 0,0.0546 0,0.0546 0,0.0545 0,0.0546 0.0546,0.0546 0,0.10911 0.0546,0.0546 0,0.0546 0.0545,0.0546 0,0.0546 0.0546,0.0546 0.0546,0.0546 0.0546,0.0545 0.0545,0.10911 0.0546,0.0546 0.0546,0.0546 0.10911,0.0546 0.0546,0.0546 0.0546,0.0545 0.10911,0.10911 0.0546,0.0546 0.10911,0.0546 0.10911,0.0546 0.10911,0.0546 0.10911,0.10911 c 1.74579,0.70922 1.96402,1.47312 0.65467,2.5092 -0.70922,0.60011 -0.98201,1.0368 -0.92743,1.30968 0.16367,0.16367 0.38188,0.21823 0.60011,0.16367 0.87286,-0.65467 1.69121,-1.0368 2.45498,-1.0908 l 2.29133,0.16367 c 2.01852,-0.491 2.34591,-1.4184 0.98201,-3.00024 -0.98201,-0.60011 -2.29133,-0.98208 -3.81888,-1.14552 -0.491,-0.0546 -1.03658,-0.21823 -1.52755,-0.38189 -1.09109,-0.49101 -1.74579,-0.65467 -1.90944,-0.49101 z"
           id="path165"
           style="font-style:normal;font-variant:normal;font-weight:normal;font-stretch:normal;letter-spacing:normal;word-spacing:normal;text-anchor:start;fill:#000000;stroke:#000000;stroke-width:0;stroke-linecap:butt;stroke-linejoin:miter;stroke-miterlimit:10.43299961;stroke-opacity:1;stroke-dasharray:none;stroke-dashoffset:0" />
        <path
           d="m 366.16201,510.54012 -0.65466,0.27278 -0.65467,0.27277 -0.6001,0.27278 -0.60012,0.27278 -0.6001,0.32732 -0.60011,0.27278 -0.60011,0.27278 -0.54555,0.27277 -0.54555,0.32734 -0.54556,0.27278 -0.54555,0.27277 -0.54555,0.27278 -0.491,0.32733 -0.54556,0.27278 -0.491,0.32733 -0.49099,0.27278 c -0.21823,0.43644 -0.0546,0.70922 0.49099,0.87264 1.25475,-0.10911 3.32784,-0.81864 6.21929,-2.07288 1.52755,-0.491 3.65523,-1.0368 6.32844,-1.52784 0.70922,-0.98208 0.491,-1.63656 -0.76377,-2.01888 -1.03659,-0.32734 -2.12768,-0.27278 -3.21876,0.16366 z"
           id="path171"
           style="font-style:normal;font-variant:normal;font-weight:normal;font-stretch:normal;letter-spacing:normal;word-spacing:normal;text-anchor:start;fill:#000000;stroke:#000000;stroke-width:0;stroke-linecap:butt;stroke-linejoin:miter;stroke-miterlimit:10.43299961;stroke-opacity:1;stroke-dasharray:none;stroke-dashoffset:0" />
        <path
           d="m 365.23457,514.74088 -0.0546,0.0546 0,0.0546 -0.0546,0 0,0.0546 0,0.0546 -0.0546,0.0546 0,0 0,0 0,0.0545 0,0 0,0 0,0.0546 0,0 0,0 0,0.0546 0,0 0,0 0,0.0546 0,0 0,0 0,0.0546 0,0 0,0 0,0 0,0.0546 0.0546,0 0,0 0,0 0,0.0546 0,0 0,0 0.0546,0 0,0.0545 0,0 0,0 0.0546,0 0,0 0,0.0546 0.0546,0 0,0 0,0 0.0545,0 0,0 0.0546,0.0546 0,0 0,0 0.0546,0 0,0 0.0546,0 0,0 0.0545,0 0,0.0545 0.0546,0 0,0 0.0546,0 0.0546,0 0,0 0.0546,0 c 0.81835,0.32733 1.14566,0.81864 0.81835,1.4184 -0.16366,0.98208 -0.87285,2.4552 -2.07309,4.2552 -0.81836,0.92736 -1.25475,1.52784 -1.25475,1.85472 0.16367,0.32733 0.92743,0.0546 2.29133,-0.98208 1.03658,-1.0908 1.96402,-2.1276 2.7823,-3.21912 1.58212,-1.746 1.52755,-3.1644 -0.16367,-4.30992 -0.98201,-0.70922 -1.96402,-0.65467 -2.94603,0.10911 z"
           id="path173"
           style="font-style:normal;font-variant:normal;font-weight:normal;font-stretch:normal;letter-spacing:normal;word-spacing:normal;text-anchor:start;fill:#000000;stroke:#000000;stroke-width:0;stroke-linecap:butt;stroke-linejoin:miter;stroke-miterlimit:10.43299961;stroke-opacity:1;stroke-dasharray:none;stroke-dashoffset:0" />
        <path
           d="m 357.8696,518.83253 -0.27278,0.76392 c -0.81835,2.29104 -0.38188,3.92832 1.30932,4.9644 0.16367,0.0546 0.491,-0.65466 0.92744,-2.07288 0.16367,-0.70922 0.491,-1.4184 1.09108,-2.1276 1.14567,-1.36368 1.58213,-2.1276 1.30932,-2.34576 -0.27277,-0.0546 -0.70922,0.16366 -1.41847,0.76392 -0.65466,0.60011 -1.09109,0.70921 -1.30932,0.54555 -0.0546,-1.20024 -0.38189,-1.96416 -0.87285,-2.23704 -0.16367,-0.10911 -0.43645,0.491 -0.76378,1.746 z"
           id="path175"
           style="font-style:normal;font-variant:normal;font-weight:normal;font-stretch:normal;letter-spacing:normal;word-spacing:normal;text-anchor:start;fill:#000000;stroke:#000000;stroke-width:0;stroke-linecap:butt;stroke-linejoin:miter;stroke-miterlimit:10.43299961;stroke-opacity:1;stroke-dasharray:none;stroke-dashoffset:0" />
        <path
           d="m 368.28967,521.45118 -0.0546,0.0546 -0.0546,0 -0.0546,0 -0.0546,0.0546 -0.0546,0 -0.0546,0.0546 -0.0546,0 -0.0546,0.0546 -0.0546,0 -0.0546,0.0546 -0.0546,0 -0.0546,0.0545 -0.0545,0 -0.0546,0.0546 -0.10911,0.0545 -0.0545,0.0546 -0.0546,0 -0.10911,0.0546 -0.0545,0.0546 -0.10911,0.0546 -0.0546,0 -0.10911,0.0545 -0.0546,0.0546 -0.10911,0.0545 -0.10911,0.0546 -0.0545,0.0545 -0.10911,0.0546 -0.10911,0.0546 -0.10911,0.0546 -0.10912,0.0546 -0.1091,0.0545 -0.10911,0.10911 c -1.41848,0.65467 -2.83688,1.36368 -4.30985,2.18232 -4.20077,2.23704 -7.14672,3.43728 -8.72886,3.65544 -1.41844,0.10911 -2.12765,0.32734 -2.0731,0.60012 1.30933,1.58184 2.78232,2.18232 4.47353,1.8 1.14567,-0.491 2.34591,-1.25496 3.54607,-2.18232 1.20024,-0.54556 1.52756,-0.32734 1.03659,0.65466 -3.32784,5.61888 -4.85539,10.85652 -4.69174,15.87564 0.10911,1.14552 0.38189,1.90944 0.87286,2.34576 0.491,0.32732 0.87285,0.32732 1.14566,-0.16367 0.32734,-0.65466 0.43645,-1.30968 0.38189,-1.90944 0.16366,-4.30992 1.03658,-8.67428 2.56406,-13.0387 0.38189,-0.92736 0.87286,-1.52784 1.47298,-1.85472 0.87286,-0.491 1.74578,-0.87264 2.61864,-1.25496 1.09109,-0.16366 1.80029,0.27278 2.23675,1.20024 0.27278,0.81864 0.43645,1.746 0.43645,2.8368 0,0.87264 -0.16367,1.58184 -0.54556,2.07288 -1.63663,1.746 -2.3459,1.8 -2.07309,0 0.0546,-0.98208 -0.491,-1.90944 -1.58213,-2.67336 -0.21822,-0.10911 -0.27278,0.60011 -0.10911,2.1276 0.0546,1.25496 -0.38189,2.61864 -1.20024,4.30992 -0.38189,0.81864 -0.43644,1.69128 -0.21822,2.5092 0.70922,1.52784 1.41847,1.90944 2.12767,1.14552 0.32732,-1.63656 1.09109,-3.32784 2.29133,-5.07384 0.92743,-1.14552 1.36389,-1.25496 1.36389,-0.27277 -0.0546,1.85472 -0.16366,3.70944 -0.32733,5.51016 -0.16366,1.30968 -0.491,2.18232 -0.98201,2.61864 -0.27277,0.27278 -0.87286,0.38189 -1.85486,0.32733 -0.92744,-0.27278 -1.52756,-0.27278 -1.69121,-0.0545 0.0546,0.16366 0.6001,0.60011 1.69121,1.47312 0.54555,0.21823 1.09108,0.70922 1.63663,1.20024 0.81835,1.0368 1.58213,1.30968 2.40041,0.65467 0.76377,-0.76392 1.25474,-2.1276 1.36389,-4.09176 0.70922,-6.05592 0.491,-11.18383 -0.70922,-15.49368 -1.20024,-2.07288 -2.83687,-2.61864 -4.96454,-1.63656 -1.09109,0.54555 -1.25475,0.38189 -0.54555,-0.491 1.52755,-1.4184 3.49156,-2.8368 5.94655,-4.2552 1.03658,-0.65467 1.47297,-1.20024 1.25474,-1.58184 -0.49099,-0.43644 -1.09109,-0.65467 -1.85486,-0.38189 z"
           id="path177"
           style="font-style:normal;font-variant:normal;font-weight:normal;font-stretch:normal;letter-spacing:normal;word-spacing:normal;text-anchor:start;fill:#000000;stroke:#000000;stroke-width:0;stroke-linecap:butt;stroke-linejoin:miter;stroke-miterlimit:10.43299961;stroke-opacity:1;stroke-dasharray:none;stroke-dashoffset:0" />
      </g>
      <g
         id="g4339">
        <path
           d="m 385.80193,505.35736 1.47298,1.8 c 0.0546,0.65467 -0.21823,1.25496 -0.76378,1.746 -0.38189,0.491 -0.6001,0.81864 -0.65467,1.0368 0.10912,0.16367 0.49101,0.10911 1.20024,-0.16367 0.70923,-0.43644 1.63664,-0.49099 2.67322,-0.21822 1.25474,0.38189 2.12767,0 2.61864,-1.14552 -0.16367,-1.25496 -1.09109,-2.1276 -2.72779,-2.72808 l -2.18225,-0.92736 c -1.03658,-0.65466 -1.69121,-0.98208 -1.96402,-0.92736 -0.21821,0.43645 -0.16366,0.92736 0.32734,1.52784 z"
           id="path167"
           style="font-style:normal;font-variant:normal;font-weight:normal;font-stretch:normal;letter-spacing:normal;word-spacing:normal;text-anchor:start;fill:#000000;stroke:#000000;stroke-width:0;stroke-linecap:butt;stroke-linejoin:miter;stroke-miterlimit:10.43299961;stroke-opacity:1;stroke-dasharray:none;stroke-dashoffset:0" />
        <path
           d="m 376.52753,507.43047 0,0 0,0 0,0.0546 0.0546,0 0,0 0,0.0545 0,0 0,0.0546 0.0546,0 0,0 0,0.0545 0.0546,0 0,0.0546 0.0546,0 0,0.0545 0,0 0.0546,0 0,0.0546 0.0545,0 0,0.0546 0.0546,0 0.0546,0.0545 0,0 0.0546,0.0546 0.0545,0 0,0 0.0546,0.0546 0.0546,0 0,0.0546 0.0546,0 0.0546,0.0546 0.0546,0 c 0.38188,0.491 0.70922,1.14552 0.92743,1.85472 0.32733,2.18232 0.21822,4.36464 -0.27277,6.54696 -0.16367,1.0368 -0.65467,1.85472 -1.58213,2.40048 -2.12767,1.746 -3.7098,2.29104 -4.63723,1.63656 -0.16367,-0.10911 -0.38189,-0.10911 -0.60012,0 -0.10911,0.87264 0.27278,1.47312 1.20024,1.96416 1.3639,0.65466 2.45499,0.6001 3.27334,-0.16367 1.03658,-0.92736 1.52755,-0.92736 1.36389,-0.10911 -0.92743,5.45544 -2.50956,10.47463 -4.85539,15.05729 -0.38189,1.0908 -0.54556,1.69128 -0.43644,1.85472 0.65466,-0.10911 1.52755,-0.92736 2.61864,-2.5092 2.23675,-3.05496 3.87346,-6.54696 4.80089,-10.52921 0.32733,-1.25496 0.54556,-1.63656 0.70922,-1.20024 0.0546,0.27278 0,0.81864 -0.16366,1.52784 -0.98201,2.61864 -1.58213,5.51016 -1.80036,8.72885 -0.38189,2.8368 -0.0546,5.56488 0.982,8.1833 1.20024,2.01888 2.61864,3.21912 4.20077,3.65544 4.36443,1.36368 8.6743,1.0908 12.8205,-0.92736 1.3639,-0.76392 2.0731,-1.746 2.18225,-2.94624 0,-1.58184 -0.491,-3.98232 -1.58213,-7.092 -0.0546,-0.60011 -0.38189,-0.98208 -0.87285,-0.98208 -0.16367,0.10911 -0.16367,0.65466 -0.10912,1.746 0.38189,3.43728 -0.87286,5.89176 -3.81888,7.36495 -1.25474,0.491 -2.67322,0.87264 -4.36442,1.14552 -2.94603,0.32733 -5.1282,-0.491 -6.60118,-2.4552 -0.76378,-1.4184 -1.09109,-2.89152 -0.98201,-4.47336 -0.0546,-2.1276 0.21822,-4.30992 0.81835,-6.60096 0.54556,-2.01888 1.25475,-3.49128 2.01852,-4.36464 0.27278,-0.27277 0.38189,-0.65466 0.491,-1.0908 -0.76377,-1.69128 -1.69121,-2.61864 -2.94602,-2.67336 -0.27278,0 -0.27278,-0.491 -0.10912,-1.52784 l 0.21823,-1.0908 c 0.16366,-1.0908 0.65466,-1.85472 1.47297,-2.23704 2.72779,-0.70922 5.18278,-0.70922 7.31042,-0.10911 0.43644,0.0546 0.87286,-0.10911 1.30932,-0.60011 0.491,-0.81864 0.16366,-1.58184 -1.03658,-2.23704 -1.09109,-0.76392 -2.18225,-0.98208 -3.27334,-0.70922 -1.14566,0.21822 -2.40041,0.60011 -3.70973,1.0908 -0.982,0.38189 -1.41847,0.10911 -1.41847,-0.81864 l 0.32733,-4.36464 c 0.38189,-1.96416 -0.60011,-3.32784 -2.89145,-4.03704 -1.14566,0 -1.74578,0.0546 -1.80036,0.38189 z"
           id="path169"
           style="font-style:normal;font-variant:normal;font-weight:normal;font-stretch:normal;letter-spacing:normal;word-spacing:normal;text-anchor:start;fill:#000000;stroke:#000000;stroke-width:0;stroke-linecap:butt;stroke-linejoin:miter;stroke-miterlimit:10.43299961;stroke-opacity:1;stroke-dasharray:none;stroke-dashoffset:0" />
        <path
           d="m 385.4746,523.03329 0,0 0,0.0546 0,0.0546 0,0.0545 0,0 0.0546,0.0546 0,0.0546 0,0.0546 0,0.0546 0,0 0.0546,0 0,0.0546 0,0 0,0.0546 0,0 0,0.0545 0.0545,0 0,0.0546 0,0.0545 0,0 0.0546,0.0546 0,0 0,0.0545 0,0 c 0.491,1.0908 0.65467,1.746 0.43644,1.90944 -2.3459,1.0368 -2.94602,2.61864 -1.74578,4.74624 0.43644,0.54555 0.65466,0.92736 0.65466,1.0908 -0.0546,0.27278 -0.38188,0.76392 -0.98201,1.47312 -0.76378,1.36368 -0.76378,2.40048 0,3.05496 0.43644,0.491 0.60011,0.87264 0.491,1.20024 -0.10911,0.27277 0.38188,0.54555 1.47297,0.87264 0.76378,-0.16367 1.52755,-0.21822 2.29133,-0.21822 1.96402,-0.27278 2.3459,-1.0368 1.14566,-2.23704 -0.43644,-0.491 -1.14566,-0.491 -2.12767,-0.10911 -0.92743,0.38189 -1.74578,0.27277 -2.3459,-0.16367 -0.54555,-0.54555 -0.54555,-1.0908 -0.0546,-1.8 0.70922,-0.81864 1.47297,-1.20024 2.18225,-1.25496 0.70922,0.16366 1.14566,-0.10911 1.30932,-0.81864 -0.43645,-0.70922 -1.09109,-1.14552 -1.90944,-1.30968 -0.81836,-0.16367 -1.25475,-0.76392 -1.52756,-1.8 0.92744,-1.47312 2.18225,-2.18232 3.76431,-2.18232 0.87285,0 1.47297,-0.32734 1.80036,-1.0368 0.16366,-0.87264 -0.32733,-1.47312 -1.58213,-1.746 -0.92743,0.16366 -1.74578,-0.0545 -2.3459,-0.70922 -0.70922,-0.65466 -1.09109,-0.54556 -1.14567,0.27277 z"
           id="path179"
           style="font-style:normal;font-variant:normal;font-weight:normal;font-stretch:normal;letter-spacing:normal;word-spacing:normal;text-anchor:start;fill:#000000;stroke:#000000;stroke-width:0;stroke-linecap:butt;stroke-linejoin:miter;stroke-miterlimit:10.43299961;stroke-opacity:1;stroke-dasharray:none;stroke-dashoffset:0" />
      </g>
    </g>
  </g>
</svg>
