<?xml version="1.0" encoding="UTF-8" standalone="no"?>
<!-- Created with Inkscape (http://www.inkscape.org/) -->
<svg
   xmlns:dc="http://purl.org/dc/elements/1.1/"
   xmlns:cc="http://web.resource.org/cc/"
   xmlns:rdf="http://www.w3.org/1999/02/22-rdf-syntax-ns#"
   xmlns:svg="http://www.w3.org/2000/svg"
   xmlns="http://www.w3.org/2000/svg"
   xmlns:sodipodi="http://inkscape.sourceforge.net/DTD/sodipodi-0.dtd"
   xmlns:inkscape="http://www.inkscape.org/namespaces/inkscape"
   width="693.828"
   height="220"
   id="svg2"
   sodipodi:version="0.32"
   inkscape:version="0.43"
   version="1.0"
   sodipodi:docbase="/mnt/hdb1/Docs/Weiji/-Yuyanxue/Zhongwen Ziti"
   sodipodi:docname="liuxingti.svg">
  <defs
     id="defs4" />
  <sodipodi:namedview
     id="base"
     pagecolor="#ffffff"
     bordercolor="#666666"
     borderopacity="1.0"
     inkscape:pageopacity="1"
     inkscape:pageshadow="2"
     inkscape:zoom="0.98994949"
     inkscape:cx="409.49712"
     inkscape:cy="165.69573"
     inkscape:document-units="px"
     inkscape:current-layer="layer1"
     inkscape:window-width="1016"
     inkscape:window-height="681"
     inkscape:window-x="0"
     inkscape:window-y="0" />
  <metadata
     id="metadata7">
    <rdf:RDF>
      <cc:Work
         rdf:about="">
        <dc:format>image/svg+xml</dc:format>
        <dc:type
           rdf:resource="http://purl.org/dc/dcmitype/StillImage" />
      </cc:Work>
    </rdf:RDF>
  </metadata>
  <g
     inkscape:label="Layer 1"
     inkscape:groupmode="layer"
     id="layer1">
    <path
       style="font-size:240px;font-style:normal;font-variant:normal;font-weight:normal;font-stretch:normal;text-align:start;line-height:100%;writing-mode:lr-tb;text-anchor:start;fill:#000000;fill-opacity:1;stroke:none;stroke-width:1px;stroke-linecap:butt;stroke-linejoin:miter;stroke-opacity:1;font-family:FZPangTouYu-M24S"
       d="M 207.1875,180 C 212.18727,180.62502 214.99977,183.43751 215.625,188.4375 C 216.87476,195.9375 205.62478,199.6875 181.875,199.6875 C 130.62485,202.81249 108.12487,190.00001 114.375,161.25 C 113.74987,150.62505 112.18737,144.68755 109.6875,143.4375 C 107.81237,141.56255 103.43738,140.62506 96.5625,140.625 C 92.187389,141.25005 88.749893,141.56255 86.25,141.5625 C 73.124908,140.31256 66.249915,134.37506 65.625,123.75 C 65.624916,117.50008 68.124913,109.37509 73.125,99.375 C 75.624906,93.125103 76.874904,89.687606 76.875,89.0625 C 77.499904,83.437613 73.749907,80.937615 65.625,81.5625 C 59.374922,81.562614 55.937425,79.375117 55.3125,75 C 55.312426,72.500123 56.249925,70.312626 58.125,68.4375 C 73.124908,57.187639 100.31238,50.000146 139.6875,46.875 C 155.93733,46.875149 164.37482,52.187644 165,62.8125 C 164.99982,70.937625 160.62482,75.62512 151.875,76.875 C 118.12486,80.625115 101.56238,90.625105 102.1875,106.875 C 102.81238,115.62508 108.74987,120.31258 120,120.9375 C 131.24985,120.31258 136.87484,112.81258 136.875,98.4375 C 136.87484,90.937605 138.43734,87.187609 141.5625,87.1875 C 144.68734,87.187609 146.56233,87.812608 147.1875,89.0625 C 153.43733,97.187599 156.87482,109.06259 157.5,124.6875 C 157.49982,132.18756 154.68733,135.93756 149.0625,135.9375 C 140.31234,134.68756 135.31235,138.75006 134.0625,148.125 C 132.81235,153.12504 132.18735,159.06254 132.1875,165.9375 C 130.31235,184.06251 142.49984,192.5 168.75,191.25 C 176.8748,191.25 186.87479,188.12501 198.75,181.875 C 199.37478,181.87501 199.68728,181.56251 199.6875,180.9375 C 202.18728,180.31252 204.68728,180.00002 207.1875,180 M 87.1875,44.0625 C 74.687407,44.687651 68.437413,42.812653 68.4375,38.4375 C 75.312406,25.93767 94.062387,18.750177 124.6875,16.875 C 140.31234,16.875179 148.74983,20.625175 150,28.125 C 148.74983,35.000161 144.06234,38.750157 135.9375,39.375 C 112.81237,40.625155 96.562385,42.187654 87.1875,44.0625 M 0,81.5625 C -1.875e-05,79.062617 1.5624797,77.500118 4.6875,76.875 C 6.5624747,76.875119 7.8124734,77.812618 8.4375,79.6875 C 14.687467,90.312606 20.93746,96.562599 27.1875,98.4375 C 35.937445,101.56259 39.999941,105.93759 39.375,111.5625 C 39.374942,120.31258 35.624946,124.68757 28.125,124.6875 C 14.374967,120.93757 4.9999762,106.56259 0,81.5625 M 20.625,147.1875 C 23.749957,147.18755 26.249955,150.62505 28.125,157.5 C 31.24995,163.75003 34.687447,169.06253 38.4375,173.4375 C 44.687437,179.68752 47.812433,185.31251 47.8125,190.3125 C 47.187434,195.3125 44.374937,198.125 39.375,198.75 C 26.874954,196.875 19.062462,181.87501 15.9375,153.75 C 15.937465,149.37505 17.499964,147.18755 20.625,147.1875 M 21.5625,27.1875 C 22.187459,23.437673 23.437458,21.562674 25.3125,21.5625 C 27.187454,21.562674 29.062452,23.437673 30.9375,27.1875 C 32.812448,31.562664 36.874944,36.25016 43.125,41.25 C 51.24993,47.500148 54.999926,53.125143 54.375,58.125 C 53.124928,63.750132 49.687432,67.187629 44.0625,68.4375 C 31.56245,64.687631 24.062457,50.937645 21.5625,27.1875 M 72.1875,187.5 C 72.187409,191.875 71.24991,195.625 69.375,198.75 C 67.499914,204.37499 64.374917,206.56249 60,205.3125 C 52.499929,199.0625 54.687427,182.81251 66.5625,156.5625 C 69.687412,149.06255 72.812408,146.25005 75.9375,148.125 C 76.562405,148.75005 76.874904,149.68755 76.875,150.9375 C 73.749907,161.56253 72.187409,173.75002 72.1875,187.5 M 99.375,196.875 C 97.499884,202.49999 94.374887,204.06249 90,201.5625 C 83.124898,195.9375 83.437398,181.56251 90.9375,158.4375 C 90.93739,158.43754 91.24989,157.81254 91.875,156.5625 C 93.749887,151.56254 96.249885,149.68755 99.375,150.9375 C 100.62488,151.56254 100.93738,153.43754 100.3125,156.5625 C 99.062382,172.81252 99.062382,183.75001 100.3125,189.375 C 100.31238,193.125 99.999881,195.625 99.375,196.875 M 397.5,76.875 C 419.3748,77.500118 431.24979,84.375112 433.125,97.5 C 433.12479,103.75009 426.87479,111.56258 414.375,120.9375 C 413.12481,121.56257 412.18731,122.18757 411.5625,122.8125 C 400.31232,133.43756 394.06233,150.93755 392.8125,175.3125 C 392.81233,183.43751 393.74983,189.68751 395.625,194.0625 C 398.74982,198.4375 399.68732,202.18749 398.4375,205.3125 C 397.81232,214.68748 394.37483,219.37498 388.125,219.375 C 382.49984,219.99998 379.68734,212.18748 379.6875,195.9375 C 379.68734,189.06251 379.68734,183.43751 379.6875,179.0625 C 379.68734,177.81252 379.99984,175.93752 380.625,173.4375 C 381.24984,162.81253 381.56234,154.68754 381.5625,149.0625 C 381.56234,135.31256 379.68734,126.56257 375.9375,122.8125 C 367.18735,114.68758 354.68737,113.43758 338.4375,119.0625 C 337.81238,119.06258 337.18738,119.37508 336.5625,120 C 330.93739,121.25007 327.18739,121.87507 325.3125,121.875 C 316.5624,121.87507 312.49991,119.06258 313.125,113.4375 C 313.12491,109.68759 314.68741,105.93759 317.8125,102.1875 C 337.18738,86.562609 363.74986,78.125118 397.5,76.875 M 303.75,64.6875 C 313.74991,65.312631 319.3749,70.312626 320.625,79.6875 C 320.6249,85.312611 317.8124,91.875104 312.1875,99.375 C 304.68742,108.12509 300.62492,115.93758 300,122.8125 C 298.12492,128.43757 297.81242,142.50005 299.0625,165 C 299.06242,166.25003 299.06242,167.81253 299.0625,169.6875 C 299.68742,182.81251 298.12492,190.9375 294.375,194.0625 C 291.87493,195.9375 288.74993,196.875 285,196.875 C 277.49994,198.75 274.06245,191.875 274.6875,176.25 L 274.6875,162.1875 C 275.93745,148.43755 273.74995,143.12505 268.125,146.25 C 263.74996,149.37505 260.93746,155.62504 259.6875,165 C 257.81246,173.12502 254.99997,177.18752 251.25,177.1875 C 246.87497,176.56252 244.68748,174.37502 244.6875,170.625 C 250.31247,140.62506 265.31246,107.81259 289.6875,72.1875 C 295.93743,67.187629 300.62492,64.687631 303.75,64.6875 M 391.875,28.125 C 411.87481,28.125168 421.8748,35.000161 421.875,48.75 C 421.8748,57.500138 414.37481,61.562634 399.375,60.9375 C 381.87484,59.687636 367.49985,60.625135 356.25,63.75 C 354.99987,63.750132 353.74987,64.062632 352.5,64.6875 C 350.62487,65.312631 348.43737,65.62513 345.9375,65.625 C 338.43738,65.000131 334.68739,61.875134 334.6875,56.25 C 340.93738,40.000156 359.99986,30.625165 391.875,28.125 M 301.875,20.625 C 311.24991,20.625175 315.62491,23.750172 315,30 C 315.62491,37.500158 309.99991,45.93765 298.125,55.3125 C 287.49993,63.437633 279.99994,70.937625 275.625,77.8125 C 268.74995,87.812608 263.74996,92.500103 260.625,91.875 C 256.24996,91.875104 254.06247,89.375107 254.0625,84.375 C 259.06246,65.62513 269.37495,47.187649 285,29.0625 C 290.62493,23.437673 296.24993,20.625175 301.875,20.625 M 593.4375,22.5 C 596.56236,7.5001884 602.18736,0.31269562 610.3125,0.9375 C 619.06234,1.5626944 624.68734,8.7501872 627.1875,22.5 C 627.18733,23.125173 627.49983,23.750172 628.125,24.375 C 628.74983,30.000166 631.56233,33.125163 636.5625,33.75 C 648.43731,36.875159 654.37481,42.187654 654.375,49.6875 C 654.37481,60.312636 646.87481,67.500128 631.875,71.25 C 625.62484,71.875124 623.74984,77.187619 626.25,87.1875 C 629.37483,105.93759 637.81232,124.37507 651.5625,142.5 C 664.6873,159.37504 675.62479,167.81253 684.375,167.8125 C 691.24977,168.43753 694.37477,171.87502 693.75,178.125 C 692.49977,185.00001 687.49977,186.25001 678.75,181.875 C 674.99979,179.37502 668.43729,173.75002 659.0625,165 C 655.31231,161.87503 652.81231,159.68754 651.5625,158.4375 C 644.68732,151.56254 638.74982,148.75005 633.75,150 C 624.99984,150.62505 618.12484,155.00004 613.125,163.125 C 606.87485,176.25002 606.24986,190.00001 611.25,204.375 C 614.99985,212.49998 614.37485,217.81248 609.375,220.3125 C 600.62486,223.43747 595.93737,217.49998 595.3125,202.5 C 595.31237,196.25 595.31237,187.81251 595.3125,177.1875 C 595.31237,164.68753 591.87487,158.43754 585,158.4375 C 570.62489,159.06254 564.3749,156.87504 566.25,151.875 C 566.2499,145.62505 571.24989,139.68756 581.25,134.0625 C 590.62487,130.31257 594.99987,122.50007 594.375,110.625 C 595.62487,104.37509 595.62487,97.812598 594.375,90.9375 C 594.99987,79.062617 588.74987,73.750122 575.625,75 C 559.9999,76.25012 551.87491,73.437622 551.25,66.5625 C 549.99991,58.437638 558.7499,49.687646 577.5,40.3125 C 588.12487,35.312661 593.43737,29.375167 593.4375,22.5 M 548.4375,58.125 C 546.56241,62.500133 542.81242,69.687626 537.1875,79.6875 C 535.93743,82.812613 534.99993,84.687611 534.375,85.3125 C 534.37493,85.93761 534.06243,86.562609 533.4375,87.1875 C 527.81243,95.9376 524.37494,104.68759 523.125,113.4375 C 520.62494,127.18757 520.31244,142.50005 522.1875,159.375 C 524.68744,176.87502 521.87494,186.25001 513.75,187.5 C 508.74995,186.87501 505.93746,182.18751 505.3125,173.4375 C 505.31246,164.06253 505.31246,156.25004 505.3125,150 C 504.68746,143.12505 502.49996,141.25005 498.75,144.375 C 495.62497,146.25005 492.49997,146.87505 489.375,146.25 C 486.24998,144.37505 484.99998,140.00006 485.625,133.125 C 491.87497,96.2501 502.49996,63.125133 517.5,33.75 C 523.12494,25.000171 531.24993,22.812673 541.875,27.1875 C 552.49991,31.562664 554.68741,41.875154 548.4375,58.125 M 585,106.875 C 571.24989,125.62507 560.6249,147.50005 553.125,172.5 C 549.99991,180.00002 545.62492,183.75001 540,183.75 C 536.87492,181.87501 535.93743,176.56252 537.1875,167.8125 C 541.56242,139.68756 551.24991,112.81258 566.25,87.1875 C 573.12489,80.312616 579.68738,79.687616 585.9375,85.3125 C 589.68737,90.937605 589.37487,98.125098 585,106.875 M 615.9375,104.0625 C 614.68735,104.06259 613.43735,107.81259 612.1875,115.3125 C 612.18735,122.18757 613.74985,126.25007 616.875,127.5 C 619.99984,126.87507 621.56234,123.75007 621.5625,118.125 C 621.56234,109.37509 619.68734,104.68759 615.9375,104.0625"
       id="text1335" />
  </g>
</svg>
