<?xml version="1.0" encoding="UTF-8" standalone="no"?>
<!-- Created with Inkscape (http://www.inkscape.org/) -->

<svg
   xmlns:svg="http://www.w3.org/2000/svg"
   xmlns="http://www.w3.org/2000/svg"
   version="1.1"
   width="400"
   height="400"
   id="svg2">
  <defs
     id="defs8408" />
  <path
     d="M 328,27 321.234,42 294,86 c -4.784,-5.0028 0.659,-13.6652 3.259,-19 7.91,-16.2293 16.363,-29.4515 30.741,-40 z m -59,110 -13,-6 c 9.709,-13.555 24.371,-40.3611 19.566,-58 -2.201,-8.08 -15.977,-7.5106 -15.167,-15.0046 1.008,-9.3263 15.546,-23.9837 21.782,-30.956 3.737,-4.1786 9.242,-10.8083 4.216,-16.6057 C 284.14,7.83084 279.956,7.8808 277,6.44751 273.026,4.52103 269.711,2.38937 265.059,3.1489 259.294,4.09012 261.823,20.5661 259.996,26 c -3.928,11.6824 -22.424,38.8937 -6.707,47.9722 2.92,1.6866 7.415,1.4158 10.711,2.0278 -6.714,21.1352 -18.032,39.086 -27.012,59 -2.083,4.619 -0.375,14.558 3,18.396 6.009,6.835 17.51,-16.348 22.409,-5.244 4.829,10.948 -9.177,23.649 -7.79,34.833 0.495,3.989 9.121,12.438 12.393,15.015 1.823,-5.751 0.764,-10.191 1.349,-15.91 1.05,-10.273 3.976,-20.753 5.369,-31.09 2.247,-16.68 2.182,-32.973 13.93,-46.848 5.872,-6.9351 8.975,5.041 14.894,1.14 7.692,-5.069 14.144,-13.4653 21.457,-19.2889 2.106,-1.6765 5.404,-5.4606 8.286,-5.5455 9.123,-0.2689 9.392,13.8518 10.139,19.5424 2.296,17.472 3.413,36.479 1.746,54 -0.496,5.212 0.779,11.025 -1.175,16 -3.63,9.237 -13.926,12.672 -17.995,21 l 22,7 c 8.803,-21.463 7.039,-47.172 6.039,-70 -0.42,-9.606 0.815,-19.435 -0.213,-29 -0.594,-5.5304 -2.549,-13.5283 -6.464,-17.6829 -2.182,-2.3153 -9.139,-2.7916 -7.866,-7.2284 C 342.376,60.5694 365.139,61.7099 375,62 c 0.794,-3.8486 3.297,-9.7698 1.396,-13.5663 C 373.636,42.924 359.15,46.3746 355,48.3271 336.354,57.0996 322.732,77.65 304,85 311.432,63.2291 327.287,47.6218 338.525,28 341.708,22.4424 351.134,13.2754 347.731,6.10495 344.9,0.141998 339.598,2.62952 336,6.02313 328.245,13.3376 320.694,21.7526 314.015,30.0185 299.294,48.238 293.892,69.9377 285.791,91 279.971,106.13 272.64,121.122 269,137 z"
     id="path17437"
     style="fill:#000000;fill-opacity:1;stroke:none" />
  <g
     id="g12130">
    <path
       d="M 27,77 C 50.731,73.4428 62.0326,50.5094 79,37 77.5314,32.6919 71.0163,23.9209 65.3179,26.3572 62.1891,27.695 59.8523,39.6703 57.7708,43 49.3205,56.5178 36.7179,64.9493 27,77 z"
       id="path202"
       style="fill:#000000;stroke:none" />
    <path
       d="m 98,48 c 3.119,6.323 10.412,7.425 17,6.8295 C 129.651,53.505 145.188,51.1483 159,46 157.338,40.4005 150.71,37.6011 145,38.4159 129.176,40.6737 114.277,47.301 98,48 z"
       id="path442"
       style="fill:#000000;stroke:none" />
    <path
       d="m 59,72 c -5.733,30.428 -35.1572,43.116 -52,66 17.5463,-1.797 30.5337,-19.516 44,-29 0.8054,10.205 1.9277,20.751 0.7145,31 -1.0128,8.556 -6.9483,19.734 -5.1821,28 2.0947,9.803 9.7827,18.494 12.9506,4 3.6914,-16.889 3.542,-38.752 3.6628,-56 0.0356,-5.076 -6.2507,-9.132 -5.0686,-14 C 60.0653,93.8115 76.3888,88.3998 75.534,80.0394 74.8654,73.5009 63.9755,72.106 59,72 z"
       id="path1486"
       style="fill:#000000;stroke:none" />
    <path
       d="m 76,91 c 7.4757,13.619 28.433,4.2767 40,2.0008 3.128,-0.6155 8.601,-2.5946 11.581,-0.8835 4.533,2.6022 4.118,12.3967 4.701,16.8827 1.841,14.18 2.006,30.812 0.142,45 -0.57,4.344 0.467,11.095 -3.127,14.382 -4.23,3.868 -15.199,-2.934 -20.297,-3.382 2.262,4.85 6.282,8.202 9.985,12 3.235,3.318 7.265,11.027 12.054,12.029 7.24,1.516 11.659,-9.678 12.521,-15.029 3.029,-18.802 -0.56,-39.072 -0.56,-58 0,-7.915 4.388,-20.7739 -1,-27 12.02,-2.2315 23.953,-1.004 36,-2.1698 2.725,-0.2637 10.517,-0.4565 11.079,-4.0933 C 190.58,73.0228 169.836,73.9959 165,74.9969 135.494,81.1042 105.911,87.2 76,91 z"
       id="path1530"
       style="fill:#000000;stroke:none" />
  </g>
  <g
     id="g17270">
    <path
       d="m 296,317 c 3.196,5.331 -3.468,8.816 -8,10 l 8,-10 z m 21.015,-91.346 c 13.249,-4.196 6.613,17.154 -2.995,19.228 -8.833,1.907 -3.948,-17.03 2.995,-19.228 z M 292,201 c 4.619,9.743 10.06,27.09 -9,23 4.081,9.272 18.73,11.278 15.682,22.961 -3.42,13.11 -32.218,17.42 -42.682,22.928 -4.217,2.22 -9.976,6.913 -15,6.603 -3.958,-0.244 -6.738,-4.625 -10,-6.492 0.385,4.381 2.044,13.42 7.213,14.642 4.915,1.162 11.277,-3.404 15.787,-4.985 14.952,-5.245 28.592,-13.451 44,-17.657 0.972,16.682 -5.705,16.92 -19,24 4.96,8.994 16.383,-3.805 19.382,3.232 4.996,11.725 -13.015,14.304 -19.323,17.684 -5.316,2.849 -2.625,6.759 1.941,8.084 l 1,-3 2,0 c 0.852,9.552 -12.706,16.29 -17.914,22.584 -3.575,4.32 -2.713,11.341 -2.086,16.416 L 306,327.184 340,317 c -6.525,-12.122 -24.329,0.578 -34,1 0.01,-12.864 9.312,-11.491 14,-21 -2.303,-0.801 -4.827,-1.32 -6.998,-2.454 -18.996,-9.92 9.894,-14.644 12.912,-19.844 4.952,-8.534 -15.715,-2.598 -17.914,-1.702 0.061,-7.317 -0.555,-16.263 8,-18 l -4,10 c 11.192,-1.765 14.72,-12.564 24.004,-16.387 12.015,-4.947 23.832,-0.714 35.996,-0.613 -0.785,-17.133 -16.517,-14.421 -29,-12 -5.11,-17.875 -15.854,-27.732 -34,-19 -3.622,-8.828 -6.429,-15.882 -17,-16 z"
       id="path6442"
       style="fill:#000000;fill-opacity:1;stroke:none" />
    <path
       d="m 303,363 c 3.438,-6.77 12.058,-10.858 19,-13.301 2.71,-0.954 7.687,-2.877 9.396,0.62 C 337.74,363.3 314.935,377.411 307,383 c 3.932,-9.187 4.615,-13.376 -4,-20 z m -26,19 c 10.986,-2.223 13.581,-19.912 25,-13 l 0,1 c -6.208,8.194 -1.146,21.189 7.001,25.687 2.542,1.403 7.526,4.483 10.381,2.27 2.965,-2.298 -0.275,-7.48 2.225,-10.462 2.073,-2.472 5.614,-3.506 7.928,-5.824 9.399,-9.416 22.818,-32.634 2.465,-38.033 -15.669,-4.156 -31.491,9.425 -44,16.362 l 5,-19 c -13.86,7.086 -17.712,27.553 -16,41 z"
       id="path7316"
       style="fill:#000000;fill-opacity:1;stroke:none" />
  </g>
  <g
     id="g17303">
    <path
       d="m 122,261 c 2.354,11.211 -10.566,11.169 -18,13 l 0,-11 18,-2 z m -18,-7 c 0,-14.762 9.049,-14 22,-14 -0.002,14.312 -9.407,13.459 -22,14 z m -12,-17 -36,4 c 6.353,11.572 25.6831,3.443 36,3 L 90.3966,255.258 73,258.166 25,264 l 0,2 c 18.477,7.68 47.6174,1.627 67,-3 l 0,14 -33,4 c 6.2015,10.898 23.2439,3.201 33,3 l 0,13 -30,5 0,2 c 9.6652,3.064 20.2005,2.34 30,0 l 0,12 -59,6 c 6.0202,10.607 21.3481,6.001 31,4.845 20.1883,-2.417 40.677,-5.332 61,-5.83 12.292,-0.301 29.658,1.771 41,-3.015 -2.81,-5.75 -8.664,-8.721 -15,-8.956 -15.397,-0.572 -33.841,3.142 -49,5.956 l 0,-13 c 10.419,-0.029 24.372,-0.936 34,-5 l 0,-2 c -11.159,-5.849 -22.328,-0.929 -34,0 l 1,-13 31,-3 1,-19 c 13.458,-0.578 34.926,1.81 47,-4 -9.642,-13.367 -29.139,-8.309 -43,-5 2.184,-3.553 5.271,-7.149 6.842,-11 2.296,-5.628 -3.362,-9.195 -7.842,-11.12 -11.118,-4.777 -21.971,3.497 -33,5.12 0.362,-4.392 4.049,-10.818 1.954,-14.895 C 104.87,215.051 90.5653,207.537 87.3117,213.518 85.7192,216.445 91.0259,232.91 92,237 z"
       id="path5032"
       style="fill:#000000;fill-opacity:1;stroke:none" />
    <path
       d="m 129,359 -2,14 c -16.919,-3.141 -37.0102,2.853 -54,5 l -2,-14 c 17.7318,1.399 40.811,0.092 58,-5 z M 70,358 70.0316,346.742 90,342.576 l 28,-3.291 11.397,1.457 L 131,353 c -18.767,-3.872 -42.1285,1.496 -61,5 z M 52,339 c 1.93,4.22 5.3013,7.526 6.7762,12 3.3934,10.293 2.7458,21.615 5.767,31.996 1.3665,4.695 5.5533,8.171 7.4568,2.004 l 34,-2.166 14.61,-0.061 L 127,394 c 15.154,-5.155 14.319,-27.884 16.587,-41 0.709,-4.096 4.053,-9.009 3.82,-12.996 -0.225,-3.853 -4.419,-6.416 -7.407,-8.124 -8.04,-4.593 -16.498,-0.624 -25,0.696 -14.255,2.211 -28.6641,3.723 -43,5.258 -6.5251,0.699 -13.8101,-0.647 -20,1.166 z"
       id="path7628"
       style="fill:#000000;fill-opacity:1;stroke:none" />
  </g>
</svg>
