<?xml version="1.0" encoding="UTF-8"?><svg id="d" xmlns="http://www.w3.org/2000/svg" viewBox="0 0 113 220"><path d="M110.17,93.71s-8.34-.3-9.48-.54-5.8-.66-6.28-.12c0,0,.44-43.61,.6-47.56s1.21-36.16,1.37-37.69c0,0-5.48-1.69-14.58-1.29-9.1,.4-26.42,.81-28.35,.73,0,0-20.86,32.05-26.82,42.12S2.8,91.39,1.99,92.28c0,0-1.13,26.09,2.26,33.18,0,0-1.37,1.93,14.58,2.09s31.57,.08,34.87-.56c0,0-1.45,21.26-1.81,26.09-.36,4.83-.97,18,.36,19.33,0,0,25.97,.12,29.72,0,3.74-.12,8.94-1.21,9.54-2.66,.6-1.45,2.9-35.03,3.02-36.24,.12-1.21-.12-3.02-.6-3.26,0,0,6.52-.22,9.32,.28,2.8,.5,5.62,.14,5.62,.14,0,0,1.37-34.91,1.31-36.97Zm-51.4,.42c-2.17,.24-21.42-.72-21.42-.72,2.26-.16,8.3-13.21,9.99-16.75,1.69-3.54,13.13-26.9,13.13-26.9,.24,3.3-1.69,44.38-1.69,44.38Z"/></svg>